<svg width="608" height="149" viewBox="0 0 608 149" fill="none" xmlns="http://www.w3.org/2000/svg">
<path d="M29.24 56.24C35.72 56.24 45.44 51.92 38.48 44L55.04 44.12C55.04 75.2 0.199951 75.56 0.199951 36.8C0.199951 18.32 18.68 3.43997 46.52 3.43997C70.28 3.43997 101.48 12.08 118.28 12.08C125.6 12.08 129.8 10.52 132.56 3.67997L143.12 13.16C138.44 19.4 129.44 22.88 118.28 22.88C104.24 22.88 89.4799 19.04 72.92 16.52V117.2C72.92 123.56 73.52 128.6 76.04 133.76H57.8C60.32 128.6 60.92 123.56 60.92 117.2V14.96C56.24 14.48 51.44 14.24 46.52 14.24C25.76 14.24 13.4 24.32 13.4 36.8C13.4 50.48 21.56 56.24 29.24 56.24Z" fill="#2C4D7A"/>
<path d="M83.6656 116C86.1856 110.84 86.7856 105.8 86.7856 99.44V48.56C86.7856 42.2 86.1856 37.16 83.6656 32H101.906C99.3856 37.16 98.7856 42.2 98.7856 48.56V99.44C98.7856 105.8 99.3856 110.84 101.906 116H83.6656Z" fill="#2C4D7A"/>
<path d="M132.672 116L118.272 56.72V116H106.752C109.272 110.84 109.872 105.8 109.872 99.44V48.56C109.872 42.2 109.272 37.16 106.752 32H123.552L139.152 96.2V32H150.672C148.152 37.16 147.552 42.2 147.552 48.56V99.44C147.552 105.8 148.152 110.84 150.672 116H132.672Z" fill="#2C4D7A"/>
<path d="M159.342 43.52C157.902 39.32 157.902 35.6 154.302 32H171.702C170.622 35.12 169.782 38.24 170.862 41.84L178.782 70.4L187.302 38.6C188.022 36.08 187.302 34.04 186.102 32H199.902C196.062 37.16 196.302 42.32 194.382 48.44L184.182 83.12V99.44C184.182 105.8 184.782 110.84 187.302 116H169.062C171.582 110.84 172.182 105.8 172.182 99.44V84.08L159.342 43.52Z" fill="#2C4D7A"/>
<path d="M251.715 37.16C251.715 10.28 269.475 -5.80003 298.395 3.67997L294.795 18.8C289.755 13.04 282.195 12.08 278.595 12.08C268.035 12.08 263.715 20.6 263.715 33.8V99.44C263.715 105.8 264.315 110.84 266.835 116H248.595C251.115 110.84 251.715 105.8 251.715 99.44V69.8L235.395 79.52C233.355 109.76 230.835 142.4 256.755 135.8V148.76C219.435 152.24 221.235 106.04 222.915 81.44L225.195 48.56C225.555 42.2 224.715 37.16 222.195 32H240.555C238.035 37.16 237.675 42.2 237.195 48.56L235.755 71.72L251.715 62.36V37.16Z" fill="#2C4D7A"/>
<path d="M271.634 116C274.154 110.84 274.754 105.8 274.754 99.44V48.56C274.754 42.2 274.154 37.16 271.634 32H289.874C287.354 37.16 286.754 42.2 286.754 48.56V99.44C286.754 105.8 287.354 110.84 289.874 116H271.634Z" fill="#2C4D7A"/>
<path d="M294.72 116C297.24 110.84 297.84 105.8 297.84 99.44V48.56C297.84 42.2 297.24 37.16 294.72 32H315.36C327.72 32 336.48 39.92 336.48 58.04C336.48 77 328.08 84.92 309.84 85.28V99.44C309.84 105.8 310.44 110.84 312.96 116H294.72ZM309.84 76.64C321.12 74.24 324.24 71.12 324.24 57.2C324.24 45.44 321.12 43.04 316.2 41.72C314.4 41.48 312.72 41.24 309.84 40.76V76.64Z" fill="#2C4D7A"/>
<path d="M339.486 116C342.006 110.84 342.606 105.8 342.606 99.44V48.56C342.606 42.2 342.006 37.16 339.486 32H360.126C372.486 32 381.246 39.92 381.246 58.04C381.246 77 372.846 84.92 354.606 85.28V99.44C354.606 105.8 355.206 110.84 357.726 116H339.486ZM354.606 76.64C365.886 74.24 369.006 71.12 369.006 57.2C369.006 45.44 365.886 43.04 360.966 41.72C359.166 41.48 357.486 41.24 354.606 40.76V76.64Z" fill="#2C4D7A"/>
<path d="M405.223 96.32C388.543 96.32 384.823 83.72 384.823 63.2C384.823 42.68 388.543 30.2 405.223 30.2C422.023 30.2 425.743 42.68 425.743 63.2C425.743 83.72 422.023 96.32 405.223 96.32ZM397.303 63.2C397.303 79.64 398.623 86.12 405.223 86.12C411.943 86.12 413.263 79.64 413.263 63.2C413.263 46.76 411.943 40.4 405.223 40.4C398.623 40.4 397.303 46.76 397.303 63.2ZM397.423 110.24C397.423 105.92 400.903 102.44 405.223 102.44C409.543 102.44 413.023 105.92 413.023 110.24C413.023 114.56 409.543 118.04 405.223 118.04C400.903 118.04 397.423 114.56 397.423 110.24Z" fill="#2C4D7A"/>
<path d="M447.115 118.04C441.355 118.04 435.955 114.68 430.915 117.2L431.035 98.36C443.035 111.92 452.155 107.24 452.155 96.8C452.155 77.72 429.355 72.56 429.355 49.4C429.355 36.68 438.475 30.08 447.355 30.08C451.795 30.08 454.675 30.68 458.635 32V47.6C453.955 37.76 441.835 39.56 441.835 50C441.835 66.8 464.635 72.56 464.635 95.84C464.635 109.04 455.995 118.04 447.115 118.04Z" fill="#2C4D7A"/>
<path d="M486.908 116C489.428 110.84 490.028 105.8 490.028 99.44V48.56C490.028 42.2 489.428 37.16 486.908 32H520.628L523.028 44.6C517.868 42.08 512.828 42.08 504.068 41.12L502.028 40.76V66.32H503.588C509.948 66.32 514.988 65.72 520.148 63.2V77.84C514.988 75.32 509.948 74.72 503.588 74.72H502.028V99.44C502.028 105.8 502.628 110.84 505.148 116H486.908Z" fill="#2C4D7A"/>
<path d="M529.686 118.04C525.366 118.04 521.886 114.56 521.886 110.24C521.886 105.92 525.366 102.44 529.686 102.44C534.006 102.44 537.486 105.92 537.486 110.24C537.486 114.56 534.006 118.04 529.686 118.04Z" fill="#2C4D7A"/>
<path d="M565.681 117.92C549.001 117.92 545.281 105.32 545.281 74C545.281 42.68 549.001 30.2 565.681 30.2C575.761 30.2 583.561 34.64 583.681 56.24L573.361 63.08C573.721 44.24 570.481 41 565.681 41C559.081 41 557.761 47.36 557.761 74C557.761 100.64 559.081 107.12 565.681 107.12C570.241 107.12 573.481 104.12 573.121 87.92L583.321 94.76C583.081 112.76 576.481 117.92 565.681 117.92Z" fill="#2C4D7A"/>
<path d="M599.295 118.04C594.975 118.04 591.495 114.56 591.495 110.24C591.495 105.92 594.975 102.44 599.295 102.44C603.615 102.44 607.095 105.92 607.095 110.24C607.095 114.56 603.615 118.04 599.295 118.04Z" fill="#2C4D7A"/>
</svg>
