<svg width="960" height="6" viewBox="0 0 960 6" fill="none" xmlns="http://www.w3.org/2000/svg">
<g clip-path="url(#clip0_864_493)">
<g clip-path="url(#clip1_864_493)">
<path d="M8 5.5C8.27614 5.5 8.5 5.27614 8.5 5C8.5 4.72386 8.27614 4.5 8 4.5V5.5ZM4.5 1C4.5 0.723858 4.27614 0.5 4 0.5C3.72386 0.5 3.5 0.723858 3.5 1H4.5ZM-3.5 1C-3.5 0.723858 -3.72386 0.5 -4 0.5C-4.27614 0.5 -4.5 0.723858 -4.5 1H-3.5ZM-8 4.5C-8.27614 4.5 -8.5 4.72386 -8.5 5C-8.5 5.27614 -8.27614 5.5 -8 5.5V4.5ZM24 5.5C24.2761 5.5 24.5 5.27614 24.5 5C24.5 4.72386 24.2761 4.5 24 4.5V5.5ZM20.5 1C20.5 0.723858 20.2761 0.5 20 0.5C19.7239 0.5 19.5 0.723858 19.5 1H20.5ZM12.5 1C12.5 0.723858 12.2761 0.5 12 0.5C11.7239 0.5 11.5 0.723858 11.5 1H12.5ZM8 4.5C7.72386 4.5 7.5 4.72386 7.5 5C7.5 5.27614 7.72386 5.5 8 5.5V4.5ZM8 4.5C6.067 4.5 4.5 2.933 4.5 1H3.5C3.5 3.48528 5.51472 5.5 8 5.5V4.5ZM3.5 1C3.5 2.933 1.933 4.5 0 4.5V5.5C2.48528 5.5 4.5 3.48528 4.5 1H3.5ZM0 4.5C-1.933 4.5 -3.5 2.933 -3.5 1H-4.5C-4.5 3.48528 -2.48528 5.5 0 5.5V4.5ZM-4.5 1C-4.5 2.933 -6.067 4.5 -8 4.5V5.5C-5.51472 5.5 -3.5 3.48528 -3.5 1H-4.5ZM24 4.5C22.067 4.5 20.5 2.933 20.5 1H19.5C19.5 3.48528 21.5147 5.5 24 5.5V4.5ZM19.5 1C19.5 2.933 17.933 4.5 16 4.5V5.5C18.4853 5.5 20.5 3.48528 20.5 1H19.5ZM16 4.5C14.067 4.5 12.5 2.933 12.5 1H11.5C11.5 3.48528 13.5147 5.5 16 5.5V4.5ZM11.5 1C11.5 2.933 9.933 4.5 8 4.5V5.5C10.4853 5.5 12.5 3.48528 12.5 1H11.5Z" fill="#737679"/>
</g>
<g clip-path="url(#clip2_864_493)">
<path d="M24 5.5C24.2761 5.5 24.5 5.27614 24.5 5C24.5 4.72386 24.2761 4.5 24 4.5V5.5ZM20.5 1C20.5 0.723858 20.2761 0.5 20 0.5C19.7239 0.5 19.5 0.723858 19.5 1H20.5ZM12.5 1C12.5 0.723858 12.2761 0.5 12 0.5C11.7239 0.5 11.5 0.723858 11.5 1H12.5ZM8 4.5C7.72386 4.5 7.5 4.72386 7.5 5C7.5 5.27614 7.72386 5.5 8 5.5V4.5ZM40 5.5C40.2761 5.5 40.5 5.27614 40.5 5C40.5 4.72386 40.2761 4.5 40 4.5V5.5ZM36.5 1C36.5 0.723858 36.2761 0.5 36 0.5C35.7239 0.5 35.5 0.723858 35.5 1H36.5ZM28.5 1C28.5 0.723858 28.2761 0.5 28 0.5C27.7239 0.5 27.5 0.723858 27.5 1H28.5ZM24 4.5C23.7239 4.5 23.5 4.72386 23.5 5C23.5 5.27614 23.7239 5.5 24 5.5V4.5ZM24 4.5C22.067 4.5 20.5 2.933 20.5 1H19.5C19.5 3.48528 21.5147 5.5 24 5.5V4.5ZM19.5 1C19.5 2.933 17.933 4.5 16 4.5V5.5C18.4853 5.5 20.5 3.48528 20.5 1H19.5ZM16 4.5C14.067 4.5 12.5 2.933 12.5 1H11.5C11.5 3.48528 13.5147 5.5 16 5.5V4.5ZM11.5 1C11.5 2.933 9.933 4.5 8 4.5V5.5C10.4853 5.5 12.5 3.48528 12.5 1H11.5ZM40 4.5C38.067 4.5 36.5 2.933 36.5 1H35.5C35.5 3.48528 37.5147 5.5 40 5.5V4.5ZM35.5 1C35.5 2.933 33.933 4.5 32 4.5V5.5C34.4853 5.5 36.5 3.48528 36.5 1H35.5ZM32 4.5C30.067 4.5 28.5 2.933 28.5 1H27.5C27.5 3.48528 29.5147 5.5 32 5.5V4.5ZM27.5 1C27.5 2.933 25.933 4.5 24 4.5V5.5C26.4853 5.5 28.5 3.48528 28.5 1H27.5Z" fill="#737679"/>
</g>
<g clip-path="url(#clip3_864_493)">
<path d="M40 5.5C40.2761 5.5 40.5 5.27614 40.5 5C40.5 4.72386 40.2761 4.5 40 4.5V5.5ZM36.5 1C36.5 0.723858 36.2761 0.5 36 0.5C35.7239 0.5 35.5 0.723858 35.5 1H36.5ZM28.5 1C28.5 0.723858 28.2761 0.5 28 0.5C27.7239 0.5 27.5 0.723858 27.5 1H28.5ZM24 4.5C23.7239 4.5 23.5 4.72386 23.5 5C23.5 5.27614 23.7239 5.5 24 5.5V4.5ZM56 5.5C56.2761 5.5 56.5 5.27614 56.5 5C56.5 4.72386 56.2761 4.5 56 4.5V5.5ZM52.5 1C52.5 0.723858 52.2761 0.5 52 0.5C51.7239 0.5 51.5 0.723858 51.5 1H52.5ZM44.5 1C44.5 0.723858 44.2761 0.5 44 0.5C43.7239 0.5 43.5 0.723858 43.5 1H44.5ZM40 4.5C39.7239 4.5 39.5 4.72386 39.5 5C39.5 5.27614 39.7239 5.5 40 5.5V4.5ZM40 4.5C38.067 4.5 36.5 2.933 36.5 1H35.5C35.5 3.48528 37.5147 5.5 40 5.5V4.5ZM35.5 1C35.5 2.933 33.933 4.5 32 4.5V5.5C34.4853 5.5 36.5 3.48528 36.5 1H35.5ZM32 4.5C30.067 4.5 28.5 2.933 28.5 1H27.5C27.5 3.48528 29.5147 5.5 32 5.5V4.5ZM27.5 1C27.5 2.933 25.933 4.5 24 4.5V5.5C26.4853 5.5 28.5 3.48528 28.5 1H27.5ZM56 4.5C54.067 4.5 52.5 2.933 52.5 1H51.5C51.5 3.48528 53.5147 5.5 56 5.5V4.5ZM51.5 1C51.5 2.933 49.933 4.5 48 4.5V5.5C50.4853 5.5 52.5 3.48528 52.5 1H51.5ZM48 4.5C46.067 4.5 44.5 2.933 44.5 1H43.5C43.5 3.48528 45.5147 5.5 48 5.5V4.5ZM43.5 1C43.5 2.933 41.933 4.5 40 4.5V5.5C42.4853 5.5 44.5 3.48528 44.5 1H43.5Z" fill="#737679"/>
</g>
<g clip-path="url(#clip4_864_493)">
<path d="M56 5.5C56.2761 5.5 56.5 5.27614 56.5 5C56.5 4.72386 56.2761 4.5 56 4.5V5.5ZM52.5 1C52.5 0.723858 52.2761 0.5 52 0.5C51.7239 0.5 51.5 0.723858 51.5 1H52.5ZM44.5 1C44.5 0.723858 44.2761 0.5 44 0.5C43.7239 0.5 43.5 0.723858 43.5 1H44.5ZM40 4.5C39.7239 4.5 39.5 4.72386 39.5 5C39.5 5.27614 39.7239 5.5 40 5.5V4.5ZM72 5.5C72.2761 5.5 72.5 5.27614 72.5 5C72.5 4.72386 72.2761 4.5 72 4.5V5.5ZM68.5 1C68.5 0.723858 68.2761 0.5 68 0.5C67.7239 0.5 67.5 0.723858 67.5 1H68.5ZM60.5 1C60.5 0.723858 60.2761 0.5 60 0.5C59.7239 0.5 59.5 0.723858 59.5 1H60.5ZM56 4.5C55.7239 4.5 55.5 4.72386 55.5 5C55.5 5.27614 55.7239 5.5 56 5.5V4.5ZM56 4.5C54.067 4.5 52.5 2.933 52.5 1H51.5C51.5 3.48528 53.5147 5.5 56 5.5V4.5ZM51.5 1C51.5 2.933 49.933 4.5 48 4.5V5.5C50.4853 5.5 52.5 3.48528 52.5 1H51.5ZM48 4.5C46.067 4.5 44.5 2.933 44.5 1H43.5C43.5 3.48528 45.5147 5.5 48 5.5V4.5ZM43.5 1C43.5 2.933 41.933 4.5 40 4.5V5.5C42.4853 5.5 44.5 3.48528 44.5 1H43.5ZM72 4.5C70.067 4.5 68.5 2.933 68.5 1H67.5C67.5 3.48528 69.5147 5.5 72 5.5V4.5ZM67.5 1C67.5 2.933 65.933 4.5 64 4.5V5.5C66.4853 5.5 68.5 3.48528 68.5 1H67.5ZM64 4.5C62.067 4.5 60.5 2.933 60.5 1H59.5C59.5 3.48528 61.5147 5.5 64 5.5V4.5ZM59.5 1C59.5 2.933 57.933 4.5 56 4.5V5.5C58.4853 5.5 60.5 3.48528 60.5 1H59.5Z" fill="#737679"/>
</g>
<g clip-path="url(#clip5_864_493)">
<path d="M72 5.5C72.2761 5.5 72.5 5.27614 72.5 5C72.5 4.72386 72.2761 4.5 72 4.5V5.5ZM68.5 1C68.5 0.723858 68.2761 0.5 68 0.5C67.7239 0.5 67.5 0.723858 67.5 1H68.5ZM60.5 1C60.5 0.723858 60.2761 0.5 60 0.5C59.7239 0.5 59.5 0.723858 59.5 1H60.5ZM56 4.5C55.7239 4.5 55.5 4.72386 55.5 5C55.5 5.27614 55.7239 5.5 56 5.5V4.5ZM88 5.5C88.2761 5.5 88.5 5.27614 88.5 5C88.5 4.72386 88.2761 4.5 88 4.5V5.5ZM84.5 1C84.5 0.723858 84.2761 0.5 84 0.5C83.7239 0.5 83.5 0.723858 83.5 1H84.5ZM76.5 1C76.5 0.723858 76.2761 0.5 76 0.5C75.7239 0.5 75.5 0.723858 75.5 1H76.5ZM72 4.5C71.7239 4.5 71.5 4.72386 71.5 5C71.5 5.27614 71.7239 5.5 72 5.5V4.5ZM72 4.5C70.067 4.5 68.5 2.933 68.5 1H67.5C67.5 3.48528 69.5147 5.5 72 5.5V4.5ZM67.5 1C67.5 2.933 65.933 4.5 64 4.5V5.5C66.4853 5.5 68.5 3.48528 68.5 1H67.5ZM64 4.5C62.067 4.5 60.5 2.933 60.5 1H59.5C59.5 3.48528 61.5147 5.5 64 5.5V4.5ZM59.5 1C59.5 2.933 57.933 4.5 56 4.5V5.5C58.4853 5.5 60.5 3.48528 60.5 1H59.5ZM88 4.5C86.067 4.5 84.5 2.933 84.5 1H83.5C83.5 3.48528 85.5147 5.5 88 5.5V4.5ZM83.5 1C83.5 2.933 81.933 4.5 80 4.5V5.5C82.4853 5.5 84.5 3.48528 84.5 1H83.5ZM80 4.5C78.067 4.5 76.5 2.933 76.5 1H75.5C75.5 3.48528 77.5147 5.5 80 5.5V4.5ZM75.5 1C75.5 2.933 73.933 4.5 72 4.5V5.5C74.4853 5.5 76.5 3.48528 76.5 1H75.5Z" fill="#737679"/>
</g>
<g clip-path="url(#clip6_864_493)">
<path d="M88 5.5C88.2761 5.5 88.5 5.27614 88.5 5C88.5 4.72386 88.2761 4.5 88 4.5V5.5ZM84.5 1C84.5 0.723858 84.2761 0.5 84 0.5C83.7239 0.5 83.5 0.723858 83.5 1H84.5ZM76.5 1C76.5 0.723858 76.2761 0.5 76 0.5C75.7239 0.5 75.5 0.723858 75.5 1H76.5ZM72 4.5C71.7239 4.5 71.5 4.72386 71.5 5C71.5 5.27614 71.7239 5.5 72 5.5V4.5ZM104 5.5C104.276 5.5 104.5 5.27614 104.5 5C104.5 4.72386 104.276 4.5 104 4.5V5.5ZM100.5 1C100.5 0.723858 100.276 0.5 100 0.5C99.7239 0.5 99.5 0.723858 99.5 1H100.5ZM92.5 1C92.5 0.723858 92.2761 0.5 92 0.5C91.7239 0.5 91.5 0.723858 91.5 1H92.5ZM88 4.5C87.7239 4.5 87.5 4.72386 87.5 5C87.5 5.27614 87.7239 5.5 88 5.5V4.5ZM88 4.5C86.067 4.5 84.5 2.933 84.5 1H83.5C83.5 3.48528 85.5147 5.5 88 5.5V4.5ZM83.5 1C83.5 2.933 81.933 4.5 80 4.5V5.5C82.4853 5.5 84.5 3.48528 84.5 1H83.5ZM80 4.5C78.067 4.5 76.5 2.933 76.5 1H75.5C75.5 3.48528 77.5147 5.5 80 5.5V4.5ZM75.5 1C75.5 2.933 73.933 4.5 72 4.5V5.5C74.4853 5.5 76.5 3.48528 76.5 1H75.5ZM104 4.5C102.067 4.5 100.5 2.933 100.5 1H99.5C99.5 3.48528 101.515 5.5 104 5.5V4.5ZM99.5 1C99.5 2.933 97.933 4.5 96 4.5V5.5C98.4853 5.5 100.5 3.48528 100.5 1H99.5ZM96 4.5C94.067 4.5 92.5 2.933 92.5 1H91.5C91.5 3.48528 93.5147 5.5 96 5.5V4.5ZM91.5 1C91.5 2.933 89.933 4.5 88 4.5V5.5C90.4853 5.5 92.5 3.48528 92.5 1H91.5Z" fill="#737679"/>
</g>
<g clip-path="url(#clip7_864_493)">
<path d="M104 5.5C104.276 5.5 104.5 5.27614 104.5 5C104.5 4.72386 104.276 4.5 104 4.5V5.5ZM100.5 1C100.5 0.723858 100.276 0.5 100 0.5C99.7239 0.5 99.5 0.723858 99.5 1H100.5ZM92.5 1C92.5 0.723858 92.2761 0.5 92 0.5C91.7239 0.5 91.5 0.723858 91.5 1H92.5ZM88 4.5C87.7239 4.5 87.5 4.72386 87.5 5C87.5 5.27614 87.7239 5.5 88 5.5V4.5ZM120 5.5C120.276 5.5 120.5 5.27614 120.5 5C120.5 4.72386 120.276 4.5 120 4.5V5.5ZM116.5 1C116.5 0.723858 116.276 0.5 116 0.5C115.724 0.5 115.5 0.723858 115.5 1H116.5ZM108.5 1C108.5 0.723858 108.276 0.5 108 0.5C107.724 0.5 107.5 0.723858 107.5 1H108.5ZM104 4.5C103.724 4.5 103.5 4.72386 103.5 5C103.5 5.27614 103.724 5.5 104 5.5V4.5ZM104 4.5C102.067 4.5 100.5 2.933 100.5 1H99.5C99.5 3.48528 101.515 5.5 104 5.5V4.5ZM99.5 1C99.5 2.933 97.933 4.5 96 4.5V5.5C98.4853 5.5 100.5 3.48528 100.5 1H99.5ZM96 4.5C94.067 4.5 92.5 2.933 92.5 1H91.5C91.5 3.48528 93.5147 5.5 96 5.5V4.5ZM91.5 1C91.5 2.933 89.933 4.5 88 4.5V5.5C90.4853 5.5 92.5 3.48528 92.5 1H91.5ZM120 4.5C118.067 4.5 116.5 2.933 116.5 1H115.5C115.5 3.48528 117.515 5.5 120 5.5V4.5ZM115.5 1C115.5 2.933 113.933 4.5 112 4.5V5.5C114.485 5.5 116.5 3.48528 116.5 1H115.5ZM112 4.5C110.067 4.5 108.5 2.933 108.5 1H107.5C107.5 3.48528 109.515 5.5 112 5.5V4.5ZM107.5 1C107.5 2.933 105.933 4.5 104 4.5V5.5C106.485 5.5 108.5 3.48528 108.5 1H107.5Z" fill="#737679"/>
</g>
<g clip-path="url(#clip8_864_493)">
<path d="M120 5.5C120.276 5.5 120.5 5.27614 120.5 5C120.5 4.72386 120.276 4.5 120 4.5V5.5ZM116.5 1C116.5 0.723858 116.276 0.5 116 0.5C115.724 0.5 115.5 0.723858 115.5 1H116.5ZM108.5 1C108.5 0.723858 108.276 0.5 108 0.5C107.724 0.5 107.5 0.723858 107.5 1H108.5ZM104 4.5C103.724 4.5 103.5 4.72386 103.5 5C103.5 5.27614 103.724 5.5 104 5.5V4.5ZM136 5.5C136.276 5.5 136.5 5.27614 136.5 5C136.5 4.72386 136.276 4.5 136 4.5V5.5ZM132.5 1C132.5 0.723858 132.276 0.5 132 0.5C131.724 0.5 131.5 0.723858 131.5 1H132.5ZM124.5 1C124.5 0.723858 124.276 0.5 124 0.5C123.724 0.5 123.5 0.723858 123.5 1H124.5ZM120 4.5C119.724 4.5 119.5 4.72386 119.5 5C119.5 5.27614 119.724 5.5 120 5.5V4.5ZM120 4.5C118.067 4.5 116.5 2.933 116.5 1H115.5C115.5 3.48528 117.515 5.5 120 5.5V4.5ZM115.5 1C115.5 2.933 113.933 4.5 112 4.5V5.5C114.485 5.5 116.5 3.48528 116.5 1H115.5ZM112 4.5C110.067 4.5 108.5 2.933 108.5 1H107.5C107.5 3.48528 109.515 5.5 112 5.5V4.5ZM107.5 1C107.5 2.933 105.933 4.5 104 4.5V5.5C106.485 5.5 108.5 3.48528 108.5 1H107.5ZM136 4.5C134.067 4.5 132.5 2.933 132.5 1H131.5C131.5 3.48528 133.515 5.5 136 5.5V4.5ZM131.5 1C131.5 2.933 129.933 4.5 128 4.5V5.5C130.485 5.5 132.5 3.48528 132.5 1H131.5ZM128 4.5C126.067 4.5 124.5 2.933 124.5 1H123.5C123.5 3.48528 125.515 5.5 128 5.5V4.5ZM123.5 1C123.5 2.933 121.933 4.5 120 4.5V5.5C122.485 5.5 124.5 3.48528 124.5 1H123.5Z" fill="#737679"/>
</g>
<g clip-path="url(#clip9_864_493)">
<path d="M136 5.5C136.276 5.5 136.5 5.27614 136.5 5C136.5 4.72386 136.276 4.5 136 4.5V5.5ZM132.5 1C132.5 0.723858 132.276 0.5 132 0.5C131.724 0.5 131.5 0.723858 131.5 1H132.5ZM124.5 1C124.5 0.723858 124.276 0.5 124 0.5C123.724 0.5 123.5 0.723858 123.5 1H124.5ZM120 4.5C119.724 4.5 119.5 4.72386 119.5 5C119.5 5.27614 119.724 5.5 120 5.5V4.5ZM152 5.5C152.276 5.5 152.5 5.27614 152.5 5C152.5 4.72386 152.276 4.5 152 4.5V5.5ZM148.5 1C148.5 0.723858 148.276 0.5 148 0.5C147.724 0.5 147.5 0.723858 147.5 1H148.5ZM140.5 1C140.5 0.723858 140.276 0.5 140 0.5C139.724 0.5 139.5 0.723858 139.5 1H140.5ZM136 4.5C135.724 4.5 135.5 4.72386 135.5 5C135.5 5.27614 135.724 5.5 136 5.5V4.5ZM136 4.5C134.067 4.5 132.5 2.933 132.5 1H131.5C131.5 3.48528 133.515 5.5 136 5.5V4.5ZM131.5 1C131.5 2.933 129.933 4.5 128 4.5V5.5C130.485 5.5 132.5 3.48528 132.5 1H131.5ZM128 4.5C126.067 4.5 124.5 2.933 124.5 1H123.5C123.5 3.48528 125.515 5.5 128 5.5V4.5ZM123.5 1C123.5 2.933 121.933 4.5 120 4.5V5.5C122.485 5.5 124.5 3.48528 124.5 1H123.5ZM152 4.5C150.067 4.5 148.5 2.933 148.5 1H147.5C147.5 3.48528 149.515 5.5 152 5.5V4.5ZM147.5 1C147.5 2.933 145.933 4.5 144 4.5V5.5C146.485 5.5 148.5 3.48528 148.5 1H147.5ZM144 4.5C142.067 4.5 140.5 2.933 140.5 1H139.5C139.5 3.48528 141.515 5.5 144 5.5V4.5ZM139.5 1C139.5 2.933 137.933 4.5 136 4.5V5.5C138.485 5.5 140.5 3.48528 140.5 1H139.5Z" fill="#737679"/>
</g>
<g clip-path="url(#clip10_864_493)">
<path d="M152 5.5C152.276 5.5 152.5 5.27614 152.5 5C152.5 4.72386 152.276 4.5 152 4.5V5.5ZM148.5 1C148.5 0.723858 148.276 0.5 148 0.5C147.724 0.5 147.5 0.723858 147.5 1H148.5ZM140.5 1C140.5 0.723858 140.276 0.5 140 0.5C139.724 0.5 139.5 0.723858 139.5 1H140.5ZM136 4.5C135.724 4.5 135.5 4.72386 135.5 5C135.5 5.27614 135.724 5.5 136 5.5V4.5ZM168 5.5C168.276 5.5 168.5 5.27614 168.5 5C168.5 4.72386 168.276 4.5 168 4.5V5.5ZM164.5 1C164.5 0.723858 164.276 0.5 164 0.5C163.724 0.5 163.5 0.723858 163.5 1H164.5ZM156.5 1C156.5 0.723858 156.276 0.5 156 0.5C155.724 0.5 155.5 0.723858 155.5 1H156.5ZM152 4.5C151.724 4.5 151.5 4.72386 151.5 5C151.5 5.27614 151.724 5.5 152 5.5V4.5ZM152 4.5C150.067 4.5 148.5 2.933 148.5 1H147.5C147.5 3.48528 149.515 5.5 152 5.5V4.5ZM147.5 1C147.5 2.933 145.933 4.5 144 4.5V5.5C146.485 5.5 148.5 3.48528 148.5 1H147.5ZM144 4.5C142.067 4.5 140.5 2.933 140.5 1H139.5C139.5 3.48528 141.515 5.5 144 5.5V4.5ZM139.5 1C139.5 2.933 137.933 4.5 136 4.5V5.5C138.485 5.5 140.5 3.48528 140.5 1H139.5ZM168 4.5C166.067 4.5 164.5 2.933 164.5 1H163.5C163.5 3.48528 165.515 5.5 168 5.5V4.5ZM163.5 1C163.5 2.933 161.933 4.5 160 4.5V5.5C162.485 5.5 164.5 3.48528 164.5 1H163.5ZM160 4.5C158.067 4.5 156.5 2.933 156.5 1H155.5C155.5 3.48528 157.515 5.5 160 5.5V4.5ZM155.5 1C155.5 2.933 153.933 4.5 152 4.5V5.5C154.485 5.5 156.5 3.48528 156.5 1H155.5Z" fill="#737679"/>
</g>
<g clip-path="url(#clip11_864_493)">
<path d="M168 5.5C168.276 5.5 168.5 5.27614 168.5 5C168.5 4.72386 168.276 4.5 168 4.5V5.5ZM164.5 1C164.5 0.723858 164.276 0.5 164 0.5C163.724 0.5 163.5 0.723858 163.5 1H164.5ZM156.5 1C156.5 0.723858 156.276 0.5 156 0.5C155.724 0.5 155.5 0.723858 155.5 1H156.5ZM152 4.5C151.724 4.5 151.5 4.72386 151.5 5C151.5 5.27614 151.724 5.5 152 5.5V4.5ZM184 5.5C184.276 5.5 184.5 5.27614 184.5 5C184.5 4.72386 184.276 4.5 184 4.5V5.5ZM180.5 1C180.5 0.723858 180.276 0.5 180 0.5C179.724 0.5 179.5 0.723858 179.5 1H180.5ZM172.5 1C172.5 0.723858 172.276 0.5 172 0.5C171.724 0.5 171.5 0.723858 171.5 1H172.5ZM168 4.5C167.724 4.5 167.5 4.72386 167.5 5C167.5 5.27614 167.724 5.5 168 5.5V4.5ZM168 4.5C166.067 4.5 164.5 2.933 164.5 1H163.5C163.5 3.48528 165.515 5.5 168 5.5V4.5ZM163.5 1C163.5 2.933 161.933 4.5 160 4.5V5.5C162.485 5.5 164.5 3.48528 164.5 1H163.5ZM160 4.5C158.067 4.5 156.5 2.933 156.5 1H155.5C155.5 3.48528 157.515 5.5 160 5.5V4.5ZM155.5 1C155.5 2.933 153.933 4.5 152 4.5V5.5C154.485 5.5 156.5 3.48528 156.5 1H155.5ZM184 4.5C182.067 4.5 180.5 2.933 180.5 1H179.5C179.5 3.48528 181.515 5.5 184 5.5V4.5ZM179.5 1C179.5 2.933 177.933 4.5 176 4.5V5.5C178.485 5.5 180.5 3.48528 180.5 1H179.5ZM176 4.5C174.067 4.5 172.5 2.933 172.5 1H171.5C171.5 3.48528 173.515 5.5 176 5.5V4.5ZM171.5 1C171.5 2.933 169.933 4.5 168 4.5V5.5C170.485 5.5 172.5 3.48528 172.5 1H171.5Z" fill="#737679"/>
</g>
<g clip-path="url(#clip12_864_493)">
<path d="M184 5.5C184.276 5.5 184.5 5.27614 184.5 5C184.5 4.72386 184.276 4.5 184 4.5V5.5ZM180.5 1C180.5 0.723858 180.276 0.5 180 0.5C179.724 0.5 179.5 0.723858 179.5 1H180.5ZM172.5 1C172.5 0.723858 172.276 0.5 172 0.5C171.724 0.5 171.5 0.723858 171.5 1H172.5ZM168 4.5C167.724 4.5 167.5 4.72386 167.5 5C167.5 5.27614 167.724 5.5 168 5.5V4.5ZM200 5.5C200.276 5.5 200.5 5.27614 200.5 5C200.5 4.72386 200.276 4.5 200 4.5V5.5ZM196.5 1C196.5 0.723858 196.276 0.5 196 0.5C195.724 0.5 195.5 0.723858 195.5 1H196.5ZM188.5 1C188.5 0.723858 188.276 0.5 188 0.5C187.724 0.5 187.5 0.723858 187.5 1H188.5ZM184 4.5C183.724 4.5 183.5 4.72386 183.5 5C183.5 5.27614 183.724 5.5 184 5.5V4.5ZM184 4.5C182.067 4.5 180.5 2.933 180.5 1H179.5C179.5 3.48528 181.515 5.5 184 5.5V4.5ZM179.5 1C179.5 2.933 177.933 4.5 176 4.5V5.5C178.485 5.5 180.5 3.48528 180.5 1H179.5ZM176 4.5C174.067 4.5 172.5 2.933 172.5 1H171.5C171.5 3.48528 173.515 5.5 176 5.5V4.5ZM171.5 1C171.5 2.933 169.933 4.5 168 4.5V5.5C170.485 5.5 172.5 3.48528 172.5 1H171.5ZM200 4.5C198.067 4.5 196.5 2.933 196.5 1H195.5C195.5 3.48528 197.515 5.5 200 5.5V4.5ZM195.5 1C195.5 2.933 193.933 4.5 192 4.5V5.5C194.485 5.5 196.5 3.48528 196.5 1H195.5ZM192 4.5C190.067 4.5 188.5 2.933 188.5 1H187.5C187.5 3.48528 189.515 5.5 192 5.5V4.5ZM187.5 1C187.5 2.933 185.933 4.5 184 4.5V5.5C186.485 5.5 188.5 3.48528 188.5 1H187.5Z" fill="#737679"/>
</g>
<g clip-path="url(#clip13_864_493)">
<path d="M200 5.5C200.276 5.5 200.5 5.27614 200.5 5C200.5 4.72386 200.276 4.5 200 4.5V5.5ZM196.5 1C196.5 0.723858 196.276 0.5 196 0.5C195.724 0.5 195.5 0.723858 195.5 1H196.5ZM188.5 1C188.5 0.723858 188.276 0.5 188 0.5C187.724 0.5 187.5 0.723858 187.5 1H188.5ZM184 4.5C183.724 4.5 183.5 4.72386 183.5 5C183.5 5.27614 183.724 5.5 184 5.5V4.5ZM216 5.5C216.276 5.5 216.5 5.27614 216.5 5C216.5 4.72386 216.276 4.5 216 4.5V5.5ZM212.5 1C212.5 0.723858 212.276 0.5 212 0.5C211.724 0.5 211.5 0.723858 211.5 1H212.5ZM204.5 1C204.5 0.723858 204.276 0.5 204 0.5C203.724 0.5 203.5 0.723858 203.5 1H204.5ZM200 4.5C199.724 4.5 199.5 4.72386 199.5 5C199.5 5.27614 199.724 5.5 200 5.5V4.5ZM200 4.5C198.067 4.5 196.5 2.933 196.5 1H195.5C195.5 3.48528 197.515 5.5 200 5.5V4.5ZM195.5 1C195.5 2.933 193.933 4.5 192 4.5V5.5C194.485 5.5 196.5 3.48528 196.5 1H195.5ZM192 4.5C190.067 4.5 188.5 2.933 188.5 1H187.5C187.5 3.48528 189.515 5.5 192 5.5V4.5ZM187.5 1C187.5 2.933 185.933 4.5 184 4.5V5.5C186.485 5.5 188.5 3.48528 188.5 1H187.5ZM216 4.5C214.067 4.5 212.5 2.933 212.5 1H211.5C211.5 3.48528 213.515 5.5 216 5.5V4.5ZM211.5 1C211.5 2.933 209.933 4.5 208 4.5V5.5C210.485 5.5 212.5 3.48528 212.5 1H211.5ZM208 4.5C206.067 4.5 204.5 2.933 204.5 1H203.5C203.5 3.48528 205.515 5.5 208 5.5V4.5ZM203.5 1C203.5 2.933 201.933 4.5 200 4.5V5.5C202.485 5.5 204.5 3.48528 204.5 1H203.5Z" fill="#737679"/>
</g>
<g clip-path="url(#clip14_864_493)">
<path d="M216 5.5C216.276 5.5 216.5 5.27614 216.5 5C216.5 4.72386 216.276 4.5 216 4.5V5.5ZM212.5 1C212.5 0.723858 212.276 0.5 212 0.5C211.724 0.5 211.5 0.723858 211.5 1H212.5ZM204.5 1C204.5 0.723858 204.276 0.5 204 0.5C203.724 0.5 203.5 0.723858 203.5 1H204.5ZM200 4.5C199.724 4.5 199.5 4.72386 199.5 5C199.5 5.27614 199.724 5.5 200 5.5V4.5ZM232 5.5C232.276 5.5 232.5 5.27614 232.5 5C232.5 4.72386 232.276 4.5 232 4.5V5.5ZM228.5 1C228.5 0.723858 228.276 0.5 228 0.5C227.724 0.5 227.5 0.723858 227.5 1H228.5ZM220.5 1C220.5 0.723858 220.276 0.5 220 0.5C219.724 0.5 219.5 0.723858 219.5 1H220.5ZM216 4.5C215.724 4.5 215.5 4.72386 215.5 5C215.5 5.27614 215.724 5.5 216 5.5V4.5ZM216 4.5C214.067 4.5 212.5 2.933 212.5 1H211.5C211.5 3.48528 213.515 5.5 216 5.5V4.5ZM211.5 1C211.5 2.933 209.933 4.5 208 4.5V5.5C210.485 5.5 212.5 3.48528 212.5 1H211.5ZM208 4.5C206.067 4.5 204.5 2.933 204.5 1H203.5C203.5 3.48528 205.515 5.5 208 5.5V4.5ZM203.5 1C203.5 2.933 201.933 4.5 200 4.5V5.5C202.485 5.5 204.5 3.48528 204.5 1H203.5ZM232 4.5C230.067 4.5 228.5 2.933 228.5 1H227.5C227.5 3.48528 229.515 5.5 232 5.5V4.5ZM227.5 1C227.5 2.933 225.933 4.5 224 4.5V5.5C226.485 5.5 228.5 3.48528 228.5 1H227.5ZM224 4.5C222.067 4.5 220.5 2.933 220.5 1H219.5C219.5 3.48528 221.515 5.5 224 5.5V4.5ZM219.5 1C219.5 2.933 217.933 4.5 216 4.5V5.5C218.485 5.5 220.5 3.48528 220.5 1H219.5Z" fill="#737679"/>
</g>
<g clip-path="url(#clip15_864_493)">
<path d="M232 5.5C232.276 5.5 232.5 5.27614 232.5 5C232.5 4.72386 232.276 4.5 232 4.5V5.5ZM228.5 1C228.5 0.723858 228.276 0.5 228 0.5C227.724 0.5 227.5 0.723858 227.5 1H228.5ZM220.5 1C220.5 0.723858 220.276 0.5 220 0.5C219.724 0.5 219.5 0.723858 219.5 1H220.5ZM216 4.5C215.724 4.5 215.5 4.72386 215.5 5C215.5 5.27614 215.724 5.5 216 5.5V4.5ZM248 5.5C248.276 5.5 248.5 5.27614 248.5 5C248.5 4.72386 248.276 4.5 248 4.5V5.5ZM244.5 1C244.5 0.723858 244.276 0.5 244 0.5C243.724 0.5 243.5 0.723858 243.5 1H244.5ZM236.5 1C236.5 0.723858 236.276 0.5 236 0.5C235.724 0.5 235.5 0.723858 235.5 1H236.5ZM232 4.5C231.724 4.5 231.5 4.72386 231.5 5C231.5 5.27614 231.724 5.5 232 5.5V4.5ZM232 4.5C230.067 4.5 228.5 2.933 228.5 1H227.5C227.5 3.48528 229.515 5.5 232 5.5V4.5ZM227.5 1C227.5 2.933 225.933 4.5 224 4.5V5.5C226.485 5.5 228.5 3.48528 228.5 1H227.5ZM224 4.5C222.067 4.5 220.5 2.933 220.5 1H219.5C219.5 3.48528 221.515 5.5 224 5.5V4.5ZM219.5 1C219.5 2.933 217.933 4.5 216 4.5V5.5C218.485 5.5 220.5 3.48528 220.5 1H219.5ZM248 4.5C246.067 4.5 244.5 2.933 244.5 1H243.5C243.5 3.48528 245.515 5.5 248 5.5V4.5ZM243.5 1C243.5 2.933 241.933 4.5 240 4.5V5.5C242.485 5.5 244.5 3.48528 244.5 1H243.5ZM240 4.5C238.067 4.5 236.5 2.933 236.5 1H235.5C235.5 3.48528 237.515 5.5 240 5.5V4.5ZM235.5 1C235.5 2.933 233.933 4.5 232 4.5V5.5C234.485 5.5 236.5 3.48528 236.5 1H235.5Z" fill="#737679"/>
</g>
<g clip-path="url(#clip16_864_493)">
<path d="M248 5.5C248.276 5.5 248.5 5.27614 248.5 5C248.5 4.72386 248.276 4.5 248 4.5V5.5ZM244.5 1C244.5 0.723858 244.276 0.5 244 0.5C243.724 0.5 243.5 0.723858 243.5 1H244.5ZM236.5 1C236.5 0.723858 236.276 0.5 236 0.5C235.724 0.5 235.5 0.723858 235.5 1H236.5ZM232 4.5C231.724 4.5 231.5 4.72386 231.5 5C231.5 5.27614 231.724 5.5 232 5.5V4.5ZM264 5.5C264.276 5.5 264.5 5.27614 264.5 5C264.5 4.72386 264.276 4.5 264 4.5V5.5ZM260.5 1C260.5 0.723858 260.276 0.5 260 0.5C259.724 0.5 259.5 0.723858 259.5 1H260.5ZM252.5 1C252.5 0.723858 252.276 0.5 252 0.5C251.724 0.5 251.5 0.723858 251.5 1H252.5ZM248 4.5C247.724 4.5 247.5 4.72386 247.5 5C247.5 5.27614 247.724 5.5 248 5.5V4.5ZM248 4.5C246.067 4.5 244.5 2.933 244.5 1H243.5C243.5 3.48528 245.515 5.5 248 5.5V4.5ZM243.5 1C243.5 2.933 241.933 4.5 240 4.5V5.5C242.485 5.5 244.5 3.48528 244.5 1H243.5ZM240 4.5C238.067 4.5 236.5 2.933 236.5 1H235.5C235.5 3.48528 237.515 5.5 240 5.5V4.5ZM235.5 1C235.5 2.933 233.933 4.5 232 4.5V5.5C234.485 5.5 236.5 3.48528 236.5 1H235.5ZM264 4.5C262.067 4.5 260.5 2.933 260.5 1H259.5C259.5 3.48528 261.515 5.5 264 5.5V4.5ZM259.5 1C259.5 2.933 257.933 4.5 256 4.5V5.5C258.485 5.5 260.5 3.48528 260.5 1H259.5ZM256 4.5C254.067 4.5 252.5 2.933 252.5 1H251.5C251.5 3.48528 253.515 5.5 256 5.5V4.5ZM251.5 1C251.5 2.933 249.933 4.5 248 4.5V5.5C250.485 5.5 252.5 3.48528 252.5 1H251.5Z" fill="#737679"/>
</g>
<g clip-path="url(#clip17_864_493)">
<path d="M264 5.5C264.276 5.5 264.5 5.27614 264.5 5C264.5 4.72386 264.276 4.5 264 4.5V5.5ZM260.5 1C260.5 0.723858 260.276 0.5 260 0.5C259.724 0.5 259.5 0.723858 259.5 1H260.5ZM252.5 1C252.5 0.723858 252.276 0.5 252 0.5C251.724 0.5 251.5 0.723858 251.5 1H252.5ZM248 4.5C247.724 4.5 247.5 4.72386 247.5 5C247.5 5.27614 247.724 5.5 248 5.5V4.5ZM280 5.5C280.276 5.5 280.5 5.27614 280.5 5C280.5 4.72386 280.276 4.5 280 4.5V5.5ZM276.5 1C276.5 0.723858 276.276 0.5 276 0.5C275.724 0.5 275.5 0.723858 275.5 1H276.5ZM268.5 1C268.5 0.723858 268.276 0.5 268 0.5C267.724 0.5 267.5 0.723858 267.5 1H268.5ZM264 4.5C263.724 4.5 263.5 4.72386 263.5 5C263.5 5.27614 263.724 5.5 264 5.5V4.5ZM264 4.5C262.067 4.5 260.5 2.933 260.5 1H259.5C259.5 3.48528 261.515 5.5 264 5.5V4.5ZM259.5 1C259.5 2.933 257.933 4.5 256 4.5V5.5C258.485 5.5 260.5 3.48528 260.5 1H259.5ZM256 4.5C254.067 4.5 252.5 2.933 252.5 1H251.5C251.5 3.48528 253.515 5.5 256 5.5V4.5ZM251.5 1C251.5 2.933 249.933 4.5 248 4.5V5.5C250.485 5.5 252.5 3.48528 252.5 1H251.5ZM280 4.5C278.067 4.5 276.5 2.933 276.5 1H275.5C275.5 3.48528 277.515 5.5 280 5.5V4.5ZM275.5 1C275.5 2.933 273.933 4.5 272 4.5V5.5C274.485 5.5 276.5 3.48528 276.5 1H275.5ZM272 4.5C270.067 4.5 268.5 2.933 268.5 1H267.5C267.5 3.48528 269.515 5.5 272 5.5V4.5ZM267.5 1C267.5 2.933 265.933 4.5 264 4.5V5.5C266.485 5.5 268.5 3.48528 268.5 1H267.5Z" fill="#737679"/>
</g>
<g clip-path="url(#clip18_864_493)">
<path d="M280 5.5C280.276 5.5 280.5 5.27614 280.5 5C280.5 4.72386 280.276 4.5 280 4.5V5.5ZM276.5 1C276.5 0.723858 276.276 0.5 276 0.5C275.724 0.5 275.5 0.723858 275.5 1H276.5ZM268.5 1C268.5 0.723858 268.276 0.5 268 0.5C267.724 0.5 267.5 0.723858 267.5 1H268.5ZM264 4.5C263.724 4.5 263.5 4.72386 263.5 5C263.5 5.27614 263.724 5.5 264 5.5V4.5ZM296 5.5C296.276 5.5 296.5 5.27614 296.5 5C296.5 4.72386 296.276 4.5 296 4.5V5.5ZM292.5 1C292.5 0.723858 292.276 0.5 292 0.5C291.724 0.5 291.5 0.723858 291.5 1H292.5ZM284.5 1C284.5 0.723858 284.276 0.5 284 0.5C283.724 0.5 283.5 0.723858 283.5 1H284.5ZM280 4.5C279.724 4.5 279.5 4.72386 279.5 5C279.5 5.27614 279.724 5.5 280 5.5V4.5ZM280 4.5C278.067 4.5 276.5 2.933 276.5 1H275.5C275.5 3.48528 277.515 5.5 280 5.5V4.5ZM275.5 1C275.5 2.933 273.933 4.5 272 4.5V5.5C274.485 5.5 276.5 3.48528 276.5 1H275.5ZM272 4.5C270.067 4.5 268.5 2.933 268.5 1H267.5C267.5 3.48528 269.515 5.5 272 5.5V4.5ZM267.5 1C267.5 2.933 265.933 4.5 264 4.5V5.5C266.485 5.5 268.5 3.48528 268.5 1H267.5ZM296 4.5C294.067 4.5 292.5 2.933 292.5 1H291.5C291.5 3.48528 293.515 5.5 296 5.5V4.5ZM291.5 1C291.5 2.933 289.933 4.5 288 4.5V5.5C290.485 5.5 292.5 3.48528 292.5 1H291.5ZM288 4.5C286.067 4.5 284.5 2.933 284.5 1H283.5C283.5 3.48528 285.515 5.5 288 5.5V4.5ZM283.5 1C283.5 2.933 281.933 4.5 280 4.5V5.5C282.485 5.5 284.5 3.48528 284.5 1H283.5Z" fill="#737679"/>
</g>
<g clip-path="url(#clip19_864_493)">
<path d="M296 5.5C296.276 5.5 296.5 5.27614 296.5 5C296.5 4.72386 296.276 4.5 296 4.5V5.5ZM292.5 1C292.5 0.723858 292.276 0.5 292 0.5C291.724 0.5 291.5 0.723858 291.5 1H292.5ZM284.5 1C284.5 0.723858 284.276 0.5 284 0.5C283.724 0.5 283.5 0.723858 283.5 1H284.5ZM280 4.5C279.724 4.5 279.5 4.72386 279.5 5C279.5 5.27614 279.724 5.5 280 5.5V4.5ZM312 5.5C312.276 5.5 312.5 5.27614 312.5 5C312.5 4.72386 312.276 4.5 312 4.5V5.5ZM308.5 1C308.5 0.723858 308.276 0.5 308 0.5C307.724 0.5 307.5 0.723858 307.5 1H308.5ZM300.5 1C300.5 0.723858 300.276 0.5 300 0.5C299.724 0.5 299.5 0.723858 299.5 1H300.5ZM296 4.5C295.724 4.5 295.5 4.72386 295.5 5C295.5 5.27614 295.724 5.5 296 5.5V4.5ZM296 4.5C294.067 4.5 292.5 2.933 292.5 1H291.5C291.5 3.48528 293.515 5.5 296 5.5V4.5ZM291.5 1C291.5 2.933 289.933 4.5 288 4.5V5.5C290.485 5.5 292.5 3.48528 292.5 1H291.5ZM288 4.5C286.067 4.5 284.5 2.933 284.5 1H283.5C283.5 3.48528 285.515 5.5 288 5.5V4.5ZM283.5 1C283.5 2.933 281.933 4.5 280 4.5V5.5C282.485 5.5 284.5 3.48528 284.5 1H283.5ZM312 4.5C310.067 4.5 308.5 2.933 308.5 1H307.5C307.5 3.48528 309.515 5.5 312 5.5V4.5ZM307.5 1C307.5 2.933 305.933 4.5 304 4.5V5.5C306.485 5.5 308.5 3.48528 308.5 1H307.5ZM304 4.5C302.067 4.5 300.5 2.933 300.5 1H299.5C299.5 3.48528 301.515 5.5 304 5.5V4.5ZM299.5 1C299.5 2.933 297.933 4.5 296 4.5V5.5C298.485 5.5 300.5 3.48528 300.5 1H299.5Z" fill="#737679"/>
</g>
<g clip-path="url(#clip20_864_493)">
<path d="M312 5.5C312.276 5.5 312.5 5.27614 312.5 5C312.5 4.72386 312.276 4.5 312 4.5V5.5ZM308.5 1C308.5 0.723858 308.276 0.5 308 0.5C307.724 0.5 307.5 0.723858 307.5 1H308.5ZM300.5 1C300.5 0.723858 300.276 0.5 300 0.5C299.724 0.5 299.5 0.723858 299.5 1H300.5ZM296 4.5C295.724 4.5 295.5 4.72386 295.5 5C295.5 5.27614 295.724 5.5 296 5.5V4.5ZM328 5.5C328.276 5.5 328.5 5.27614 328.5 5C328.5 4.72386 328.276 4.5 328 4.5V5.5ZM324.5 1C324.5 0.723858 324.276 0.5 324 0.5C323.724 0.5 323.5 0.723858 323.5 1H324.5ZM316.5 1C316.5 0.723858 316.276 0.5 316 0.5C315.724 0.5 315.5 0.723858 315.5 1H316.5ZM312 4.5C311.724 4.5 311.5 4.72386 311.5 5C311.5 5.27614 311.724 5.5 312 5.5V4.5ZM312 4.5C310.067 4.5 308.5 2.933 308.5 1H307.5C307.5 3.48528 309.515 5.5 312 5.5V4.5ZM307.5 1C307.5 2.933 305.933 4.5 304 4.5V5.5C306.485 5.5 308.5 3.48528 308.5 1H307.5ZM304 4.5C302.067 4.5 300.5 2.933 300.5 1H299.5C299.5 3.48528 301.515 5.5 304 5.5V4.5ZM299.5 1C299.5 2.933 297.933 4.5 296 4.5V5.5C298.485 5.5 300.5 3.48528 300.5 1H299.5ZM328 4.5C326.067 4.5 324.5 2.933 324.5 1H323.5C323.5 3.48528 325.515 5.5 328 5.5V4.5ZM323.5 1C323.5 2.933 321.933 4.5 320 4.5V5.5C322.485 5.5 324.5 3.48528 324.5 1H323.5ZM320 4.5C318.067 4.5 316.5 2.933 316.5 1H315.5C315.5 3.48528 317.515 5.5 320 5.5V4.5ZM315.5 1C315.5 2.933 313.933 4.5 312 4.5V5.5C314.485 5.5 316.5 3.48528 316.5 1H315.5Z" fill="#737679"/>
</g>
<g clip-path="url(#clip21_864_493)">
<path d="M328 5.5C328.276 5.5 328.5 5.27614 328.5 5C328.5 4.72386 328.276 4.5 328 4.5V5.5ZM324.5 1C324.5 0.723858 324.276 0.5 324 0.5C323.724 0.5 323.5 0.723858 323.5 1H324.5ZM316.5 1C316.5 0.723858 316.276 0.5 316 0.5C315.724 0.5 315.5 0.723858 315.5 1H316.5ZM312 4.5C311.724 4.5 311.5 4.72386 311.5 5C311.5 5.27614 311.724 5.5 312 5.5V4.5ZM344 5.5C344.276 5.5 344.5 5.27614 344.5 5C344.5 4.72386 344.276 4.5 344 4.5V5.5ZM340.5 1C340.5 0.723858 340.276 0.5 340 0.5C339.724 0.5 339.5 0.723858 339.5 1H340.5ZM332.5 1C332.5 0.723858 332.276 0.5 332 0.5C331.724 0.5 331.5 0.723858 331.5 1H332.5ZM328 4.5C327.724 4.5 327.5 4.72386 327.5 5C327.5 5.27614 327.724 5.5 328 5.5V4.5ZM328 4.5C326.067 4.5 324.5 2.933 324.5 1H323.5C323.5 3.48528 325.515 5.5 328 5.5V4.5ZM323.5 1C323.5 2.933 321.933 4.5 320 4.5V5.5C322.485 5.5 324.5 3.48528 324.5 1H323.5ZM320 4.5C318.067 4.5 316.5 2.933 316.5 1H315.5C315.5 3.48528 317.515 5.5 320 5.5V4.5ZM315.5 1C315.5 2.933 313.933 4.5 312 4.5V5.5C314.485 5.5 316.5 3.48528 316.5 1H315.5ZM344 4.5C342.067 4.5 340.5 2.933 340.5 1H339.5C339.5 3.48528 341.515 5.5 344 5.5V4.5ZM339.5 1C339.5 2.933 337.933 4.5 336 4.5V5.5C338.485 5.5 340.5 3.48528 340.5 1H339.5ZM336 4.5C334.067 4.5 332.5 2.933 332.5 1H331.5C331.5 3.48528 333.515 5.5 336 5.5V4.5ZM331.5 1C331.5 2.933 329.933 4.5 328 4.5V5.5C330.485 5.5 332.5 3.48528 332.5 1H331.5Z" fill="#737679"/>
</g>
<g clip-path="url(#clip22_864_493)">
<path d="M344 5.5C344.276 5.5 344.5 5.27614 344.5 5C344.5 4.72386 344.276 4.5 344 4.5V5.5ZM340.5 1C340.5 0.723858 340.276 0.5 340 0.5C339.724 0.5 339.5 0.723858 339.5 1H340.5ZM332.5 1C332.5 0.723858 332.276 0.5 332 0.5C331.724 0.5 331.5 0.723858 331.5 1H332.5ZM328 4.5C327.724 4.5 327.5 4.72386 327.5 5C327.5 5.27614 327.724 5.5 328 5.5V4.5ZM360 5.5C360.276 5.5 360.5 5.27614 360.5 5C360.5 4.72386 360.276 4.5 360 4.5V5.5ZM356.5 1C356.5 0.723858 356.276 0.5 356 0.5C355.724 0.5 355.5 0.723858 355.5 1H356.5ZM348.5 1C348.5 0.723858 348.276 0.5 348 0.5C347.724 0.5 347.5 0.723858 347.5 1H348.5ZM344 4.5C343.724 4.5 343.5 4.72386 343.5 5C343.5 5.27614 343.724 5.5 344 5.5V4.5ZM344 4.5C342.067 4.5 340.5 2.933 340.5 1H339.5C339.5 3.48528 341.515 5.5 344 5.5V4.5ZM339.5 1C339.5 2.933 337.933 4.5 336 4.5V5.5C338.485 5.5 340.5 3.48528 340.5 1H339.5ZM336 4.5C334.067 4.5 332.5 2.933 332.5 1H331.5C331.5 3.48528 333.515 5.5 336 5.5V4.5ZM331.5 1C331.5 2.933 329.933 4.5 328 4.5V5.5C330.485 5.5 332.5 3.48528 332.5 1H331.5ZM360 4.5C358.067 4.5 356.5 2.933 356.5 1H355.5C355.5 3.48528 357.515 5.5 360 5.5V4.5ZM355.5 1C355.5 2.933 353.933 4.5 352 4.5V5.5C354.485 5.5 356.5 3.48528 356.5 1H355.5ZM352 4.5C350.067 4.5 348.5 2.933 348.5 1H347.5C347.5 3.48528 349.515 5.5 352 5.5V4.5ZM347.5 1C347.5 2.933 345.933 4.5 344 4.5V5.5C346.485 5.5 348.5 3.48528 348.5 1H347.5Z" fill="#737679"/>
</g>
<g clip-path="url(#clip23_864_493)">
<path d="M360 5.5C360.276 5.5 360.5 5.27614 360.5 5C360.5 4.72386 360.276 4.5 360 4.5V5.5ZM356.5 1C356.5 0.723858 356.276 0.5 356 0.5C355.724 0.5 355.5 0.723858 355.5 1H356.5ZM348.5 1C348.5 0.723858 348.276 0.5 348 0.5C347.724 0.5 347.5 0.723858 347.5 1H348.5ZM344 4.5C343.724 4.5 343.5 4.72386 343.5 5C343.5 5.27614 343.724 5.5 344 5.5V4.5ZM376 5.5C376.276 5.5 376.5 5.27614 376.5 5C376.5 4.72386 376.276 4.5 376 4.5V5.5ZM372.5 1C372.5 0.723858 372.276 0.5 372 0.5C371.724 0.5 371.5 0.723858 371.5 1H372.5ZM364.5 1C364.5 0.723858 364.276 0.5 364 0.5C363.724 0.5 363.5 0.723858 363.5 1H364.5ZM360 4.5C359.724 4.5 359.5 4.72386 359.5 5C359.5 5.27614 359.724 5.5 360 5.5V4.5ZM360 4.5C358.067 4.5 356.5 2.933 356.5 1H355.5C355.5 3.48528 357.515 5.5 360 5.5V4.5ZM355.5 1C355.5 2.933 353.933 4.5 352 4.5V5.5C354.485 5.5 356.5 3.48528 356.5 1H355.5ZM352 4.5C350.067 4.5 348.5 2.933 348.5 1H347.5C347.5 3.48528 349.515 5.5 352 5.5V4.5ZM347.5 1C347.5 2.933 345.933 4.5 344 4.5V5.5C346.485 5.5 348.5 3.48528 348.5 1H347.5ZM376 4.5C374.067 4.5 372.5 2.933 372.5 1H371.5C371.5 3.48528 373.515 5.5 376 5.5V4.5ZM371.5 1C371.5 2.933 369.933 4.5 368 4.5V5.5C370.485 5.5 372.5 3.48528 372.5 1H371.5ZM368 4.5C366.067 4.5 364.5 2.933 364.5 1H363.5C363.5 3.48528 365.515 5.5 368 5.5V4.5ZM363.5 1C363.5 2.933 361.933 4.5 360 4.5V5.5C362.485 5.5 364.5 3.48528 364.5 1H363.5Z" fill="#737679"/>
</g>
<g clip-path="url(#clip24_864_493)">
<path d="M376 5.5C376.276 5.5 376.5 5.27614 376.5 5C376.5 4.72386 376.276 4.5 376 4.5V5.5ZM372.5 1C372.5 0.723858 372.276 0.5 372 0.5C371.724 0.5 371.5 0.723858 371.5 1H372.5ZM364.5 1C364.5 0.723858 364.276 0.5 364 0.5C363.724 0.5 363.5 0.723858 363.5 1H364.5ZM360 4.5C359.724 4.5 359.5 4.72386 359.5 5C359.5 5.27614 359.724 5.5 360 5.5V4.5ZM392 5.5C392.276 5.5 392.5 5.27614 392.5 5C392.5 4.72386 392.276 4.5 392 4.5V5.5ZM388.5 1C388.5 0.723858 388.276 0.5 388 0.5C387.724 0.5 387.5 0.723858 387.5 1H388.5ZM380.5 1C380.5 0.723858 380.276 0.5 380 0.5C379.724 0.5 379.5 0.723858 379.5 1H380.5ZM376 4.5C375.724 4.5 375.5 4.72386 375.5 5C375.5 5.27614 375.724 5.5 376 5.5V4.5ZM376 4.5C374.067 4.5 372.5 2.933 372.5 1H371.5C371.5 3.48528 373.515 5.5 376 5.5V4.5ZM371.5 1C371.5 2.933 369.933 4.5 368 4.5V5.5C370.485 5.5 372.5 3.48528 372.5 1H371.5ZM368 4.5C366.067 4.5 364.5 2.933 364.5 1H363.5C363.5 3.48528 365.515 5.5 368 5.5V4.5ZM363.5 1C363.5 2.933 361.933 4.5 360 4.5V5.5C362.485 5.5 364.5 3.48528 364.5 1H363.5ZM392 4.5C390.067 4.5 388.5 2.933 388.5 1H387.5C387.5 3.48528 389.515 5.5 392 5.5V4.5ZM387.5 1C387.5 2.933 385.933 4.5 384 4.5V5.5C386.485 5.5 388.5 3.48528 388.5 1H387.5ZM384 4.5C382.067 4.5 380.5 2.933 380.5 1H379.5C379.5 3.48528 381.515 5.5 384 5.5V4.5ZM379.5 1C379.5 2.933 377.933 4.5 376 4.5V5.5C378.485 5.5 380.5 3.48528 380.5 1H379.5Z" fill="#737679"/>
</g>
<g clip-path="url(#clip25_864_493)">
<path d="M392 5.5C392.276 5.5 392.5 5.27614 392.5 5C392.5 4.72386 392.276 4.5 392 4.5V5.5ZM388.5 1C388.5 0.723858 388.276 0.5 388 0.5C387.724 0.5 387.5 0.723858 387.5 1H388.5ZM380.5 1C380.5 0.723858 380.276 0.5 380 0.5C379.724 0.5 379.5 0.723858 379.5 1H380.5ZM376 4.5C375.724 4.5 375.5 4.72386 375.5 5C375.5 5.27614 375.724 5.5 376 5.5V4.5ZM408 5.5C408.276 5.5 408.5 5.27614 408.5 5C408.5 4.72386 408.276 4.5 408 4.5V5.5ZM404.5 1C404.5 0.723858 404.276 0.5 404 0.5C403.724 0.5 403.5 0.723858 403.5 1H404.5ZM396.5 1C396.5 0.723858 396.276 0.5 396 0.5C395.724 0.5 395.5 0.723858 395.5 1H396.5ZM392 4.5C391.724 4.5 391.5 4.72386 391.5 5C391.5 5.27614 391.724 5.5 392 5.5V4.5ZM392 4.5C390.067 4.5 388.5 2.933 388.5 1H387.5C387.5 3.48528 389.515 5.5 392 5.5V4.5ZM387.5 1C387.5 2.933 385.933 4.5 384 4.5V5.5C386.485 5.5 388.5 3.48528 388.5 1H387.5ZM384 4.5C382.067 4.5 380.5 2.933 380.5 1H379.5C379.5 3.48528 381.515 5.5 384 5.5V4.5ZM379.5 1C379.5 2.933 377.933 4.5 376 4.5V5.5C378.485 5.5 380.5 3.48528 380.5 1H379.5ZM408 4.5C406.067 4.5 404.5 2.933 404.5 1H403.5C403.5 3.48528 405.515 5.5 408 5.5V4.5ZM403.5 1C403.5 2.933 401.933 4.5 400 4.5V5.5C402.485 5.5 404.5 3.48528 404.5 1H403.5ZM400 4.5C398.067 4.5 396.5 2.933 396.5 1H395.5C395.5 3.48528 397.515 5.5 400 5.5V4.5ZM395.5 1C395.5 2.933 393.933 4.5 392 4.5V5.5C394.485 5.5 396.5 3.48528 396.5 1H395.5Z" fill="#737679"/>
</g>
<g clip-path="url(#clip26_864_493)">
<path d="M408 5.5C408.276 5.5 408.5 5.27614 408.5 5C408.5 4.72386 408.276 4.5 408 4.5V5.5ZM404.5 1C404.5 0.723858 404.276 0.5 404 0.5C403.724 0.5 403.5 0.723858 403.5 1H404.5ZM396.5 1C396.5 0.723858 396.276 0.5 396 0.5C395.724 0.5 395.5 0.723858 395.5 1H396.5ZM392 4.5C391.724 4.5 391.5 4.72386 391.5 5C391.5 5.27614 391.724 5.5 392 5.5V4.5ZM424 5.5C424.276 5.5 424.5 5.27614 424.5 5C424.5 4.72386 424.276 4.5 424 4.5V5.5ZM420.5 1C420.5 0.723858 420.276 0.5 420 0.5C419.724 0.5 419.5 0.723858 419.5 1H420.5ZM412.5 1C412.5 0.723858 412.276 0.5 412 0.5C411.724 0.5 411.5 0.723858 411.5 1H412.5ZM408 4.5C407.724 4.5 407.5 4.72386 407.5 5C407.5 5.27614 407.724 5.5 408 5.5V4.5ZM408 4.5C406.067 4.5 404.5 2.933 404.5 1H403.5C403.5 3.48528 405.515 5.5 408 5.5V4.5ZM403.5 1C403.5 2.933 401.933 4.5 400 4.5V5.5C402.485 5.5 404.5 3.48528 404.5 1H403.5ZM400 4.5C398.067 4.5 396.5 2.933 396.5 1H395.5C395.5 3.48528 397.515 5.5 400 5.5V4.5ZM395.5 1C395.5 2.933 393.933 4.5 392 4.5V5.5C394.485 5.5 396.5 3.48528 396.5 1H395.5ZM424 4.5C422.067 4.5 420.5 2.933 420.5 1H419.5C419.5 3.48528 421.515 5.5 424 5.5V4.5ZM419.5 1C419.5 2.933 417.933 4.5 416 4.5V5.5C418.485 5.5 420.5 3.48528 420.5 1H419.5ZM416 4.5C414.067 4.5 412.5 2.933 412.5 1H411.5C411.5 3.48528 413.515 5.5 416 5.5V4.5ZM411.5 1C411.5 2.933 409.933 4.5 408 4.5V5.5C410.485 5.5 412.5 3.48528 412.5 1H411.5Z" fill="#737679"/>
</g>
<g clip-path="url(#clip27_864_493)">
<path d="M424 5.5C424.276 5.5 424.5 5.27614 424.5 5C424.5 4.72386 424.276 4.5 424 4.5V5.5ZM420.5 1C420.5 0.723858 420.276 0.5 420 0.5C419.724 0.5 419.5 0.723858 419.5 1H420.5ZM412.5 1C412.5 0.723858 412.276 0.5 412 0.5C411.724 0.5 411.5 0.723858 411.5 1H412.5ZM408 4.5C407.724 4.5 407.5 4.72386 407.5 5C407.5 5.27614 407.724 5.5 408 5.5V4.5ZM440 5.5C440.276 5.5 440.5 5.27614 440.5 5C440.5 4.72386 440.276 4.5 440 4.5V5.5ZM436.5 1C436.5 0.723858 436.276 0.5 436 0.5C435.724 0.5 435.5 0.723858 435.5 1H436.5ZM428.5 1C428.5 0.723858 428.276 0.5 428 0.5C427.724 0.5 427.5 0.723858 427.5 1H428.5ZM424 4.5C423.724 4.5 423.5 4.72386 423.5 5C423.5 5.27614 423.724 5.5 424 5.5V4.5ZM424 4.5C422.067 4.5 420.5 2.933 420.5 1H419.5C419.5 3.48528 421.515 5.5 424 5.5V4.5ZM419.5 1C419.5 2.933 417.933 4.5 416 4.5V5.5C418.485 5.5 420.5 3.48528 420.5 1H419.5ZM416 4.5C414.067 4.5 412.5 2.933 412.5 1H411.5C411.5 3.48528 413.515 5.5 416 5.5V4.5ZM411.5 1C411.5 2.933 409.933 4.5 408 4.5V5.5C410.485 5.5 412.5 3.48528 412.5 1H411.5ZM440 4.5C438.067 4.5 436.5 2.933 436.5 1H435.5C435.5 3.48528 437.515 5.5 440 5.5V4.5ZM435.5 1C435.5 2.933 433.933 4.5 432 4.5V5.5C434.485 5.5 436.5 3.48528 436.5 1H435.5ZM432 4.5C430.067 4.5 428.5 2.933 428.5 1H427.5C427.5 3.48528 429.515 5.5 432 5.5V4.5ZM427.5 1C427.5 2.933 425.933 4.5 424 4.5V5.5C426.485 5.5 428.5 3.48528 428.5 1H427.5Z" fill="#737679"/>
</g>
<g clip-path="url(#clip28_864_493)">
<path d="M440 5.5C440.276 5.5 440.5 5.27614 440.5 5C440.5 4.72386 440.276 4.5 440 4.5V5.5ZM436.5 1C436.5 0.723858 436.276 0.5 436 0.5C435.724 0.5 435.5 0.723858 435.5 1H436.5ZM428.5 1C428.5 0.723858 428.276 0.5 428 0.5C427.724 0.5 427.5 0.723858 427.5 1H428.5ZM424 4.5C423.724 4.5 423.5 4.72386 423.5 5C423.5 5.27614 423.724 5.5 424 5.5V4.5ZM456 5.5C456.276 5.5 456.5 5.27614 456.5 5C456.5 4.72386 456.276 4.5 456 4.5V5.5ZM452.5 1C452.5 0.723858 452.276 0.5 452 0.5C451.724 0.5 451.5 0.723858 451.5 1H452.5ZM444.5 1C444.5 0.723858 444.276 0.5 444 0.5C443.724 0.5 443.5 0.723858 443.5 1H444.5ZM440 4.5C439.724 4.5 439.5 4.72386 439.5 5C439.5 5.27614 439.724 5.5 440 5.5V4.5ZM440 4.5C438.067 4.5 436.5 2.933 436.5 1H435.5C435.5 3.48528 437.515 5.5 440 5.5V4.5ZM435.5 1C435.5 2.933 433.933 4.5 432 4.5V5.5C434.485 5.5 436.5 3.48528 436.5 1H435.5ZM432 4.5C430.067 4.5 428.5 2.933 428.5 1H427.5C427.5 3.48528 429.515 5.5 432 5.5V4.5ZM427.5 1C427.5 2.933 425.933 4.5 424 4.5V5.5C426.485 5.5 428.5 3.48528 428.5 1H427.5ZM456 4.5C454.067 4.5 452.5 2.933 452.5 1H451.5C451.5 3.48528 453.515 5.5 456 5.5V4.5ZM451.5 1C451.5 2.933 449.933 4.5 448 4.5V5.5C450.485 5.5 452.5 3.48528 452.5 1H451.5ZM448 4.5C446.067 4.5 444.5 2.933 444.5 1H443.5C443.5 3.48528 445.515 5.5 448 5.5V4.5ZM443.5 1C443.5 2.933 441.933 4.5 440 4.5V5.5C442.485 5.5 444.5 3.48528 444.5 1H443.5Z" fill="#737679"/>
</g>
<g clip-path="url(#clip29_864_493)">
<path d="M456 5.5C456.276 5.5 456.5 5.27614 456.5 5C456.5 4.72386 456.276 4.5 456 4.5V5.5ZM452.5 1C452.5 0.723858 452.276 0.5 452 0.5C451.724 0.5 451.5 0.723858 451.5 1H452.5ZM444.5 1C444.5 0.723858 444.276 0.5 444 0.5C443.724 0.5 443.5 0.723858 443.5 1H444.5ZM440 4.5C439.724 4.5 439.5 4.72386 439.5 5C439.5 5.27614 439.724 5.5 440 5.5V4.5ZM472 5.5C472.276 5.5 472.5 5.27614 472.5 5C472.5 4.72386 472.276 4.5 472 4.5V5.5ZM468.5 1C468.5 0.723858 468.276 0.5 468 0.5C467.724 0.5 467.5 0.723858 467.5 1H468.5ZM460.5 1C460.5 0.723858 460.276 0.5 460 0.5C459.724 0.5 459.5 0.723858 459.5 1H460.5ZM456 4.5C455.724 4.5 455.5 4.72386 455.5 5C455.5 5.27614 455.724 5.5 456 5.5V4.5ZM456 4.5C454.067 4.5 452.5 2.933 452.5 1H451.5C451.5 3.48528 453.515 5.5 456 5.5V4.5ZM451.5 1C451.5 2.933 449.933 4.5 448 4.5V5.5C450.485 5.5 452.5 3.48528 452.5 1H451.5ZM448 4.5C446.067 4.5 444.5 2.933 444.5 1H443.5C443.5 3.48528 445.515 5.5 448 5.5V4.5ZM443.5 1C443.5 2.933 441.933 4.5 440 4.5V5.5C442.485 5.5 444.5 3.48528 444.5 1H443.5ZM472 4.5C470.067 4.5 468.5 2.933 468.5 1H467.5C467.5 3.48528 469.515 5.5 472 5.5V4.5ZM467.5 1C467.5 2.933 465.933 4.5 464 4.5V5.5C466.485 5.5 468.5 3.48528 468.5 1H467.5ZM464 4.5C462.067 4.5 460.5 2.933 460.5 1H459.5C459.5 3.48528 461.515 5.5 464 5.5V4.5ZM459.5 1C459.5 2.933 457.933 4.5 456 4.5V5.5C458.485 5.5 460.5 3.48528 460.5 1H459.5Z" fill="#737679"/>
</g>
<g clip-path="url(#clip30_864_493)">
<path d="M472 5.5C472.276 5.5 472.5 5.27614 472.5 5C472.5 4.72386 472.276 4.5 472 4.5V5.5ZM468.5 1C468.5 0.723858 468.276 0.5 468 0.5C467.724 0.5 467.5 0.723858 467.5 1H468.5ZM460.5 1C460.5 0.723858 460.276 0.5 460 0.5C459.724 0.5 459.5 0.723858 459.5 1H460.5ZM456 4.5C455.724 4.5 455.5 4.72386 455.5 5C455.5 5.27614 455.724 5.5 456 5.5V4.5ZM488 5.5C488.276 5.5 488.5 5.27614 488.5 5C488.5 4.72386 488.276 4.5 488 4.5V5.5ZM484.5 1C484.5 0.723858 484.276 0.5 484 0.5C483.724 0.5 483.5 0.723858 483.5 1H484.5ZM476.5 1C476.5 0.723858 476.276 0.5 476 0.5C475.724 0.5 475.5 0.723858 475.5 1H476.5ZM472 4.5C471.724 4.5 471.5 4.72386 471.5 5C471.5 5.27614 471.724 5.5 472 5.5V4.5ZM472 4.5C470.067 4.5 468.5 2.933 468.5 1H467.5C467.5 3.48528 469.515 5.5 472 5.5V4.5ZM467.5 1C467.5 2.933 465.933 4.5 464 4.5V5.5C466.485 5.5 468.5 3.48528 468.5 1H467.5ZM464 4.5C462.067 4.5 460.5 2.933 460.5 1H459.5C459.5 3.48528 461.515 5.5 464 5.5V4.5ZM459.5 1C459.5 2.933 457.933 4.5 456 4.5V5.5C458.485 5.5 460.5 3.48528 460.5 1H459.5ZM488 4.5C486.067 4.5 484.5 2.933 484.5 1H483.5C483.5 3.48528 485.515 5.5 488 5.5V4.5ZM483.5 1C483.5 2.933 481.933 4.5 480 4.5V5.5C482.485 5.5 484.5 3.48528 484.5 1H483.5ZM480 4.5C478.067 4.5 476.5 2.933 476.5 1H475.5C475.5 3.48528 477.515 5.5 480 5.5V4.5ZM475.5 1C475.5 2.933 473.933 4.5 472 4.5V5.5C474.485 5.5 476.5 3.48528 476.5 1H475.5Z" fill="#737679"/>
</g>
<g clip-path="url(#clip31_864_493)">
<path d="M488 5.5C488.276 5.5 488.5 5.27614 488.5 5C488.5 4.72386 488.276 4.5 488 4.5V5.5ZM484.5 1C484.5 0.723858 484.276 0.5 484 0.5C483.724 0.5 483.5 0.723858 483.5 1H484.5ZM476.5 1C476.5 0.723858 476.276 0.5 476 0.5C475.724 0.5 475.5 0.723858 475.5 1H476.5ZM472 4.5C471.724 4.5 471.5 4.72386 471.5 5C471.5 5.27614 471.724 5.5 472 5.5V4.5ZM504 5.5C504.276 5.5 504.5 5.27614 504.5 5C504.5 4.72386 504.276 4.5 504 4.5V5.5ZM500.5 1C500.5 0.723858 500.276 0.5 500 0.5C499.724 0.5 499.5 0.723858 499.5 1H500.5ZM492.5 1C492.5 0.723858 492.276 0.5 492 0.5C491.724 0.5 491.5 0.723858 491.5 1H492.5ZM488 4.5C487.724 4.5 487.5 4.72386 487.5 5C487.5 5.27614 487.724 5.5 488 5.5V4.5ZM488 4.5C486.067 4.5 484.5 2.933 484.5 1H483.5C483.5 3.48528 485.515 5.5 488 5.5V4.5ZM483.5 1C483.5 2.933 481.933 4.5 480 4.5V5.5C482.485 5.5 484.5 3.48528 484.5 1H483.5ZM480 4.5C478.067 4.5 476.5 2.933 476.5 1H475.5C475.5 3.48528 477.515 5.5 480 5.5V4.5ZM475.5 1C475.5 2.933 473.933 4.5 472 4.5V5.5C474.485 5.5 476.5 3.48528 476.5 1H475.5ZM504 4.5C502.067 4.5 500.5 2.933 500.5 1H499.5C499.5 3.48528 501.515 5.5 504 5.5V4.5ZM499.5 1C499.5 2.933 497.933 4.5 496 4.5V5.5C498.485 5.5 500.5 3.48528 500.5 1H499.5ZM496 4.5C494.067 4.5 492.5 2.933 492.5 1H491.5C491.5 3.48528 493.515 5.5 496 5.5V4.5ZM491.5 1C491.5 2.933 489.933 4.5 488 4.5V5.5C490.485 5.5 492.5 3.48528 492.5 1H491.5Z" fill="#737679"/>
</g>
<g clip-path="url(#clip32_864_493)">
<path d="M504 5.5C504.276 5.5 504.5 5.27614 504.5 5C504.5 4.72386 504.276 4.5 504 4.5V5.5ZM500.5 1C500.5 0.723858 500.276 0.5 500 0.5C499.724 0.5 499.5 0.723858 499.5 1H500.5ZM492.5 1C492.5 0.723858 492.276 0.5 492 0.5C491.724 0.5 491.5 0.723858 491.5 1H492.5ZM488 4.5C487.724 4.5 487.5 4.72386 487.5 5C487.5 5.27614 487.724 5.5 488 5.5V4.5ZM520 5.5C520.276 5.5 520.5 5.27614 520.5 5C520.5 4.72386 520.276 4.5 520 4.5V5.5ZM516.5 1C516.5 0.723858 516.276 0.5 516 0.5C515.724 0.5 515.5 0.723858 515.5 1H516.5ZM508.5 1C508.5 0.723858 508.276 0.5 508 0.5C507.724 0.5 507.5 0.723858 507.5 1H508.5ZM504 4.5C503.724 4.5 503.5 4.72386 503.5 5C503.5 5.27614 503.724 5.5 504 5.5V4.5ZM504 4.5C502.067 4.5 500.5 2.933 500.5 1H499.5C499.5 3.48528 501.515 5.5 504 5.5V4.5ZM499.5 1C499.5 2.933 497.933 4.5 496 4.5V5.5C498.485 5.5 500.5 3.48528 500.5 1H499.5ZM496 4.5C494.067 4.5 492.5 2.933 492.5 1H491.5C491.5 3.48528 493.515 5.5 496 5.5V4.5ZM491.5 1C491.5 2.933 489.933 4.5 488 4.5V5.5C490.485 5.5 492.5 3.48528 492.5 1H491.5ZM520 4.5C518.067 4.5 516.5 2.933 516.5 1H515.5C515.5 3.48528 517.515 5.5 520 5.5V4.5ZM515.5 1C515.5 2.933 513.933 4.5 512 4.5V5.5C514.485 5.5 516.5 3.48528 516.5 1H515.5ZM512 4.5C510.067 4.5 508.5 2.933 508.5 1H507.5C507.5 3.48528 509.515 5.5 512 5.5V4.5ZM507.5 1C507.5 2.933 505.933 4.5 504 4.5V5.5C506.485 5.5 508.5 3.48528 508.5 1H507.5Z" fill="#737679"/>
</g>
<g clip-path="url(#clip33_864_493)">
<path d="M520 5.5C520.276 5.5 520.5 5.27614 520.5 5C520.5 4.72386 520.276 4.5 520 4.5V5.5ZM516.5 1C516.5 0.723858 516.276 0.5 516 0.5C515.724 0.5 515.5 0.723858 515.5 1H516.5ZM508.5 1C508.5 0.723858 508.276 0.5 508 0.5C507.724 0.5 507.5 0.723858 507.5 1H508.5ZM504 4.5C503.724 4.5 503.5 4.72386 503.5 5C503.5 5.27614 503.724 5.5 504 5.5V4.5ZM536 5.5C536.276 5.5 536.5 5.27614 536.5 5C536.5 4.72386 536.276 4.5 536 4.5V5.5ZM532.5 1C532.5 0.723858 532.276 0.5 532 0.5C531.724 0.5 531.5 0.723858 531.5 1H532.5ZM524.5 1C524.5 0.723858 524.276 0.5 524 0.5C523.724 0.5 523.5 0.723858 523.5 1H524.5ZM520 4.5C519.724 4.5 519.5 4.72386 519.5 5C519.5 5.27614 519.724 5.5 520 5.5V4.5ZM520 4.5C518.067 4.5 516.5 2.933 516.5 1H515.5C515.5 3.48528 517.515 5.5 520 5.5V4.5ZM515.5 1C515.5 2.933 513.933 4.5 512 4.5V5.5C514.485 5.5 516.5 3.48528 516.5 1H515.5ZM512 4.5C510.067 4.5 508.5 2.933 508.5 1H507.5C507.5 3.48528 509.515 5.5 512 5.5V4.5ZM507.5 1C507.5 2.933 505.933 4.5 504 4.5V5.5C506.485 5.5 508.5 3.48528 508.5 1H507.5ZM536 4.5C534.067 4.5 532.5 2.933 532.5 1H531.5C531.5 3.48528 533.515 5.5 536 5.5V4.5ZM531.5 1C531.5 2.933 529.933 4.5 528 4.5V5.5C530.485 5.5 532.5 3.48528 532.5 1H531.5ZM528 4.5C526.067 4.5 524.5 2.933 524.5 1H523.5C523.5 3.48528 525.515 5.5 528 5.5V4.5ZM523.5 1C523.5 2.933 521.933 4.5 520 4.5V5.5C522.485 5.5 524.5 3.48528 524.5 1H523.5Z" fill="#737679"/>
</g>
<g clip-path="url(#clip34_864_493)">
<path d="M536 5.5C536.276 5.5 536.5 5.27614 536.5 5C536.5 4.72386 536.276 4.5 536 4.5V5.5ZM532.5 1C532.5 0.723858 532.276 0.5 532 0.5C531.724 0.5 531.5 0.723858 531.5 1H532.5ZM524.5 1C524.5 0.723858 524.276 0.5 524 0.5C523.724 0.5 523.5 0.723858 523.5 1H524.5ZM520 4.5C519.724 4.5 519.5 4.72386 519.5 5C519.5 5.27614 519.724 5.5 520 5.5V4.5ZM552 5.5C552.276 5.5 552.5 5.27614 552.5 5C552.5 4.72386 552.276 4.5 552 4.5V5.5ZM548.5 1C548.5 0.723858 548.276 0.5 548 0.5C547.724 0.5 547.5 0.723858 547.5 1H548.5ZM540.5 1C540.5 0.723858 540.276 0.5 540 0.5C539.724 0.5 539.5 0.723858 539.5 1H540.5ZM536 4.5C535.724 4.5 535.5 4.72386 535.5 5C535.5 5.27614 535.724 5.5 536 5.5V4.5ZM536 4.5C534.067 4.5 532.5 2.933 532.5 1H531.5C531.5 3.48528 533.515 5.5 536 5.5V4.5ZM531.5 1C531.5 2.933 529.933 4.5 528 4.5V5.5C530.485 5.5 532.5 3.48528 532.5 1H531.5ZM528 4.5C526.067 4.5 524.5 2.933 524.5 1H523.5C523.5 3.48528 525.515 5.5 528 5.5V4.5ZM523.5 1C523.5 2.933 521.933 4.5 520 4.5V5.5C522.485 5.5 524.5 3.48528 524.5 1H523.5ZM552 4.5C550.067 4.5 548.5 2.933 548.5 1H547.5C547.5 3.48528 549.515 5.5 552 5.5V4.5ZM547.5 1C547.5 2.933 545.933 4.5 544 4.5V5.5C546.485 5.5 548.5 3.48528 548.5 1H547.5ZM544 4.5C542.067 4.5 540.5 2.933 540.5 1H539.5C539.5 3.48528 541.515 5.5 544 5.5V4.5ZM539.5 1C539.5 2.933 537.933 4.5 536 4.5V5.5C538.485 5.5 540.5 3.48528 540.5 1H539.5Z" fill="#737679"/>
</g>
<g clip-path="url(#clip35_864_493)">
<path d="M552 5.5C552.276 5.5 552.5 5.27614 552.5 5C552.5 4.72386 552.276 4.5 552 4.5V5.5ZM548.5 1C548.5 0.723858 548.276 0.5 548 0.5C547.724 0.5 547.5 0.723858 547.5 1H548.5ZM540.5 1C540.5 0.723858 540.276 0.5 540 0.5C539.724 0.5 539.5 0.723858 539.5 1H540.5ZM536 4.5C535.724 4.5 535.5 4.72386 535.5 5C535.5 5.27614 535.724 5.5 536 5.5V4.5ZM568 5.5C568.276 5.5 568.5 5.27614 568.5 5C568.5 4.72386 568.276 4.5 568 4.5V5.5ZM564.5 1C564.5 0.723858 564.276 0.5 564 0.5C563.724 0.5 563.5 0.723858 563.5 1H564.5ZM556.5 1C556.5 0.723858 556.276 0.5 556 0.5C555.724 0.5 555.5 0.723858 555.5 1H556.5ZM552 4.5C551.724 4.5 551.5 4.72386 551.5 5C551.5 5.27614 551.724 5.5 552 5.5V4.5ZM552 4.5C550.067 4.5 548.5 2.933 548.5 1H547.5C547.5 3.48528 549.515 5.5 552 5.5V4.5ZM547.5 1C547.5 2.933 545.933 4.5 544 4.5V5.5C546.485 5.5 548.5 3.48528 548.5 1H547.5ZM544 4.5C542.067 4.5 540.5 2.933 540.5 1H539.5C539.5 3.48528 541.515 5.5 544 5.5V4.5ZM539.5 1C539.5 2.933 537.933 4.5 536 4.5V5.5C538.485 5.5 540.5 3.48528 540.5 1H539.5ZM568 4.5C566.067 4.5 564.5 2.933 564.5 1H563.5C563.5 3.48528 565.515 5.5 568 5.5V4.5ZM563.5 1C563.5 2.933 561.933 4.5 560 4.5V5.5C562.485 5.5 564.5 3.48528 564.5 1H563.5ZM560 4.5C558.067 4.5 556.5 2.933 556.5 1H555.5C555.5 3.48528 557.515 5.5 560 5.5V4.5ZM555.5 1C555.5 2.933 553.933 4.5 552 4.5V5.5C554.485 5.5 556.5 3.48528 556.5 1H555.5Z" fill="#737679"/>
</g>
<g clip-path="url(#clip36_864_493)">
<path d="M568 5.5C568.276 5.5 568.5 5.27614 568.5 5C568.5 4.72386 568.276 4.5 568 4.5V5.5ZM564.5 1C564.5 0.723858 564.276 0.5 564 0.5C563.724 0.5 563.5 0.723858 563.5 1H564.5ZM556.5 1C556.5 0.723858 556.276 0.5 556 0.5C555.724 0.5 555.5 0.723858 555.5 1H556.5ZM552 4.5C551.724 4.5 551.5 4.72386 551.5 5C551.5 5.27614 551.724 5.5 552 5.5V4.5ZM584 5.5C584.276 5.5 584.5 5.27614 584.5 5C584.5 4.72386 584.276 4.5 584 4.5V5.5ZM580.5 1C580.5 0.723858 580.276 0.5 580 0.5C579.724 0.5 579.5 0.723858 579.5 1H580.5ZM572.5 1C572.5 0.723858 572.276 0.5 572 0.5C571.724 0.5 571.5 0.723858 571.5 1H572.5ZM568 4.5C567.724 4.5 567.5 4.72386 567.5 5C567.5 5.27614 567.724 5.5 568 5.5V4.5ZM568 4.5C566.067 4.5 564.5 2.933 564.5 1H563.5C563.5 3.48528 565.515 5.5 568 5.5V4.5ZM563.5 1C563.5 2.933 561.933 4.5 560 4.5V5.5C562.485 5.5 564.5 3.48528 564.5 1H563.5ZM560 4.5C558.067 4.5 556.5 2.933 556.5 1H555.5C555.5 3.48528 557.515 5.5 560 5.5V4.5ZM555.5 1C555.5 2.933 553.933 4.5 552 4.5V5.5C554.485 5.5 556.5 3.48528 556.5 1H555.5ZM584 4.5C582.067 4.5 580.5 2.933 580.5 1H579.5C579.5 3.48528 581.515 5.5 584 5.5V4.5ZM579.5 1C579.5 2.933 577.933 4.5 576 4.5V5.5C578.485 5.5 580.5 3.48528 580.5 1H579.5ZM576 4.5C574.067 4.5 572.5 2.933 572.5 1H571.5C571.5 3.48528 573.515 5.5 576 5.5V4.5ZM571.5 1C571.5 2.933 569.933 4.5 568 4.5V5.5C570.485 5.5 572.5 3.48528 572.5 1H571.5Z" fill="#737679"/>
</g>
<g clip-path="url(#clip37_864_493)">
<path d="M584 5.5C584.276 5.5 584.5 5.27614 584.5 5C584.5 4.72386 584.276 4.5 584 4.5V5.5ZM580.5 1C580.5 0.723858 580.276 0.5 580 0.5C579.724 0.5 579.5 0.723858 579.5 1H580.5ZM572.5 1C572.5 0.723858 572.276 0.5 572 0.5C571.724 0.5 571.5 0.723858 571.5 1H572.5ZM568 4.5C567.724 4.5 567.5 4.72386 567.5 5C567.5 5.27614 567.724 5.5 568 5.5V4.5ZM600 5.5C600.276 5.5 600.5 5.27614 600.5 5C600.5 4.72386 600.276 4.5 600 4.5V5.5ZM596.5 1C596.5 0.723858 596.276 0.5 596 0.5C595.724 0.5 595.5 0.723858 595.5 1H596.5ZM588.5 1C588.5 0.723858 588.276 0.5 588 0.5C587.724 0.5 587.5 0.723858 587.5 1H588.5ZM584 4.5C583.724 4.5 583.5 4.72386 583.5 5C583.5 5.27614 583.724 5.5 584 5.5V4.5ZM584 4.5C582.067 4.5 580.5 2.933 580.5 1H579.5C579.5 3.48528 581.515 5.5 584 5.5V4.5ZM579.5 1C579.5 2.933 577.933 4.5 576 4.5V5.5C578.485 5.5 580.5 3.48528 580.5 1H579.5ZM576 4.5C574.067 4.5 572.5 2.933 572.5 1H571.5C571.5 3.48528 573.515 5.5 576 5.5V4.5ZM571.5 1C571.5 2.933 569.933 4.5 568 4.5V5.5C570.485 5.5 572.5 3.48528 572.5 1H571.5ZM600 4.5C598.067 4.5 596.5 2.933 596.5 1H595.5C595.5 3.48528 597.515 5.5 600 5.5V4.5ZM595.5 1C595.5 2.933 593.933 4.5 592 4.5V5.5C594.485 5.5 596.5 3.48528 596.5 1H595.5ZM592 4.5C590.067 4.5 588.5 2.933 588.5 1H587.5C587.5 3.48528 589.515 5.5 592 5.5V4.5ZM587.5 1C587.5 2.933 585.933 4.5 584 4.5V5.5C586.485 5.5 588.5 3.48528 588.5 1H587.5Z" fill="#737679"/>
</g>
<g clip-path="url(#clip38_864_493)">
<path d="M600 5.5C600.276 5.5 600.5 5.27614 600.5 5C600.5 4.72386 600.276 4.5 600 4.5V5.5ZM596.5 1C596.5 0.723858 596.276 0.5 596 0.5C595.724 0.5 595.5 0.723858 595.5 1H596.5ZM588.5 1C588.5 0.723858 588.276 0.5 588 0.5C587.724 0.5 587.5 0.723858 587.5 1H588.5ZM584 4.5C583.724 4.5 583.5 4.72386 583.5 5C583.5 5.27614 583.724 5.5 584 5.5V4.5ZM616 5.5C616.276 5.5 616.5 5.27614 616.5 5C616.5 4.72386 616.276 4.5 616 4.5V5.5ZM612.5 1C612.5 0.723858 612.276 0.5 612 0.5C611.724 0.5 611.5 0.723858 611.5 1H612.5ZM604.5 1C604.5 0.723858 604.276 0.5 604 0.5C603.724 0.5 603.5 0.723858 603.5 1H604.5ZM600 4.5C599.724 4.5 599.5 4.72386 599.5 5C599.5 5.27614 599.724 5.5 600 5.5V4.5ZM600 4.5C598.067 4.5 596.5 2.933 596.5 1H595.5C595.5 3.48528 597.515 5.5 600 5.5V4.5ZM595.5 1C595.5 2.933 593.933 4.5 592 4.5V5.5C594.485 5.5 596.5 3.48528 596.5 1H595.5ZM592 4.5C590.067 4.5 588.5 2.933 588.5 1H587.5C587.5 3.48528 589.515 5.5 592 5.5V4.5ZM587.5 1C587.5 2.933 585.933 4.5 584 4.5V5.5C586.485 5.5 588.5 3.48528 588.5 1H587.5ZM616 4.5C614.067 4.5 612.5 2.933 612.5 1H611.5C611.5 3.48528 613.515 5.5 616 5.5V4.5ZM611.5 1C611.5 2.933 609.933 4.5 608 4.5V5.5C610.485 5.5 612.5 3.48528 612.5 1H611.5ZM608 4.5C606.067 4.5 604.5 2.933 604.5 1H603.5C603.5 3.48528 605.515 5.5 608 5.5V4.5ZM603.5 1C603.5 2.933 601.933 4.5 600 4.5V5.5C602.485 5.5 604.5 3.48528 604.5 1H603.5Z" fill="#737679"/>
</g>
<g clip-path="url(#clip39_864_493)">
<path d="M616 5.5C616.276 5.5 616.5 5.27614 616.5 5C616.5 4.72386 616.276 4.5 616 4.5V5.5ZM612.5 1C612.5 0.723858 612.276 0.5 612 0.5C611.724 0.5 611.5 0.723858 611.5 1H612.5ZM604.5 1C604.5 0.723858 604.276 0.5 604 0.5C603.724 0.5 603.5 0.723858 603.5 1H604.5ZM600 4.5C599.724 4.5 599.5 4.72386 599.5 5C599.5 5.27614 599.724 5.5 600 5.5V4.5ZM632 5.5C632.276 5.5 632.5 5.27614 632.5 5C632.5 4.72386 632.276 4.5 632 4.5V5.5ZM628.5 1C628.5 0.723858 628.276 0.5 628 0.5C627.724 0.5 627.5 0.723858 627.5 1H628.5ZM620.5 1C620.5 0.723858 620.276 0.5 620 0.5C619.724 0.5 619.5 0.723858 619.5 1H620.5ZM616 4.5C615.724 4.5 615.5 4.72386 615.5 5C615.5 5.27614 615.724 5.5 616 5.5V4.5ZM616 4.5C614.067 4.5 612.5 2.933 612.5 1H611.5C611.5 3.48528 613.515 5.5 616 5.5V4.5ZM611.5 1C611.5 2.933 609.933 4.5 608 4.5V5.5C610.485 5.5 612.5 3.48528 612.5 1H611.5ZM608 4.5C606.067 4.5 604.5 2.933 604.5 1H603.5C603.5 3.48528 605.515 5.5 608 5.5V4.5ZM603.5 1C603.5 2.933 601.933 4.5 600 4.5V5.5C602.485 5.5 604.5 3.48528 604.5 1H603.5ZM632 4.5C630.067 4.5 628.5 2.933 628.5 1H627.5C627.5 3.48528 629.515 5.5 632 5.5V4.5ZM627.5 1C627.5 2.933 625.933 4.5 624 4.5V5.5C626.485 5.5 628.5 3.48528 628.5 1H627.5ZM624 4.5C622.067 4.5 620.5 2.933 620.5 1H619.5C619.5 3.48528 621.515 5.5 624 5.5V4.5ZM619.5 1C619.5 2.933 617.933 4.5 616 4.5V5.5C618.485 5.5 620.5 3.48528 620.5 1H619.5Z" fill="#737679"/>
</g>
<g clip-path="url(#clip40_864_493)">
<path d="M632 5.5C632.276 5.5 632.5 5.27614 632.5 5C632.5 4.72386 632.276 4.5 632 4.5V5.5ZM628.5 1C628.5 0.723858 628.276 0.5 628 0.5C627.724 0.5 627.5 0.723858 627.5 1H628.5ZM620.5 1C620.5 0.723858 620.276 0.5 620 0.5C619.724 0.5 619.5 0.723858 619.5 1H620.5ZM616 4.5C615.724 4.5 615.5 4.72386 615.5 5C615.5 5.27614 615.724 5.5 616 5.5V4.5ZM648 5.5C648.276 5.5 648.5 5.27614 648.5 5C648.5 4.72386 648.276 4.5 648 4.5V5.5ZM644.5 1C644.5 0.723858 644.276 0.5 644 0.5C643.724 0.5 643.5 0.723858 643.5 1H644.5ZM636.5 1C636.5 0.723858 636.276 0.5 636 0.5C635.724 0.5 635.5 0.723858 635.5 1H636.5ZM632 4.5C631.724 4.5 631.5 4.72386 631.5 5C631.5 5.27614 631.724 5.5 632 5.5V4.5ZM632 4.5C630.067 4.5 628.5 2.933 628.5 1H627.5C627.5 3.48528 629.515 5.5 632 5.5V4.5ZM627.5 1C627.5 2.933 625.933 4.5 624 4.5V5.5C626.485 5.5 628.5 3.48528 628.5 1H627.5ZM624 4.5C622.067 4.5 620.5 2.933 620.5 1H619.5C619.5 3.48528 621.515 5.5 624 5.5V4.5ZM619.5 1C619.5 2.933 617.933 4.5 616 4.5V5.5C618.485 5.5 620.5 3.48528 620.5 1H619.5ZM648 4.5C646.067 4.5 644.5 2.933 644.5 1H643.5C643.5 3.48528 645.515 5.5 648 5.5V4.5ZM643.5 1C643.5 2.933 641.933 4.5 640 4.5V5.5C642.485 5.5 644.5 3.48528 644.5 1H643.5ZM640 4.5C638.067 4.5 636.5 2.933 636.5 1H635.5C635.5 3.48528 637.515 5.5 640 5.5V4.5ZM635.5 1C635.5 2.933 633.933 4.5 632 4.5V5.5C634.485 5.5 636.5 3.48528 636.5 1H635.5Z" fill="#737679"/>
</g>
<g clip-path="url(#clip41_864_493)">
<path d="M648 5.5C648.276 5.5 648.5 5.27614 648.5 5C648.5 4.72386 648.276 4.5 648 4.5V5.5ZM644.5 1C644.5 0.723858 644.276 0.5 644 0.5C643.724 0.5 643.5 0.723858 643.5 1H644.5ZM636.5 1C636.5 0.723858 636.276 0.5 636 0.5C635.724 0.5 635.5 0.723858 635.5 1H636.5ZM632 4.5C631.724 4.5 631.5 4.72386 631.5 5C631.5 5.27614 631.724 5.5 632 5.5V4.5ZM664 5.5C664.276 5.5 664.5 5.27614 664.5 5C664.5 4.72386 664.276 4.5 664 4.5V5.5ZM660.5 1C660.5 0.723858 660.276 0.5 660 0.5C659.724 0.5 659.5 0.723858 659.5 1H660.5ZM652.5 1C652.5 0.723858 652.276 0.5 652 0.5C651.724 0.5 651.5 0.723858 651.5 1H652.5ZM648 4.5C647.724 4.5 647.5 4.72386 647.5 5C647.5 5.27614 647.724 5.5 648 5.5V4.5ZM648 4.5C646.067 4.5 644.5 2.933 644.5 1H643.5C643.5 3.48528 645.515 5.5 648 5.5V4.5ZM643.5 1C643.5 2.933 641.933 4.5 640 4.5V5.5C642.485 5.5 644.5 3.48528 644.5 1H643.5ZM640 4.5C638.067 4.5 636.5 2.933 636.5 1H635.5C635.5 3.48528 637.515 5.5 640 5.5V4.5ZM635.5 1C635.5 2.933 633.933 4.5 632 4.5V5.5C634.485 5.5 636.5 3.48528 636.5 1H635.5ZM664 4.5C662.067 4.5 660.5 2.933 660.5 1H659.5C659.5 3.48528 661.515 5.5 664 5.5V4.5ZM659.5 1C659.5 2.933 657.933 4.5 656 4.5V5.5C658.485 5.5 660.5 3.48528 660.5 1H659.5ZM656 4.5C654.067 4.5 652.5 2.933 652.5 1H651.5C651.5 3.48528 653.515 5.5 656 5.5V4.5ZM651.5 1C651.5 2.933 649.933 4.5 648 4.5V5.5C650.485 5.5 652.5 3.48528 652.5 1H651.5Z" fill="#737679"/>
</g>
<g clip-path="url(#clip42_864_493)">
<path d="M664 5.5C664.276 5.5 664.5 5.27614 664.5 5C664.5 4.72386 664.276 4.5 664 4.5V5.5ZM660.5 1C660.5 0.723858 660.276 0.5 660 0.5C659.724 0.5 659.5 0.723858 659.5 1H660.5ZM652.5 1C652.5 0.723858 652.276 0.5 652 0.5C651.724 0.5 651.5 0.723858 651.5 1H652.5ZM648 4.5C647.724 4.5 647.5 4.72386 647.5 5C647.5 5.27614 647.724 5.5 648 5.5V4.5ZM680 5.5C680.276 5.5 680.5 5.27614 680.5 5C680.5 4.72386 680.276 4.5 680 4.5V5.5ZM676.5 1C676.5 0.723858 676.276 0.5 676 0.5C675.724 0.5 675.5 0.723858 675.5 1H676.5ZM668.5 1C668.5 0.723858 668.276 0.5 668 0.5C667.724 0.5 667.5 0.723858 667.5 1H668.5ZM664 4.5C663.724 4.5 663.5 4.72386 663.5 5C663.5 5.27614 663.724 5.5 664 5.5V4.5ZM664 4.5C662.067 4.5 660.5 2.933 660.5 1H659.5C659.5 3.48528 661.515 5.5 664 5.5V4.5ZM659.5 1C659.5 2.933 657.933 4.5 656 4.5V5.5C658.485 5.5 660.5 3.48528 660.5 1H659.5ZM656 4.5C654.067 4.5 652.5 2.933 652.5 1H651.5C651.5 3.48528 653.515 5.5 656 5.5V4.5ZM651.5 1C651.5 2.933 649.933 4.5 648 4.5V5.5C650.485 5.5 652.5 3.48528 652.5 1H651.5ZM680 4.5C678.067 4.5 676.5 2.933 676.5 1H675.5C675.5 3.48528 677.515 5.5 680 5.5V4.5ZM675.5 1C675.5 2.933 673.933 4.5 672 4.5V5.5C674.485 5.5 676.5 3.48528 676.5 1H675.5ZM672 4.5C670.067 4.5 668.5 2.933 668.5 1H667.5C667.5 3.48528 669.515 5.5 672 5.5V4.5ZM667.5 1C667.5 2.933 665.933 4.5 664 4.5V5.5C666.485 5.5 668.5 3.48528 668.5 1H667.5Z" fill="#737679"/>
</g>
<g clip-path="url(#clip43_864_493)">
<path d="M680 5.5C680.276 5.5 680.5 5.27614 680.5 5C680.5 4.72386 680.276 4.5 680 4.5V5.5ZM676.5 1C676.5 0.723858 676.276 0.5 676 0.5C675.724 0.5 675.5 0.723858 675.5 1H676.5ZM668.5 1C668.5 0.723858 668.276 0.5 668 0.5C667.724 0.5 667.5 0.723858 667.5 1H668.5ZM664 4.5C663.724 4.5 663.5 4.72386 663.5 5C663.5 5.27614 663.724 5.5 664 5.5V4.5ZM696 5.5C696.276 5.5 696.5 5.27614 696.5 5C696.5 4.72386 696.276 4.5 696 4.5V5.5ZM692.5 1C692.5 0.723858 692.276 0.5 692 0.5C691.724 0.5 691.5 0.723858 691.5 1H692.5ZM684.5 1C684.5 0.723858 684.276 0.5 684 0.5C683.724 0.5 683.5 0.723858 683.5 1H684.5ZM680 4.5C679.724 4.5 679.5 4.72386 679.5 5C679.5 5.27614 679.724 5.5 680 5.5V4.5ZM680 4.5C678.067 4.5 676.5 2.933 676.5 1H675.5C675.5 3.48528 677.515 5.5 680 5.5V4.5ZM675.5 1C675.5 2.933 673.933 4.5 672 4.5V5.5C674.485 5.5 676.5 3.48528 676.5 1H675.5ZM672 4.5C670.067 4.5 668.5 2.933 668.5 1H667.5C667.5 3.48528 669.515 5.5 672 5.5V4.5ZM667.5 1C667.5 2.933 665.933 4.5 664 4.5V5.5C666.485 5.5 668.5 3.48528 668.5 1H667.5ZM696 4.5C694.067 4.5 692.5 2.933 692.5 1H691.5C691.5 3.48528 693.515 5.5 696 5.5V4.5ZM691.5 1C691.5 2.933 689.933 4.5 688 4.5V5.5C690.485 5.5 692.5 3.48528 692.5 1H691.5ZM688 4.5C686.067 4.5 684.5 2.933 684.5 1H683.5C683.5 3.48528 685.515 5.5 688 5.5V4.5ZM683.5 1C683.5 2.933 681.933 4.5 680 4.5V5.5C682.485 5.5 684.5 3.48528 684.5 1H683.5Z" fill="#737679"/>
</g>
<g clip-path="url(#clip44_864_493)">
<path d="M696 5.5C696.276 5.5 696.5 5.27614 696.5 5C696.5 4.72386 696.276 4.5 696 4.5V5.5ZM692.5 1C692.5 0.723858 692.276 0.5 692 0.5C691.724 0.5 691.5 0.723858 691.5 1H692.5ZM684.5 1C684.5 0.723858 684.276 0.5 684 0.5C683.724 0.5 683.5 0.723858 683.5 1H684.5ZM680 4.5C679.724 4.5 679.5 4.72386 679.5 5C679.5 5.27614 679.724 5.5 680 5.5V4.5ZM712 5.5C712.276 5.5 712.5 5.27614 712.5 5C712.5 4.72386 712.276 4.5 712 4.5V5.5ZM708.5 1C708.5 0.723858 708.276 0.5 708 0.5C707.724 0.5 707.5 0.723858 707.5 1H708.5ZM700.5 1C700.5 0.723858 700.276 0.5 700 0.5C699.724 0.5 699.5 0.723858 699.5 1H700.5ZM696 4.5C695.724 4.5 695.5 4.72386 695.5 5C695.5 5.27614 695.724 5.5 696 5.5V4.5ZM696 4.5C694.067 4.5 692.5 2.933 692.5 1H691.5C691.5 3.48528 693.515 5.5 696 5.5V4.5ZM691.5 1C691.5 2.933 689.933 4.5 688 4.5V5.5C690.485 5.5 692.5 3.48528 692.5 1H691.5ZM688 4.5C686.067 4.5 684.5 2.933 684.5 1H683.5C683.5 3.48528 685.515 5.5 688 5.5V4.5ZM683.5 1C683.5 2.933 681.933 4.5 680 4.5V5.5C682.485 5.5 684.5 3.48528 684.5 1H683.5ZM712 4.5C710.067 4.5 708.5 2.933 708.5 1H707.5C707.5 3.48528 709.515 5.5 712 5.5V4.5ZM707.5 1C707.5 2.933 705.933 4.5 704 4.5V5.5C706.485 5.5 708.5 3.48528 708.5 1H707.5ZM704 4.5C702.067 4.5 700.5 2.933 700.5 1H699.5C699.5 3.48528 701.515 5.5 704 5.5V4.5ZM699.5 1C699.5 2.933 697.933 4.5 696 4.5V5.5C698.485 5.5 700.5 3.48528 700.5 1H699.5Z" fill="#737679"/>
</g>
<g clip-path="url(#clip45_864_493)">
<path d="M712 5.5C712.276 5.5 712.5 5.27614 712.5 5C712.5 4.72386 712.276 4.5 712 4.5V5.5ZM708.5 1C708.5 0.723858 708.276 0.5 708 0.5C707.724 0.5 707.5 0.723858 707.5 1H708.5ZM700.5 1C700.5 0.723858 700.276 0.5 700 0.5C699.724 0.5 699.5 0.723858 699.5 1H700.5ZM696 4.5C695.724 4.5 695.5 4.72386 695.5 5C695.5 5.27614 695.724 5.5 696 5.5V4.5ZM728 5.5C728.276 5.5 728.5 5.27614 728.5 5C728.5 4.72386 728.276 4.5 728 4.5V5.5ZM724.5 1C724.5 0.723858 724.276 0.5 724 0.5C723.724 0.5 723.5 0.723858 723.5 1H724.5ZM716.5 1C716.5 0.723858 716.276 0.5 716 0.5C715.724 0.5 715.5 0.723858 715.5 1H716.5ZM712 4.5C711.724 4.5 711.5 4.72386 711.5 5C711.5 5.27614 711.724 5.5 712 5.5V4.5ZM712 4.5C710.067 4.5 708.5 2.933 708.5 1H707.5C707.5 3.48528 709.515 5.5 712 5.5V4.5ZM707.5 1C707.5 2.933 705.933 4.5 704 4.5V5.5C706.485 5.5 708.5 3.48528 708.5 1H707.5ZM704 4.5C702.067 4.5 700.5 2.933 700.5 1H699.5C699.5 3.48528 701.515 5.5 704 5.5V4.5ZM699.5 1C699.5 2.933 697.933 4.5 696 4.5V5.5C698.485 5.5 700.5 3.48528 700.5 1H699.5ZM728 4.5C726.067 4.5 724.5 2.933 724.5 1H723.5C723.5 3.48528 725.515 5.5 728 5.5V4.5ZM723.5 1C723.5 2.933 721.933 4.5 720 4.5V5.5C722.485 5.5 724.5 3.48528 724.5 1H723.5ZM720 4.5C718.067 4.5 716.5 2.933 716.5 1H715.5C715.5 3.48528 717.515 5.5 720 5.5V4.5ZM715.5 1C715.5 2.933 713.933 4.5 712 4.5V5.5C714.485 5.5 716.5 3.48528 716.5 1H715.5Z" fill="#737679"/>
</g>
<g clip-path="url(#clip46_864_493)">
<path d="M728 5.5C728.276 5.5 728.5 5.27614 728.5 5C728.5 4.72386 728.276 4.5 728 4.5V5.5ZM724.5 1C724.5 0.723858 724.276 0.5 724 0.5C723.724 0.5 723.5 0.723858 723.5 1H724.5ZM716.5 1C716.5 0.723858 716.276 0.5 716 0.5C715.724 0.5 715.5 0.723858 715.5 1H716.5ZM712 4.5C711.724 4.5 711.5 4.72386 711.5 5C711.5 5.27614 711.724 5.5 712 5.5V4.5ZM744 5.5C744.276 5.5 744.5 5.27614 744.5 5C744.5 4.72386 744.276 4.5 744 4.5V5.5ZM740.5 1C740.5 0.723858 740.276 0.5 740 0.5C739.724 0.5 739.5 0.723858 739.5 1H740.5ZM732.5 1C732.5 0.723858 732.276 0.5 732 0.5C731.724 0.5 731.5 0.723858 731.5 1H732.5ZM728 4.5C727.724 4.5 727.5 4.72386 727.5 5C727.5 5.27614 727.724 5.5 728 5.5V4.5ZM728 4.5C726.067 4.5 724.5 2.933 724.5 1H723.5C723.5 3.48528 725.515 5.5 728 5.5V4.5ZM723.5 1C723.5 2.933 721.933 4.5 720 4.5V5.5C722.485 5.5 724.5 3.48528 724.5 1H723.5ZM720 4.5C718.067 4.5 716.5 2.933 716.5 1H715.5C715.5 3.48528 717.515 5.5 720 5.5V4.5ZM715.5 1C715.5 2.933 713.933 4.5 712 4.5V5.5C714.485 5.5 716.5 3.48528 716.5 1H715.5ZM744 4.5C742.067 4.5 740.5 2.933 740.5 1H739.5C739.5 3.48528 741.515 5.5 744 5.5V4.5ZM739.5 1C739.5 2.933 737.933 4.5 736 4.5V5.5C738.485 5.5 740.5 3.48528 740.5 1H739.5ZM736 4.5C734.067 4.5 732.5 2.933 732.5 1H731.5C731.5 3.48528 733.515 5.5 736 5.5V4.5ZM731.5 1C731.5 2.933 729.933 4.5 728 4.5V5.5C730.485 5.5 732.5 3.48528 732.5 1H731.5Z" fill="#737679"/>
</g>
<g clip-path="url(#clip47_864_493)">
<path d="M744 5.5C744.276 5.5 744.5 5.27614 744.5 5C744.5 4.72386 744.276 4.5 744 4.5V5.5ZM740.5 1C740.5 0.723858 740.276 0.5 740 0.5C739.724 0.5 739.5 0.723858 739.5 1H740.5ZM732.5 1C732.5 0.723858 732.276 0.5 732 0.5C731.724 0.5 731.5 0.723858 731.5 1H732.5ZM728 4.5C727.724 4.5 727.5 4.72386 727.5 5C727.5 5.27614 727.724 5.5 728 5.5V4.5ZM760 5.5C760.276 5.5 760.5 5.27614 760.5 5C760.5 4.72386 760.276 4.5 760 4.5V5.5ZM756.5 1C756.5 0.723858 756.276 0.5 756 0.5C755.724 0.5 755.5 0.723858 755.5 1H756.5ZM748.5 1C748.5 0.723858 748.276 0.5 748 0.5C747.724 0.5 747.5 0.723858 747.5 1H748.5ZM744 4.5C743.724 4.5 743.5 4.72386 743.5 5C743.5 5.27614 743.724 5.5 744 5.5V4.5ZM744 4.5C742.067 4.5 740.5 2.933 740.5 1H739.5C739.5 3.48528 741.515 5.5 744 5.5V4.5ZM739.5 1C739.5 2.933 737.933 4.5 736 4.5V5.5C738.485 5.5 740.5 3.48528 740.5 1H739.5ZM736 4.5C734.067 4.5 732.5 2.933 732.5 1H731.5C731.5 3.48528 733.515 5.5 736 5.5V4.5ZM731.5 1C731.5 2.933 729.933 4.5 728 4.5V5.5C730.485 5.5 732.5 3.48528 732.5 1H731.5ZM760 4.5C758.067 4.5 756.5 2.933 756.5 1H755.5C755.5 3.48528 757.515 5.5 760 5.5V4.5ZM755.5 1C755.5 2.933 753.933 4.5 752 4.5V5.5C754.485 5.5 756.5 3.48528 756.5 1H755.5ZM752 4.5C750.067 4.5 748.5 2.933 748.5 1H747.5C747.5 3.48528 749.515 5.5 752 5.5V4.5ZM747.5 1C747.5 2.933 745.933 4.5 744 4.5V5.5C746.485 5.5 748.5 3.48528 748.5 1H747.5Z" fill="#737679"/>
</g>
<g clip-path="url(#clip48_864_493)">
<path d="M760 5.5C760.276 5.5 760.5 5.27614 760.5 5C760.5 4.72386 760.276 4.5 760 4.5V5.5ZM756.5 1C756.5 0.723858 756.276 0.5 756 0.5C755.724 0.5 755.5 0.723858 755.5 1H756.5ZM748.5 1C748.5 0.723858 748.276 0.5 748 0.5C747.724 0.5 747.5 0.723858 747.5 1H748.5ZM744 4.5C743.724 4.5 743.5 4.72386 743.5 5C743.5 5.27614 743.724 5.5 744 5.5V4.5ZM776 5.5C776.276 5.5 776.5 5.27614 776.5 5C776.5 4.72386 776.276 4.5 776 4.5V5.5ZM772.5 1C772.5 0.723858 772.276 0.5 772 0.5C771.724 0.5 771.5 0.723858 771.5 1H772.5ZM764.5 1C764.5 0.723858 764.276 0.5 764 0.5C763.724 0.5 763.5 0.723858 763.5 1H764.5ZM760 4.5C759.724 4.5 759.5 4.72386 759.5 5C759.5 5.27614 759.724 5.5 760 5.5V4.5ZM760 4.5C758.067 4.5 756.5 2.933 756.5 1H755.5C755.5 3.48528 757.515 5.5 760 5.5V4.5ZM755.5 1C755.5 2.933 753.933 4.5 752 4.5V5.5C754.485 5.5 756.5 3.48528 756.5 1H755.5ZM752 4.5C750.067 4.5 748.5 2.933 748.5 1H747.5C747.5 3.48528 749.515 5.5 752 5.5V4.5ZM747.5 1C747.5 2.933 745.933 4.5 744 4.5V5.5C746.485 5.5 748.5 3.48528 748.5 1H747.5ZM776 4.5C774.067 4.5 772.5 2.933 772.5 1H771.5C771.5 3.48528 773.515 5.5 776 5.5V4.5ZM771.5 1C771.5 2.933 769.933 4.5 768 4.5V5.5C770.485 5.5 772.5 3.48528 772.5 1H771.5ZM768 4.5C766.067 4.5 764.5 2.933 764.5 1H763.5C763.5 3.48528 765.515 5.5 768 5.5V4.5ZM763.5 1C763.5 2.933 761.933 4.5 760 4.5V5.5C762.485 5.5 764.5 3.48528 764.5 1H763.5Z" fill="#737679"/>
</g>
<g clip-path="url(#clip49_864_493)">
<path d="M776 5.5C776.276 5.5 776.5 5.27614 776.5 5C776.5 4.72386 776.276 4.5 776 4.5V5.5ZM772.5 1C772.5 0.723858 772.276 0.5 772 0.5C771.724 0.5 771.5 0.723858 771.5 1H772.5ZM764.5 1C764.5 0.723858 764.276 0.5 764 0.5C763.724 0.5 763.5 0.723858 763.5 1H764.5ZM760 4.5C759.724 4.5 759.5 4.72386 759.5 5C759.5 5.27614 759.724 5.5 760 5.5V4.5ZM792 5.5C792.276 5.5 792.5 5.27614 792.5 5C792.5 4.72386 792.276 4.5 792 4.5V5.5ZM788.5 1C788.5 0.723858 788.276 0.5 788 0.5C787.724 0.5 787.5 0.723858 787.5 1H788.5ZM780.5 1C780.5 0.723858 780.276 0.5 780 0.5C779.724 0.5 779.5 0.723858 779.5 1H780.5ZM776 4.5C775.724 4.5 775.5 4.72386 775.5 5C775.5 5.27614 775.724 5.5 776 5.5V4.5ZM776 4.5C774.067 4.5 772.5 2.933 772.5 1H771.5C771.5 3.48528 773.515 5.5 776 5.5V4.5ZM771.5 1C771.5 2.933 769.933 4.5 768 4.5V5.5C770.485 5.5 772.5 3.48528 772.5 1H771.5ZM768 4.5C766.067 4.5 764.5 2.933 764.5 1H763.5C763.5 3.48528 765.515 5.5 768 5.5V4.5ZM763.5 1C763.5 2.933 761.933 4.5 760 4.5V5.5C762.485 5.5 764.5 3.48528 764.5 1H763.5ZM792 4.5C790.067 4.5 788.5 2.933 788.5 1H787.5C787.5 3.48528 789.515 5.5 792 5.5V4.5ZM787.5 1C787.5 2.933 785.933 4.5 784 4.5V5.5C786.485 5.5 788.5 3.48528 788.5 1H787.5ZM784 4.5C782.067 4.5 780.5 2.933 780.5 1H779.5C779.5 3.48528 781.515 5.5 784 5.5V4.5ZM779.5 1C779.5 2.933 777.933 4.5 776 4.5V5.5C778.485 5.5 780.5 3.48528 780.5 1H779.5Z" fill="#737679"/>
</g>
<g clip-path="url(#clip50_864_493)">
<path d="M792 5.5C792.276 5.5 792.5 5.27614 792.5 5C792.5 4.72386 792.276 4.5 792 4.5V5.5ZM788.5 1C788.5 0.723858 788.276 0.5 788 0.5C787.724 0.5 787.5 0.723858 787.5 1H788.5ZM780.5 1C780.5 0.723858 780.276 0.5 780 0.5C779.724 0.5 779.5 0.723858 779.5 1H780.5ZM776 4.5C775.724 4.5 775.5 4.72386 775.5 5C775.5 5.27614 775.724 5.5 776 5.5V4.5ZM808 5.5C808.276 5.5 808.5 5.27614 808.5 5C808.5 4.72386 808.276 4.5 808 4.5V5.5ZM804.5 1C804.5 0.723858 804.276 0.5 804 0.5C803.724 0.5 803.5 0.723858 803.5 1H804.5ZM796.5 1C796.5 0.723858 796.276 0.5 796 0.5C795.724 0.5 795.5 0.723858 795.5 1H796.5ZM792 4.5C791.724 4.5 791.5 4.72386 791.5 5C791.5 5.27614 791.724 5.5 792 5.5V4.5ZM792 4.5C790.067 4.5 788.5 2.933 788.5 1H787.5C787.5 3.48528 789.515 5.5 792 5.5V4.5ZM787.5 1C787.5 2.933 785.933 4.5 784 4.5V5.5C786.485 5.5 788.5 3.48528 788.5 1H787.5ZM784 4.5C782.067 4.5 780.5 2.933 780.5 1H779.5C779.5 3.48528 781.515 5.5 784 5.5V4.5ZM779.5 1C779.5 2.933 777.933 4.5 776 4.5V5.5C778.485 5.5 780.5 3.48528 780.5 1H779.5ZM808 4.5C806.067 4.5 804.5 2.933 804.5 1H803.5C803.5 3.48528 805.515 5.5 808 5.5V4.5ZM803.5 1C803.5 2.933 801.933 4.5 800 4.5V5.5C802.485 5.5 804.5 3.48528 804.5 1H803.5ZM800 4.5C798.067 4.5 796.5 2.933 796.5 1H795.5C795.5 3.48528 797.515 5.5 800 5.5V4.5ZM795.5 1C795.5 2.933 793.933 4.5 792 4.5V5.5C794.485 5.5 796.5 3.48528 796.5 1H795.5Z" fill="#737679"/>
</g>
<g clip-path="url(#clip51_864_493)">
<path d="M808 5.5C808.276 5.5 808.5 5.27614 808.5 5C808.5 4.72386 808.276 4.5 808 4.5V5.5ZM804.5 1C804.5 0.723858 804.276 0.5 804 0.5C803.724 0.5 803.5 0.723858 803.5 1H804.5ZM796.5 1C796.5 0.723858 796.276 0.5 796 0.5C795.724 0.5 795.5 0.723858 795.5 1H796.5ZM792 4.5C791.724 4.5 791.5 4.72386 791.5 5C791.5 5.27614 791.724 5.5 792 5.5V4.5ZM824 5.5C824.276 5.5 824.5 5.27614 824.5 5C824.5 4.72386 824.276 4.5 824 4.5V5.5ZM820.5 1C820.5 0.723858 820.276 0.5 820 0.5C819.724 0.5 819.5 0.723858 819.5 1H820.5ZM812.5 1C812.5 0.723858 812.276 0.5 812 0.5C811.724 0.5 811.5 0.723858 811.5 1H812.5ZM808 4.5C807.724 4.5 807.5 4.72386 807.5 5C807.5 5.27614 807.724 5.5 808 5.5V4.5ZM808 4.5C806.067 4.5 804.5 2.933 804.5 1H803.5C803.5 3.48528 805.515 5.5 808 5.5V4.5ZM803.5 1C803.5 2.933 801.933 4.5 800 4.5V5.5C802.485 5.5 804.5 3.48528 804.5 1H803.5ZM800 4.5C798.067 4.5 796.5 2.933 796.5 1H795.5C795.5 3.48528 797.515 5.5 800 5.5V4.5ZM795.5 1C795.5 2.933 793.933 4.5 792 4.5V5.5C794.485 5.5 796.5 3.48528 796.5 1H795.5ZM824 4.5C822.067 4.5 820.5 2.933 820.5 1H819.5C819.5 3.48528 821.515 5.5 824 5.5V4.5ZM819.5 1C819.5 2.933 817.933 4.5 816 4.5V5.5C818.485 5.5 820.5 3.48528 820.5 1H819.5ZM816 4.5C814.067 4.5 812.5 2.933 812.5 1H811.5C811.5 3.48528 813.515 5.5 816 5.5V4.5ZM811.5 1C811.5 2.933 809.933 4.5 808 4.5V5.5C810.485 5.5 812.5 3.48528 812.5 1H811.5Z" fill="#737679"/>
</g>
<g clip-path="url(#clip52_864_493)">
<path d="M824 5.5C824.276 5.5 824.5 5.27614 824.5 5C824.5 4.72386 824.276 4.5 824 4.5V5.5ZM820.5 1C820.5 0.723858 820.276 0.5 820 0.5C819.724 0.5 819.5 0.723858 819.5 1H820.5ZM812.5 1C812.5 0.723858 812.276 0.5 812 0.5C811.724 0.5 811.5 0.723858 811.5 1H812.5ZM808 4.5C807.724 4.5 807.5 4.72386 807.5 5C807.5 5.27614 807.724 5.5 808 5.5V4.5ZM840 5.5C840.276 5.5 840.5 5.27614 840.5 5C840.5 4.72386 840.276 4.5 840 4.5V5.5ZM836.5 1C836.5 0.723858 836.276 0.5 836 0.5C835.724 0.5 835.5 0.723858 835.5 1H836.5ZM828.5 1C828.5 0.723858 828.276 0.5 828 0.5C827.724 0.5 827.5 0.723858 827.5 1H828.5ZM824 4.5C823.724 4.5 823.5 4.72386 823.5 5C823.5 5.27614 823.724 5.5 824 5.5V4.5ZM824 4.5C822.067 4.5 820.5 2.933 820.5 1H819.5C819.5 3.48528 821.515 5.5 824 5.5V4.5ZM819.5 1C819.5 2.933 817.933 4.5 816 4.5V5.5C818.485 5.5 820.5 3.48528 820.5 1H819.5ZM816 4.5C814.067 4.5 812.5 2.933 812.5 1H811.5C811.5 3.48528 813.515 5.5 816 5.5V4.5ZM811.5 1C811.5 2.933 809.933 4.5 808 4.5V5.5C810.485 5.5 812.5 3.48528 812.5 1H811.5ZM840 4.5C838.067 4.5 836.5 2.933 836.5 1H835.5C835.5 3.48528 837.515 5.5 840 5.5V4.5ZM835.5 1C835.5 2.933 833.933 4.5 832 4.5V5.5C834.485 5.5 836.5 3.48528 836.5 1H835.5ZM832 4.5C830.067 4.5 828.5 2.933 828.5 1H827.5C827.5 3.48528 829.515 5.5 832 5.5V4.5ZM827.5 1C827.5 2.933 825.933 4.5 824 4.5V5.5C826.485 5.5 828.5 3.48528 828.5 1H827.5Z" fill="#737679"/>
</g>
<g clip-path="url(#clip53_864_493)">
<path d="M840 5.5C840.276 5.5 840.5 5.27614 840.5 5C840.5 4.72386 840.276 4.5 840 4.5V5.5ZM836.5 1C836.5 0.723858 836.276 0.5 836 0.5C835.724 0.5 835.5 0.723858 835.5 1H836.5ZM828.5 1C828.5 0.723858 828.276 0.5 828 0.5C827.724 0.5 827.5 0.723858 827.5 1H828.5ZM824 4.5C823.724 4.5 823.5 4.72386 823.5 5C823.5 5.27614 823.724 5.5 824 5.5V4.5ZM856 5.5C856.276 5.5 856.5 5.27614 856.5 5C856.5 4.72386 856.276 4.5 856 4.5V5.5ZM852.5 1C852.5 0.723858 852.276 0.5 852 0.5C851.724 0.5 851.5 0.723858 851.5 1H852.5ZM844.5 1C844.5 0.723858 844.276 0.5 844 0.5C843.724 0.5 843.5 0.723858 843.5 1H844.5ZM840 4.5C839.724 4.5 839.5 4.72386 839.5 5C839.5 5.27614 839.724 5.5 840 5.5V4.5ZM840 4.5C838.067 4.5 836.5 2.933 836.5 1H835.5C835.5 3.48528 837.515 5.5 840 5.5V4.5ZM835.5 1C835.5 2.933 833.933 4.5 832 4.5V5.5C834.485 5.5 836.5 3.48528 836.5 1H835.5ZM832 4.5C830.067 4.5 828.5 2.933 828.5 1H827.5C827.5 3.48528 829.515 5.5 832 5.5V4.5ZM827.5 1C827.5 2.933 825.933 4.5 824 4.5V5.5C826.485 5.5 828.5 3.48528 828.5 1H827.5ZM856 4.5C854.067 4.5 852.5 2.933 852.5 1H851.5C851.5 3.48528 853.515 5.5 856 5.5V4.5ZM851.5 1C851.5 2.933 849.933 4.5 848 4.5V5.5C850.485 5.5 852.5 3.48528 852.5 1H851.5ZM848 4.5C846.067 4.5 844.5 2.933 844.5 1H843.5C843.5 3.48528 845.515 5.5 848 5.5V4.5ZM843.5 1C843.5 2.933 841.933 4.5 840 4.5V5.5C842.485 5.5 844.5 3.48528 844.5 1H843.5Z" fill="#737679"/>
</g>
<g clip-path="url(#clip54_864_493)">
<path d="M856 5.5C856.276 5.5 856.5 5.27614 856.5 5C856.5 4.72386 856.276 4.5 856 4.5V5.5ZM852.5 1C852.5 0.723858 852.276 0.5 852 0.5C851.724 0.5 851.5 0.723858 851.5 1H852.5ZM844.5 1C844.5 0.723858 844.276 0.5 844 0.5C843.724 0.5 843.5 0.723858 843.5 1H844.5ZM840 4.5C839.724 4.5 839.5 4.72386 839.5 5C839.5 5.27614 839.724 5.5 840 5.5V4.5ZM872 5.5C872.276 5.5 872.5 5.27614 872.5 5C872.5 4.72386 872.276 4.5 872 4.5V5.5ZM868.5 1C868.5 0.723858 868.276 0.5 868 0.5C867.724 0.5 867.5 0.723858 867.5 1H868.5ZM860.5 1C860.5 0.723858 860.276 0.5 860 0.5C859.724 0.5 859.5 0.723858 859.5 1H860.5ZM856 4.5C855.724 4.5 855.5 4.72386 855.5 5C855.5 5.27614 855.724 5.5 856 5.5V4.5ZM856 4.5C854.067 4.5 852.5 2.933 852.5 1H851.5C851.5 3.48528 853.515 5.5 856 5.5V4.5ZM851.5 1C851.5 2.933 849.933 4.5 848 4.5V5.5C850.485 5.5 852.5 3.48528 852.5 1H851.5ZM848 4.5C846.067 4.5 844.5 2.933 844.5 1H843.5C843.5 3.48528 845.515 5.5 848 5.5V4.5ZM843.5 1C843.5 2.933 841.933 4.5 840 4.5V5.5C842.485 5.5 844.5 3.48528 844.5 1H843.5ZM872 4.5C870.067 4.5 868.5 2.933 868.5 1H867.5C867.5 3.48528 869.515 5.5 872 5.5V4.5ZM867.5 1C867.5 2.933 865.933 4.5 864 4.5V5.5C866.485 5.5 868.5 3.48528 868.5 1H867.5ZM864 4.5C862.067 4.5 860.5 2.933 860.5 1H859.5C859.5 3.48528 861.515 5.5 864 5.5V4.5ZM859.5 1C859.5 2.933 857.933 4.5 856 4.5V5.5C858.485 5.5 860.5 3.48528 860.5 1H859.5Z" fill="#737679"/>
</g>
<g clip-path="url(#clip55_864_493)">
<path d="M872 5.5C872.276 5.5 872.5 5.27614 872.5 5C872.5 4.72386 872.276 4.5 872 4.5V5.5ZM868.5 1C868.5 0.723858 868.276 0.5 868 0.5C867.724 0.5 867.5 0.723858 867.5 1H868.5ZM860.5 1C860.5 0.723858 860.276 0.5 860 0.5C859.724 0.5 859.5 0.723858 859.5 1H860.5ZM856 4.5C855.724 4.5 855.5 4.72386 855.5 5C855.5 5.27614 855.724 5.5 856 5.5V4.5ZM888 5.5C888.276 5.5 888.5 5.27614 888.5 5C888.5 4.72386 888.276 4.5 888 4.5V5.5ZM884.5 1C884.5 0.723858 884.276 0.5 884 0.5C883.724 0.5 883.5 0.723858 883.5 1H884.5ZM876.5 1C876.5 0.723858 876.276 0.5 876 0.5C875.724 0.5 875.5 0.723858 875.5 1H876.5ZM872 4.5C871.724 4.5 871.5 4.72386 871.5 5C871.5 5.27614 871.724 5.5 872 5.5V4.5ZM872 4.5C870.067 4.5 868.5 2.933 868.5 1H867.5C867.5 3.48528 869.515 5.5 872 5.5V4.5ZM867.5 1C867.5 2.933 865.933 4.5 864 4.5V5.5C866.485 5.5 868.5 3.48528 868.5 1H867.5ZM864 4.5C862.067 4.5 860.5 2.933 860.5 1H859.5C859.5 3.48528 861.515 5.5 864 5.5V4.5ZM859.5 1C859.5 2.933 857.933 4.5 856 4.5V5.5C858.485 5.5 860.5 3.48528 860.5 1H859.5ZM888 4.5C886.067 4.5 884.5 2.933 884.5 1H883.5C883.5 3.48528 885.515 5.5 888 5.5V4.5ZM883.5 1C883.5 2.933 881.933 4.5 880 4.5V5.5C882.485 5.5 884.5 3.48528 884.5 1H883.5ZM880 4.5C878.067 4.5 876.5 2.933 876.5 1H875.5C875.5 3.48528 877.515 5.5 880 5.5V4.5ZM875.5 1C875.5 2.933 873.933 4.5 872 4.5V5.5C874.485 5.5 876.5 3.48528 876.5 1H875.5Z" fill="#737679"/>
</g>
<g clip-path="url(#clip56_864_493)">
<path d="M888 5.5C888.276 5.5 888.5 5.27614 888.5 5C888.5 4.72386 888.276 4.5 888 4.5V5.5ZM884.5 1C884.5 0.723858 884.276 0.5 884 0.5C883.724 0.5 883.5 0.723858 883.5 1H884.5ZM876.5 1C876.5 0.723858 876.276 0.5 876 0.5C875.724 0.5 875.5 0.723858 875.5 1H876.5ZM872 4.5C871.724 4.5 871.5 4.72386 871.5 5C871.5 5.27614 871.724 5.5 872 5.5V4.5ZM904 5.5C904.276 5.5 904.5 5.27614 904.5 5C904.5 4.72386 904.276 4.5 904 4.5V5.5ZM900.5 1C900.5 0.723858 900.276 0.5 900 0.5C899.724 0.5 899.5 0.723858 899.5 1H900.5ZM892.5 1C892.5 0.723858 892.276 0.5 892 0.5C891.724 0.5 891.5 0.723858 891.5 1H892.5ZM888 4.5C887.724 4.5 887.5 4.72386 887.5 5C887.5 5.27614 887.724 5.5 888 5.5V4.5ZM888 4.5C886.067 4.5 884.5 2.933 884.5 1H883.5C883.5 3.48528 885.515 5.5 888 5.5V4.5ZM883.5 1C883.5 2.933 881.933 4.5 880 4.5V5.5C882.485 5.5 884.5 3.48528 884.5 1H883.5ZM880 4.5C878.067 4.5 876.5 2.933 876.5 1H875.5C875.5 3.48528 877.515 5.5 880 5.5V4.5ZM875.5 1C875.5 2.933 873.933 4.5 872 4.5V5.5C874.485 5.5 876.5 3.48528 876.5 1H875.5ZM904 4.5C902.067 4.5 900.5 2.933 900.5 1H899.5C899.5 3.48528 901.515 5.5 904 5.5V4.5ZM899.5 1C899.5 2.933 897.933 4.5 896 4.5V5.5C898.485 5.5 900.5 3.48528 900.5 1H899.5ZM896 4.5C894.067 4.5 892.5 2.933 892.5 1H891.5C891.5 3.48528 893.515 5.5 896 5.5V4.5ZM891.5 1C891.5 2.933 889.933 4.5 888 4.5V5.5C890.485 5.5 892.5 3.48528 892.5 1H891.5Z" fill="#737679"/>
</g>
<g clip-path="url(#clip57_864_493)">
<path d="M904 5.5C904.276 5.5 904.5 5.27614 904.5 5C904.5 4.72386 904.276 4.5 904 4.5V5.5ZM900.5 1C900.5 0.723858 900.276 0.5 900 0.5C899.724 0.5 899.5 0.723858 899.5 1H900.5ZM892.5 1C892.5 0.723858 892.276 0.5 892 0.5C891.724 0.5 891.5 0.723858 891.5 1H892.5ZM888 4.5C887.724 4.5 887.5 4.72386 887.5 5C887.5 5.27614 887.724 5.5 888 5.5V4.5ZM920 5.5C920.276 5.5 920.5 5.27614 920.5 5C920.5 4.72386 920.276 4.5 920 4.5V5.5ZM916.5 1C916.5 0.723858 916.276 0.5 916 0.5C915.724 0.5 915.5 0.723858 915.5 1H916.5ZM908.5 1C908.5 0.723858 908.276 0.5 908 0.5C907.724 0.5 907.5 0.723858 907.5 1H908.5ZM904 4.5C903.724 4.5 903.5 4.72386 903.5 5C903.5 5.27614 903.724 5.5 904 5.5V4.5ZM904 4.5C902.067 4.5 900.5 2.933 900.5 1H899.5C899.5 3.48528 901.515 5.5 904 5.5V4.5ZM899.5 1C899.5 2.933 897.933 4.5 896 4.5V5.5C898.485 5.5 900.5 3.48528 900.5 1H899.5ZM896 4.5C894.067 4.5 892.5 2.933 892.5 1H891.5C891.5 3.48528 893.515 5.5 896 5.5V4.5ZM891.5 1C891.5 2.933 889.933 4.5 888 4.5V5.5C890.485 5.5 892.5 3.48528 892.5 1H891.5ZM920 4.5C918.067 4.5 916.5 2.933 916.5 1H915.5C915.5 3.48528 917.515 5.5 920 5.5V4.5ZM915.5 1C915.5 2.933 913.933 4.5 912 4.5V5.5C914.485 5.5 916.5 3.48528 916.5 1H915.5ZM912 4.5C910.067 4.5 908.5 2.933 908.5 1H907.5C907.5 3.48528 909.515 5.5 912 5.5V4.5ZM907.5 1C907.5 2.933 905.933 4.5 904 4.5V5.5C906.485 5.5 908.5 3.48528 908.5 1H907.5Z" fill="#737679"/>
</g>
<g clip-path="url(#clip58_864_493)">
<path d="M920 5.5C920.276 5.5 920.5 5.27614 920.5 5C920.5 4.72386 920.276 4.5 920 4.5V5.5ZM916.5 1C916.5 0.723858 916.276 0.5 916 0.5C915.724 0.5 915.5 0.723858 915.5 1H916.5ZM908.5 1C908.5 0.723858 908.276 0.5 908 0.5C907.724 0.5 907.5 0.723858 907.5 1H908.5ZM904 4.5C903.724 4.5 903.5 4.72386 903.5 5C903.5 5.27614 903.724 5.5 904 5.5V4.5ZM936 5.5C936.276 5.5 936.5 5.27614 936.5 5C936.5 4.72386 936.276 4.5 936 4.5V5.5ZM932.5 1C932.5 0.723858 932.276 0.5 932 0.5C931.724 0.5 931.5 0.723858 931.5 1H932.5ZM924.5 1C924.5 0.723858 924.276 0.5 924 0.5C923.724 0.5 923.5 0.723858 923.5 1H924.5ZM920 4.5C919.724 4.5 919.5 4.72386 919.5 5C919.5 5.27614 919.724 5.5 920 5.5V4.5ZM920 4.5C918.067 4.5 916.5 2.933 916.5 1H915.5C915.5 3.48528 917.515 5.5 920 5.5V4.5ZM915.5 1C915.5 2.933 913.933 4.5 912 4.5V5.5C914.485 5.5 916.5 3.48528 916.5 1H915.5ZM912 4.5C910.067 4.5 908.5 2.933 908.5 1H907.5C907.5 3.48528 909.515 5.5 912 5.5V4.5ZM907.5 1C907.5 2.933 905.933 4.5 904 4.5V5.5C906.485 5.5 908.5 3.48528 908.5 1H907.5ZM936 4.5C934.067 4.5 932.5 2.933 932.5 1H931.5C931.5 3.48528 933.515 5.5 936 5.5V4.5ZM931.5 1C931.5 2.933 929.933 4.5 928 4.5V5.5C930.485 5.5 932.5 3.48528 932.5 1H931.5ZM928 4.5C926.067 4.5 924.5 2.933 924.5 1H923.5C923.5 3.48528 925.515 5.5 928 5.5V4.5ZM923.5 1C923.5 2.933 921.933 4.5 920 4.5V5.5C922.485 5.5 924.5 3.48528 924.5 1H923.5Z" fill="#737679"/>
</g>
<g clip-path="url(#clip59_864_493)">
<path d="M936 5.5C936.276 5.5 936.5 5.27614 936.5 5C936.5 4.72386 936.276 4.5 936 4.5V5.5ZM932.5 1C932.5 0.723858 932.276 0.5 932 0.5C931.724 0.5 931.5 0.723858 931.5 1H932.5ZM924.5 1C924.5 0.723858 924.276 0.5 924 0.5C923.724 0.5 923.5 0.723858 923.5 1H924.5ZM920 4.5C919.724 4.5 919.5 4.72386 919.5 5C919.5 5.27614 919.724 5.5 920 5.5V4.5ZM952 5.5C952.276 5.5 952.5 5.27614 952.5 5C952.5 4.72386 952.276 4.5 952 4.5V5.5ZM948.5 1C948.5 0.723858 948.276 0.5 948 0.5C947.724 0.5 947.5 0.723858 947.5 1H948.5ZM940.5 1C940.5 0.723858 940.276 0.5 940 0.5C939.724 0.5 939.5 0.723858 939.5 1H940.5ZM936 4.5C935.724 4.5 935.5 4.72386 935.5 5C935.5 5.27614 935.724 5.5 936 5.5V4.5ZM936 4.5C934.067 4.5 932.5 2.933 932.5 1H931.5C931.5 3.48528 933.515 5.5 936 5.5V4.5ZM931.5 1C931.5 2.933 929.933 4.5 928 4.5V5.5C930.485 5.5 932.5 3.48528 932.5 1H931.5ZM928 4.5C926.067 4.5 924.5 2.933 924.5 1H923.5C923.5 3.48528 925.515 5.5 928 5.5V4.5ZM923.5 1C923.5 2.933 921.933 4.5 920 4.5V5.5C922.485 5.5 924.5 3.48528 924.5 1H923.5ZM952 4.5C950.067 4.5 948.5 2.933 948.5 1H947.5C947.5 3.48528 949.515 5.5 952 5.5V4.5ZM947.5 1C947.5 2.933 945.933 4.5 944 4.5V5.5C946.485 5.5 948.5 3.48528 948.5 1H947.5ZM944 4.5C942.067 4.5 940.5 2.933 940.5 1H939.5C939.5 3.48528 941.515 5.5 944 5.5V4.5ZM939.5 1C939.5 2.933 937.933 4.5 936 4.5V5.5C938.485 5.5 940.5 3.48528 940.5 1H939.5Z" fill="#737679"/>
</g>
<g clip-path="url(#clip60_864_493)">
<path d="M952 5.5C952.276 5.5 952.5 5.27614 952.5 5C952.5 4.72386 952.276 4.5 952 4.5V5.5ZM948.5 1C948.5 0.723858 948.276 0.5 948 0.5C947.724 0.5 947.5 0.723858 947.5 1H948.5ZM940.5 1C940.5 0.723858 940.276 0.5 940 0.5C939.724 0.5 939.5 0.723858 939.5 1H940.5ZM936 4.5C935.724 4.5 935.5 4.72386 935.5 5C935.5 5.27614 935.724 5.5 936 5.5V4.5ZM968 5.5C968.276 5.5 968.5 5.27614 968.5 5C968.5 4.72386 968.276 4.5 968 4.5V5.5ZM964.5 1C964.5 0.723858 964.276 0.5 964 0.5C963.724 0.5 963.5 0.723858 963.5 1H964.5ZM956.5 1C956.5 0.723858 956.276 0.5 956 0.5C955.724 0.5 955.5 0.723858 955.5 1H956.5ZM952 4.5C951.724 4.5 951.5 4.72386 951.5 5C951.5 5.27614 951.724 5.5 952 5.5V4.5ZM952 4.5C950.067 4.5 948.5 2.933 948.5 1H947.5C947.5 3.48528 949.515 5.5 952 5.5V4.5ZM947.5 1C947.5 2.933 945.933 4.5 944 4.5V5.5C946.485 5.5 948.5 3.48528 948.5 1H947.5ZM944 4.5C942.067 4.5 940.5 2.933 940.5 1H939.5C939.5 3.48528 941.515 5.5 944 5.5V4.5ZM939.5 1C939.5 2.933 937.933 4.5 936 4.5V5.5C938.485 5.5 940.5 3.48528 940.5 1H939.5ZM968 4.5C966.067 4.5 964.5 2.933 964.5 1H963.5C963.5 3.48528 965.515 5.5 968 5.5V4.5ZM963.5 1C963.5 2.933 961.933 4.5 960 4.5V5.5C962.485 5.5 964.5 3.48528 964.5 1H963.5ZM960 4.5C958.067 4.5 956.5 2.933 956.5 1H955.5C955.5 3.48528 957.515 5.5 960 5.5V4.5ZM955.5 1C955.5 2.933 953.933 4.5 952 4.5V5.5C954.485 5.5 956.5 3.48528 956.5 1H955.5Z" fill="#737679"/>
</g>
<g clip-path="url(#clip61_864_493)">
<path d="M968 5.5C968.276 5.5 968.5 5.27614 968.5 5C968.5 4.72386 968.276 4.5 968 4.5V5.5ZM964.5 1C964.5 0.723858 964.276 0.5 964 0.5C963.724 0.5 963.5 0.723858 963.5 1H964.5ZM956.5 1C956.5 0.723858 956.276 0.5 956 0.5C955.724 0.5 955.5 0.723858 955.5 1H956.5ZM952 4.5C951.724 4.5 951.5 4.72386 951.5 5C951.5 5.27614 951.724 5.5 952 5.5V4.5ZM984 5.5C984.276 5.5 984.5 5.27614 984.5 5C984.5 4.72386 984.276 4.5 984 4.5V5.5ZM980.5 1C980.5 0.723858 980.276 0.5 980 0.5C979.724 0.5 979.5 0.723858 979.5 1H980.5ZM972.5 1C972.5 0.723858 972.276 0.5 972 0.5C971.724 0.5 971.5 0.723858 971.5 1H972.5ZM968 4.5C967.724 4.5 967.5 4.72386 967.5 5C967.5 5.27614 967.724 5.5 968 5.5V4.5ZM968 4.5C966.067 4.5 964.5 2.933 964.5 1H963.5C963.5 3.48528 965.515 5.5 968 5.5V4.5ZM963.5 1C963.5 2.933 961.933 4.5 960 4.5V5.5C962.485 5.5 964.5 3.48528 964.5 1H963.5ZM960 4.5C958.067 4.5 956.5 2.933 956.5 1H955.5C955.5 3.48528 957.515 5.5 960 5.5V4.5ZM955.5 1C955.5 2.933 953.933 4.5 952 4.5V5.5C954.485 5.5 956.5 3.48528 956.5 1H955.5ZM984 4.5C982.067 4.5 980.5 2.933 980.5 1H979.5C979.5 3.48528 981.515 5.5 984 5.5V4.5ZM979.5 1C979.5 2.933 977.933 4.5 976 4.5V5.5C978.485 5.5 980.5 3.48528 980.5 1H979.5ZM976 4.5C974.067 4.5 972.5 2.933 972.5 1H971.5C971.5 3.48528 973.515 5.5 976 5.5V4.5ZM971.5 1C971.5 2.933 969.933 4.5 968 4.5V5.5C970.485 5.5 972.5 3.48528 972.5 1H971.5Z" fill="#737679"/>
</g>
</g>
<defs>
<clipPath id="clip0_864_493">
<rect width="960" height="6" fill="white"/>
</clipPath>
<clipPath id="clip1_864_493">
<rect width="16" height="6" fill="white" transform="translate(-8)"/>
</clipPath>
<clipPath id="clip2_864_493">
<rect width="16" height="6" fill="white" transform="translate(8)"/>
</clipPath>
<clipPath id="clip3_864_493">
<rect width="16" height="6" fill="white" transform="translate(24)"/>
</clipPath>
<clipPath id="clip4_864_493">
<rect width="16" height="6" fill="white" transform="translate(40)"/>
</clipPath>
<clipPath id="clip5_864_493">
<rect width="16" height="6" fill="white" transform="translate(56)"/>
</clipPath>
<clipPath id="clip6_864_493">
<rect width="16" height="6" fill="white" transform="translate(72)"/>
</clipPath>
<clipPath id="clip7_864_493">
<rect width="16" height="6" fill="white" transform="translate(88)"/>
</clipPath>
<clipPath id="clip8_864_493">
<rect width="16" height="6" fill="white" transform="translate(104)"/>
</clipPath>
<clipPath id="clip9_864_493">
<rect width="16" height="6" fill="white" transform="translate(120)"/>
</clipPath>
<clipPath id="clip10_864_493">
<rect width="16" height="6" fill="white" transform="translate(136)"/>
</clipPath>
<clipPath id="clip11_864_493">
<rect width="16" height="6" fill="white" transform="translate(152)"/>
</clipPath>
<clipPath id="clip12_864_493">
<rect width="16" height="6" fill="white" transform="translate(168)"/>
</clipPath>
<clipPath id="clip13_864_493">
<rect width="16" height="6" fill="white" transform="translate(184)"/>
</clipPath>
<clipPath id="clip14_864_493">
<rect width="16" height="6" fill="white" transform="translate(200)"/>
</clipPath>
<clipPath id="clip15_864_493">
<rect width="16" height="6" fill="white" transform="translate(216)"/>
</clipPath>
<clipPath id="clip16_864_493">
<rect width="16" height="6" fill="white" transform="translate(232)"/>
</clipPath>
<clipPath id="clip17_864_493">
<rect width="16" height="6" fill="white" transform="translate(248)"/>
</clipPath>
<clipPath id="clip18_864_493">
<rect width="16" height="6" fill="white" transform="translate(264)"/>
</clipPath>
<clipPath id="clip19_864_493">
<rect width="16" height="6" fill="white" transform="translate(280)"/>
</clipPath>
<clipPath id="clip20_864_493">
<rect width="16" height="6" fill="white" transform="translate(296)"/>
</clipPath>
<clipPath id="clip21_864_493">
<rect width="16" height="6" fill="white" transform="translate(312)"/>
</clipPath>
<clipPath id="clip22_864_493">
<rect width="16" height="6" fill="white" transform="translate(328)"/>
</clipPath>
<clipPath id="clip23_864_493">
<rect width="16" height="6" fill="white" transform="translate(344)"/>
</clipPath>
<clipPath id="clip24_864_493">
<rect width="16" height="6" fill="white" transform="translate(360)"/>
</clipPath>
<clipPath id="clip25_864_493">
<rect width="16" height="6" fill="white" transform="translate(376)"/>
</clipPath>
<clipPath id="clip26_864_493">
<rect width="16" height="6" fill="white" transform="translate(392)"/>
</clipPath>
<clipPath id="clip27_864_493">
<rect width="16" height="6" fill="white" transform="translate(408)"/>
</clipPath>
<clipPath id="clip28_864_493">
<rect width="16" height="6" fill="white" transform="translate(424)"/>
</clipPath>
<clipPath id="clip29_864_493">
<rect width="16" height="6" fill="white" transform="translate(440)"/>
</clipPath>
<clipPath id="clip30_864_493">
<rect width="16" height="6" fill="white" transform="translate(456)"/>
</clipPath>
<clipPath id="clip31_864_493">
<rect width="16" height="6" fill="white" transform="translate(472)"/>
</clipPath>
<clipPath id="clip32_864_493">
<rect width="16" height="6" fill="white" transform="translate(488)"/>
</clipPath>
<clipPath id="clip33_864_493">
<rect width="16" height="6" fill="white" transform="translate(504)"/>
</clipPath>
<clipPath id="clip34_864_493">
<rect width="16" height="6" fill="white" transform="translate(520)"/>
</clipPath>
<clipPath id="clip35_864_493">
<rect width="16" height="6" fill="white" transform="translate(536)"/>
</clipPath>
<clipPath id="clip36_864_493">
<rect width="16" height="6" fill="white" transform="translate(552)"/>
</clipPath>
<clipPath id="clip37_864_493">
<rect width="16" height="6" fill="white" transform="translate(568)"/>
</clipPath>
<clipPath id="clip38_864_493">
<rect width="16" height="6" fill="white" transform="translate(584)"/>
</clipPath>
<clipPath id="clip39_864_493">
<rect width="16" height="6" fill="white" transform="translate(600)"/>
</clipPath>
<clipPath id="clip40_864_493">
<rect width="16" height="6" fill="white" transform="translate(616)"/>
</clipPath>
<clipPath id="clip41_864_493">
<rect width="16" height="6" fill="white" transform="translate(632)"/>
</clipPath>
<clipPath id="clip42_864_493">
<rect width="16" height="6" fill="white" transform="translate(648)"/>
</clipPath>
<clipPath id="clip43_864_493">
<rect width="16" height="6" fill="white" transform="translate(664)"/>
</clipPath>
<clipPath id="clip44_864_493">
<rect width="16" height="6" fill="white" transform="translate(680)"/>
</clipPath>
<clipPath id="clip45_864_493">
<rect width="16" height="6" fill="white" transform="translate(696)"/>
</clipPath>
<clipPath id="clip46_864_493">
<rect width="16" height="6" fill="white" transform="translate(712)"/>
</clipPath>
<clipPath id="clip47_864_493">
<rect width="16" height="6" fill="white" transform="translate(728)"/>
</clipPath>
<clipPath id="clip48_864_493">
<rect width="16" height="6" fill="white" transform="translate(744)"/>
</clipPath>
<clipPath id="clip49_864_493">
<rect width="16" height="6" fill="white" transform="translate(760)"/>
</clipPath>
<clipPath id="clip50_864_493">
<rect width="16" height="6" fill="white" transform="translate(776)"/>
</clipPath>
<clipPath id="clip51_864_493">
<rect width="16" height="6" fill="white" transform="translate(792)"/>
</clipPath>
<clipPath id="clip52_864_493">
<rect width="16" height="6" fill="white" transform="translate(808)"/>
</clipPath>
<clipPath id="clip53_864_493">
<rect width="16" height="6" fill="white" transform="translate(824)"/>
</clipPath>
<clipPath id="clip54_864_493">
<rect width="16" height="6" fill="white" transform="translate(840)"/>
</clipPath>
<clipPath id="clip55_864_493">
<rect width="16" height="6" fill="white" transform="translate(856)"/>
</clipPath>
<clipPath id="clip56_864_493">
<rect width="16" height="6" fill="white" transform="translate(872)"/>
</clipPath>
<clipPath id="clip57_864_493">
<rect width="16" height="6" fill="white" transform="translate(888)"/>
</clipPath>
<clipPath id="clip58_864_493">
<rect width="16" height="6" fill="white" transform="translate(904)"/>
</clipPath>
<clipPath id="clip59_864_493">
<rect width="16" height="6" fill="white" transform="translate(920)"/>
</clipPath>
<clipPath id="clip60_864_493">
<rect width="16" height="6" fill="white" transform="translate(936)"/>
</clipPath>
<clipPath id="clip61_864_493">
<rect width="16" height="6" fill="white" transform="translate(952)"/>
</clipPath>
</defs>
</svg>
