<svg width="821" height="6" viewBox="0 0 821 6" fill="none" xmlns="http://www.w3.org/2000/svg">
<g clip-path="url(#clip0_844_1604)">
<g clip-path="url(#clip1_844_1604)">
<path d="M2.5 5.5C2.77614 5.5 3 5.27614 3 5C3 4.72386 2.77614 4.5 2.5 4.5V5.5ZM-1 1C-1 0.723858 -1.22386 0.5 -1.5 0.5C-1.77614 0.5 -2 0.723858 -2 1H-1ZM-9 1C-9 0.723858 -9.22386 0.5 -9.5 0.5C-9.77614 0.5 -10 0.723858 -10 1H-9ZM-13.5 4.5C-13.7761 4.5 -14 4.72386 -14 5C-14 5.27614 -13.7761 5.5 -13.5 5.5V4.5ZM18.5 5.5C18.7761 5.5 19 5.27614 19 5C19 4.72386 18.7761 4.5 18.5 4.5V5.5ZM15 1C15 0.723858 14.7761 0.5 14.5 0.5C14.2239 0.5 14 0.723858 14 1H15ZM7 1C7 0.723858 6.77614 0.5 6.5 0.5C6.22386 0.5 6 0.723858 6 1H7ZM2.5 4.5C2.22386 4.5 2 4.72386 2 5C2 5.27614 2.22386 5.5 2.5 5.5V4.5ZM2.5 4.5C0.567003 4.5 -1 2.933 -1 1H-2C-2 3.48528 0.0147181 5.5 2.5 5.5V4.5ZM-2 1C-2 2.933 -3.567 4.5 -5.5 4.5V5.5C-3.01472 5.5 -1 3.48528 -1 1H-2ZM-5.5 4.5C-7.433 4.5 -9 2.933 -9 1H-10C-10 3.48528 -7.98528 5.5 -5.5 5.5V4.5ZM-10 1C-10 2.933 -11.567 4.5 -13.5 4.5V5.5C-11.0147 5.5 -9 3.48528 -9 1H-10ZM18.5 4.5C16.567 4.5 15 2.933 15 1H14C14 3.48528 16.0147 5.5 18.5 5.5V4.5ZM14 1C14 2.933 12.433 4.5 10.5 4.5V5.5C12.9853 5.5 15 3.48528 15 1H14ZM10.5 4.5C8.567 4.5 7 2.933 7 1H6C6 3.48528 8.01472 5.5 10.5 5.5V4.5ZM6 1C6 2.933 4.433 4.5 2.5 4.5V5.5C4.98528 5.5 7 3.48528 7 1H6Z" fill="#737679"/>
</g>
<g clip-path="url(#clip2_844_1604)">
<path d="M18.5 5.5C18.7761 5.5 19 5.27614 19 5C19 4.72386 18.7761 4.5 18.5 4.5V5.5ZM15 1C15 0.723858 14.7761 0.5 14.5 0.5C14.2239 0.5 14 0.723858 14 1H15ZM7 1C7 0.723858 6.77614 0.5 6.5 0.5C6.22386 0.5 6 0.723858 6 1H7ZM2.5 4.5C2.22386 4.5 2 4.72386 2 5C2 5.27614 2.22386 5.5 2.5 5.5V4.5ZM34.5 5.5C34.7761 5.5 35 5.27614 35 5C35 4.72386 34.7761 4.5 34.5 4.5V5.5ZM31 1C31 0.723858 30.7761 0.5 30.5 0.5C30.2239 0.5 30 0.723858 30 1H31ZM23 1C23 0.723858 22.7761 0.5 22.5 0.5C22.2239 0.5 22 0.723858 22 1H23ZM18.5 4.5C18.2239 4.5 18 4.72386 18 5C18 5.27614 18.2239 5.5 18.5 5.5V4.5ZM18.5 4.5C16.567 4.5 15 2.933 15 1H14C14 3.48528 16.0147 5.5 18.5 5.5V4.5ZM14 1C14 2.933 12.433 4.5 10.5 4.5V5.5C12.9853 5.5 15 3.48528 15 1H14ZM10.5 4.5C8.567 4.5 7 2.933 7 1H6C6 3.48528 8.01472 5.5 10.5 5.5V4.5ZM6 1C6 2.933 4.433 4.5 2.5 4.5V5.5C4.98528 5.5 7 3.48528 7 1H6ZM34.5 4.5C32.567 4.5 31 2.933 31 1H30C30 3.48528 32.0147 5.5 34.5 5.5V4.5ZM30 1C30 2.933 28.433 4.5 26.5 4.5V5.5C28.9853 5.5 31 3.48528 31 1H30ZM26.5 4.5C24.567 4.5 23 2.933 23 1H22C22 3.48528 24.0147 5.5 26.5 5.5V4.5ZM22 1C22 2.933 20.433 4.5 18.5 4.5V5.5C20.9853 5.5 23 3.48528 23 1H22Z" fill="#737679"/>
</g>
<g clip-path="url(#clip3_844_1604)">
<path d="M34.5 5.5C34.7761 5.5 35 5.27614 35 5C35 4.72386 34.7761 4.5 34.5 4.5V5.5ZM31 1C31 0.723858 30.7761 0.5 30.5 0.5C30.2239 0.5 30 0.723858 30 1H31ZM23 1C23 0.723858 22.7761 0.5 22.5 0.5C22.2239 0.5 22 0.723858 22 1H23ZM18.5 4.5C18.2239 4.5 18 4.72386 18 5C18 5.27614 18.2239 5.5 18.5 5.5V4.5ZM50.5 5.5C50.7761 5.5 51 5.27614 51 5C51 4.72386 50.7761 4.5 50.5 4.5V5.5ZM47 1C47 0.723858 46.7761 0.5 46.5 0.5C46.2239 0.5 46 0.723858 46 1H47ZM39 1C39 0.723858 38.7761 0.5 38.5 0.5C38.2239 0.5 38 0.723858 38 1H39ZM34.5 4.5C34.2239 4.5 34 4.72386 34 5C34 5.27614 34.2239 5.5 34.5 5.5V4.5ZM34.5 4.5C32.567 4.5 31 2.933 31 1H30C30 3.48528 32.0147 5.5 34.5 5.5V4.5ZM30 1C30 2.933 28.433 4.5 26.5 4.5V5.5C28.9853 5.5 31 3.48528 31 1H30ZM26.5 4.5C24.567 4.5 23 2.933 23 1H22C22 3.48528 24.0147 5.5 26.5 5.5V4.5ZM22 1C22 2.933 20.433 4.5 18.5 4.5V5.5C20.9853 5.5 23 3.48528 23 1H22ZM50.5 4.5C48.567 4.5 47 2.933 47 1H46C46 3.48528 48.0147 5.5 50.5 5.5V4.5ZM46 1C46 2.933 44.433 4.5 42.5 4.5V5.5C44.9853 5.5 47 3.48528 47 1H46ZM42.5 4.5C40.567 4.5 39 2.933 39 1H38C38 3.48528 40.0147 5.5 42.5 5.5V4.5ZM38 1C38 2.933 36.433 4.5 34.5 4.5V5.5C36.9853 5.5 39 3.48528 39 1H38Z" fill="#737679"/>
</g>
<g clip-path="url(#clip4_844_1604)">
<path d="M50.5 5.5C50.7761 5.5 51 5.27614 51 5C51 4.72386 50.7761 4.5 50.5 4.5V5.5ZM47 1C47 0.723858 46.7761 0.5 46.5 0.5C46.2239 0.5 46 0.723858 46 1H47ZM39 1C39 0.723858 38.7761 0.5 38.5 0.5C38.2239 0.5 38 0.723858 38 1H39ZM34.5 4.5C34.2239 4.5 34 4.72386 34 5C34 5.27614 34.2239 5.5 34.5 5.5V4.5ZM66.5 5.5C66.7761 5.5 67 5.27614 67 5C67 4.72386 66.7761 4.5 66.5 4.5V5.5ZM63 1C63 0.723858 62.7761 0.5 62.5 0.5C62.2239 0.5 62 0.723858 62 1H63ZM55 1C55 0.723858 54.7761 0.5 54.5 0.5C54.2239 0.5 54 0.723858 54 1H55ZM50.5 4.5C50.2239 4.5 50 4.72386 50 5C50 5.27614 50.2239 5.5 50.5 5.5V4.5ZM50.5 4.5C48.567 4.5 47 2.933 47 1H46C46 3.48528 48.0147 5.5 50.5 5.5V4.5ZM46 1C46 2.933 44.433 4.5 42.5 4.5V5.5C44.9853 5.5 47 3.48528 47 1H46ZM42.5 4.5C40.567 4.5 39 2.933 39 1H38C38 3.48528 40.0147 5.5 42.5 5.5V4.5ZM38 1C38 2.933 36.433 4.5 34.5 4.5V5.5C36.9853 5.5 39 3.48528 39 1H38ZM66.5 4.5C64.567 4.5 63 2.933 63 1H62C62 3.48528 64.0147 5.5 66.5 5.5V4.5ZM62 1C62 2.933 60.433 4.5 58.5 4.5V5.5C60.9853 5.5 63 3.48528 63 1H62ZM58.5 4.5C56.567 4.5 55 2.933 55 1H54C54 3.48528 56.0147 5.5 58.5 5.5V4.5ZM54 1C54 2.933 52.433 4.5 50.5 4.5V5.5C52.9853 5.5 55 3.48528 55 1H54Z" fill="#737679"/>
</g>
<g clip-path="url(#clip5_844_1604)">
<path d="M66.5 5.5C66.7761 5.5 67 5.27614 67 5C67 4.72386 66.7761 4.5 66.5 4.5V5.5ZM63 1C63 0.723858 62.7761 0.5 62.5 0.5C62.2239 0.5 62 0.723858 62 1H63ZM55 1C55 0.723858 54.7761 0.5 54.5 0.5C54.2239 0.5 54 0.723858 54 1H55ZM50.5 4.5C50.2239 4.5 50 4.72386 50 5C50 5.27614 50.2239 5.5 50.5 5.5V4.5ZM82.5 5.5C82.7761 5.5 83 5.27614 83 5C83 4.72386 82.7761 4.5 82.5 4.5V5.5ZM79 1C79 0.723858 78.7761 0.5 78.5 0.5C78.2239 0.5 78 0.723858 78 1H79ZM71 1C71 0.723858 70.7761 0.5 70.5 0.5C70.2239 0.5 70 0.723858 70 1H71ZM66.5 4.5C66.2239 4.5 66 4.72386 66 5C66 5.27614 66.2239 5.5 66.5 5.5V4.5ZM66.5 4.5C64.567 4.5 63 2.933 63 1H62C62 3.48528 64.0147 5.5 66.5 5.5V4.5ZM62 1C62 2.933 60.433 4.5 58.5 4.5V5.5C60.9853 5.5 63 3.48528 63 1H62ZM58.5 4.5C56.567 4.5 55 2.933 55 1H54C54 3.48528 56.0147 5.5 58.5 5.5V4.5ZM54 1C54 2.933 52.433 4.5 50.5 4.5V5.5C52.9853 5.5 55 3.48528 55 1H54ZM82.5 4.5C80.567 4.5 79 2.933 79 1H78C78 3.48528 80.0147 5.5 82.5 5.5V4.5ZM78 1C78 2.933 76.433 4.5 74.5 4.5V5.5C76.9853 5.5 79 3.48528 79 1H78ZM74.5 4.5C72.567 4.5 71 2.933 71 1H70C70 3.48528 72.0147 5.5 74.5 5.5V4.5ZM70 1C70 2.933 68.433 4.5 66.5 4.5V5.5C68.9853 5.5 71 3.48528 71 1H70Z" fill="#737679"/>
</g>
<g clip-path="url(#clip6_844_1604)">
<path d="M82.5 5.5C82.7761 5.5 83 5.27614 83 5C83 4.72386 82.7761 4.5 82.5 4.5V5.5ZM79 1C79 0.723858 78.7761 0.5 78.5 0.5C78.2239 0.5 78 0.723858 78 1H79ZM71 1C71 0.723858 70.7761 0.5 70.5 0.5C70.2239 0.5 70 0.723858 70 1H71ZM66.5 4.5C66.2239 4.5 66 4.72386 66 5C66 5.27614 66.2239 5.5 66.5 5.5V4.5ZM98.5 5.5C98.7761 5.5 99 5.27614 99 5C99 4.72386 98.7761 4.5 98.5 4.5V5.5ZM95 1C95 0.723858 94.7761 0.5 94.5 0.5C94.2239 0.5 94 0.723858 94 1H95ZM87 1C87 0.723858 86.7761 0.5 86.5 0.5C86.2239 0.5 86 0.723858 86 1H87ZM82.5 4.5C82.2239 4.5 82 4.72386 82 5C82 5.27614 82.2239 5.5 82.5 5.5V4.5ZM82.5 4.5C80.567 4.5 79 2.933 79 1H78C78 3.48528 80.0147 5.5 82.5 5.5V4.5ZM78 1C78 2.933 76.433 4.5 74.5 4.5V5.5C76.9853 5.5 79 3.48528 79 1H78ZM74.5 4.5C72.567 4.5 71 2.933 71 1H70C70 3.48528 72.0147 5.5 74.5 5.5V4.5ZM70 1C70 2.933 68.433 4.5 66.5 4.5V5.5C68.9853 5.5 71 3.48528 71 1H70ZM98.5 4.5C96.567 4.5 95 2.933 95 1H94C94 3.48528 96.0147 5.5 98.5 5.5V4.5ZM94 1C94 2.933 92.433 4.5 90.5 4.5V5.5C92.9853 5.5 95 3.48528 95 1H94ZM90.5 4.5C88.567 4.5 87 2.933 87 1H86C86 3.48528 88.0147 5.5 90.5 5.5V4.5ZM86 1C86 2.933 84.433 4.5 82.5 4.5V5.5C84.9853 5.5 87 3.48528 87 1H86Z" fill="#737679"/>
</g>
<g clip-path="url(#clip7_844_1604)">
<path d="M98.5 5.5C98.7761 5.5 99 5.27614 99 5C99 4.72386 98.7761 4.5 98.5 4.5V5.5ZM95 1C95 0.723858 94.7761 0.5 94.5 0.5C94.2239 0.5 94 0.723858 94 1H95ZM87 1C87 0.723858 86.7761 0.5 86.5 0.5C86.2239 0.5 86 0.723858 86 1H87ZM82.5 4.5C82.2239 4.5 82 4.72386 82 5C82 5.27614 82.2239 5.5 82.5 5.5V4.5ZM114.5 5.5C114.776 5.5 115 5.27614 115 5C115 4.72386 114.776 4.5 114.5 4.5V5.5ZM111 1C111 0.723858 110.776 0.5 110.5 0.5C110.224 0.5 110 0.723858 110 1H111ZM103 1C103 0.723858 102.776 0.5 102.5 0.5C102.224 0.5 102 0.723858 102 1H103ZM98.5 4.5C98.2239 4.5 98 4.72386 98 5C98 5.27614 98.2239 5.5 98.5 5.5V4.5ZM98.5 4.5C96.567 4.5 95 2.933 95 1H94C94 3.48528 96.0147 5.5 98.5 5.5V4.5ZM94 1C94 2.933 92.433 4.5 90.5 4.5V5.5C92.9853 5.5 95 3.48528 95 1H94ZM90.5 4.5C88.567 4.5 87 2.933 87 1H86C86 3.48528 88.0147 5.5 90.5 5.5V4.5ZM86 1C86 2.933 84.433 4.5 82.5 4.5V5.5C84.9853 5.5 87 3.48528 87 1H86ZM114.5 4.5C112.567 4.5 111 2.933 111 1H110C110 3.48528 112.015 5.5 114.5 5.5V4.5ZM110 1C110 2.933 108.433 4.5 106.5 4.5V5.5C108.985 5.5 111 3.48528 111 1H110ZM106.5 4.5C104.567 4.5 103 2.933 103 1H102C102 3.48528 104.015 5.5 106.5 5.5V4.5ZM102 1C102 2.933 100.433 4.5 98.5 4.5V5.5C100.985 5.5 103 3.48528 103 1H102Z" fill="#737679"/>
</g>
<g clip-path="url(#clip8_844_1604)">
<path d="M114.5 5.5C114.776 5.5 115 5.27614 115 5C115 4.72386 114.776 4.5 114.5 4.5V5.5ZM111 1C111 0.723858 110.776 0.5 110.5 0.5C110.224 0.5 110 0.723858 110 1H111ZM103 1C103 0.723858 102.776 0.5 102.5 0.5C102.224 0.5 102 0.723858 102 1H103ZM98.5 4.5C98.2239 4.5 98 4.72386 98 5C98 5.27614 98.2239 5.5 98.5 5.5V4.5ZM130.5 5.5C130.776 5.5 131 5.27614 131 5C131 4.72386 130.776 4.5 130.5 4.5V5.5ZM127 1C127 0.723858 126.776 0.5 126.5 0.5C126.224 0.5 126 0.723858 126 1H127ZM119 1C119 0.723858 118.776 0.5 118.5 0.5C118.224 0.5 118 0.723858 118 1H119ZM114.5 4.5C114.224 4.5 114 4.72386 114 5C114 5.27614 114.224 5.5 114.5 5.5V4.5ZM114.5 4.5C112.567 4.5 111 2.933 111 1H110C110 3.48528 112.015 5.5 114.5 5.5V4.5ZM110 1C110 2.933 108.433 4.5 106.5 4.5V5.5C108.985 5.5 111 3.48528 111 1H110ZM106.5 4.5C104.567 4.5 103 2.933 103 1H102C102 3.48528 104.015 5.5 106.5 5.5V4.5ZM102 1C102 2.933 100.433 4.5 98.5 4.5V5.5C100.985 5.5 103 3.48528 103 1H102ZM130.5 4.5C128.567 4.5 127 2.933 127 1H126C126 3.48528 128.015 5.5 130.5 5.5V4.5ZM126 1C126 2.933 124.433 4.5 122.5 4.5V5.5C124.985 5.5 127 3.48528 127 1H126ZM122.5 4.5C120.567 4.5 119 2.933 119 1H118C118 3.48528 120.015 5.5 122.5 5.5V4.5ZM118 1C118 2.933 116.433 4.5 114.5 4.5V5.5C116.985 5.5 119 3.48528 119 1H118Z" fill="#737679"/>
</g>
<g clip-path="url(#clip9_844_1604)">
<path d="M130.5 5.5C130.776 5.5 131 5.27614 131 5C131 4.72386 130.776 4.5 130.5 4.5V5.5ZM127 1C127 0.723858 126.776 0.5 126.5 0.5C126.224 0.5 126 0.723858 126 1H127ZM119 1C119 0.723858 118.776 0.5 118.5 0.5C118.224 0.5 118 0.723858 118 1H119ZM114.5 4.5C114.224 4.5 114 4.72386 114 5C114 5.27614 114.224 5.5 114.5 5.5V4.5ZM146.5 5.5C146.776 5.5 147 5.27614 147 5C147 4.72386 146.776 4.5 146.5 4.5V5.5ZM143 1C143 0.723858 142.776 0.5 142.5 0.5C142.224 0.5 142 0.723858 142 1H143ZM135 1C135 0.723858 134.776 0.5 134.5 0.5C134.224 0.5 134 0.723858 134 1H135ZM130.5 4.5C130.224 4.5 130 4.72386 130 5C130 5.27614 130.224 5.5 130.5 5.5V4.5ZM130.5 4.5C128.567 4.5 127 2.933 127 1H126C126 3.48528 128.015 5.5 130.5 5.5V4.5ZM126 1C126 2.933 124.433 4.5 122.5 4.5V5.5C124.985 5.5 127 3.48528 127 1H126ZM122.5 4.5C120.567 4.5 119 2.933 119 1H118C118 3.48528 120.015 5.5 122.5 5.5V4.5ZM118 1C118 2.933 116.433 4.5 114.5 4.5V5.5C116.985 5.5 119 3.48528 119 1H118ZM146.5 4.5C144.567 4.5 143 2.933 143 1H142C142 3.48528 144.015 5.5 146.5 5.5V4.5ZM142 1C142 2.933 140.433 4.5 138.5 4.5V5.5C140.985 5.5 143 3.48528 143 1H142ZM138.5 4.5C136.567 4.5 135 2.933 135 1H134C134 3.48528 136.015 5.5 138.5 5.5V4.5ZM134 1C134 2.933 132.433 4.5 130.5 4.5V5.5C132.985 5.5 135 3.48528 135 1H134Z" fill="#737679"/>
</g>
<g clip-path="url(#clip10_844_1604)">
<path d="M146.5 5.5C146.776 5.5 147 5.27614 147 5C147 4.72386 146.776 4.5 146.5 4.5V5.5ZM143 1C143 0.723858 142.776 0.5 142.5 0.5C142.224 0.5 142 0.723858 142 1H143ZM135 1C135 0.723858 134.776 0.5 134.5 0.5C134.224 0.5 134 0.723858 134 1H135ZM130.5 4.5C130.224 4.5 130 4.72386 130 5C130 5.27614 130.224 5.5 130.5 5.5V4.5ZM162.5 5.5C162.776 5.5 163 5.27614 163 5C163 4.72386 162.776 4.5 162.5 4.5V5.5ZM159 1C159 0.723858 158.776 0.5 158.5 0.5C158.224 0.5 158 0.723858 158 1H159ZM151 1C151 0.723858 150.776 0.5 150.5 0.5C150.224 0.5 150 0.723858 150 1H151ZM146.5 4.5C146.224 4.5 146 4.72386 146 5C146 5.27614 146.224 5.5 146.5 5.5V4.5ZM146.5 4.5C144.567 4.5 143 2.933 143 1H142C142 3.48528 144.015 5.5 146.5 5.5V4.5ZM142 1C142 2.933 140.433 4.5 138.5 4.5V5.5C140.985 5.5 143 3.48528 143 1H142ZM138.5 4.5C136.567 4.5 135 2.933 135 1H134C134 3.48528 136.015 5.5 138.5 5.5V4.5ZM134 1C134 2.933 132.433 4.5 130.5 4.5V5.5C132.985 5.5 135 3.48528 135 1H134ZM162.5 4.5C160.567 4.5 159 2.933 159 1H158C158 3.48528 160.015 5.5 162.5 5.5V4.5ZM158 1C158 2.933 156.433 4.5 154.5 4.5V5.5C156.985 5.5 159 3.48528 159 1H158ZM154.5 4.5C152.567 4.5 151 2.933 151 1H150C150 3.48528 152.015 5.5 154.5 5.5V4.5ZM150 1C150 2.933 148.433 4.5 146.5 4.5V5.5C148.985 5.5 151 3.48528 151 1H150Z" fill="#737679"/>
</g>
<g clip-path="url(#clip11_844_1604)">
<path d="M162.5 5.5C162.776 5.5 163 5.27614 163 5C163 4.72386 162.776 4.5 162.5 4.5V5.5ZM159 1C159 0.723858 158.776 0.5 158.5 0.5C158.224 0.5 158 0.723858 158 1H159ZM151 1C151 0.723858 150.776 0.5 150.5 0.5C150.224 0.5 150 0.723858 150 1H151ZM146.5 4.5C146.224 4.5 146 4.72386 146 5C146 5.27614 146.224 5.5 146.5 5.5V4.5ZM178.5 5.5C178.776 5.5 179 5.27614 179 5C179 4.72386 178.776 4.5 178.5 4.5V5.5ZM175 1C175 0.723858 174.776 0.5 174.5 0.5C174.224 0.5 174 0.723858 174 1H175ZM167 1C167 0.723858 166.776 0.5 166.5 0.5C166.224 0.5 166 0.723858 166 1H167ZM162.5 4.5C162.224 4.5 162 4.72386 162 5C162 5.27614 162.224 5.5 162.5 5.5V4.5ZM162.5 4.5C160.567 4.5 159 2.933 159 1H158C158 3.48528 160.015 5.5 162.5 5.5V4.5ZM158 1C158 2.933 156.433 4.5 154.5 4.5V5.5C156.985 5.5 159 3.48528 159 1H158ZM154.5 4.5C152.567 4.5 151 2.933 151 1H150C150 3.48528 152.015 5.5 154.5 5.5V4.5ZM150 1C150 2.933 148.433 4.5 146.5 4.5V5.5C148.985 5.5 151 3.48528 151 1H150ZM178.5 4.5C176.567 4.5 175 2.933 175 1H174C174 3.48528 176.015 5.5 178.5 5.5V4.5ZM174 1C174 2.933 172.433 4.5 170.5 4.5V5.5C172.985 5.5 175 3.48528 175 1H174ZM170.5 4.5C168.567 4.5 167 2.933 167 1H166C166 3.48528 168.015 5.5 170.5 5.5V4.5ZM166 1C166 2.933 164.433 4.5 162.5 4.5V5.5C164.985 5.5 167 3.48528 167 1H166Z" fill="#737679"/>
</g>
<g clip-path="url(#clip12_844_1604)">
<path d="M178.5 5.5C178.776 5.5 179 5.27614 179 5C179 4.72386 178.776 4.5 178.5 4.5V5.5ZM175 1C175 0.723858 174.776 0.5 174.5 0.5C174.224 0.5 174 0.723858 174 1H175ZM167 1C167 0.723858 166.776 0.5 166.5 0.5C166.224 0.5 166 0.723858 166 1H167ZM162.5 4.5C162.224 4.5 162 4.72386 162 5C162 5.27614 162.224 5.5 162.5 5.5V4.5ZM194.5 5.5C194.776 5.5 195 5.27614 195 5C195 4.72386 194.776 4.5 194.5 4.5V5.5ZM191 1C191 0.723858 190.776 0.5 190.5 0.5C190.224 0.5 190 0.723858 190 1H191ZM183 1C183 0.723858 182.776 0.5 182.5 0.5C182.224 0.5 182 0.723858 182 1H183ZM178.5 4.5C178.224 4.5 178 4.72386 178 5C178 5.27614 178.224 5.5 178.5 5.5V4.5ZM178.5 4.5C176.567 4.5 175 2.933 175 1H174C174 3.48528 176.015 5.5 178.5 5.5V4.5ZM174 1C174 2.933 172.433 4.5 170.5 4.5V5.5C172.985 5.5 175 3.48528 175 1H174ZM170.5 4.5C168.567 4.5 167 2.933 167 1H166C166 3.48528 168.015 5.5 170.5 5.5V4.5ZM166 1C166 2.933 164.433 4.5 162.5 4.5V5.5C164.985 5.5 167 3.48528 167 1H166ZM194.5 4.5C192.567 4.5 191 2.933 191 1H190C190 3.48528 192.015 5.5 194.5 5.5V4.5ZM190 1C190 2.933 188.433 4.5 186.5 4.5V5.5C188.985 5.5 191 3.48528 191 1H190ZM186.5 4.5C184.567 4.5 183 2.933 183 1H182C182 3.48528 184.015 5.5 186.5 5.5V4.5ZM182 1C182 2.933 180.433 4.5 178.5 4.5V5.5C180.985 5.5 183 3.48528 183 1H182Z" fill="#737679"/>
</g>
<g clip-path="url(#clip13_844_1604)">
<path d="M194.5 5.5C194.776 5.5 195 5.27614 195 5C195 4.72386 194.776 4.5 194.5 4.5V5.5ZM191 1C191 0.723858 190.776 0.5 190.5 0.5C190.224 0.5 190 0.723858 190 1H191ZM183 1C183 0.723858 182.776 0.5 182.5 0.5C182.224 0.5 182 0.723858 182 1H183ZM178.5 4.5C178.224 4.5 178 4.72386 178 5C178 5.27614 178.224 5.5 178.5 5.5V4.5ZM210.5 5.5C210.776 5.5 211 5.27614 211 5C211 4.72386 210.776 4.5 210.5 4.5V5.5ZM207 1C207 0.723858 206.776 0.5 206.5 0.5C206.224 0.5 206 0.723858 206 1H207ZM199 1C199 0.723858 198.776 0.5 198.5 0.5C198.224 0.5 198 0.723858 198 1H199ZM194.5 4.5C194.224 4.5 194 4.72386 194 5C194 5.27614 194.224 5.5 194.5 5.5V4.5ZM194.5 4.5C192.567 4.5 191 2.933 191 1H190C190 3.48528 192.015 5.5 194.5 5.5V4.5ZM190 1C190 2.933 188.433 4.5 186.5 4.5V5.5C188.985 5.5 191 3.48528 191 1H190ZM186.5 4.5C184.567 4.5 183 2.933 183 1H182C182 3.48528 184.015 5.5 186.5 5.5V4.5ZM182 1C182 2.933 180.433 4.5 178.5 4.5V5.5C180.985 5.5 183 3.48528 183 1H182ZM210.5 4.5C208.567 4.5 207 2.933 207 1H206C206 3.48528 208.015 5.5 210.5 5.5V4.5ZM206 1C206 2.933 204.433 4.5 202.5 4.5V5.5C204.985 5.5 207 3.48528 207 1H206ZM202.5 4.5C200.567 4.5 199 2.933 199 1H198C198 3.48528 200.015 5.5 202.5 5.5V4.5ZM198 1C198 2.933 196.433 4.5 194.5 4.5V5.5C196.985 5.5 199 3.48528 199 1H198Z" fill="#737679"/>
</g>
<g clip-path="url(#clip14_844_1604)">
<path d="M210.5 5.5C210.776 5.5 211 5.27614 211 5C211 4.72386 210.776 4.5 210.5 4.5V5.5ZM207 1C207 0.723858 206.776 0.5 206.5 0.5C206.224 0.5 206 0.723858 206 1H207ZM199 1C199 0.723858 198.776 0.5 198.5 0.5C198.224 0.5 198 0.723858 198 1H199ZM194.5 4.5C194.224 4.5 194 4.72386 194 5C194 5.27614 194.224 5.5 194.5 5.5V4.5ZM226.5 5.5C226.776 5.5 227 5.27614 227 5C227 4.72386 226.776 4.5 226.5 4.5V5.5ZM223 1C223 0.723858 222.776 0.5 222.5 0.5C222.224 0.5 222 0.723858 222 1H223ZM215 1C215 0.723858 214.776 0.5 214.5 0.5C214.224 0.5 214 0.723858 214 1H215ZM210.5 4.5C210.224 4.5 210 4.72386 210 5C210 5.27614 210.224 5.5 210.5 5.5V4.5ZM210.5 4.5C208.567 4.5 207 2.933 207 1H206C206 3.48528 208.015 5.5 210.5 5.5V4.5ZM206 1C206 2.933 204.433 4.5 202.5 4.5V5.5C204.985 5.5 207 3.48528 207 1H206ZM202.5 4.5C200.567 4.5 199 2.933 199 1H198C198 3.48528 200.015 5.5 202.5 5.5V4.5ZM198 1C198 2.933 196.433 4.5 194.5 4.5V5.5C196.985 5.5 199 3.48528 199 1H198ZM226.5 4.5C224.567 4.5 223 2.933 223 1H222C222 3.48528 224.015 5.5 226.5 5.5V4.5ZM222 1C222 2.933 220.433 4.5 218.5 4.5V5.5C220.985 5.5 223 3.48528 223 1H222ZM218.5 4.5C216.567 4.5 215 2.933 215 1H214C214 3.48528 216.015 5.5 218.5 5.5V4.5ZM214 1C214 2.933 212.433 4.5 210.5 4.5V5.5C212.985 5.5 215 3.48528 215 1H214Z" fill="#737679"/>
</g>
<g clip-path="url(#clip15_844_1604)">
<path d="M226.5 5.5C226.776 5.5 227 5.27614 227 5C227 4.72386 226.776 4.5 226.5 4.5V5.5ZM223 1C223 0.723858 222.776 0.5 222.5 0.5C222.224 0.5 222 0.723858 222 1H223ZM215 1C215 0.723858 214.776 0.5 214.5 0.5C214.224 0.5 214 0.723858 214 1H215ZM210.5 4.5C210.224 4.5 210 4.72386 210 5C210 5.27614 210.224 5.5 210.5 5.5V4.5ZM242.5 5.5C242.776 5.5 243 5.27614 243 5C243 4.72386 242.776 4.5 242.5 4.5V5.5ZM239 1C239 0.723858 238.776 0.5 238.5 0.5C238.224 0.5 238 0.723858 238 1H239ZM231 1C231 0.723858 230.776 0.5 230.5 0.5C230.224 0.5 230 0.723858 230 1H231ZM226.5 4.5C226.224 4.5 226 4.72386 226 5C226 5.27614 226.224 5.5 226.5 5.5V4.5ZM226.5 4.5C224.567 4.5 223 2.933 223 1H222C222 3.48528 224.015 5.5 226.5 5.5V4.5ZM222 1C222 2.933 220.433 4.5 218.5 4.5V5.5C220.985 5.5 223 3.48528 223 1H222ZM218.5 4.5C216.567 4.5 215 2.933 215 1H214C214 3.48528 216.015 5.5 218.5 5.5V4.5ZM214 1C214 2.933 212.433 4.5 210.5 4.5V5.5C212.985 5.5 215 3.48528 215 1H214ZM242.5 4.5C240.567 4.5 239 2.933 239 1H238C238 3.48528 240.015 5.5 242.5 5.5V4.5ZM238 1C238 2.933 236.433 4.5 234.5 4.5V5.5C236.985 5.5 239 3.48528 239 1H238ZM234.5 4.5C232.567 4.5 231 2.933 231 1H230C230 3.48528 232.015 5.5 234.5 5.5V4.5ZM230 1C230 2.933 228.433 4.5 226.5 4.5V5.5C228.985 5.5 231 3.48528 231 1H230Z" fill="#737679"/>
</g>
<g clip-path="url(#clip16_844_1604)">
<path d="M242.5 5.5C242.776 5.5 243 5.27614 243 5C243 4.72386 242.776 4.5 242.5 4.5V5.5ZM239 1C239 0.723858 238.776 0.5 238.5 0.5C238.224 0.5 238 0.723858 238 1H239ZM231 1C231 0.723858 230.776 0.5 230.5 0.5C230.224 0.5 230 0.723858 230 1H231ZM226.5 4.5C226.224 4.5 226 4.72386 226 5C226 5.27614 226.224 5.5 226.5 5.5V4.5ZM258.5 5.5C258.776 5.5 259 5.27614 259 5C259 4.72386 258.776 4.5 258.5 4.5V5.5ZM255 1C255 0.723858 254.776 0.5 254.5 0.5C254.224 0.5 254 0.723858 254 1H255ZM247 1C247 0.723858 246.776 0.5 246.5 0.5C246.224 0.5 246 0.723858 246 1H247ZM242.5 4.5C242.224 4.5 242 4.72386 242 5C242 5.27614 242.224 5.5 242.5 5.5V4.5ZM242.5 4.5C240.567 4.5 239 2.933 239 1H238C238 3.48528 240.015 5.5 242.5 5.5V4.5ZM238 1C238 2.933 236.433 4.5 234.5 4.5V5.5C236.985 5.5 239 3.48528 239 1H238ZM234.5 4.5C232.567 4.5 231 2.933 231 1H230C230 3.48528 232.015 5.5 234.5 5.5V4.5ZM230 1C230 2.933 228.433 4.5 226.5 4.5V5.5C228.985 5.5 231 3.48528 231 1H230ZM258.5 4.5C256.567 4.5 255 2.933 255 1H254C254 3.48528 256.015 5.5 258.5 5.5V4.5ZM254 1C254 2.933 252.433 4.5 250.5 4.5V5.5C252.985 5.5 255 3.48528 255 1H254ZM250.5 4.5C248.567 4.5 247 2.933 247 1H246C246 3.48528 248.015 5.5 250.5 5.5V4.5ZM246 1C246 2.933 244.433 4.5 242.5 4.5V5.5C244.985 5.5 247 3.48528 247 1H246Z" fill="#737679"/>
</g>
<g clip-path="url(#clip17_844_1604)">
<path d="M258.5 5.5C258.776 5.5 259 5.27614 259 5C259 4.72386 258.776 4.5 258.5 4.5V5.5ZM255 1C255 0.723858 254.776 0.5 254.5 0.5C254.224 0.5 254 0.723858 254 1H255ZM247 1C247 0.723858 246.776 0.5 246.5 0.5C246.224 0.5 246 0.723858 246 1H247ZM242.5 4.5C242.224 4.5 242 4.72386 242 5C242 5.27614 242.224 5.5 242.5 5.5V4.5ZM274.5 5.5C274.776 5.5 275 5.27614 275 5C275 4.72386 274.776 4.5 274.5 4.5V5.5ZM271 1C271 0.723858 270.776 0.5 270.5 0.5C270.224 0.5 270 0.723858 270 1H271ZM263 1C263 0.723858 262.776 0.5 262.5 0.5C262.224 0.5 262 0.723858 262 1H263ZM258.5 4.5C258.224 4.5 258 4.72386 258 5C258 5.27614 258.224 5.5 258.5 5.5V4.5ZM258.5 4.5C256.567 4.5 255 2.933 255 1H254C254 3.48528 256.015 5.5 258.5 5.5V4.5ZM254 1C254 2.933 252.433 4.5 250.5 4.5V5.5C252.985 5.5 255 3.48528 255 1H254ZM250.5 4.5C248.567 4.5 247 2.933 247 1H246C246 3.48528 248.015 5.5 250.5 5.5V4.5ZM246 1C246 2.933 244.433 4.5 242.5 4.5V5.5C244.985 5.5 247 3.48528 247 1H246ZM274.5 4.5C272.567 4.5 271 2.933 271 1H270C270 3.48528 272.015 5.5 274.5 5.5V4.5ZM270 1C270 2.933 268.433 4.5 266.5 4.5V5.5C268.985 5.5 271 3.48528 271 1H270ZM266.5 4.5C264.567 4.5 263 2.933 263 1H262C262 3.48528 264.015 5.5 266.5 5.5V4.5ZM262 1C262 2.933 260.433 4.5 258.5 4.5V5.5C260.985 5.5 263 3.48528 263 1H262Z" fill="#737679"/>
</g>
<g clip-path="url(#clip18_844_1604)">
<path d="M274.5 5.5C274.776 5.5 275 5.27614 275 5C275 4.72386 274.776 4.5 274.5 4.5V5.5ZM271 1C271 0.723858 270.776 0.5 270.5 0.5C270.224 0.5 270 0.723858 270 1H271ZM263 1C263 0.723858 262.776 0.5 262.5 0.5C262.224 0.5 262 0.723858 262 1H263ZM258.5 4.5C258.224 4.5 258 4.72386 258 5C258 5.27614 258.224 5.5 258.5 5.5V4.5ZM290.5 5.5C290.776 5.5 291 5.27614 291 5C291 4.72386 290.776 4.5 290.5 4.5V5.5ZM287 1C287 0.723858 286.776 0.5 286.5 0.5C286.224 0.5 286 0.723858 286 1H287ZM279 1C279 0.723858 278.776 0.5 278.5 0.5C278.224 0.5 278 0.723858 278 1H279ZM274.5 4.5C274.224 4.5 274 4.72386 274 5C274 5.27614 274.224 5.5 274.5 5.5V4.5ZM274.5 4.5C272.567 4.5 271 2.933 271 1H270C270 3.48528 272.015 5.5 274.5 5.5V4.5ZM270 1C270 2.933 268.433 4.5 266.5 4.5V5.5C268.985 5.5 271 3.48528 271 1H270ZM266.5 4.5C264.567 4.5 263 2.933 263 1H262C262 3.48528 264.015 5.5 266.5 5.5V4.5ZM262 1C262 2.933 260.433 4.5 258.5 4.5V5.5C260.985 5.5 263 3.48528 263 1H262ZM290.5 4.5C288.567 4.5 287 2.933 287 1H286C286 3.48528 288.015 5.5 290.5 5.5V4.5ZM286 1C286 2.933 284.433 4.5 282.5 4.5V5.5C284.985 5.5 287 3.48528 287 1H286ZM282.5 4.5C280.567 4.5 279 2.933 279 1H278C278 3.48528 280.015 5.5 282.5 5.5V4.5ZM278 1C278 2.933 276.433 4.5 274.5 4.5V5.5C276.985 5.5 279 3.48528 279 1H278Z" fill="#737679"/>
</g>
<g clip-path="url(#clip19_844_1604)">
<path d="M290.5 5.5C290.776 5.5 291 5.27614 291 5C291 4.72386 290.776 4.5 290.5 4.5V5.5ZM287 1C287 0.723858 286.776 0.5 286.5 0.5C286.224 0.5 286 0.723858 286 1H287ZM279 1C279 0.723858 278.776 0.5 278.5 0.5C278.224 0.5 278 0.723858 278 1H279ZM274.5 4.5C274.224 4.5 274 4.72386 274 5C274 5.27614 274.224 5.5 274.5 5.5V4.5ZM306.5 5.5C306.776 5.5 307 5.27614 307 5C307 4.72386 306.776 4.5 306.5 4.5V5.5ZM303 1C303 0.723858 302.776 0.5 302.5 0.5C302.224 0.5 302 0.723858 302 1H303ZM295 1C295 0.723858 294.776 0.5 294.5 0.5C294.224 0.5 294 0.723858 294 1H295ZM290.5 4.5C290.224 4.5 290 4.72386 290 5C290 5.27614 290.224 5.5 290.5 5.5V4.5ZM290.5 4.5C288.567 4.5 287 2.933 287 1H286C286 3.48528 288.015 5.5 290.5 5.5V4.5ZM286 1C286 2.933 284.433 4.5 282.5 4.5V5.5C284.985 5.5 287 3.48528 287 1H286ZM282.5 4.5C280.567 4.5 279 2.933 279 1H278C278 3.48528 280.015 5.5 282.5 5.5V4.5ZM278 1C278 2.933 276.433 4.5 274.5 4.5V5.5C276.985 5.5 279 3.48528 279 1H278ZM306.5 4.5C304.567 4.5 303 2.933 303 1H302C302 3.48528 304.015 5.5 306.5 5.5V4.5ZM302 1C302 2.933 300.433 4.5 298.5 4.5V5.5C300.985 5.5 303 3.48528 303 1H302ZM298.5 4.5C296.567 4.5 295 2.933 295 1H294C294 3.48528 296.015 5.5 298.5 5.5V4.5ZM294 1C294 2.933 292.433 4.5 290.5 4.5V5.5C292.985 5.5 295 3.48528 295 1H294Z" fill="#737679"/>
</g>
<g clip-path="url(#clip20_844_1604)">
<path d="M306.5 5.5C306.776 5.5 307 5.27614 307 5C307 4.72386 306.776 4.5 306.5 4.5V5.5ZM303 1C303 0.723858 302.776 0.5 302.5 0.5C302.224 0.5 302 0.723858 302 1H303ZM295 1C295 0.723858 294.776 0.5 294.5 0.5C294.224 0.5 294 0.723858 294 1H295ZM290.5 4.5C290.224 4.5 290 4.72386 290 5C290 5.27614 290.224 5.5 290.5 5.5V4.5ZM322.5 5.5C322.776 5.5 323 5.27614 323 5C323 4.72386 322.776 4.5 322.5 4.5V5.5ZM319 1C319 0.723858 318.776 0.5 318.5 0.5C318.224 0.5 318 0.723858 318 1H319ZM311 1C311 0.723858 310.776 0.5 310.5 0.5C310.224 0.5 310 0.723858 310 1H311ZM306.5 4.5C306.224 4.5 306 4.72386 306 5C306 5.27614 306.224 5.5 306.5 5.5V4.5ZM306.5 4.5C304.567 4.5 303 2.933 303 1H302C302 3.48528 304.015 5.5 306.5 5.5V4.5ZM302 1C302 2.933 300.433 4.5 298.5 4.5V5.5C300.985 5.5 303 3.48528 303 1H302ZM298.5 4.5C296.567 4.5 295 2.933 295 1H294C294 3.48528 296.015 5.5 298.5 5.5V4.5ZM294 1C294 2.933 292.433 4.5 290.5 4.5V5.5C292.985 5.5 295 3.48528 295 1H294ZM322.5 4.5C320.567 4.5 319 2.933 319 1H318C318 3.48528 320.015 5.5 322.5 5.5V4.5ZM318 1C318 2.933 316.433 4.5 314.5 4.5V5.5C316.985 5.5 319 3.48528 319 1H318ZM314.5 4.5C312.567 4.5 311 2.933 311 1H310C310 3.48528 312.015 5.5 314.5 5.5V4.5ZM310 1C310 2.933 308.433 4.5 306.5 4.5V5.5C308.985 5.5 311 3.48528 311 1H310Z" fill="#737679"/>
</g>
<g clip-path="url(#clip21_844_1604)">
<path d="M322.5 5.5C322.776 5.5 323 5.27614 323 5C323 4.72386 322.776 4.5 322.5 4.5V5.5ZM319 1C319 0.723858 318.776 0.5 318.5 0.5C318.224 0.5 318 0.723858 318 1H319ZM311 1C311 0.723858 310.776 0.5 310.5 0.5C310.224 0.5 310 0.723858 310 1H311ZM306.5 4.5C306.224 4.5 306 4.72386 306 5C306 5.27614 306.224 5.5 306.5 5.5V4.5ZM338.5 5.5C338.776 5.5 339 5.27614 339 5C339 4.72386 338.776 4.5 338.5 4.5V5.5ZM335 1C335 0.723858 334.776 0.5 334.5 0.5C334.224 0.5 334 0.723858 334 1H335ZM327 1C327 0.723858 326.776 0.5 326.5 0.5C326.224 0.5 326 0.723858 326 1H327ZM322.5 4.5C322.224 4.5 322 4.72386 322 5C322 5.27614 322.224 5.5 322.5 5.5V4.5ZM322.5 4.5C320.567 4.5 319 2.933 319 1H318C318 3.48528 320.015 5.5 322.5 5.5V4.5ZM318 1C318 2.933 316.433 4.5 314.5 4.5V5.5C316.985 5.5 319 3.48528 319 1H318ZM314.5 4.5C312.567 4.5 311 2.933 311 1H310C310 3.48528 312.015 5.5 314.5 5.5V4.5ZM310 1C310 2.933 308.433 4.5 306.5 4.5V5.5C308.985 5.5 311 3.48528 311 1H310ZM338.5 4.5C336.567 4.5 335 2.933 335 1H334C334 3.48528 336.015 5.5 338.5 5.5V4.5ZM334 1C334 2.933 332.433 4.5 330.5 4.5V5.5C332.985 5.5 335 3.48528 335 1H334ZM330.5 4.5C328.567 4.5 327 2.933 327 1H326C326 3.48528 328.015 5.5 330.5 5.5V4.5ZM326 1C326 2.933 324.433 4.5 322.5 4.5V5.5C324.985 5.5 327 3.48528 327 1H326Z" fill="#737679"/>
</g>
<g clip-path="url(#clip22_844_1604)">
<path d="M338.5 5.5C338.776 5.5 339 5.27614 339 5C339 4.72386 338.776 4.5 338.5 4.5V5.5ZM335 1C335 0.723858 334.776 0.5 334.5 0.5C334.224 0.5 334 0.723858 334 1H335ZM327 1C327 0.723858 326.776 0.5 326.5 0.5C326.224 0.5 326 0.723858 326 1H327ZM322.5 4.5C322.224 4.5 322 4.72386 322 5C322 5.27614 322.224 5.5 322.5 5.5V4.5ZM354.5 5.5C354.776 5.5 355 5.27614 355 5C355 4.72386 354.776 4.5 354.5 4.5V5.5ZM351 1C351 0.723858 350.776 0.5 350.5 0.5C350.224 0.5 350 0.723858 350 1H351ZM343 1C343 0.723858 342.776 0.5 342.5 0.5C342.224 0.5 342 0.723858 342 1H343ZM338.5 4.5C338.224 4.5 338 4.72386 338 5C338 5.27614 338.224 5.5 338.5 5.5V4.5ZM338.5 4.5C336.567 4.5 335 2.933 335 1H334C334 3.48528 336.015 5.5 338.5 5.5V4.5ZM334 1C334 2.933 332.433 4.5 330.5 4.5V5.5C332.985 5.5 335 3.48528 335 1H334ZM330.5 4.5C328.567 4.5 327 2.933 327 1H326C326 3.48528 328.015 5.5 330.5 5.5V4.5ZM326 1C326 2.933 324.433 4.5 322.5 4.5V5.5C324.985 5.5 327 3.48528 327 1H326ZM354.5 4.5C352.567 4.5 351 2.933 351 1H350C350 3.48528 352.015 5.5 354.5 5.5V4.5ZM350 1C350 2.933 348.433 4.5 346.5 4.5V5.5C348.985 5.5 351 3.48528 351 1H350ZM346.5 4.5C344.567 4.5 343 2.933 343 1H342C342 3.48528 344.015 5.5 346.5 5.5V4.5ZM342 1C342 2.933 340.433 4.5 338.5 4.5V5.5C340.985 5.5 343 3.48528 343 1H342Z" fill="#737679"/>
</g>
<g clip-path="url(#clip23_844_1604)">
<path d="M354.5 5.5C354.776 5.5 355 5.27614 355 5C355 4.72386 354.776 4.5 354.5 4.5V5.5ZM351 1C351 0.723858 350.776 0.5 350.5 0.5C350.224 0.5 350 0.723858 350 1H351ZM343 1C343 0.723858 342.776 0.5 342.5 0.5C342.224 0.5 342 0.723858 342 1H343ZM338.5 4.5C338.224 4.5 338 4.72386 338 5C338 5.27614 338.224 5.5 338.5 5.5V4.5ZM370.5 5.5C370.776 5.5 371 5.27614 371 5C371 4.72386 370.776 4.5 370.5 4.5V5.5ZM367 1C367 0.723858 366.776 0.5 366.5 0.5C366.224 0.5 366 0.723858 366 1H367ZM359 1C359 0.723858 358.776 0.5 358.5 0.5C358.224 0.5 358 0.723858 358 1H359ZM354.5 4.5C354.224 4.5 354 4.72386 354 5C354 5.27614 354.224 5.5 354.5 5.5V4.5ZM354.5 4.5C352.567 4.5 351 2.933 351 1H350C350 3.48528 352.015 5.5 354.5 5.5V4.5ZM350 1C350 2.933 348.433 4.5 346.5 4.5V5.5C348.985 5.5 351 3.48528 351 1H350ZM346.5 4.5C344.567 4.5 343 2.933 343 1H342C342 3.48528 344.015 5.5 346.5 5.5V4.5ZM342 1C342 2.933 340.433 4.5 338.5 4.5V5.5C340.985 5.5 343 3.48528 343 1H342ZM370.5 4.5C368.567 4.5 367 2.933 367 1H366C366 3.48528 368.015 5.5 370.5 5.5V4.5ZM366 1C366 2.933 364.433 4.5 362.5 4.5V5.5C364.985 5.5 367 3.48528 367 1H366ZM362.5 4.5C360.567 4.5 359 2.933 359 1H358C358 3.48528 360.015 5.5 362.5 5.5V4.5ZM358 1C358 2.933 356.433 4.5 354.5 4.5V5.5C356.985 5.5 359 3.48528 359 1H358Z" fill="#737679"/>
</g>
<g clip-path="url(#clip24_844_1604)">
<path d="M370.5 5.5C370.776 5.5 371 5.27614 371 5C371 4.72386 370.776 4.5 370.5 4.5V5.5ZM367 1C367 0.723858 366.776 0.5 366.5 0.5C366.224 0.5 366 0.723858 366 1H367ZM359 1C359 0.723858 358.776 0.5 358.5 0.5C358.224 0.5 358 0.723858 358 1H359ZM354.5 4.5C354.224 4.5 354 4.72386 354 5C354 5.27614 354.224 5.5 354.5 5.5V4.5ZM386.5 5.5C386.776 5.5 387 5.27614 387 5C387 4.72386 386.776 4.5 386.5 4.5V5.5ZM383 1C383 0.723858 382.776 0.5 382.5 0.5C382.224 0.5 382 0.723858 382 1H383ZM375 1C375 0.723858 374.776 0.5 374.5 0.5C374.224 0.5 374 0.723858 374 1H375ZM370.5 4.5C370.224 4.5 370 4.72386 370 5C370 5.27614 370.224 5.5 370.5 5.5V4.5ZM370.5 4.5C368.567 4.5 367 2.933 367 1H366C366 3.48528 368.015 5.5 370.5 5.5V4.5ZM366 1C366 2.933 364.433 4.5 362.5 4.5V5.5C364.985 5.5 367 3.48528 367 1H366ZM362.5 4.5C360.567 4.5 359 2.933 359 1H358C358 3.48528 360.015 5.5 362.5 5.5V4.5ZM358 1C358 2.933 356.433 4.5 354.5 4.5V5.5C356.985 5.5 359 3.48528 359 1H358ZM386.5 4.5C384.567 4.5 383 2.933 383 1H382C382 3.48528 384.015 5.5 386.5 5.5V4.5ZM382 1C382 2.933 380.433 4.5 378.5 4.5V5.5C380.985 5.5 383 3.48528 383 1H382ZM378.5 4.5C376.567 4.5 375 2.933 375 1H374C374 3.48528 376.015 5.5 378.5 5.5V4.5ZM374 1C374 2.933 372.433 4.5 370.5 4.5V5.5C372.985 5.5 375 3.48528 375 1H374Z" fill="#737679"/>
</g>
<g clip-path="url(#clip25_844_1604)">
<path d="M386.5 5.5C386.776 5.5 387 5.27614 387 5C387 4.72386 386.776 4.5 386.5 4.5V5.5ZM383 1C383 0.723858 382.776 0.5 382.5 0.5C382.224 0.5 382 0.723858 382 1H383ZM375 1C375 0.723858 374.776 0.5 374.5 0.5C374.224 0.5 374 0.723858 374 1H375ZM370.5 4.5C370.224 4.5 370 4.72386 370 5C370 5.27614 370.224 5.5 370.5 5.5V4.5ZM402.5 5.5C402.776 5.5 403 5.27614 403 5C403 4.72386 402.776 4.5 402.5 4.5V5.5ZM399 1C399 0.723858 398.776 0.5 398.5 0.5C398.224 0.5 398 0.723858 398 1H399ZM391 1C391 0.723858 390.776 0.5 390.5 0.5C390.224 0.5 390 0.723858 390 1H391ZM386.5 4.5C386.224 4.5 386 4.72386 386 5C386 5.27614 386.224 5.5 386.5 5.5V4.5ZM386.5 4.5C384.567 4.5 383 2.933 383 1H382C382 3.48528 384.015 5.5 386.5 5.5V4.5ZM382 1C382 2.933 380.433 4.5 378.5 4.5V5.5C380.985 5.5 383 3.48528 383 1H382ZM378.5 4.5C376.567 4.5 375 2.933 375 1H374C374 3.48528 376.015 5.5 378.5 5.5V4.5ZM374 1C374 2.933 372.433 4.5 370.5 4.5V5.5C372.985 5.5 375 3.48528 375 1H374ZM402.5 4.5C400.567 4.5 399 2.933 399 1H398C398 3.48528 400.015 5.5 402.5 5.5V4.5ZM398 1C398 2.933 396.433 4.5 394.5 4.5V5.5C396.985 5.5 399 3.48528 399 1H398ZM394.5 4.5C392.567 4.5 391 2.933 391 1H390C390 3.48528 392.015 5.5 394.5 5.5V4.5ZM390 1C390 2.933 388.433 4.5 386.5 4.5V5.5C388.985 5.5 391 3.48528 391 1H390Z" fill="#737679"/>
</g>
<g clip-path="url(#clip26_844_1604)">
<path d="M402.5 5.5C402.776 5.5 403 5.27614 403 5C403 4.72386 402.776 4.5 402.5 4.5V5.5ZM399 1C399 0.723858 398.776 0.5 398.5 0.5C398.224 0.5 398 0.723858 398 1H399ZM391 1C391 0.723858 390.776 0.5 390.5 0.5C390.224 0.5 390 0.723858 390 1H391ZM386.5 4.5C386.224 4.5 386 4.72386 386 5C386 5.27614 386.224 5.5 386.5 5.5V4.5ZM418.5 5.5C418.776 5.5 419 5.27614 419 5C419 4.72386 418.776 4.5 418.5 4.5V5.5ZM415 1C415 0.723858 414.776 0.5 414.5 0.5C414.224 0.5 414 0.723858 414 1H415ZM407 1C407 0.723858 406.776 0.5 406.5 0.5C406.224 0.5 406 0.723858 406 1H407ZM402.5 4.5C402.224 4.5 402 4.72386 402 5C402 5.27614 402.224 5.5 402.5 5.5V4.5ZM402.5 4.5C400.567 4.5 399 2.933 399 1H398C398 3.48528 400.015 5.5 402.5 5.5V4.5ZM398 1C398 2.933 396.433 4.5 394.5 4.5V5.5C396.985 5.5 399 3.48528 399 1H398ZM394.5 4.5C392.567 4.5 391 2.933 391 1H390C390 3.48528 392.015 5.5 394.5 5.5V4.5ZM390 1C390 2.933 388.433 4.5 386.5 4.5V5.5C388.985 5.5 391 3.48528 391 1H390ZM418.5 4.5C416.567 4.5 415 2.933 415 1H414C414 3.48528 416.015 5.5 418.5 5.5V4.5ZM414 1C414 2.933 412.433 4.5 410.5 4.5V5.5C412.985 5.5 415 3.48528 415 1H414ZM410.5 4.5C408.567 4.5 407 2.933 407 1H406C406 3.48528 408.015 5.5 410.5 5.5V4.5ZM406 1C406 2.933 404.433 4.5 402.5 4.5V5.5C404.985 5.5 407 3.48528 407 1H406Z" fill="#737679"/>
</g>
<g clip-path="url(#clip27_844_1604)">
<path d="M418.5 5.5C418.776 5.5 419 5.27614 419 5C419 4.72386 418.776 4.5 418.5 4.5V5.5ZM415 1C415 0.723858 414.776 0.5 414.5 0.5C414.224 0.5 414 0.723858 414 1H415ZM407 1C407 0.723858 406.776 0.5 406.5 0.5C406.224 0.5 406 0.723858 406 1H407ZM402.5 4.5C402.224 4.5 402 4.72386 402 5C402 5.27614 402.224 5.5 402.5 5.5V4.5ZM434.5 5.5C434.776 5.5 435 5.27614 435 5C435 4.72386 434.776 4.5 434.5 4.5V5.5ZM431 1C431 0.723858 430.776 0.5 430.5 0.5C430.224 0.5 430 0.723858 430 1H431ZM423 1C423 0.723858 422.776 0.5 422.5 0.5C422.224 0.5 422 0.723858 422 1H423ZM418.5 4.5C418.224 4.5 418 4.72386 418 5C418 5.27614 418.224 5.5 418.5 5.5V4.5ZM418.5 4.5C416.567 4.5 415 2.933 415 1H414C414 3.48528 416.015 5.5 418.5 5.5V4.5ZM414 1C414 2.933 412.433 4.5 410.5 4.5V5.5C412.985 5.5 415 3.48528 415 1H414ZM410.5 4.5C408.567 4.5 407 2.933 407 1H406C406 3.48528 408.015 5.5 410.5 5.5V4.5ZM406 1C406 2.933 404.433 4.5 402.5 4.5V5.5C404.985 5.5 407 3.48528 407 1H406ZM434.5 4.5C432.567 4.5 431 2.933 431 1H430C430 3.48528 432.015 5.5 434.5 5.5V4.5ZM430 1C430 2.933 428.433 4.5 426.5 4.5V5.5C428.985 5.5 431 3.48528 431 1H430ZM426.5 4.5C424.567 4.5 423 2.933 423 1H422C422 3.48528 424.015 5.5 426.5 5.5V4.5ZM422 1C422 2.933 420.433 4.5 418.5 4.5V5.5C420.985 5.5 423 3.48528 423 1H422Z" fill="#737679"/>
</g>
<g clip-path="url(#clip28_844_1604)">
<path d="M434.5 5.5C434.776 5.5 435 5.27614 435 5C435 4.72386 434.776 4.5 434.5 4.5V5.5ZM431 1C431 0.723858 430.776 0.5 430.5 0.5C430.224 0.5 430 0.723858 430 1H431ZM423 1C423 0.723858 422.776 0.5 422.5 0.5C422.224 0.5 422 0.723858 422 1H423ZM418.5 4.5C418.224 4.5 418 4.72386 418 5C418 5.27614 418.224 5.5 418.5 5.5V4.5ZM450.5 5.5C450.776 5.5 451 5.27614 451 5C451 4.72386 450.776 4.5 450.5 4.5V5.5ZM447 1C447 0.723858 446.776 0.5 446.5 0.5C446.224 0.5 446 0.723858 446 1H447ZM439 1C439 0.723858 438.776 0.5 438.5 0.5C438.224 0.5 438 0.723858 438 1H439ZM434.5 4.5C434.224 4.5 434 4.72386 434 5C434 5.27614 434.224 5.5 434.5 5.5V4.5ZM434.5 4.5C432.567 4.5 431 2.933 431 1H430C430 3.48528 432.015 5.5 434.5 5.5V4.5ZM430 1C430 2.933 428.433 4.5 426.5 4.5V5.5C428.985 5.5 431 3.48528 431 1H430ZM426.5 4.5C424.567 4.5 423 2.933 423 1H422C422 3.48528 424.015 5.5 426.5 5.5V4.5ZM422 1C422 2.933 420.433 4.5 418.5 4.5V5.5C420.985 5.5 423 3.48528 423 1H422ZM450.5 4.5C448.567 4.5 447 2.933 447 1H446C446 3.48528 448.015 5.5 450.5 5.5V4.5ZM446 1C446 2.933 444.433 4.5 442.5 4.5V5.5C444.985 5.5 447 3.48528 447 1H446ZM442.5 4.5C440.567 4.5 439 2.933 439 1H438C438 3.48528 440.015 5.5 442.5 5.5V4.5ZM438 1C438 2.933 436.433 4.5 434.5 4.5V5.5C436.985 5.5 439 3.48528 439 1H438Z" fill="#737679"/>
</g>
<g clip-path="url(#clip29_844_1604)">
<path d="M450.5 5.5C450.776 5.5 451 5.27614 451 5C451 4.72386 450.776 4.5 450.5 4.5V5.5ZM447 1C447 0.723858 446.776 0.5 446.5 0.5C446.224 0.5 446 0.723858 446 1H447ZM439 1C439 0.723858 438.776 0.5 438.5 0.5C438.224 0.5 438 0.723858 438 1H439ZM434.5 4.5C434.224 4.5 434 4.72386 434 5C434 5.27614 434.224 5.5 434.5 5.5V4.5ZM466.5 5.5C466.776 5.5 467 5.27614 467 5C467 4.72386 466.776 4.5 466.5 4.5V5.5ZM463 1C463 0.723858 462.776 0.5 462.5 0.5C462.224 0.5 462 0.723858 462 1H463ZM455 1C455 0.723858 454.776 0.5 454.5 0.5C454.224 0.5 454 0.723858 454 1H455ZM450.5 4.5C450.224 4.5 450 4.72386 450 5C450 5.27614 450.224 5.5 450.5 5.5V4.5ZM450.5 4.5C448.567 4.5 447 2.933 447 1H446C446 3.48528 448.015 5.5 450.5 5.5V4.5ZM446 1C446 2.933 444.433 4.5 442.5 4.5V5.5C444.985 5.5 447 3.48528 447 1H446ZM442.5 4.5C440.567 4.5 439 2.933 439 1H438C438 3.48528 440.015 5.5 442.5 5.5V4.5ZM438 1C438 2.933 436.433 4.5 434.5 4.5V5.5C436.985 5.5 439 3.48528 439 1H438ZM466.5 4.5C464.567 4.5 463 2.933 463 1H462C462 3.48528 464.015 5.5 466.5 5.5V4.5ZM462 1C462 2.933 460.433 4.5 458.5 4.5V5.5C460.985 5.5 463 3.48528 463 1H462ZM458.5 4.5C456.567 4.5 455 2.933 455 1H454C454 3.48528 456.015 5.5 458.5 5.5V4.5ZM454 1C454 2.933 452.433 4.5 450.5 4.5V5.5C452.985 5.5 455 3.48528 455 1H454Z" fill="#737679"/>
</g>
<g clip-path="url(#clip30_844_1604)">
<path d="M466.5 5.5C466.776 5.5 467 5.27614 467 5C467 4.72386 466.776 4.5 466.5 4.5V5.5ZM463 1C463 0.723858 462.776 0.5 462.5 0.5C462.224 0.5 462 0.723858 462 1H463ZM455 1C455 0.723858 454.776 0.5 454.5 0.5C454.224 0.5 454 0.723858 454 1H455ZM450.5 4.5C450.224 4.5 450 4.72386 450 5C450 5.27614 450.224 5.5 450.5 5.5V4.5ZM482.5 5.5C482.776 5.5 483 5.27614 483 5C483 4.72386 482.776 4.5 482.5 4.5V5.5ZM479 1C479 0.723858 478.776 0.5 478.5 0.5C478.224 0.5 478 0.723858 478 1H479ZM471 1C471 0.723858 470.776 0.5 470.5 0.5C470.224 0.5 470 0.723858 470 1H471ZM466.5 4.5C466.224 4.5 466 4.72386 466 5C466 5.27614 466.224 5.5 466.5 5.5V4.5ZM466.5 4.5C464.567 4.5 463 2.933 463 1H462C462 3.48528 464.015 5.5 466.5 5.5V4.5ZM462 1C462 2.933 460.433 4.5 458.5 4.5V5.5C460.985 5.5 463 3.48528 463 1H462ZM458.5 4.5C456.567 4.5 455 2.933 455 1H454C454 3.48528 456.015 5.5 458.5 5.5V4.5ZM454 1C454 2.933 452.433 4.5 450.5 4.5V5.5C452.985 5.5 455 3.48528 455 1H454ZM482.5 4.5C480.567 4.5 479 2.933 479 1H478C478 3.48528 480.015 5.5 482.5 5.5V4.5ZM478 1C478 2.933 476.433 4.5 474.5 4.5V5.5C476.985 5.5 479 3.48528 479 1H478ZM474.5 4.5C472.567 4.5 471 2.933 471 1H470C470 3.48528 472.015 5.5 474.5 5.5V4.5ZM470 1C470 2.933 468.433 4.5 466.5 4.5V5.5C468.985 5.5 471 3.48528 471 1H470Z" fill="#737679"/>
</g>
<g clip-path="url(#clip31_844_1604)">
<path d="M482.5 5.5C482.776 5.5 483 5.27614 483 5C483 4.72386 482.776 4.5 482.5 4.5V5.5ZM479 1C479 0.723858 478.776 0.5 478.5 0.5C478.224 0.5 478 0.723858 478 1H479ZM471 1C471 0.723858 470.776 0.5 470.5 0.5C470.224 0.5 470 0.723858 470 1H471ZM466.5 4.5C466.224 4.5 466 4.72386 466 5C466 5.27614 466.224 5.5 466.5 5.5V4.5ZM498.5 5.5C498.776 5.5 499 5.27614 499 5C499 4.72386 498.776 4.5 498.5 4.5V5.5ZM495 1C495 0.723858 494.776 0.5 494.5 0.5C494.224 0.5 494 0.723858 494 1H495ZM487 1C487 0.723858 486.776 0.5 486.5 0.5C486.224 0.5 486 0.723858 486 1H487ZM482.5 4.5C482.224 4.5 482 4.72386 482 5C482 5.27614 482.224 5.5 482.5 5.5V4.5ZM482.5 4.5C480.567 4.5 479 2.933 479 1H478C478 3.48528 480.015 5.5 482.5 5.5V4.5ZM478 1C478 2.933 476.433 4.5 474.5 4.5V5.5C476.985 5.5 479 3.48528 479 1H478ZM474.5 4.5C472.567 4.5 471 2.933 471 1H470C470 3.48528 472.015 5.5 474.5 5.5V4.5ZM470 1C470 2.933 468.433 4.5 466.5 4.5V5.5C468.985 5.5 471 3.48528 471 1H470ZM498.5 4.5C496.567 4.5 495 2.933 495 1H494C494 3.48528 496.015 5.5 498.5 5.5V4.5ZM494 1C494 2.933 492.433 4.5 490.5 4.5V5.5C492.985 5.5 495 3.48528 495 1H494ZM490.5 4.5C488.567 4.5 487 2.933 487 1H486C486 3.48528 488.015 5.5 490.5 5.5V4.5ZM486 1C486 2.933 484.433 4.5 482.5 4.5V5.5C484.985 5.5 487 3.48528 487 1H486Z" fill="#737679"/>
</g>
<g clip-path="url(#clip32_844_1604)">
<path d="M498.5 5.5C498.776 5.5 499 5.27614 499 5C499 4.72386 498.776 4.5 498.5 4.5V5.5ZM495 1C495 0.723858 494.776 0.5 494.5 0.5C494.224 0.5 494 0.723858 494 1H495ZM487 1C487 0.723858 486.776 0.5 486.5 0.5C486.224 0.5 486 0.723858 486 1H487ZM482.5 4.5C482.224 4.5 482 4.72386 482 5C482 5.27614 482.224 5.5 482.5 5.5V4.5ZM514.5 5.5C514.776 5.5 515 5.27614 515 5C515 4.72386 514.776 4.5 514.5 4.5V5.5ZM511 1C511 0.723858 510.776 0.5 510.5 0.5C510.224 0.5 510 0.723858 510 1H511ZM503 1C503 0.723858 502.776 0.5 502.5 0.5C502.224 0.5 502 0.723858 502 1H503ZM498.5 4.5C498.224 4.5 498 4.72386 498 5C498 5.27614 498.224 5.5 498.5 5.5V4.5ZM498.5 4.5C496.567 4.5 495 2.933 495 1H494C494 3.48528 496.015 5.5 498.5 5.5V4.5ZM494 1C494 2.933 492.433 4.5 490.5 4.5V5.5C492.985 5.5 495 3.48528 495 1H494ZM490.5 4.5C488.567 4.5 487 2.933 487 1H486C486 3.48528 488.015 5.5 490.5 5.5V4.5ZM486 1C486 2.933 484.433 4.5 482.5 4.5V5.5C484.985 5.5 487 3.48528 487 1H486ZM514.5 4.5C512.567 4.5 511 2.933 511 1H510C510 3.48528 512.015 5.5 514.5 5.5V4.5ZM510 1C510 2.933 508.433 4.5 506.5 4.5V5.5C508.985 5.5 511 3.48528 511 1H510ZM506.5 4.5C504.567 4.5 503 2.933 503 1H502C502 3.48528 504.015 5.5 506.5 5.5V4.5ZM502 1C502 2.933 500.433 4.5 498.5 4.5V5.5C500.985 5.5 503 3.48528 503 1H502Z" fill="#737679"/>
</g>
<g clip-path="url(#clip33_844_1604)">
<path d="M514.5 5.5C514.776 5.5 515 5.27614 515 5C515 4.72386 514.776 4.5 514.5 4.5V5.5ZM511 1C511 0.723858 510.776 0.5 510.5 0.5C510.224 0.5 510 0.723858 510 1H511ZM503 1C503 0.723858 502.776 0.5 502.5 0.5C502.224 0.5 502 0.723858 502 1H503ZM498.5 4.5C498.224 4.5 498 4.72386 498 5C498 5.27614 498.224 5.5 498.5 5.5V4.5ZM530.5 5.5C530.776 5.5 531 5.27614 531 5C531 4.72386 530.776 4.5 530.5 4.5V5.5ZM527 1C527 0.723858 526.776 0.5 526.5 0.5C526.224 0.5 526 0.723858 526 1H527ZM519 1C519 0.723858 518.776 0.5 518.5 0.5C518.224 0.5 518 0.723858 518 1H519ZM514.5 4.5C514.224 4.5 514 4.72386 514 5C514 5.27614 514.224 5.5 514.5 5.5V4.5ZM514.5 4.5C512.567 4.5 511 2.933 511 1H510C510 3.48528 512.015 5.5 514.5 5.5V4.5ZM510 1C510 2.933 508.433 4.5 506.5 4.5V5.5C508.985 5.5 511 3.48528 511 1H510ZM506.5 4.5C504.567 4.5 503 2.933 503 1H502C502 3.48528 504.015 5.5 506.5 5.5V4.5ZM502 1C502 2.933 500.433 4.5 498.5 4.5V5.5C500.985 5.5 503 3.48528 503 1H502ZM530.5 4.5C528.567 4.5 527 2.933 527 1H526C526 3.48528 528.015 5.5 530.5 5.5V4.5ZM526 1C526 2.933 524.433 4.5 522.5 4.5V5.5C524.985 5.5 527 3.48528 527 1H526ZM522.5 4.5C520.567 4.5 519 2.933 519 1H518C518 3.48528 520.015 5.5 522.5 5.5V4.5ZM518 1C518 2.933 516.433 4.5 514.5 4.5V5.5C516.985 5.5 519 3.48528 519 1H518Z" fill="#737679"/>
</g>
<g clip-path="url(#clip34_844_1604)">
<path d="M530.5 5.5C530.776 5.5 531 5.27614 531 5C531 4.72386 530.776 4.5 530.5 4.5V5.5ZM527 1C527 0.723858 526.776 0.5 526.5 0.5C526.224 0.5 526 0.723858 526 1H527ZM519 1C519 0.723858 518.776 0.5 518.5 0.5C518.224 0.5 518 0.723858 518 1H519ZM514.5 4.5C514.224 4.5 514 4.72386 514 5C514 5.27614 514.224 5.5 514.5 5.5V4.5ZM546.5 5.5C546.776 5.5 547 5.27614 547 5C547 4.72386 546.776 4.5 546.5 4.5V5.5ZM543 1C543 0.723858 542.776 0.5 542.5 0.5C542.224 0.5 542 0.723858 542 1H543ZM535 1C535 0.723858 534.776 0.5 534.5 0.5C534.224 0.5 534 0.723858 534 1H535ZM530.5 4.5C530.224 4.5 530 4.72386 530 5C530 5.27614 530.224 5.5 530.5 5.5V4.5ZM530.5 4.5C528.567 4.5 527 2.933 527 1H526C526 3.48528 528.015 5.5 530.5 5.5V4.5ZM526 1C526 2.933 524.433 4.5 522.5 4.5V5.5C524.985 5.5 527 3.48528 527 1H526ZM522.5 4.5C520.567 4.5 519 2.933 519 1H518C518 3.48528 520.015 5.5 522.5 5.5V4.5ZM518 1C518 2.933 516.433 4.5 514.5 4.5V5.5C516.985 5.5 519 3.48528 519 1H518ZM546.5 4.5C544.567 4.5 543 2.933 543 1H542C542 3.48528 544.015 5.5 546.5 5.5V4.5ZM542 1C542 2.933 540.433 4.5 538.5 4.5V5.5C540.985 5.5 543 3.48528 543 1H542ZM538.5 4.5C536.567 4.5 535 2.933 535 1H534C534 3.48528 536.015 5.5 538.5 5.5V4.5ZM534 1C534 2.933 532.433 4.5 530.5 4.5V5.5C532.985 5.5 535 3.48528 535 1H534Z" fill="#737679"/>
</g>
<g clip-path="url(#clip35_844_1604)">
<path d="M546.5 5.5C546.776 5.5 547 5.27614 547 5C547 4.72386 546.776 4.5 546.5 4.5V5.5ZM543 1C543 0.723858 542.776 0.5 542.5 0.5C542.224 0.5 542 0.723858 542 1H543ZM535 1C535 0.723858 534.776 0.5 534.5 0.5C534.224 0.5 534 0.723858 534 1H535ZM530.5 4.5C530.224 4.5 530 4.72386 530 5C530 5.27614 530.224 5.5 530.5 5.5V4.5ZM562.5 5.5C562.776 5.5 563 5.27614 563 5C563 4.72386 562.776 4.5 562.5 4.5V5.5ZM559 1C559 0.723858 558.776 0.5 558.5 0.5C558.224 0.5 558 0.723858 558 1H559ZM551 1C551 0.723858 550.776 0.5 550.5 0.5C550.224 0.5 550 0.723858 550 1H551ZM546.5 4.5C546.224 4.5 546 4.72386 546 5C546 5.27614 546.224 5.5 546.5 5.5V4.5ZM546.5 4.5C544.567 4.5 543 2.933 543 1H542C542 3.48528 544.015 5.5 546.5 5.5V4.5ZM542 1C542 2.933 540.433 4.5 538.5 4.5V5.5C540.985 5.5 543 3.48528 543 1H542ZM538.5 4.5C536.567 4.5 535 2.933 535 1H534C534 3.48528 536.015 5.5 538.5 5.5V4.5ZM534 1C534 2.933 532.433 4.5 530.5 4.5V5.5C532.985 5.5 535 3.48528 535 1H534ZM562.5 4.5C560.567 4.5 559 2.933 559 1H558C558 3.48528 560.015 5.5 562.5 5.5V4.5ZM558 1C558 2.933 556.433 4.5 554.5 4.5V5.5C556.985 5.5 559 3.48528 559 1H558ZM554.5 4.5C552.567 4.5 551 2.933 551 1H550C550 3.48528 552.015 5.5 554.5 5.5V4.5ZM550 1C550 2.933 548.433 4.5 546.5 4.5V5.5C548.985 5.5 551 3.48528 551 1H550Z" fill="#737679"/>
</g>
<g clip-path="url(#clip36_844_1604)">
<path d="M562.5 5.5C562.776 5.5 563 5.27614 563 5C563 4.72386 562.776 4.5 562.5 4.5V5.5ZM559 1C559 0.723858 558.776 0.5 558.5 0.5C558.224 0.5 558 0.723858 558 1H559ZM551 1C551 0.723858 550.776 0.5 550.5 0.5C550.224 0.5 550 0.723858 550 1H551ZM546.5 4.5C546.224 4.5 546 4.72386 546 5C546 5.27614 546.224 5.5 546.5 5.5V4.5ZM578.5 5.5C578.776 5.5 579 5.27614 579 5C579 4.72386 578.776 4.5 578.5 4.5V5.5ZM575 1C575 0.723858 574.776 0.5 574.5 0.5C574.224 0.5 574 0.723858 574 1H575ZM567 1C567 0.723858 566.776 0.5 566.5 0.5C566.224 0.5 566 0.723858 566 1H567ZM562.5 4.5C562.224 4.5 562 4.72386 562 5C562 5.27614 562.224 5.5 562.5 5.5V4.5ZM562.5 4.5C560.567 4.5 559 2.933 559 1H558C558 3.48528 560.015 5.5 562.5 5.5V4.5ZM558 1C558 2.933 556.433 4.5 554.5 4.5V5.5C556.985 5.5 559 3.48528 559 1H558ZM554.5 4.5C552.567 4.5 551 2.933 551 1H550C550 3.48528 552.015 5.5 554.5 5.5V4.5ZM550 1C550 2.933 548.433 4.5 546.5 4.5V5.5C548.985 5.5 551 3.48528 551 1H550ZM578.5 4.5C576.567 4.5 575 2.933 575 1H574C574 3.48528 576.015 5.5 578.5 5.5V4.5ZM574 1C574 2.933 572.433 4.5 570.5 4.5V5.5C572.985 5.5 575 3.48528 575 1H574ZM570.5 4.5C568.567 4.5 567 2.933 567 1H566C566 3.48528 568.015 5.5 570.5 5.5V4.5ZM566 1C566 2.933 564.433 4.5 562.5 4.5V5.5C564.985 5.5 567 3.48528 567 1H566Z" fill="#737679"/>
</g>
<g clip-path="url(#clip37_844_1604)">
<path d="M578.5 5.5C578.776 5.5 579 5.27614 579 5C579 4.72386 578.776 4.5 578.5 4.5V5.5ZM575 1C575 0.723858 574.776 0.5 574.5 0.5C574.224 0.5 574 0.723858 574 1H575ZM567 1C567 0.723858 566.776 0.5 566.5 0.5C566.224 0.5 566 0.723858 566 1H567ZM562.5 4.5C562.224 4.5 562 4.72386 562 5C562 5.27614 562.224 5.5 562.5 5.5V4.5ZM594.5 5.5C594.776 5.5 595 5.27614 595 5C595 4.72386 594.776 4.5 594.5 4.5V5.5ZM591 1C591 0.723858 590.776 0.5 590.5 0.5C590.224 0.5 590 0.723858 590 1H591ZM583 1C583 0.723858 582.776 0.5 582.5 0.5C582.224 0.5 582 0.723858 582 1H583ZM578.5 4.5C578.224 4.5 578 4.72386 578 5C578 5.27614 578.224 5.5 578.5 5.5V4.5ZM578.5 4.5C576.567 4.5 575 2.933 575 1H574C574 3.48528 576.015 5.5 578.5 5.5V4.5ZM574 1C574 2.933 572.433 4.5 570.5 4.5V5.5C572.985 5.5 575 3.48528 575 1H574ZM570.5 4.5C568.567 4.5 567 2.933 567 1H566C566 3.48528 568.015 5.5 570.5 5.5V4.5ZM566 1C566 2.933 564.433 4.5 562.5 4.5V5.5C564.985 5.5 567 3.48528 567 1H566ZM594.5 4.5C592.567 4.5 591 2.933 591 1H590C590 3.48528 592.015 5.5 594.5 5.5V4.5ZM590 1C590 2.933 588.433 4.5 586.5 4.5V5.5C588.985 5.5 591 3.48528 591 1H590ZM586.5 4.5C584.567 4.5 583 2.933 583 1H582C582 3.48528 584.015 5.5 586.5 5.5V4.5ZM582 1C582 2.933 580.433 4.5 578.5 4.5V5.5C580.985 5.5 583 3.48528 583 1H582Z" fill="#737679"/>
</g>
<g clip-path="url(#clip38_844_1604)">
<path d="M594.5 5.5C594.776 5.5 595 5.27614 595 5C595 4.72386 594.776 4.5 594.5 4.5V5.5ZM591 1C591 0.723858 590.776 0.5 590.5 0.5C590.224 0.5 590 0.723858 590 1H591ZM583 1C583 0.723858 582.776 0.5 582.5 0.5C582.224 0.5 582 0.723858 582 1H583ZM578.5 4.5C578.224 4.5 578 4.72386 578 5C578 5.27614 578.224 5.5 578.5 5.5V4.5ZM610.5 5.5C610.776 5.5 611 5.27614 611 5C611 4.72386 610.776 4.5 610.5 4.5V5.5ZM607 1C607 0.723858 606.776 0.5 606.5 0.5C606.224 0.5 606 0.723858 606 1H607ZM599 1C599 0.723858 598.776 0.5 598.5 0.5C598.224 0.5 598 0.723858 598 1H599ZM594.5 4.5C594.224 4.5 594 4.72386 594 5C594 5.27614 594.224 5.5 594.5 5.5V4.5ZM594.5 4.5C592.567 4.5 591 2.933 591 1H590C590 3.48528 592.015 5.5 594.5 5.5V4.5ZM590 1C590 2.933 588.433 4.5 586.5 4.5V5.5C588.985 5.5 591 3.48528 591 1H590ZM586.5 4.5C584.567 4.5 583 2.933 583 1H582C582 3.48528 584.015 5.5 586.5 5.5V4.5ZM582 1C582 2.933 580.433 4.5 578.5 4.5V5.5C580.985 5.5 583 3.48528 583 1H582ZM610.5 4.5C608.567 4.5 607 2.933 607 1H606C606 3.48528 608.015 5.5 610.5 5.5V4.5ZM606 1C606 2.933 604.433 4.5 602.5 4.5V5.5C604.985 5.5 607 3.48528 607 1H606ZM602.5 4.5C600.567 4.5 599 2.933 599 1H598C598 3.48528 600.015 5.5 602.5 5.5V4.5ZM598 1C598 2.933 596.433 4.5 594.5 4.5V5.5C596.985 5.5 599 3.48528 599 1H598Z" fill="#737679"/>
</g>
<g clip-path="url(#clip39_844_1604)">
<path d="M610.5 5.5C610.776 5.5 611 5.27614 611 5C611 4.72386 610.776 4.5 610.5 4.5V5.5ZM607 1C607 0.723858 606.776 0.5 606.5 0.5C606.224 0.5 606 0.723858 606 1H607ZM599 1C599 0.723858 598.776 0.5 598.5 0.5C598.224 0.5 598 0.723858 598 1H599ZM594.5 4.5C594.224 4.5 594 4.72386 594 5C594 5.27614 594.224 5.5 594.5 5.5V4.5ZM626.5 5.5C626.776 5.5 627 5.27614 627 5C627 4.72386 626.776 4.5 626.5 4.5V5.5ZM623 1C623 0.723858 622.776 0.5 622.5 0.5C622.224 0.5 622 0.723858 622 1H623ZM615 1C615 0.723858 614.776 0.5 614.5 0.5C614.224 0.5 614 0.723858 614 1H615ZM610.5 4.5C610.224 4.5 610 4.72386 610 5C610 5.27614 610.224 5.5 610.5 5.5V4.5ZM610.5 4.5C608.567 4.5 607 2.933 607 1H606C606 3.48528 608.015 5.5 610.5 5.5V4.5ZM606 1C606 2.933 604.433 4.5 602.5 4.5V5.5C604.985 5.5 607 3.48528 607 1H606ZM602.5 4.5C600.567 4.5 599 2.933 599 1H598C598 3.48528 600.015 5.5 602.5 5.5V4.5ZM598 1C598 2.933 596.433 4.5 594.5 4.5V5.5C596.985 5.5 599 3.48528 599 1H598ZM626.5 4.5C624.567 4.5 623 2.933 623 1H622C622 3.48528 624.015 5.5 626.5 5.5V4.5ZM622 1C622 2.933 620.433 4.5 618.5 4.5V5.5C620.985 5.5 623 3.48528 623 1H622ZM618.5 4.5C616.567 4.5 615 2.933 615 1H614C614 3.48528 616.015 5.5 618.5 5.5V4.5ZM614 1C614 2.933 612.433 4.5 610.5 4.5V5.5C612.985 5.5 615 3.48528 615 1H614Z" fill="#737679"/>
</g>
<g clip-path="url(#clip40_844_1604)">
<path d="M626.5 5.5C626.776 5.5 627 5.27614 627 5C627 4.72386 626.776 4.5 626.5 4.5V5.5ZM623 1C623 0.723858 622.776 0.5 622.5 0.5C622.224 0.5 622 0.723858 622 1H623ZM615 1C615 0.723858 614.776 0.5 614.5 0.5C614.224 0.5 614 0.723858 614 1H615ZM610.5 4.5C610.224 4.5 610 4.72386 610 5C610 5.27614 610.224 5.5 610.5 5.5V4.5ZM642.5 5.5C642.776 5.5 643 5.27614 643 5C643 4.72386 642.776 4.5 642.5 4.5V5.5ZM639 1C639 0.723858 638.776 0.5 638.5 0.5C638.224 0.5 638 0.723858 638 1H639ZM631 1C631 0.723858 630.776 0.5 630.5 0.5C630.224 0.5 630 0.723858 630 1H631ZM626.5 4.5C626.224 4.5 626 4.72386 626 5C626 5.27614 626.224 5.5 626.5 5.5V4.5ZM626.5 4.5C624.567 4.5 623 2.933 623 1H622C622 3.48528 624.015 5.5 626.5 5.5V4.5ZM622 1C622 2.933 620.433 4.5 618.5 4.5V5.5C620.985 5.5 623 3.48528 623 1H622ZM618.5 4.5C616.567 4.5 615 2.933 615 1H614C614 3.48528 616.015 5.5 618.5 5.5V4.5ZM614 1C614 2.933 612.433 4.5 610.5 4.5V5.5C612.985 5.5 615 3.48528 615 1H614ZM642.5 4.5C640.567 4.5 639 2.933 639 1H638C638 3.48528 640.015 5.5 642.5 5.5V4.5ZM638 1C638 2.933 636.433 4.5 634.5 4.5V5.5C636.985 5.5 639 3.48528 639 1H638ZM634.5 4.5C632.567 4.5 631 2.933 631 1H630C630 3.48528 632.015 5.5 634.5 5.5V4.5ZM630 1C630 2.933 628.433 4.5 626.5 4.5V5.5C628.985 5.5 631 3.48528 631 1H630Z" fill="#737679"/>
</g>
<g clip-path="url(#clip41_844_1604)">
<path d="M642.5 5.5C642.776 5.5 643 5.27614 643 5C643 4.72386 642.776 4.5 642.5 4.5V5.5ZM639 1C639 0.723858 638.776 0.5 638.5 0.5C638.224 0.5 638 0.723858 638 1H639ZM631 1C631 0.723858 630.776 0.5 630.5 0.5C630.224 0.5 630 0.723858 630 1H631ZM626.5 4.5C626.224 4.5 626 4.72386 626 5C626 5.27614 626.224 5.5 626.5 5.5V4.5ZM658.5 5.5C658.776 5.5 659 5.27614 659 5C659 4.72386 658.776 4.5 658.5 4.5V5.5ZM655 1C655 0.723858 654.776 0.5 654.5 0.5C654.224 0.5 654 0.723858 654 1H655ZM647 1C647 0.723858 646.776 0.5 646.5 0.5C646.224 0.5 646 0.723858 646 1H647ZM642.5 4.5C642.224 4.5 642 4.72386 642 5C642 5.27614 642.224 5.5 642.5 5.5V4.5ZM642.5 4.5C640.567 4.5 639 2.933 639 1H638C638 3.48528 640.015 5.5 642.5 5.5V4.5ZM638 1C638 2.933 636.433 4.5 634.5 4.5V5.5C636.985 5.5 639 3.48528 639 1H638ZM634.5 4.5C632.567 4.5 631 2.933 631 1H630C630 3.48528 632.015 5.5 634.5 5.5V4.5ZM630 1C630 2.933 628.433 4.5 626.5 4.5V5.5C628.985 5.5 631 3.48528 631 1H630ZM658.5 4.5C656.567 4.5 655 2.933 655 1H654C654 3.48528 656.015 5.5 658.5 5.5V4.5ZM654 1C654 2.933 652.433 4.5 650.5 4.5V5.5C652.985 5.5 655 3.48528 655 1H654ZM650.5 4.5C648.567 4.5 647 2.933 647 1H646C646 3.48528 648.015 5.5 650.5 5.5V4.5ZM646 1C646 2.933 644.433 4.5 642.5 4.5V5.5C644.985 5.5 647 3.48528 647 1H646Z" fill="#737679"/>
</g>
<g clip-path="url(#clip42_844_1604)">
<path d="M658.5 5.5C658.776 5.5 659 5.27614 659 5C659 4.72386 658.776 4.5 658.5 4.5V5.5ZM655 1C655 0.723858 654.776 0.5 654.5 0.5C654.224 0.5 654 0.723858 654 1H655ZM647 1C647 0.723858 646.776 0.5 646.5 0.5C646.224 0.5 646 0.723858 646 1H647ZM642.5 4.5C642.224 4.5 642 4.72386 642 5C642 5.27614 642.224 5.5 642.5 5.5V4.5ZM674.5 5.5C674.776 5.5 675 5.27614 675 5C675 4.72386 674.776 4.5 674.5 4.5V5.5ZM671 1C671 0.723858 670.776 0.5 670.5 0.5C670.224 0.5 670 0.723858 670 1H671ZM663 1C663 0.723858 662.776 0.5 662.5 0.5C662.224 0.5 662 0.723858 662 1H663ZM658.5 4.5C658.224 4.5 658 4.72386 658 5C658 5.27614 658.224 5.5 658.5 5.5V4.5ZM658.5 4.5C656.567 4.5 655 2.933 655 1H654C654 3.48528 656.015 5.5 658.5 5.5V4.5ZM654 1C654 2.933 652.433 4.5 650.5 4.5V5.5C652.985 5.5 655 3.48528 655 1H654ZM650.5 4.5C648.567 4.5 647 2.933 647 1H646C646 3.48528 648.015 5.5 650.5 5.5V4.5ZM646 1C646 2.933 644.433 4.5 642.5 4.5V5.5C644.985 5.5 647 3.48528 647 1H646ZM674.5 4.5C672.567 4.5 671 2.933 671 1H670C670 3.48528 672.015 5.5 674.5 5.5V4.5ZM670 1C670 2.933 668.433 4.5 666.5 4.5V5.5C668.985 5.5 671 3.48528 671 1H670ZM666.5 4.5C664.567 4.5 663 2.933 663 1H662C662 3.48528 664.015 5.5 666.5 5.5V4.5ZM662 1C662 2.933 660.433 4.5 658.5 4.5V5.5C660.985 5.5 663 3.48528 663 1H662Z" fill="#737679"/>
</g>
<g clip-path="url(#clip43_844_1604)">
<path d="M674.5 5.5C674.776 5.5 675 5.27614 675 5C675 4.72386 674.776 4.5 674.5 4.5V5.5ZM671 1C671 0.723858 670.776 0.5 670.5 0.5C670.224 0.5 670 0.723858 670 1H671ZM663 1C663 0.723858 662.776 0.5 662.5 0.5C662.224 0.5 662 0.723858 662 1H663ZM658.5 4.5C658.224 4.5 658 4.72386 658 5C658 5.27614 658.224 5.5 658.5 5.5V4.5ZM690.5 5.5C690.776 5.5 691 5.27614 691 5C691 4.72386 690.776 4.5 690.5 4.5V5.5ZM687 1C687 0.723858 686.776 0.5 686.5 0.5C686.224 0.5 686 0.723858 686 1H687ZM679 1C679 0.723858 678.776 0.5 678.5 0.5C678.224 0.5 678 0.723858 678 1H679ZM674.5 4.5C674.224 4.5 674 4.72386 674 5C674 5.27614 674.224 5.5 674.5 5.5V4.5ZM674.5 4.5C672.567 4.5 671 2.933 671 1H670C670 3.48528 672.015 5.5 674.5 5.5V4.5ZM670 1C670 2.933 668.433 4.5 666.5 4.5V5.5C668.985 5.5 671 3.48528 671 1H670ZM666.5 4.5C664.567 4.5 663 2.933 663 1H662C662 3.48528 664.015 5.5 666.5 5.5V4.5ZM662 1C662 2.933 660.433 4.5 658.5 4.5V5.5C660.985 5.5 663 3.48528 663 1H662ZM690.5 4.5C688.567 4.5 687 2.933 687 1H686C686 3.48528 688.015 5.5 690.5 5.5V4.5ZM686 1C686 2.933 684.433 4.5 682.5 4.5V5.5C684.985 5.5 687 3.48528 687 1H686ZM682.5 4.5C680.567 4.5 679 2.933 679 1H678C678 3.48528 680.015 5.5 682.5 5.5V4.5ZM678 1C678 2.933 676.433 4.5 674.5 4.5V5.5C676.985 5.5 679 3.48528 679 1H678Z" fill="#737679"/>
</g>
<g clip-path="url(#clip44_844_1604)">
<path d="M690.5 5.5C690.776 5.5 691 5.27614 691 5C691 4.72386 690.776 4.5 690.5 4.5V5.5ZM687 1C687 0.723858 686.776 0.5 686.5 0.5C686.224 0.5 686 0.723858 686 1H687ZM679 1C679 0.723858 678.776 0.5 678.5 0.5C678.224 0.5 678 0.723858 678 1H679ZM674.5 4.5C674.224 4.5 674 4.72386 674 5C674 5.27614 674.224 5.5 674.5 5.5V4.5ZM706.5 5.5C706.776 5.5 707 5.27614 707 5C707 4.72386 706.776 4.5 706.5 4.5V5.5ZM703 1C703 0.723858 702.776 0.5 702.5 0.5C702.224 0.5 702 0.723858 702 1H703ZM695 1C695 0.723858 694.776 0.5 694.5 0.5C694.224 0.5 694 0.723858 694 1H695ZM690.5 4.5C690.224 4.5 690 4.72386 690 5C690 5.27614 690.224 5.5 690.5 5.5V4.5ZM690.5 4.5C688.567 4.5 687 2.933 687 1H686C686 3.48528 688.015 5.5 690.5 5.5V4.5ZM686 1C686 2.933 684.433 4.5 682.5 4.5V5.5C684.985 5.5 687 3.48528 687 1H686ZM682.5 4.5C680.567 4.5 679 2.933 679 1H678C678 3.48528 680.015 5.5 682.5 5.5V4.5ZM678 1C678 2.933 676.433 4.5 674.5 4.5V5.5C676.985 5.5 679 3.48528 679 1H678ZM706.5 4.5C704.567 4.5 703 2.933 703 1H702C702 3.48528 704.015 5.5 706.5 5.5V4.5ZM702 1C702 2.933 700.433 4.5 698.5 4.5V5.5C700.985 5.5 703 3.48528 703 1H702ZM698.5 4.5C696.567 4.5 695 2.933 695 1H694C694 3.48528 696.015 5.5 698.5 5.5V4.5ZM694 1C694 2.933 692.433 4.5 690.5 4.5V5.5C692.985 5.5 695 3.48528 695 1H694Z" fill="#737679"/>
</g>
<g clip-path="url(#clip45_844_1604)">
<path d="M706.5 5.5C706.776 5.5 707 5.27614 707 5C707 4.72386 706.776 4.5 706.5 4.5V5.5ZM703 1C703 0.723858 702.776 0.5 702.5 0.5C702.224 0.5 702 0.723858 702 1H703ZM695 1C695 0.723858 694.776 0.5 694.5 0.5C694.224 0.5 694 0.723858 694 1H695ZM690.5 4.5C690.224 4.5 690 4.72386 690 5C690 5.27614 690.224 5.5 690.5 5.5V4.5ZM722.5 5.5C722.776 5.5 723 5.27614 723 5C723 4.72386 722.776 4.5 722.5 4.5V5.5ZM719 1C719 0.723858 718.776 0.5 718.5 0.5C718.224 0.5 718 0.723858 718 1H719ZM711 1C711 0.723858 710.776 0.5 710.5 0.5C710.224 0.5 710 0.723858 710 1H711ZM706.5 4.5C706.224 4.5 706 4.72386 706 5C706 5.27614 706.224 5.5 706.5 5.5V4.5ZM706.5 4.5C704.567 4.5 703 2.933 703 1H702C702 3.48528 704.015 5.5 706.5 5.5V4.5ZM702 1C702 2.933 700.433 4.5 698.5 4.5V5.5C700.985 5.5 703 3.48528 703 1H702ZM698.5 4.5C696.567 4.5 695 2.933 695 1H694C694 3.48528 696.015 5.5 698.5 5.5V4.5ZM694 1C694 2.933 692.433 4.5 690.5 4.5V5.5C692.985 5.5 695 3.48528 695 1H694ZM722.5 4.5C720.567 4.5 719 2.933 719 1H718C718 3.48528 720.015 5.5 722.5 5.5V4.5ZM718 1C718 2.933 716.433 4.5 714.5 4.5V5.5C716.985 5.5 719 3.48528 719 1H718ZM714.5 4.5C712.567 4.5 711 2.933 711 1H710C710 3.48528 712.015 5.5 714.5 5.5V4.5ZM710 1C710 2.933 708.433 4.5 706.5 4.5V5.5C708.985 5.5 711 3.48528 711 1H710Z" fill="#737679"/>
</g>
<g clip-path="url(#clip46_844_1604)">
<path d="M722.5 5.5C722.776 5.5 723 5.27614 723 5C723 4.72386 722.776 4.5 722.5 4.5V5.5ZM719 1C719 0.723858 718.776 0.5 718.5 0.5C718.224 0.5 718 0.723858 718 1H719ZM711 1C711 0.723858 710.776 0.5 710.5 0.5C710.224 0.5 710 0.723858 710 1H711ZM706.5 4.5C706.224 4.5 706 4.72386 706 5C706 5.27614 706.224 5.5 706.5 5.5V4.5ZM738.5 5.5C738.776 5.5 739 5.27614 739 5C739 4.72386 738.776 4.5 738.5 4.5V5.5ZM735 1C735 0.723858 734.776 0.5 734.5 0.5C734.224 0.5 734 0.723858 734 1H735ZM727 1C727 0.723858 726.776 0.5 726.5 0.5C726.224 0.5 726 0.723858 726 1H727ZM722.5 4.5C722.224 4.5 722 4.72386 722 5C722 5.27614 722.224 5.5 722.5 5.5V4.5ZM722.5 4.5C720.567 4.5 719 2.933 719 1H718C718 3.48528 720.015 5.5 722.5 5.5V4.5ZM718 1C718 2.933 716.433 4.5 714.5 4.5V5.5C716.985 5.5 719 3.48528 719 1H718ZM714.5 4.5C712.567 4.5 711 2.933 711 1H710C710 3.48528 712.015 5.5 714.5 5.5V4.5ZM710 1C710 2.933 708.433 4.5 706.5 4.5V5.5C708.985 5.5 711 3.48528 711 1H710ZM738.5 4.5C736.567 4.5 735 2.933 735 1H734C734 3.48528 736.015 5.5 738.5 5.5V4.5ZM734 1C734 2.933 732.433 4.5 730.5 4.5V5.5C732.985 5.5 735 3.48528 735 1H734ZM730.5 4.5C728.567 4.5 727 2.933 727 1H726C726 3.48528 728.015 5.5 730.5 5.5V4.5ZM726 1C726 2.933 724.433 4.5 722.5 4.5V5.5C724.985 5.5 727 3.48528 727 1H726Z" fill="#737679"/>
</g>
<g clip-path="url(#clip47_844_1604)">
<path d="M738.5 5.5C738.776 5.5 739 5.27614 739 5C739 4.72386 738.776 4.5 738.5 4.5V5.5ZM735 1C735 0.723858 734.776 0.5 734.5 0.5C734.224 0.5 734 0.723858 734 1H735ZM727 1C727 0.723858 726.776 0.5 726.5 0.5C726.224 0.5 726 0.723858 726 1H727ZM722.5 4.5C722.224 4.5 722 4.72386 722 5C722 5.27614 722.224 5.5 722.5 5.5V4.5ZM754.5 5.5C754.776 5.5 755 5.27614 755 5C755 4.72386 754.776 4.5 754.5 4.5V5.5ZM751 1C751 0.723858 750.776 0.5 750.5 0.5C750.224 0.5 750 0.723858 750 1H751ZM743 1C743 0.723858 742.776 0.5 742.5 0.5C742.224 0.5 742 0.723858 742 1H743ZM738.5 4.5C738.224 4.5 738 4.72386 738 5C738 5.27614 738.224 5.5 738.5 5.5V4.5ZM738.5 4.5C736.567 4.5 735 2.933 735 1H734C734 3.48528 736.015 5.5 738.5 5.5V4.5ZM734 1C734 2.933 732.433 4.5 730.5 4.5V5.5C732.985 5.5 735 3.48528 735 1H734ZM730.5 4.5C728.567 4.5 727 2.933 727 1H726C726 3.48528 728.015 5.5 730.5 5.5V4.5ZM726 1C726 2.933 724.433 4.5 722.5 4.5V5.5C724.985 5.5 727 3.48528 727 1H726ZM754.5 4.5C752.567 4.5 751 2.933 751 1H750C750 3.48528 752.015 5.5 754.5 5.5V4.5ZM750 1C750 2.933 748.433 4.5 746.5 4.5V5.5C748.985 5.5 751 3.48528 751 1H750ZM746.5 4.5C744.567 4.5 743 2.933 743 1H742C742 3.48528 744.015 5.5 746.5 5.5V4.5ZM742 1C742 2.933 740.433 4.5 738.5 4.5V5.5C740.985 5.5 743 3.48528 743 1H742Z" fill="#737679"/>
</g>
<g clip-path="url(#clip48_844_1604)">
<path d="M754.5 5.5C754.776 5.5 755 5.27614 755 5C755 4.72386 754.776 4.5 754.5 4.5V5.5ZM751 1C751 0.723858 750.776 0.5 750.5 0.5C750.224 0.5 750 0.723858 750 1H751ZM743 1C743 0.723858 742.776 0.5 742.5 0.5C742.224 0.5 742 0.723858 742 1H743ZM738.5 4.5C738.224 4.5 738 4.72386 738 5C738 5.27614 738.224 5.5 738.5 5.5V4.5ZM770.5 5.5C770.776 5.5 771 5.27614 771 5C771 4.72386 770.776 4.5 770.5 4.5V5.5ZM767 1C767 0.723858 766.776 0.5 766.5 0.5C766.224 0.5 766 0.723858 766 1H767ZM759 1C759 0.723858 758.776 0.5 758.5 0.5C758.224 0.5 758 0.723858 758 1H759ZM754.5 4.5C754.224 4.5 754 4.72386 754 5C754 5.27614 754.224 5.5 754.5 5.5V4.5ZM754.5 4.5C752.567 4.5 751 2.933 751 1H750C750 3.48528 752.015 5.5 754.5 5.5V4.5ZM750 1C750 2.933 748.433 4.5 746.5 4.5V5.5C748.985 5.5 751 3.48528 751 1H750ZM746.5 4.5C744.567 4.5 743 2.933 743 1H742C742 3.48528 744.015 5.5 746.5 5.5V4.5ZM742 1C742 2.933 740.433 4.5 738.5 4.5V5.5C740.985 5.5 743 3.48528 743 1H742ZM770.5 4.5C768.567 4.5 767 2.933 767 1H766C766 3.48528 768.015 5.5 770.5 5.5V4.5ZM766 1C766 2.933 764.433 4.5 762.5 4.5V5.5C764.985 5.5 767 3.48528 767 1H766ZM762.5 4.5C760.567 4.5 759 2.933 759 1H758C758 3.48528 760.015 5.5 762.5 5.5V4.5ZM758 1C758 2.933 756.433 4.5 754.5 4.5V5.5C756.985 5.5 759 3.48528 759 1H758Z" fill="#737679"/>
</g>
<g clip-path="url(#clip49_844_1604)">
<path d="M770.5 5.5C770.776 5.5 771 5.27614 771 5C771 4.72386 770.776 4.5 770.5 4.5V5.5ZM767 1C767 0.723858 766.776 0.5 766.5 0.5C766.224 0.5 766 0.723858 766 1H767ZM759 1C759 0.723858 758.776 0.5 758.5 0.5C758.224 0.5 758 0.723858 758 1H759ZM754.5 4.5C754.224 4.5 754 4.72386 754 5C754 5.27614 754.224 5.5 754.5 5.5V4.5ZM786.5 5.5C786.776 5.5 787 5.27614 787 5C787 4.72386 786.776 4.5 786.5 4.5V5.5ZM783 1C783 0.723858 782.776 0.5 782.5 0.5C782.224 0.5 782 0.723858 782 1H783ZM775 1C775 0.723858 774.776 0.5 774.5 0.5C774.224 0.5 774 0.723858 774 1H775ZM770.5 4.5C770.224 4.5 770 4.72386 770 5C770 5.27614 770.224 5.5 770.5 5.5V4.5ZM770.5 4.5C768.567 4.5 767 2.933 767 1H766C766 3.48528 768.015 5.5 770.5 5.5V4.5ZM766 1C766 2.933 764.433 4.5 762.5 4.5V5.5C764.985 5.5 767 3.48528 767 1H766ZM762.5 4.5C760.567 4.5 759 2.933 759 1H758C758 3.48528 760.015 5.5 762.5 5.5V4.5ZM758 1C758 2.933 756.433 4.5 754.5 4.5V5.5C756.985 5.5 759 3.48528 759 1H758ZM786.5 4.5C784.567 4.5 783 2.933 783 1H782C782 3.48528 784.015 5.5 786.5 5.5V4.5ZM782 1C782 2.933 780.433 4.5 778.5 4.5V5.5C780.985 5.5 783 3.48528 783 1H782ZM778.5 4.5C776.567 4.5 775 2.933 775 1H774C774 3.48528 776.015 5.5 778.5 5.5V4.5ZM774 1C774 2.933 772.433 4.5 770.5 4.5V5.5C772.985 5.5 775 3.48528 775 1H774Z" fill="#737679"/>
</g>
<g clip-path="url(#clip50_844_1604)">
<path d="M786.5 5.5C786.776 5.5 787 5.27614 787 5C787 4.72386 786.776 4.5 786.5 4.5V5.5ZM783 1C783 0.723858 782.776 0.5 782.5 0.5C782.224 0.5 782 0.723858 782 1H783ZM775 1C775 0.723858 774.776 0.5 774.5 0.5C774.224 0.5 774 0.723858 774 1H775ZM770.5 4.5C770.224 4.5 770 4.72386 770 5C770 5.27614 770.224 5.5 770.5 5.5V4.5ZM802.5 5.5C802.776 5.5 803 5.27614 803 5C803 4.72386 802.776 4.5 802.5 4.5V5.5ZM799 1C799 0.723858 798.776 0.5 798.5 0.5C798.224 0.5 798 0.723858 798 1H799ZM791 1C791 0.723858 790.776 0.5 790.5 0.5C790.224 0.5 790 0.723858 790 1H791ZM786.5 4.5C786.224 4.5 786 4.72386 786 5C786 5.27614 786.224 5.5 786.5 5.5V4.5ZM786.5 4.5C784.567 4.5 783 2.933 783 1H782C782 3.48528 784.015 5.5 786.5 5.5V4.5ZM782 1C782 2.933 780.433 4.5 778.5 4.5V5.5C780.985 5.5 783 3.48528 783 1H782ZM778.5 4.5C776.567 4.5 775 2.933 775 1H774C774 3.48528 776.015 5.5 778.5 5.5V4.5ZM774 1C774 2.933 772.433 4.5 770.5 4.5V5.5C772.985 5.5 775 3.48528 775 1H774ZM802.5 4.5C800.567 4.5 799 2.933 799 1H798C798 3.48528 800.015 5.5 802.5 5.5V4.5ZM798 1C798 2.933 796.433 4.5 794.5 4.5V5.5C796.985 5.5 799 3.48528 799 1H798ZM794.5 4.5C792.567 4.5 791 2.933 791 1H790C790 3.48528 792.015 5.5 794.5 5.5V4.5ZM790 1C790 2.933 788.433 4.5 786.5 4.5V5.5C788.985 5.5 791 3.48528 791 1H790Z" fill="#737679"/>
</g>
<g clip-path="url(#clip51_844_1604)">
<path d="M802.5 5.5C802.776 5.5 803 5.27614 803 5C803 4.72386 802.776 4.5 802.5 4.5V5.5ZM799 1C799 0.723858 798.776 0.5 798.5 0.5C798.224 0.5 798 0.723858 798 1H799ZM791 1C791 0.723858 790.776 0.5 790.5 0.5C790.224 0.5 790 0.723858 790 1H791ZM786.5 4.5C786.224 4.5 786 4.72386 786 5C786 5.27614 786.224 5.5 786.5 5.5V4.5ZM818.5 5.5C818.776 5.5 819 5.27614 819 5C819 4.72386 818.776 4.5 818.5 4.5V5.5ZM815 1C815 0.723858 814.776 0.5 814.5 0.5C814.224 0.5 814 0.723858 814 1H815ZM807 1C807 0.723858 806.776 0.5 806.5 0.5C806.224 0.5 806 0.723858 806 1H807ZM802.5 4.5C802.224 4.5 802 4.72386 802 5C802 5.27614 802.224 5.5 802.5 5.5V4.5ZM802.5 4.5C800.567 4.5 799 2.933 799 1H798C798 3.48528 800.015 5.5 802.5 5.5V4.5ZM798 1C798 2.933 796.433 4.5 794.5 4.5V5.5C796.985 5.5 799 3.48528 799 1H798ZM794.5 4.5C792.567 4.5 791 2.933 791 1H790C790 3.48528 792.015 5.5 794.5 5.5V4.5ZM790 1C790 2.933 788.433 4.5 786.5 4.5V5.5C788.985 5.5 791 3.48528 791 1H790ZM818.5 4.5C816.567 4.5 815 2.933 815 1H814C814 3.48528 816.015 5.5 818.5 5.5V4.5ZM814 1C814 2.933 812.433 4.5 810.5 4.5V5.5C812.985 5.5 815 3.48528 815 1H814ZM810.5 4.5C808.567 4.5 807 2.933 807 1H806C806 3.48528 808.015 5.5 810.5 5.5V4.5ZM806 1C806 2.933 804.433 4.5 802.5 4.5V5.5C804.985 5.5 807 3.48528 807 1H806Z" fill="#737679"/>
</g>
<g clip-path="url(#clip52_844_1604)">
<path d="M818.5 5.5C818.776 5.5 819 5.27614 819 5C819 4.72386 818.776 4.5 818.5 4.5V5.5ZM815 1C815 0.723858 814.776 0.5 814.5 0.5C814.224 0.5 814 0.723858 814 1H815ZM807 1C807 0.723858 806.776 0.5 806.5 0.5C806.224 0.5 806 0.723858 806 1H807ZM802.5 4.5C802.224 4.5 802 4.72386 802 5C802 5.27614 802.224 5.5 802.5 5.5V4.5ZM834.5 5.5C834.776 5.5 835 5.27614 835 5C835 4.72386 834.776 4.5 834.5 4.5V5.5ZM831 1C831 0.723858 830.776 0.5 830.5 0.5C830.224 0.5 830 0.723858 830 1H831ZM823 1C823 0.723858 822.776 0.5 822.5 0.5C822.224 0.5 822 0.723858 822 1H823ZM818.5 4.5C818.224 4.5 818 4.72386 818 5C818 5.27614 818.224 5.5 818.5 5.5V4.5ZM818.5 4.5C816.567 4.5 815 2.933 815 1H814C814 3.48528 816.015 5.5 818.5 5.5V4.5ZM814 1C814 2.933 812.433 4.5 810.5 4.5V5.5C812.985 5.5 815 3.48528 815 1H814ZM810.5 4.5C808.567 4.5 807 2.933 807 1H806C806 3.48528 808.015 5.5 810.5 5.5V4.5ZM806 1C806 2.933 804.433 4.5 802.5 4.5V5.5C804.985 5.5 807 3.48528 807 1H806ZM834.5 4.5C832.567 4.5 831 2.933 831 1H830C830 3.48528 832.015 5.5 834.5 5.5V4.5ZM830 1C830 2.933 828.433 4.5 826.5 4.5V5.5C828.985 5.5 831 3.48528 831 1H830ZM826.5 4.5C824.567 4.5 823 2.933 823 1H822C822 3.48528 824.015 5.5 826.5 5.5V4.5ZM822 1C822 2.933 820.433 4.5 818.5 4.5V5.5C820.985 5.5 823 3.48528 823 1H822Z" fill="#737679"/>
</g>
<g clip-path="url(#clip53_844_1604)">
<path d="M834.5 5.5C834.776 5.5 835 5.27614 835 5C835 4.72386 834.776 4.5 834.5 4.5V5.5ZM831 1C831 0.723858 830.776 0.5 830.5 0.5C830.224 0.5 830 0.723858 830 1H831ZM823 1C823 0.723858 822.776 0.5 822.5 0.5C822.224 0.5 822 0.723858 822 1H823ZM818.5 4.5C818.224 4.5 818 4.72386 818 5C818 5.27614 818.224 5.5 818.5 5.5V4.5ZM850.5 5.5C850.776 5.5 851 5.27614 851 5C851 4.72386 850.776 4.5 850.5 4.5V5.5ZM847 1C847 0.723858 846.776 0.5 846.5 0.5C846.224 0.5 846 0.723858 846 1H847ZM839 1C839 0.723858 838.776 0.5 838.5 0.5C838.224 0.5 838 0.723858 838 1H839ZM834.5 4.5C834.224 4.5 834 4.72386 834 5C834 5.27614 834.224 5.5 834.5 5.5V4.5ZM834.5 4.5C832.567 4.5 831 2.933 831 1H830C830 3.48528 832.015 5.5 834.5 5.5V4.5ZM830 1C830 2.933 828.433 4.5 826.5 4.5V5.5C828.985 5.5 831 3.48528 831 1H830ZM826.5 4.5C824.567 4.5 823 2.933 823 1H822C822 3.48528 824.015 5.5 826.5 5.5V4.5ZM822 1C822 2.933 820.433 4.5 818.5 4.5V5.5C820.985 5.5 823 3.48528 823 1H822ZM850.5 4.5C848.567 4.5 847 2.933 847 1H846C846 3.48528 848.015 5.5 850.5 5.5V4.5ZM846 1C846 2.933 844.433 4.5 842.5 4.5V5.5C844.985 5.5 847 3.48528 847 1H846ZM842.5 4.5C840.567 4.5 839 2.933 839 1H838C838 3.48528 840.015 5.5 842.5 5.5V4.5ZM838 1C838 2.933 836.433 4.5 834.5 4.5V5.5C836.985 5.5 839 3.48528 839 1H838Z" fill="#737679"/>
</g>
</g>
<defs>
<clipPath id="clip0_844_1604">
<rect width="821" height="6" fill="white"/>
</clipPath>
<clipPath id="clip1_844_1604">
<rect width="16" height="6" fill="white" transform="translate(-13.5)"/>
</clipPath>
<clipPath id="clip2_844_1604">
<rect width="16" height="6" fill="white" transform="translate(2.5)"/>
</clipPath>
<clipPath id="clip3_844_1604">
<rect width="16" height="6" fill="white" transform="translate(18.5)"/>
</clipPath>
<clipPath id="clip4_844_1604">
<rect width="16" height="6" fill="white" transform="translate(34.5)"/>
</clipPath>
<clipPath id="clip5_844_1604">
<rect width="16" height="6" fill="white" transform="translate(50.5)"/>
</clipPath>
<clipPath id="clip6_844_1604">
<rect width="16" height="6" fill="white" transform="translate(66.5)"/>
</clipPath>
<clipPath id="clip7_844_1604">
<rect width="16" height="6" fill="white" transform="translate(82.5)"/>
</clipPath>
<clipPath id="clip8_844_1604">
<rect width="16" height="6" fill="white" transform="translate(98.5)"/>
</clipPath>
<clipPath id="clip9_844_1604">
<rect width="16" height="6" fill="white" transform="translate(114.5)"/>
</clipPath>
<clipPath id="clip10_844_1604">
<rect width="16" height="6" fill="white" transform="translate(130.5)"/>
</clipPath>
<clipPath id="clip11_844_1604">
<rect width="16" height="6" fill="white" transform="translate(146.5)"/>
</clipPath>
<clipPath id="clip12_844_1604">
<rect width="16" height="6" fill="white" transform="translate(162.5)"/>
</clipPath>
<clipPath id="clip13_844_1604">
<rect width="16" height="6" fill="white" transform="translate(178.5)"/>
</clipPath>
<clipPath id="clip14_844_1604">
<rect width="16" height="6" fill="white" transform="translate(194.5)"/>
</clipPath>
<clipPath id="clip15_844_1604">
<rect width="16" height="6" fill="white" transform="translate(210.5)"/>
</clipPath>
<clipPath id="clip16_844_1604">
<rect width="16" height="6" fill="white" transform="translate(226.5)"/>
</clipPath>
<clipPath id="clip17_844_1604">
<rect width="16" height="6" fill="white" transform="translate(242.5)"/>
</clipPath>
<clipPath id="clip18_844_1604">
<rect width="16" height="6" fill="white" transform="translate(258.5)"/>
</clipPath>
<clipPath id="clip19_844_1604">
<rect width="16" height="6" fill="white" transform="translate(274.5)"/>
</clipPath>
<clipPath id="clip20_844_1604">
<rect width="16" height="6" fill="white" transform="translate(290.5)"/>
</clipPath>
<clipPath id="clip21_844_1604">
<rect width="16" height="6" fill="white" transform="translate(306.5)"/>
</clipPath>
<clipPath id="clip22_844_1604">
<rect width="16" height="6" fill="white" transform="translate(322.5)"/>
</clipPath>
<clipPath id="clip23_844_1604">
<rect width="16" height="6" fill="white" transform="translate(338.5)"/>
</clipPath>
<clipPath id="clip24_844_1604">
<rect width="16" height="6" fill="white" transform="translate(354.5)"/>
</clipPath>
<clipPath id="clip25_844_1604">
<rect width="16" height="6" fill="white" transform="translate(370.5)"/>
</clipPath>
<clipPath id="clip26_844_1604">
<rect width="16" height="6" fill="white" transform="translate(386.5)"/>
</clipPath>
<clipPath id="clip27_844_1604">
<rect width="16" height="6" fill="white" transform="translate(402.5)"/>
</clipPath>
<clipPath id="clip28_844_1604">
<rect width="16" height="6" fill="white" transform="translate(418.5)"/>
</clipPath>
<clipPath id="clip29_844_1604">
<rect width="16" height="6" fill="white" transform="translate(434.5)"/>
</clipPath>
<clipPath id="clip30_844_1604">
<rect width="16" height="6" fill="white" transform="translate(450.5)"/>
</clipPath>
<clipPath id="clip31_844_1604">
<rect width="16" height="6" fill="white" transform="translate(466.5)"/>
</clipPath>
<clipPath id="clip32_844_1604">
<rect width="16" height="6" fill="white" transform="translate(482.5)"/>
</clipPath>
<clipPath id="clip33_844_1604">
<rect width="16" height="6" fill="white" transform="translate(498.5)"/>
</clipPath>
<clipPath id="clip34_844_1604">
<rect width="16" height="6" fill="white" transform="translate(514.5)"/>
</clipPath>
<clipPath id="clip35_844_1604">
<rect width="16" height="6" fill="white" transform="translate(530.5)"/>
</clipPath>
<clipPath id="clip36_844_1604">
<rect width="16" height="6" fill="white" transform="translate(546.5)"/>
</clipPath>
<clipPath id="clip37_844_1604">
<rect width="16" height="6" fill="white" transform="translate(562.5)"/>
</clipPath>
<clipPath id="clip38_844_1604">
<rect width="16" height="6" fill="white" transform="translate(578.5)"/>
</clipPath>
<clipPath id="clip39_844_1604">
<rect width="16" height="6" fill="white" transform="translate(594.5)"/>
</clipPath>
<clipPath id="clip40_844_1604">
<rect width="16" height="6" fill="white" transform="translate(610.5)"/>
</clipPath>
<clipPath id="clip41_844_1604">
<rect width="16" height="6" fill="white" transform="translate(626.5)"/>
</clipPath>
<clipPath id="clip42_844_1604">
<rect width="16" height="6" fill="white" transform="translate(642.5)"/>
</clipPath>
<clipPath id="clip43_844_1604">
<rect width="16" height="6" fill="white" transform="translate(658.5)"/>
</clipPath>
<clipPath id="clip44_844_1604">
<rect width="16" height="6" fill="white" transform="translate(674.5)"/>
</clipPath>
<clipPath id="clip45_844_1604">
<rect width="16" height="6" fill="white" transform="translate(690.5)"/>
</clipPath>
<clipPath id="clip46_844_1604">
<rect width="16" height="6" fill="white" transform="translate(706.5)"/>
</clipPath>
<clipPath id="clip47_844_1604">
<rect width="16" height="6" fill="white" transform="translate(722.5)"/>
</clipPath>
<clipPath id="clip48_844_1604">
<rect width="16" height="6" fill="white" transform="translate(738.5)"/>
</clipPath>
<clipPath id="clip49_844_1604">
<rect width="16" height="6" fill="white" transform="translate(754.5)"/>
</clipPath>
<clipPath id="clip50_844_1604">
<rect width="16" height="6" fill="white" transform="translate(770.5)"/>
</clipPath>
<clipPath id="clip51_844_1604">
<rect width="16" height="6" fill="white" transform="translate(786.5)"/>
</clipPath>
<clipPath id="clip52_844_1604">
<rect width="16" height="6" fill="white" transform="translate(802.5)"/>
</clipPath>
<clipPath id="clip53_844_1604">
<rect width="16" height="6" fill="white" transform="translate(818.5)"/>
</clipPath>
</defs>
</svg>
