<svg width="32" height="32" viewBox="0 0 32 32" fill="none" xmlns="http://www.w3.org/2000/svg">
<path d="M8.60379 13.3736L8.48303 13.3434L8.39247 13.3133L8.24152 13.2529L8.12077 13.1925C8.00001 13.1623 7.90945 13.1019 7.78869 13.0416L7.69813 12.9812C7.66794 12.951 7.60756 12.951 7.57737 12.9208L7.36605 12.8C7.30568 12.7699 7.27549 12.7397 7.21511 12.7095L7.15473 12.6793H7.09435L7.03398 12.6189L6.82266 12.468C6.79247 12.4378 6.76228 12.4076 6.7019 12.3774L6.52077 12.2265L6.46039 12.1661C6.36983 12.0755 6.24907 11.9849 6.15851 11.8642C5.94718 11.6227 5.73586 11.351 5.55473 11.0793C5.52454 11.0189 5.49435 10.9585 5.43398 10.8982C5.40379 10.868 5.40379 10.8378 5.3736 10.8076L5.28303 10.6265C5.25285 10.5963 5.25284 10.5661 5.22266 10.5359L5.49435 10.3849C5.52454 10.4151 5.52454 10.4453 5.55473 10.4755L5.6453 10.6566C5.67549 10.6868 5.67549 10.717 5.70568 10.7472L5.79624 10.9283C5.94719 11.2 6.15851 11.4416 6.36983 11.6831L6.64152 11.9548L6.7019 12.0151L6.88303 12.1661C6.91322 12.1963 6.94341 12.2265 6.9736 12.2265L7.18492 12.3774L7.2453 12.4076L7.27549 12.4378L7.33586 12.4982C7.36605 12.5283 7.42643 12.5585 7.45662 12.5887L7.66794 12.7095C7.69813 12.7397 7.72832 12.7397 7.75851 12.7699L7.87926 12.8302C7.96983 12.8906 8.09058 12.9208 8.18115 12.951L8.3019 13.0114L8.45285 13.0717C8.48303 13.0717 8.51322 13.1019 8.54341 13.1019L8.66417 13.1321H8.72454C8.72454 13.1925 8.69435 13.2831 8.69435 13.3434V13.434L8.60379 13.3736Z" fill="#737679"/>
<path d="M8.63392 14.0981L8.4226 14.0377L8.21127 13.9773C8.1509 13.9472 8.09052 13.9472 8.03014 13.917C7.99995 13.8868 7.93958 13.8868 7.90939 13.8566C7.78863 13.7962 7.63769 13.766 7.51694 13.7056L7.39618 13.6453C7.3358 13.6151 7.30561 13.6151 7.27543 13.5849L7.03392 13.4641L6.85278 13.3736L6.79241 13.3132L6.70184 13.283L6.64146 13.2226L6.39995 13.0415C6.33958 13.0113 6.30939 12.9811 6.2792 12.9509L6.06788 12.7698L6.03769 12.7396L5.67543 12.3773C5.43392 12.1056 5.19241 11.8038 4.98109 11.4717C4.9509 11.4113 4.89052 11.3207 4.86033 11.2604C4.83014 11.2302 4.83014 11.2 4.79995 11.1698C4.76977 11.1094 4.73958 11.0189 4.6792 10.9585L4.9509 10.8075C4.98109 10.8679 5.01127 10.9585 5.04146 11.0189C5.07165 11.049 5.07165 11.0792 5.10184 11.1094C5.13203 11.1698 5.16222 11.2604 5.2226 11.3207C5.40373 11.6226 5.64524 11.9245 5.88675 12.166C6.0075 12.2868 6.09807 12.4075 6.21882 12.4981L6.24901 12.5283L6.46033 12.7094L6.5509 12.8L6.76222 12.9509L6.8226 12.9811L6.85278 13.0113L6.94335 13.0717C7.00373 13.1019 7.03392 13.1321 7.09429 13.1622L7.3358 13.283C7.36599 13.3132 7.39618 13.3132 7.45656 13.3434L7.57731 13.4038C7.69807 13.4641 7.81882 13.5245 7.93958 13.5547C7.96977 13.5849 8.03014 13.5849 8.06033 13.6151C8.12071 13.6453 8.18109 13.6453 8.24146 13.6755L8.45278 13.7358L8.60373 13.766C8.63392 13.8868 8.63392 14.0075 8.63392 14.0981ZM11.8339 10.083C11.6528 10.083 11.5018 10.1132 11.3811 10.1132H11.1396C10.8377 10.1132 10.5358 10.083 10.2641 10.0528C9.90184 9.99244 9.53958 9.90187 9.2075 9.78111C8.87543 9.66036 8.54335 9.47923 8.24146 9.26791L8.06033 9.14715L8.03014 9.11696L7.84901 8.99621L8.06033 8.7547L8.21127 8.90564L8.24146 8.93583L8.39241 9.05659C8.6641 9.23772 8.96599 9.41885 9.29807 9.53961C9.63014 9.66036 9.96222 9.75093 10.2943 9.78111C10.6566 9.84149 11.0188 9.84149 11.3509 9.84149C11.4717 9.84149 11.5924 9.84149 11.7132 9.8113C11.7132 9.84149 11.7434 9.90187 11.7434 9.93206L11.8037 10.0528L11.8339 10.083Z" fill="#737679"/>
<path d="M12.1359 10.7774H11.8944C11.7435 10.7774 11.5624 10.8075 11.4114 10.8075H11.1397C10.8076 10.8075 10.4756 10.7774 10.1435 10.7472C9.72084 10.6868 9.32839 10.5962 8.93594 10.4453C8.54349 10.2943 8.18122 10.083 7.81896 9.87169L7.63782 9.72075L7.60764 9.69056L7.33594 9.47924L7.54726 9.23773L7.81896 9.44905L7.84915 9.47924L8.03028 9.6C8.36235 9.81132 8.69443 10.0226 9.08688 10.1434C9.44915 10.2943 9.8416 10.3849 10.2341 10.4453C10.6265 10.5057 11.019 10.5358 11.4416 10.5057C11.5925 10.5057 11.7435 10.5057 11.9246 10.4755H12.0454C12.0454 10.566 12.0756 10.6868 12.1359 10.7774Z" fill="#737679"/>
<path d="M12.3172 11.1396C12.3776 11.2302 12.4078 11.3208 12.4681 11.4415C12.3776 11.4717 12.3172 11.4717 12.2266 11.4717L12.1059 11.5019H11.9851C11.804 11.5019 11.6229 11.5321 11.4417 11.5321H11.17C10.8078 11.5321 10.4455 11.5019 10.0832 11.4415C9.63041 11.3811 9.14739 11.2604 8.72475 11.0793C8.27192 10.8981 7.84927 10.6868 7.45682 10.4151L7.2455 10.2642C7.21531 10.234 7.21531 10.234 7.18512 10.234L7.03418 10.1132L7.2455 9.8717L7.39644 9.99246L7.42663 10.0226L7.63795 10.1736C8.00022 10.4453 8.42286 10.6566 8.8455 10.8076C9.26814 10.9585 9.69078 11.0793 10.1436 11.1396C10.5663 11.2 11.0191 11.2302 11.4719 11.2C11.653 11.2 11.8342 11.1698 11.9851 11.1698H12.1059L12.2266 11.1396H12.3172ZM31.9097 18.4453L31.8493 18.7472L31.4266 18.6868L31.0342 18.5962L30.7927 18.5057H30.7625C30.7323 18.5057 30.7021 18.4755 30.6719 18.4755L30.4304 18.3849H30.4002C30.37 18.3849 30.3398 18.3547 30.3097 18.3547L30.0983 18.234C30.0681 18.2038 30.0078 18.2038 29.9776 18.1736L29.7663 18.0226L29.5247 17.8415L29.2832 17.6302L29.1021 17.4491L29.0115 17.3585L28.921 17.2679L28.8908 17.2377C28.8606 17.2076 28.8606 17.1774 28.8304 17.1472L28.6795 16.966C28.4983 16.6642 28.3474 16.3623 28.2266 16.0302L28.1663 15.8491L28.4078 15.7585H28.4681L28.5285 15.9698C28.6191 16.2717 28.77 16.5434 28.921 16.8151L28.9814 16.9057C28.9814 16.9359 29.0115 16.9359 29.0115 16.9359L29.0417 16.966L29.1323 17.0566C29.1625 17.0868 29.1625 17.117 29.1927 17.117L29.3738 17.2981L29.5851 17.5094L29.8266 17.6906L30.038 17.8415C30.0681 17.8717 30.0983 17.8717 30.1285 17.9019L30.37 18.0226C30.4002 18.0226 30.4002 18.0528 30.4304 18.0528L30.4606 18.083L30.7021 18.1736C30.7323 18.1736 30.7625 18.2038 30.7625 18.2038C30.7927 18.2038 30.7927 18.2038 30.8229 18.234L31.0644 18.3245L31.4568 18.4151L31.9097 18.4453Z" fill="#737679"/>
<path d="M31.6983 19.1094L31.6379 19.4113L31.3058 19.3509L30.853 19.2604L30.5813 19.1698L30.5209 19.1396C30.4907 19.1396 30.4605 19.1094 30.4303 19.1094L30.0983 19.0189L30.0681 18.9887C30.0379 18.9887 30.0077 18.9585 29.9473 18.9283L29.6756 18.8075C29.6152 18.7774 29.5851 18.7472 29.5549 18.7472L29.2832 18.5962L28.9813 18.3849L28.9209 18.3245C28.2869 17.7811 27.8039 17.0868 27.5624 16.2717C27.5624 16.2415 27.5322 16.2113 27.5322 16.1509V16.0906L27.7435 16.0302L27.8039 16C27.8039 16.0302 27.8039 16.0604 27.8341 16.0604L27.8643 16.1811C28.1058 16.9057 28.5285 17.5698 29.1322 18.083L29.1926 18.1434L29.4945 18.3547L29.7662 18.5057C29.7964 18.5358 29.8266 18.5358 29.8568 18.566L30.1285 18.717C30.1586 18.717 30.1888 18.7472 30.219 18.7472C30.219 18.7472 30.2492 18.7472 30.2794 18.7774L30.5511 18.8981C30.5813 18.8981 30.6115 18.9283 30.6417 18.9283L30.702 18.9585L30.9737 19.0491L31.3964 19.1396L31.6983 19.1094Z" fill="#737679"/>
<path d="M31.5172 19.8038L31.4568 20.1057L31.1549 20.0453L30.6417 19.9245L30.3096 19.834L30.2492 19.8038C30.2191 19.8038 30.1587 19.7736 30.1285 19.7736L29.7964 19.6528L29.736 19.6226C29.7058 19.5925 29.6455 19.5925 29.6153 19.5623L29.3134 19.4113C29.253 19.3811 29.2228 19.3509 29.1625 19.3208L28.8606 19.1396L28.4983 18.8679L28.4379 18.8075C27.6832 18.1736 27.1398 17.3585 26.8379 16.4226L26.8681 16.3623C26.8681 16.3321 26.8681 16.3019 26.8379 16.3019L27.1096 16.2113H27.1398C27.1398 16.2415 27.17 16.2717 27.17 16.3019L27.2002 16.3623C27.4719 17.2377 27.9851 18.0226 28.6794 18.5962L28.7398 18.6566L29.0719 18.8981L29.3738 19.0792C29.404 19.1094 29.4643 19.1396 29.4945 19.1396L29.7964 19.2906C29.8266 19.3208 29.8568 19.3208 29.887 19.3208L29.9474 19.3509L30.2492 19.4717C30.2794 19.4717 30.3096 19.5019 30.3398 19.5019L30.4002 19.5321L30.7021 19.6226L31.1851 19.7434L31.5172 19.8038ZM22.8832 15.0038C22.853 15.1245 22.7926 15.2151 22.7625 15.3057C22.4606 15.3057 22.1587 15.2453 21.8568 15.1849C21.6153 15.1245 21.3738 15.0642 21.1323 14.9736C21.1323 14.9434 21.1625 14.9132 21.1625 14.8528V14.7925C21.1625 14.7321 21.1926 14.7019 21.1926 14.6415C21.4342 14.7321 21.6757 14.7925 21.9172 14.8528C22.2492 14.9736 22.5813 15.0038 22.8832 15.0038ZM30.1285 13.6151C30.0681 13.6151 29.9775 13.6453 29.9172 13.6453L29.7964 13.6755C29.7058 13.6755 29.6455 13.7057 29.5851 13.7057C28.8304 13.8566 28.1059 14.0981 27.4115 14.3396L27.17 14.4C26.536 14.6113 25.9021 14.8226 25.2983 14.9736C25.3285 14.9132 25.3285 14.8226 25.3587 14.7623C25.3587 14.7019 25.3889 14.6717 25.3889 14.6113C25.9323 14.4604 26.5058 14.2792 27.0794 14.0679L27.3209 13.9774C28.0153 13.7359 28.7398 13.4943 29.5247 13.3434C29.5851 13.3132 29.6757 13.3132 29.7662 13.3132L29.887 13.283C29.9775 13.283 30.0379 13.2528 30.1285 13.2528V13.6151ZM30.3096 14.3094H30.1889C30.1285 14.3094 30.0681 14.3396 29.9775 14.3396L29.8568 14.3698C29.7964 14.3698 29.736 14.4 29.6757 14.4C28.9511 14.5509 28.2266 14.7925 27.5323 15.0038L27.3813 15.0943C26.687 15.3359 25.9926 15.5472 25.2681 15.7283C25.2077 15.7585 25.1172 15.7585 25.0568 15.7887L25.087 15.7283L25.1775 15.4566H25.2077C25.9021 15.2755 26.6266 15.0642 27.2908 14.8226L27.5021 14.7623C28.1964 14.5208 28.9209 14.2792 29.6757 14.1283C29.736 14.1283 29.8266 14.0981 29.887 14.0981L30.0077 14.0679C30.0681 14.0679 30.1587 14.0377 30.2191 14.0377H30.3398L30.3096 14.3094ZM21.7964 15.5774C22.0681 15.6377 22.3398 15.6679 22.6115 15.6981C22.5813 15.7887 22.5209 15.8792 22.4908 15.9396C22.4908 15.9698 22.4606 15.9698 22.4606 16C22.2191 15.9698 21.9775 15.9396 21.736 15.8792C21.4643 15.8189 21.1926 15.7283 20.9511 15.6377C20.9813 15.5472 21.0417 15.4566 21.0719 15.3359C21.2832 15.4566 21.5549 15.517 21.7964 15.5774ZM30.2492 15.034L30.1285 15.0642L30.0379 15.0943C29.9775 15.0943 29.9172 15.1245 29.8568 15.1245C29.1625 15.2755 28.4681 15.4868 27.7436 15.7283L27.5625 15.7887C26.8681 16.0302 26.1738 16.2415 25.4191 16.4528C25.1775 16.5132 24.936 16.5736 24.7247 16.6038C24.7549 16.5434 24.7851 16.5132 24.7851 16.4528L24.8757 16.2717C25.0266 16.2415 25.1775 16.2113 25.3587 16.1509C26.0832 15.9698 26.8077 15.7283 27.4719 15.517L27.653 15.4566C28.4077 15.2151 29.1021 14.9736 29.7964 14.8226C29.8568 14.8226 29.9172 14.7925 29.9775 14.7925L30.0681 14.7623C30.0983 14.7623 30.1587 14.7623 30.1889 14.7321L30.2492 15.034ZM22.2191 16.3623C22.1889 16.4226 22.1285 16.483 22.0983 16.5132C22.0681 16.5434 22.0681 16.5736 22.0379 16.6038L22.0077 16.634C21.8568 16.6038 21.7058 16.5736 21.5851 16.5434C21.253 16.483 20.9209 16.3623 20.5889 16.2415C20.6492 16.1509 20.7096 16.0604 20.7398 15.9698C21.0417 16.0906 21.3134 16.1811 21.6455 16.2415C21.8266 16.3321 22.0379 16.3623 22.2191 16.3623ZM26.3549 11.7132C26.2342 11.7434 26.1134 11.7736 25.9625 11.7736C26.204 11.4113 26.4757 11.0792 26.7474 10.7472C26.8379 10.6566 26.9285 10.5359 27.0191 10.4453L27.0492 10.4151L27.2908 10.6264L27.2606 10.6566C27.17 10.7472 27.0794 10.8679 26.9889 10.9585C26.7775 11.2 26.5964 11.4415 26.4153 11.683L26.3549 11.7132ZM24.9058 14.1283H25.2379C25.2379 14.1585 25.2077 14.1887 25.2077 14.2189C25.1775 14.3698 25.1172 14.5208 25.087 14.6717C25.0266 14.8528 24.9964 15.034 24.936 15.2151C24.8455 15.5774 24.6945 15.9396 24.5738 16.2717C24.4228 16.634 24.2417 16.966 24.0304 17.2981C23.9398 17.4189 23.8492 17.5698 23.7587 17.6906C23.6379 17.6604 23.5474 17.6302 23.4266 17.6C23.5474 17.4491 23.6681 17.2679 23.7587 17.117C23.97 16.8151 24.1209 16.483 24.2719 16.1208C24.4228 15.7887 24.5436 15.4566 24.6342 15.0943C24.6945 14.9132 24.7549 14.7321 24.7851 14.5509C24.8153 14.4604 24.8757 14.3094 24.9058 14.1283ZM25.1172 11.834C25.2681 11.5623 25.4191 11.3208 25.57 11.1094C25.7813 10.8377 25.9926 10.566 26.2342 10.2943C26.3247 10.1736 26.4455 10.083 26.536 9.96227L26.6568 9.84151L26.8983 10.0528L26.7775 10.1736C26.687 10.2642 26.5662 10.3849 26.4757 10.5057C26.2643 10.7472 26.0228 11.0189 25.8417 11.2906L25.4794 11.834C25.3587 11.8642 25.2379 11.8642 25.1172 11.834ZM24.2115 14.0679C24.3021 14.0679 24.4228 14.0981 24.5134 14.0981C24.4832 14.2189 24.4228 14.3698 24.3926 14.4906C24.2417 15.0038 24.0908 15.517 23.8794 16C23.7285 16.3321 23.5775 16.634 23.3964 16.9359C23.2757 17.1472 23.1247 17.3585 22.9436 17.5396C22.8228 17.5094 22.7021 17.5094 22.5813 17.4792L23.1247 16.7547C23.3058 16.483 23.4568 16.1811 23.5775 15.8792C23.7889 15.3962 23.9398 14.883 24.0606 14.4C24.1209 14.2792 24.1813 14.1887 24.2115 14.0679ZM24.3323 11.7736L24.3926 11.683C24.5738 11.3509 24.7851 11.0189 24.9964 10.717C25.2077 10.4151 25.4492 10.1132 25.6908 9.84151C25.8115 9.72076 25.9021 9.6 26.0228 9.47925L26.2643 9.69057C26.1436 9.81132 26.053 9.93208 25.9323 10.0528C25.6908 10.3245 25.4492 10.5962 25.2379 10.8981C25.0266 11.2 24.8455 11.5019 24.6643 11.8038H24.5436C24.4832 11.7736 24.4228 11.7736 24.3323 11.7736Z" fill="#737679"/>
<path d="M23.5169 13.917C23.6075 13.9472 23.7282 13.9774 23.8188 13.9774C23.7886 14.0679 23.7584 14.1887 23.7282 14.2793C23.5773 14.7925 23.4565 15.2755 23.2452 15.7283C23.1244 16.0302 22.9735 16.3019 22.8225 16.5434C22.6414 16.8151 22.4603 17.0566 22.249 17.2981L22.1886 17.3887L22.1282 17.4491H21.7056L21.8263 17.3283L21.9471 17.2076C21.9773 17.1774 22.0075 17.1472 22.0075 17.117C22.1886 16.9057 22.3697 16.6642 22.5508 16.4227C22.7018 16.1812 22.8527 15.9095 22.9735 15.6378C23.1546 15.2151 23.3056 14.7321 23.4263 14.2189C23.4565 14.0981 23.4867 14.0076 23.5169 13.917ZM28.649 11.1396C28.6188 11.1698 28.5886 11.2 28.5584 11.2L28.4376 11.3208L28.2867 11.4415L28.2263 11.4717C27.4414 12.0453 26.4754 12.3774 25.4792 12.4378H25.2678C24.8452 12.4378 24.4225 12.3774 23.9999 12.2868C23.7886 12.2264 23.5471 12.1661 23.3358 12.0755C23.4263 11.9849 23.5169 11.9245 23.6075 11.834C23.7584 11.8944 23.9093 11.9245 24.0603 11.9547C24.5131 12.0755 24.9961 12.1057 25.449 12.0755C26.3848 12.0453 27.2603 11.7434 28.015 11.2L28.0754 11.1698L28.2263 11.0491C28.2565 11.0189 28.3169 10.9887 28.3471 10.9585C28.3773 10.9283 28.4075 10.8981 28.4376 10.8981L28.649 11.1396Z" fill="#737679"/>
<path d="M29.0719 11.7132C29.0115 11.7736 28.9511 11.834 28.8907 11.8642L28.7096 12.0151L28.6492 12.0755C27.7436 12.7396 26.6568 13.1321 25.5096 13.1623H25.2681C24.7851 13.1623 24.3021 13.1019 23.8492 12.9812C23.4568 12.8906 23.0341 12.7396 22.6719 12.5585C22.7926 12.4981 22.8832 12.4076 22.9738 12.3472C23.2756 12.4679 23.6077 12.5887 23.9096 12.6491C24.4228 12.7698 24.9662 12.8302 25.4794 12.8C26.536 12.7698 27.5624 12.4076 28.4379 11.7736L28.4983 11.7132L28.6794 11.5623C28.7398 11.5321 28.77 11.4717 28.8304 11.4415H28.8606L29.0719 11.7132Z" fill="#737679"/>
<path d="M29.4942 12.2868C29.4641 12.317 29.4037 12.3472 29.3735 12.4076L29.1622 12.5887L29.1018 12.6491C28.8603 12.8302 28.5886 13.0114 28.2867 13.1623C28.1659 13.2227 28.015 13.2831 27.8942 13.3434L27.8641 13.3736H27.8339C27.7131 13.434 27.5622 13.4944 27.4112 13.5246C27.1093 13.6151 26.8075 13.7057 26.5056 13.7661C26.2037 13.8264 25.8716 13.8566 25.5697 13.8566H25.298C24.1207 13.8566 22.9735 13.5548 21.9471 13.0114C22.0678 12.951 22.1584 12.8906 22.2792 12.8302C23.5471 13.4944 25.0263 13.7057 26.4452 13.4642C26.7471 13.4038 27.0188 13.3434 27.3207 13.2227C27.4414 13.1925 27.5924 13.1321 27.7131 13.0717L27.7735 13.0415L28.1358 12.8604C28.4075 12.7095 28.649 12.5585 28.8905 12.3774L28.9508 12.317L29.1622 12.1661C29.1924 12.1359 29.2527 12.1057 29.2829 12.0755L29.4942 12.2868ZM15.698 11.1397C15.5471 10.9887 15.4263 10.8076 15.2754 10.6566C15.0641 10.4151 14.8829 10.1434 14.7018 9.87173C14.5207 9.60003 14.3697 9.29815 14.2188 8.99626C14.098 8.69437 13.9773 8.3623 13.8867 8.03022C13.8263 7.72834 13.7659 7.39626 13.7358 7.06419V6.94343C13.7358 6.85286 13.7358 6.79249 13.7056 6.70192V6.4906H14.0075V6.70192C14.0075 6.7623 14.0075 6.85286 14.0376 6.94343V7.06419C14.0678 7.36607 14.1282 7.66796 14.1886 7.96985C14.249 8.27173 14.3697 8.57362 14.4905 8.87551C14.6112 9.17739 14.7622 9.44909 14.9433 9.72079C15.1244 9.9623 15.3056 10.234 15.4867 10.4453C15.6376 10.6265 15.7584 10.7774 15.9093 10.9283C16.1508 11.2 16.3622 11.4717 16.5735 11.7434C16.7244 11.9548 16.9056 12.1963 17.0263 12.4076C17.1169 12.5283 17.1773 12.6491 17.2678 12.8L16.9961 12.9812C16.9056 12.8302 16.8452 12.7095 16.7546 12.5585C16.6339 12.3472 16.4829 12.1359 16.3018 11.9246C16.181 11.6831 15.9395 11.4114 15.698 11.1397Z" fill="#737679"/>
<path d="M15.849 10.1736C15.6679 9.96228 15.4868 9.72077 15.3358 9.47926C15.1849 9.23775 15.034 8.96605 14.9132 8.69435C14.7924 8.42266 14.7019 8.15096 14.6113 7.84907C14.5509 7.57737 14.4906 7.27549 14.4604 6.9736V6.85284C14.4604 6.79247 14.4604 6.7019 14.4302 6.64152V6.30945H14.7321V6.61134C14.7321 6.67171 14.7321 6.73209 14.7623 6.82266V6.94341C14.7924 7.21511 14.8226 7.48681 14.9132 7.7585C14.9736 8.0302 15.0641 8.3019 15.1849 8.54341C15.3056 8.78492 15.4264 9.05662 15.5773 9.26794C15.7283 9.50945 15.9094 9.72077 16.0906 9.93209C16.2113 10.083 16.3623 10.2642 16.483 10.4151C16.7245 10.6868 16.966 10.9887 17.1773 11.2604C17.3585 11.5019 17.5094 11.7434 17.6604 11.9849C17.7509 12.1057 17.8113 12.2264 17.9019 12.3774C17.8113 12.4377 17.7207 12.4679 17.6302 12.5283C17.5698 12.4076 17.4792 12.2566 17.4189 12.1359C17.2679 11.8944 17.117 11.683 16.9358 11.4415C16.7245 11.1396 16.483 10.8679 16.2415 10.5962C16.1207 10.5057 15.9698 10.3547 15.849 10.1736Z" fill="#737679"/>
<path d="M15.5471 8.42265C15.4565 8.18114 15.366 7.93963 15.3056 7.69812C15.2452 7.45661 15.215 7.18492 15.1848 6.91322V6.46039H15.4867V6.91322C15.5169 7.15473 15.5471 7.39624 15.6075 7.63775C15.6679 7.87926 15.7282 8.09058 15.8188 8.3019C15.9697 8.69435 16.2414 9.0868 16.6037 9.53963C16.7245 9.69058 16.8452 9.84152 16.9962 9.99246C17.2377 10.2642 17.4792 10.566 17.7207 10.8981C17.9018 11.1396 18.0829 11.4113 18.2641 11.683C18.3546 11.8038 18.4452 11.9547 18.5056 12.1057C18.415 12.166 18.3245 12.1962 18.2339 12.2566C18.1433 12.1057 18.0829 11.9849 17.9924 11.8642C17.8414 11.6227 17.6603 11.351 17.4792 11.1094C17.2377 10.8076 16.9962 10.5057 16.7546 10.234C16.6339 10.083 16.483 9.93209 16.3622 9.78114C15.9999 9.23775 15.7282 8.84529 15.5471 8.42265ZM21.615 7.4868C21.5848 7.60756 21.5245 7.7585 21.4641 7.87926C21.2226 8.39246 20.8603 8.87548 20.3773 9.20756V8.8151C20.7094 8.51322 20.9811 8.15095 21.1622 7.7585C21.2226 7.63775 21.2528 7.51699 21.3131 7.39624L21.615 7.4868ZM22.3094 7.57737C22.249 7.78869 22.1584 8.00001 22.0679 8.18114C22.0377 8.27171 22.0075 8.33209 21.9471 8.39246C21.9169 8.42265 21.9169 8.45284 21.8867 8.48303L21.8263 8.5736C21.7962 8.63397 21.7358 8.72454 21.7056 8.78492C21.5848 8.99624 21.4339 9.17737 21.2528 9.32831L21.132 9.44907L21.0414 9.53963L21.0112 9.56982L20.9509 9.66039C20.9207 9.69058 20.9207 9.69058 20.8905 9.69058L20.7396 9.81133L20.5584 9.93209L20.498 9.96227L20.4377 9.99246C20.4075 9.87171 20.4075 9.78114 20.4075 9.66039L20.5584 9.56982L20.7094 9.44907L20.7396 9.41888L20.7999 9.3585L20.8603 9.32831C20.8905 9.29812 20.9207 9.29812 20.9509 9.26794L21.0716 9.14718C21.2226 8.99624 21.3735 8.8151 21.4943 8.63397C21.5245 8.5736 21.5848 8.51322 21.615 8.45284C21.6452 8.42265 21.6452 8.39246 21.6754 8.36227C21.7056 8.33209 21.7056 8.3019 21.7358 8.27171C21.766 8.21133 21.7962 8.15095 21.8263 8.06039C21.9169 7.87926 21.9773 7.69812 22.0377 7.4868L22.3094 7.57737ZM22.9433 7.93963C22.8829 8.12077 22.8226 8.3019 22.732 8.48303C22.7018 8.5736 22.6414 8.66416 22.6112 8.75473L22.5509 8.84529L22.4905 8.93586C22.4301 9.02643 22.3999 9.11699 22.3396 9.20756C22.1886 9.44907 22.0075 9.66039 21.7962 9.87171L21.6452 10.0227C21.615 10.0528 21.5546 10.083 21.5245 10.1132L21.4641 10.1434L21.3735 10.2038L21.3131 10.2642L21.132 10.4151L20.9207 10.5359C20.8905 10.5359 20.8905 10.566 20.8603 10.566L20.7094 10.6264L20.5886 10.6868C20.5584 10.566 20.5282 10.4755 20.498 10.3849L20.5584 10.3547L20.6792 10.2944L20.7396 10.2642L20.9509 10.1434L21.132 9.99246C21.1622 9.99246 21.1622 9.96227 21.1924 9.96227L21.2829 9.9019L21.3433 9.87171L21.4339 9.78114L21.5848 9.6302C21.766 9.44907 21.9471 9.23775 22.098 9.02643C22.1584 8.96605 22.1886 8.87548 22.249 8.78492L22.3094 8.69435C22.3396 8.66416 22.3396 8.63397 22.3697 8.60378C22.4301 8.51322 22.4603 8.42265 22.4905 8.36227C22.5207 8.18114 22.5811 8.00001 22.6414 7.84907L22.9433 7.93963ZM1.17729 16.1208C1.11691 16.0906 1.02635 16.0604 0.96597 16.0302L0.845215 16L0.96597 15.6981L1.05654 15.7283C1.1471 15.7585 1.20748 15.7887 1.29805 15.8189L1.47918 15.9094C1.53955 15.9396 1.56974 15.9396 1.63012 15.9698L1.81125 16.0906C1.87163 16.1208 1.90182 16.151 1.9622 16.1811L2.02257 16.2113L2.11314 16.2415L2.20371 16.3019L2.26408 16.3321C2.29427 16.3623 2.35465 16.3925 2.38484 16.4227C2.62635 16.6038 2.86786 16.8151 3.07918 17.0566C3.2905 17.2981 3.47163 17.5396 3.62257 17.8415C3.77352 18.1132 3.89427 18.3849 3.98484 18.6566L3.62257 18.566C3.53201 18.3849 3.44144 18.1736 3.35088 17.9925C3.19993 17.751 3.0188 17.5094 2.83767 17.2679C2.62635 17.0566 2.41503 16.8453 2.17352 16.6642C2.14333 16.634 2.08295 16.6038 2.05276 16.5736L1.99238 16.5434L1.90182 16.483L1.81125 16.4227C1.78106 16.3925 1.72069 16.3623 1.6905 16.3623L1.50937 16.2717C1.47918 16.2415 1.4188 16.2415 1.38861 16.2113L1.17729 16.1208Z" fill="#737679"/>
<path d="M0.996457 16.8151C0.966268 16.8151 0.936079 16.7849 0.875702 16.7849C0.815325 16.7548 0.754947 16.7246 0.69457 16.7246L0.604004 16.6642L0.724759 16.3623L0.815325 16.3925C0.875702 16.4227 0.936079 16.4529 0.996457 16.4529L1.08702 16.4831L1.26815 16.5736C1.50966 16.6944 1.72099 16.8151 1.93231 16.9963C2.14363 17.1472 2.35495 17.3283 2.53608 17.5397C2.71721 17.751 2.86816 17.9623 2.98891 18.2038C3.04929 18.2944 3.07948 18.3849 3.10966 18.4755L2.98891 18.4453C2.89834 18.4151 2.80778 18.4151 2.71721 18.3849V18.3548C2.59646 18.1434 2.44551 17.9321 2.29457 17.751C2.14363 17.5699 1.96249 17.3887 1.75117 17.268C1.53985 17.117 1.32853 16.9963 1.11721 16.8755L0.996457 16.8151ZM0.875702 17.5397C0.845513 17.5095 0.815325 17.5095 0.785136 17.4793L0.634193 17.4189L0.754947 17.1472L0.905891 17.2076C0.936079 17.2378 0.966268 17.2378 1.02665 17.268L1.17759 17.3283C1.20778 17.3585 1.23797 17.3585 1.26815 17.3887L1.32853 17.4189L1.38891 17.4491L1.44929 17.5095L1.50966 17.5397C1.53985 17.5699 1.57004 17.5699 1.60023 17.6C1.78136 17.7208 1.93231 17.8717 2.08325 18.0529C2.17382 18.1434 2.23419 18.234 2.29457 18.3246C2.23419 18.3246 2.17382 18.2944 2.08325 18.2944C1.99268 18.2944 1.93231 18.2642 1.84174 18.2642C1.72099 18.1132 1.57004 17.9925 1.4191 17.8717C1.35872 17.8415 1.32853 17.8114 1.32853 17.8114L1.26815 17.7812L1.20778 17.7208L1.1474 17.6906C1.11721 17.6906 1.11721 17.6604 1.08702 17.6604C1.05683 17.6302 1.02665 17.6302 0.996457 17.6302L0.875702 17.5397ZM7.51721 17.2378C7.57759 17.2378 7.66816 17.2076 7.72853 17.2076C7.39646 17.6302 7.12476 18.2038 6.82287 18.7774L6.79268 18.868C6.46061 19.5019 6.12853 20.1963 5.61533 20.8302C5.34363 21.1623 5.04174 21.4642 4.70966 21.7359C4.37759 22.0076 3.98514 22.2491 3.59268 22.4C3.20023 22.551 2.77759 22.6717 2.35495 22.7321L2.05306 22.7623H0.785136L0.815325 22.4604H2.05306L2.35495 22.4302C2.7474 22.3699 3.13985 22.2491 3.50212 22.1283C3.89457 21.9774 4.22665 21.7661 4.55872 21.4944C4.86061 21.2529 5.16249 20.951 5.404 20.6491C5.88702 20.0453 6.2191 19.3812 6.55117 18.7472L6.58136 18.6566C6.82287 18.1736 7.06438 17.6906 7.33608 17.2982C7.36627 17.2378 7.45683 17.2378 7.51721 17.2378Z" fill="#737679"/>
<path d="M6.43016 17.2981H6.79243C6.73205 17.3887 6.70186 17.449 6.64149 17.5396C6.49054 17.8113 6.3396 18.1132 6.18866 18.4151L6.15847 18.4755C5.85658 19.0792 5.49432 19.7434 5.04149 20.3472C4.79998 20.649 4.55847 20.8905 4.25658 21.1321C3.95469 21.3736 3.65281 21.5547 3.29054 21.7056C2.95847 21.8264 2.5962 21.9472 2.23394 21.9773L1.96224 22.0377H1.8113L1.41884 22.0679H0.996202L0.513184 22.0377L0.543372 21.7358H1.93205L2.20375 21.7056C2.53583 21.6453 2.8679 21.5547 3.19998 21.4339C3.50186 21.3132 3.80375 21.1321 4.07545 20.9207C4.34715 20.7094 4.58866 20.4679 4.79998 20.166C5.25281 19.5924 5.58488 18.9283 5.88677 18.3547L5.91696 18.2943C6.0679 17.9924 6.21884 17.6905 6.39998 17.4189C6.39998 17.3585 6.39998 17.3283 6.43016 17.2981Z" fill="#737679"/>
<path d="M5.73608 17.2679C5.82665 17.2679 5.88702 17.2679 5.97759 17.2981C5.82665 17.5698 5.70589 17.8415 5.55495 18.083L5.52476 18.1736C5.19268 18.8377 4.8908 19.4415 4.49834 19.9245C4.0757 20.4679 3.59268 20.8302 3.04929 21.0717C2.7474 21.1925 2.44551 21.2528 2.14363 21.3132L1.90212 21.3434H1.02665L0.604004 21.3132L0.634193 21.0113L1.05683 21.0415H1.90212L2.11344 20.9811C2.38514 20.9509 2.68702 20.8604 2.92853 20.7698C3.41155 20.5585 3.86438 20.2264 4.25683 19.7434C4.6191 19.2604 4.92098 18.6868 5.25306 18.0528L5.28325 17.9623C5.404 17.7509 5.52476 17.5094 5.64551 17.2679H5.73608ZM5.404 13.3132C4.98136 12.8 4.46815 12.317 3.89457 11.9245C3.74363 11.834 3.59268 11.7132 3.44174 11.6226L3.59268 11.3509C3.74363 11.4415 3.92476 11.5321 4.0757 11.6528C4.64929 12.0755 5.16249 12.5283 5.64551 13.0717C5.88702 13.3434 6.09834 13.6453 6.27948 13.9472C6.4908 14.2792 6.64174 14.6113 6.76249 14.9736H6.43042C6.30966 14.6717 6.18891 14.3698 6.00778 14.0981C5.82665 13.8566 5.61532 13.5547 5.404 13.3132ZM4.86061 13.766C4.46816 13.283 4.01532 12.8604 3.50212 12.5283C3.32099 12.4075 3.17004 12.317 2.98891 12.1962L3.13985 11.9245C3.32099 12.0151 3.50212 12.1358 3.68325 12.2566C4.19646 12.6189 4.67948 13.0717 5.10212 13.5547C5.31344 13.7962 5.49457 14.0679 5.6757 14.3396C5.79646 14.5509 5.91721 14.7623 6.00778 15.0038H5.97759C5.85683 15.0038 5.76627 14.9736 5.64551 14.9434C5.58514 14.7925 5.49457 14.6415 5.404 14.4906C5.22287 14.2491 5.04174 13.9774 4.86061 13.766ZM4.31721 14.2189C3.95495 13.7962 3.56249 13.4038 3.10966 13.1019C2.95872 13.0113 2.80778 12.8906 2.65683 12.8302L2.80778 12.5585C2.98891 12.6491 3.13985 12.7396 3.2908 12.8604C3.77382 13.1925 4.19646 13.5849 4.55872 14.0377C4.73985 14.2491 4.92098 14.4906 5.07193 14.7321C5.10212 14.7623 5.13231 14.8226 5.13231 14.8528C5.10212 14.8528 5.04174 14.8226 5.01155 14.8226L4.80023 14.7321C4.77004 14.7321 4.73985 14.7019 4.70966 14.6717H4.67948C4.52853 14.5208 4.43797 14.3698 4.31721 14.2189ZM23.7587 8.66415L23.7285 8.75472C23.6983 8.87547 23.638 8.99623 23.5776 9.11698C23.4266 9.47924 23.2153 9.81132 22.9738 10.083C22.7323 10.3849 22.4304 10.6566 22.1285 10.8679C21.4946 11.3208 20.77 11.683 19.9549 12.0453L19.8644 12.1057C19.5021 12.2566 19.1399 12.4377 18.7776 12.6189C18.3549 12.8302 17.9625 13.0717 17.6002 13.3132C17.2078 13.5849 16.8455 13.917 16.5436 14.3094L16.5134 14.3396C16.4832 14.2491 16.4531 14.1585 16.4229 14.0377C16.4229 14.0075 16.4229 14.0075 16.3927 13.9774C16.6946 13.6453 17.0266 13.3132 17.4191 13.0717C17.8116 12.8 18.2342 12.5585 18.6568 12.3472C19.0191 12.166 19.4116 11.9849 19.7738 11.834L19.8644 11.7736C20.6795 11.4113 21.404 11.0792 21.9776 10.6264C22.2795 10.4151 22.5512 10.1736 22.7625 9.8717C23.004 9.6 23.1851 9.29811 23.3059 8.96604C23.3663 8.84528 23.3965 8.75472 23.4266 8.63396L23.4568 8.5434L23.7587 8.66415Z" fill="#737679"/>
<path d="M24.4527 8.8151C24.4225 8.84529 24.4225 8.90567 24.4225 8.93586L24.2413 9.38869C24.0602 9.81133 23.8187 10.1736 23.547 10.5359C23.2451 10.8679 22.9432 11.1698 22.581 11.4415C21.8564 11.9849 21.0111 12.3774 20.2564 12.7094L20.1055 12.7698C19.381 13.1019 18.6262 13.434 17.9923 13.917C17.6602 14.1585 17.3281 14.4302 17.0564 14.7623C16.9357 14.9132 16.8451 15.034 16.7545 15.2151C16.7244 15.0642 16.6942 14.9434 16.6338 14.8226C16.6942 14.7321 16.7545 14.6717 16.8149 14.5811C17.0866 14.2189 17.4187 13.917 17.8111 13.6755C18.4753 13.1925 19.23 12.8604 19.9847 12.4981L20.1357 12.4377C20.8602 12.1057 21.6753 11.7434 22.3998 11.2C22.7319 10.9585 23.064 10.6566 23.3357 10.3547C23.6074 10.0226 23.8187 9.66038 23.9998 9.29812C24.0602 9.17736 24.1206 9.02642 24.1508 8.90567C24.1508 8.87548 24.181 8.8151 24.2111 8.78491L24.4527 8.8151Z" fill="#737679"/>
<path d="M25.1474 8.99621C25.1172 9.05659 25.1172 9.11697 25.087 9.14716C25.0266 9.32829 24.9662 9.50942 24.8757 9.66036C24.6643 10.1434 24.3926 10.566 24.0606 10.9585C23.7285 11.3509 23.3662 11.683 22.9436 11.9849C22.5511 12.2566 22.1587 12.5283 21.736 12.7396C21.3436 12.9509 20.9511 13.1321 20.5587 13.3132L20.4379 13.3736C19.6832 13.7358 18.9587 14.0377 18.3549 14.4906C18.053 14.7019 17.8115 14.9434 17.57 15.2151C17.3285 15.517 17.1474 15.8189 16.936 16.3924C16.9058 16.1811 16.8757 16 16.8455 15.7887C16.9662 15.517 17.1474 15.2453 17.3285 15.0038C17.57 14.7019 17.8719 14.4302 18.1738 14.2189C18.8077 13.766 19.5323 13.4339 20.3172 13.1019L20.4379 13.0415C20.8002 12.8604 21.1926 12.6792 21.5851 12.4981C22.0077 12.2868 22.4002 12.0453 22.7624 11.7736C23.1549 11.5019 23.5172 11.1698 23.8191 10.8075C24.1209 10.4453 24.3926 10.0226 24.5738 9.5698C24.6341 9.41885 24.7247 9.23772 24.7549 9.08678C24.7851 9.0264 24.7851 8.96602 24.8153 8.90565L25.1474 8.99621ZM29.9775 17.449C30.1285 17.4189 30.2492 17.3585 30.4002 17.3283C30.6115 17.2679 30.8228 17.2377 31.004 17.1773C31.1549 17.1472 31.3058 17.117 31.4568 17.117L31.487 17.4189C31.3662 17.4189 31.2153 17.449 31.0643 17.4792C30.8832 17.5094 30.6719 17.5698 30.4908 17.6L30.37 17.6302L30.3096 17.6L30.1889 17.5396C30.1285 17.5094 30.0983 17.4792 30.0379 17.449H29.9775ZM27.8643 18.6264C27.7738 18.6566 27.6832 18.717 27.5926 18.7773C27.3511 18.9283 27.1096 19.049 26.9285 19.1698L26.8983 19.1396L26.6266 19.0189C26.8983 18.8377 27.17 18.6566 27.4417 18.5056L27.6228 18.4151C27.653 18.4453 27.6832 18.4755 27.7134 18.5358L27.8643 18.6264ZM27.3813 18.083L27.2606 18.1434C26.8983 18.3245 26.5662 18.5358 26.2341 18.8075C26.1436 18.7472 26.0228 18.6868 25.9323 18.6566L25.9624 18.6264C26.3247 18.3547 26.687 18.1132 27.0794 17.9019L27.2002 17.8415L27.2304 17.8717L27.2606 17.9321L27.3813 18.083ZM29.3738 16.9056C29.4341 16.8755 29.4945 16.8755 29.5549 16.8453L30.1889 16.6641C30.4304 16.6038 30.6417 16.5434 30.853 16.5132L31.487 16.4226L31.5172 16.7245C31.3058 16.7547 31.1247 16.7547 30.9134 16.8151C30.7021 16.8453 30.4908 16.9056 30.2794 16.966L29.6455 17.1472L29.5851 17.1773L29.404 16.9962C29.404 16.9358 29.404 16.9358 29.3738 16.9056ZM28.9813 16.2717C29.1021 16.2415 29.2228 16.1811 29.3436 16.1509C29.5851 16.0906 29.7964 16 30.0077 15.9698C30.2492 15.9094 30.4907 15.849 30.7021 15.8189C30.9134 15.7887 31.0945 15.7585 31.2757 15.7283L31.3058 16.0302C31.1247 16.0604 30.9738 16.0604 30.7624 16.1207C30.5511 16.1509 30.3096 16.2113 30.0681 16.2717C29.8568 16.3321 29.6153 16.3924 29.404 16.4528C29.3134 16.483 29.1926 16.5132 29.1021 16.5434V16.5132L28.9813 16.2717ZM27.0191 17.4792L26.9285 17.5396C26.5058 17.7509 26.1134 18.0226 25.7511 18.3245C25.6908 18.3849 25.6304 18.4151 25.57 18.4755C25.4794 18.4151 25.3587 18.3849 25.2681 18.3245C25.3587 18.2339 25.4492 18.1434 25.5398 18.083C25.9323 17.7811 26.3549 17.5094 26.7775 17.2679L26.8681 17.2075L26.9285 17.3585L27.0191 17.4792ZM10.3549 7.78867L10.2945 7.66791L10.5662 7.51697L10.6266 7.63772C10.6568 7.66791 10.6568 7.72829 10.687 7.75848C10.687 7.75848 10.687 7.78867 10.7172 7.78867L10.7775 7.9698C10.9587 8.45282 11.0794 8.96602 11.1096 9.47923V9.50942H10.8077C10.7775 9.0264 10.6568 8.54338 10.4757 8.09055L10.4153 7.90942C10.4153 7.90942 10.4153 7.87923 10.3851 7.84904C10.3851 7.84904 10.3851 7.81885 10.3549 7.78867ZM10.687 13.5547C10.5662 14.4604 10.5662 15.2151 10.7172 15.849C10.8379 16.483 11.1398 17.0868 11.5926 17.6906H11.2002C10.8077 17.1472 10.536 16.5736 10.4153 15.9094C10.2643 15.2151 10.2643 14.4604 10.3851 13.4943C10.4455 13.1321 10.5058 12.8 10.5662 12.4377C10.5964 12.2264 10.6266 12.0151 10.687 11.7736H11.0191C10.9889 12.0151 10.9285 12.2264 10.8983 12.4679C10.8077 12.8604 10.7474 13.2226 10.687 13.5547ZM9.72094 8.09055L9.63037 7.90942L9.90207 7.75848L9.99263 7.93961C10.0228 7.9698 10.0228 8.03018 10.053 8.06036L10.0832 8.09055L10.1436 8.2415C10.2945 8.63395 10.3851 9.05659 10.4153 9.47923H10.2643L10.1134 9.44904C10.053 9.05659 9.96245 8.69433 9.84169 8.36225L9.78132 8.21131C9.78132 8.21131 9.78131 8.18112 9.75113 8.18112C9.75113 8.15093 9.72094 8.12074 9.72094 8.09055Z" fill="#737679"/>
<path d="M9.9019 14.7321C9.9019 15.1547 9.93209 15.5774 10.0227 16C10.1736 16.6038 10.4151 17.2076 10.7472 17.7208H10.6868C10.6264 17.7208 10.5661 17.751 10.5057 17.751H10.4151C10.083 17.2378 9.84152 16.634 9.72077 16.0302C9.6302 15.6076 9.56982 15.1547 9.56982 14.7019C9.56982 14.2491 9.60001 13.8264 9.66039 13.3736C9.72077 13.0113 9.78114 12.6189 9.84152 12.2566C9.87171 12.0755 9.9019 11.8642 9.93209 11.683H9.99247C10.083 11.683 10.1736 11.7132 10.2642 11.7132C10.234 11.9246 10.2038 12.1057 10.1736 12.317L9.99247 13.4038C9.93209 13.8868 9.9019 14.3095 9.9019 14.7321Z" fill="#737679"/>
<path d="M9.99247 17.8113L10.0227 17.8717C9.9019 17.9019 9.81134 17.9321 9.72077 17.9623L9.66039 17.9019C9.60002 17.8113 9.56983 17.751 9.53964 17.6604C9.29813 17.2076 9.14719 16.7246 9.02643 16.2415C8.93587 15.7585 8.87549 15.2453 8.87549 14.7623C8.87549 14.2793 8.90568 13.8264 8.96605 13.3434C9.02643 12.951 9.08681 12.5585 9.14719 12.1962C9.17737 11.9849 9.20756 11.8038 9.23775 11.5925C9.32832 11.6227 9.3887 11.6227 9.47926 11.6529H9.53964C9.50945 11.834 9.47926 12.0453 9.44907 12.2264C9.3887 12.5887 9.32832 12.9812 9.26794 13.3736C9.20756 13.8264 9.17738 14.2793 9.17738 14.7623C9.17738 15.2453 9.23775 15.6981 9.32832 16.1812C9.41888 16.6642 9.60002 17.117 9.81134 17.5396C9.84153 17.6 9.87172 17.6906 9.93209 17.751L9.99247 17.8113ZM9.08681 8.39248L8.96605 8.15097L9.23775 8.00002L9.35851 8.24153C9.3887 8.27172 9.3887 8.30191 9.41888 8.3321V8.36229L9.47926 8.48304C9.56983 8.75474 9.6302 9.05663 9.69058 9.32833L9.56983 9.29814C9.50945 9.26795 9.44907 9.26795 9.41888 9.23776L9.35851 9.20757C9.32832 8.99625 9.26794 8.81512 9.17738 8.6038L9.117 8.48304C9.117 8.48304 9.117 8.45285 9.08681 8.45285V8.39248ZM12.9208 7.48682C12.8906 7.36606 12.8906 7.21512 12.8604 7.09436C12.8604 7.03399 12.8604 6.97361 12.8302 6.91323L13.1321 6.88304C13.1321 6.94342 13.1321 7.0038 13.1623 7.06418C13.1623 7.18493 13.1925 7.33587 13.2227 7.45663C13.3132 8.15097 13.4944 8.81512 13.7359 9.47927C13.8566 9.78116 13.9774 10.083 14.1283 10.3547C14.0378 10.4151 13.9774 10.4755 13.8868 10.5661C13.7359 10.2642 13.5849 9.9321 13.434 9.60002C13.1925 8.90568 13.0113 8.21134 12.9208 7.48682ZM12.2264 7.60757C12.1962 7.45663 12.1962 7.30568 12.1661 7.18493C12.1661 7.12455 12.1661 7.06418 12.1359 7.0038L12.4378 6.97361C12.4378 7.03399 12.4378 7.09436 12.4679 7.18493C12.4679 7.33587 12.4981 7.45663 12.5283 7.60757C12.6189 8.36229 12.8302 9.08682 13.1019 9.78116C13.2528 10.1434 13.4038 10.5057 13.5849 10.8378C13.4944 10.8981 13.4038 10.9585 13.3434 11.0491C13.1321 10.6868 12.951 10.2944 12.8 9.90191C12.5283 9.11701 12.317 8.36229 12.2264 7.60757ZM11.5019 7.69814C11.5019 7.54719 11.4717 7.36606 11.4415 7.21512V7.12455L11.7434 7.09436V7.18493C11.7434 7.33587 11.7736 7.48682 11.8038 7.63776C11.9245 8.45285 12.1057 9.23776 12.4076 9.96229C12.5887 10.3849 12.7698 10.8076 13.0113 11.2302C12.9208 11.2906 12.8604 11.3812 12.7698 11.4415C12.5283 10.9887 12.317 10.5359 12.1359 10.083C11.834 9.32833 11.6227 8.51323 11.5019 7.69814ZM16.2717 8.54342C16.2113 8.42267 16.1208 8.30191 16.0906 8.15097C16.0906 8.09059 16.1208 8.03021 16.1208 7.96984V7.87927L16.151 7.63776V6.85285L16.1208 6.43021L16.4227 6.40002L16.4528 6.82267V7.60757L16.4227 7.84908V7.87927C16.4227 7.90946 16.4227 7.93965 16.3925 7.96984C16.3925 8.24153 16.3623 8.39248 16.2717 8.54342ZM11.7434 14.2189C11.6528 14.2189 11.5321 14.1887 11.4113 14.1887C11.5019 13.8264 11.6227 13.4642 11.8038 13.1321C12.0151 12.7095 12.317 12.317 12.6491 11.9849C12.951 11.683 13.283 11.3812 13.6151 11.1095L13.9774 10.8378L14.5208 10.3849C14.5811 10.3246 14.6415 10.2944 14.6717 10.2642C14.7321 10.3547 14.7925 10.4453 14.8528 10.5057C14.7925 10.5359 14.7623 10.5963 14.7019 10.6264L14.1585 11.0793L13.7962 11.351C13.4642 11.6227 13.1623 11.8944 12.8604 12.1962C12.5585 12.5283 12.2868 12.8906 12.0755 13.283C11.9245 13.5849 11.8038 13.8868 11.7434 14.2189ZM16.5434 8.99625C16.6642 8.72455 16.7547 8.42267 16.8151 8.15097V8.00002L16.8453 7.72833V6.82267L16.9057 6.55097L17.2076 6.52078L17.2378 6.79248V7.72833L17.2076 8.03021V8.0604C17.2076 8.09059 17.2076 8.15097 17.1774 8.18116C17.117 8.54342 16.9962 8.90568 16.8151 9.23776C16.6944 9.17738 16.6038 9.05663 16.5434 8.99625Z" fill="#737679"/>
<path d="M12.3472 14.3094C12.2868 14.2792 12.1962 14.2792 12.1359 14.249C12.1962 13.9773 12.317 13.7056 12.4377 13.4641C12.6189 13.1019 12.8604 12.7698 13.1623 12.4679C13.5547 12.0755 13.9774 11.7132 14.4 11.3811C14.5811 11.2302 14.7925 11.0792 14.9736 10.9283C15.034 10.8981 15.0642 10.8377 15.0943 10.8075C15.1547 10.8981 15.2453 10.9585 15.3057 11.049L15.1849 11.1698C15.0038 11.3207 14.7925 11.4717 14.6113 11.6226C14.1887 11.9547 13.766 12.2868 13.4038 12.6792C13.1321 12.9509 12.9208 13.2528 12.7396 13.5849C12.6189 13.7962 12.5283 14.0377 12.4679 14.3094H12.3472ZM17.0566 9.59998C17.0566 9.5698 17.0868 9.53961 17.0868 9.53961C17.2981 9.14715 17.4491 8.72451 17.5094 8.27168C17.5094 8.24149 17.5094 8.2113 17.5396 8.18112V8.12074L17.6 7.78866V6.6113L17.9019 6.58112V7.78866L17.8415 8.15093V8.2113C17.8415 8.24149 17.8415 8.30187 17.8113 8.33206C17.7208 8.78489 17.5698 9.23772 17.3585 9.66036L17.2679 9.84149L17.2377 9.8113L17.0566 9.59998ZM12.9509 14.5207C12.8906 14.4906 12.8302 14.4906 12.8 14.4604C12.8604 14.249 12.9509 14.0075 13.0415 13.8264C13.1925 13.5245 13.4038 13.2528 13.6453 13.0113C13.9774 12.649 14.4 12.3472 14.8226 11.9849C15.0038 11.8339 15.2151 11.683 15.4264 11.5019L15.5472 11.3811L15.7585 11.6226C15.7283 11.6528 15.6679 11.7132 15.6075 11.7434C15.3962 11.9245 15.2151 12.0755 15.0038 12.2264C14.5811 12.5585 14.1887 12.8906 13.8566 13.2226C13.6453 13.4339 13.434 13.7056 13.3132 13.9773C13.2226 14.1585 13.1321 14.3698 13.0717 14.5811C13.0717 14.5509 13.0113 14.5207 12.9509 14.5207ZM4.37736 19.0792L4.31698 19.1396C4.28679 19.2 4.2566 19.2604 4.22642 19.2906L4.19623 19.3207L3.10943 19.049C2.68679 18.9585 2.29434 18.8679 1.8717 18.8377C1.44906 18.8075 0.996226 18.7773 0.573585 18.8377C0.422642 18.8377 0.271698 18.8679 0.120755 18.8981L0.0603774 18.5962C0.211321 18.566 0.392453 18.5358 0.543396 18.5358C0.996226 18.5056 1.44906 18.5056 1.90189 18.5358C2.32453 18.566 2.77736 18.6566 3.2 18.7472C3.59245 18.8377 3.98491 18.9283 4.34717 19.049L4.37736 19.0792ZM8.57359 19.049C8.24151 19.2 7.84906 19.3509 7.48679 19.4717C7.2151 19.5622 6.9434 19.6226 6.64151 19.683C6.6717 19.6528 6.6717 19.5924 6.70189 19.5622C6.73208 19.4717 6.79245 19.4113 6.82264 19.3207C6.97359 19.2906 7.15472 19.2302 7.36604 19.1698C7.7283 19.049 8.09057 18.8981 8.42264 18.7472L8.48302 18.717C8.84528 18.566 9.20755 18.4151 9.6 18.2641C10.0528 18.1132 10.5057 17.9924 10.9585 17.9622L11.3208 17.9321H11.7132C11.9547 17.9622 12.2264 17.9924 12.4679 18.0528C12.9509 18.1736 13.3736 18.3849 13.7359 18.717C13.766 18.8981 13.8264 19.049 13.8566 19.2604L13.7359 19.1396C13.3132 18.7472 12.9509 18.5056 12.4075 18.3547C12.166 18.2943 11.9547 18.2641 11.7132 18.2339H11.3811L11.0189 18.2641C10.566 18.3245 10.1434 18.4151 9.72076 18.566C9.3283 18.6868 8.96604 18.8377 8.60378 18.9887L8.57359 19.049ZM3.01887 19.4415C3.32076 19.5019 3.62264 19.5924 3.92453 19.683C3.83396 19.7736 3.77359 19.8641 3.68302 19.9547C3.44151 19.8943 3.2 19.8339 2.9283 19.7736C2.02264 19.5622 1.26792 19.5019 0.603774 19.5622L0.0603774 19.6528L0 19.3509C0.181132 19.3207 0.392453 19.2906 0.573585 19.2604C1.29811 19.1698 2.05283 19.2302 3.01887 19.4415Z" fill="#737679"/>
<path d="M13.9772 20.0453C14.0074 20.2566 14.0376 20.4981 14.0376 20.7094C14.0376 20.6792 14.0074 20.6491 14.0074 20.6189C13.4942 19.5925 12.7999 19.2 12.2263 19.0792C11.864 18.9887 11.4715 18.9585 11.0791 18.9887C10.6866 19.0189 10.3244 19.1094 9.96212 19.2604C9.59985 19.3811 9.23759 19.5321 8.90551 19.683C8.51306 19.834 8.12061 20.0151 7.72815 20.1359C7.3357 20.2566 6.94325 20.3774 6.52061 20.4076H6.21872L6.24891 20.3472C6.2791 20.317 6.2791 20.2868 6.30929 20.2566C6.33947 20.1962 6.36966 20.166 6.39985 20.1057H6.46023C6.85268 20.0755 7.21495 19.9849 7.57721 19.834C7.96966 19.7132 8.36212 19.5321 8.72438 19.3811C9.08664 19.2302 9.44891 19.0792 9.81117 18.9585C10.2036 18.8076 10.5961 18.717 11.0187 18.6868C11.4414 18.6566 11.864 18.6868 12.2565 18.7774C13.0112 18.9585 13.5244 19.3509 13.9772 20.0453ZM0.664002 19.9547C1.29796 19.8943 1.9923 19.9547 2.86778 20.1359C3.01872 20.166 3.16966 20.1962 3.32061 20.2566L3.26023 20.317C3.16966 20.3774 3.04891 20.4377 2.92815 20.4981L2.8074 20.4679C1.96212 20.2868 1.29796 20.2264 0.69419 20.2868C0.513058 20.317 0.362115 20.3472 0.180983 20.3774L0.120605 20.0755C0.301738 20.0151 0.48287 19.9547 0.664002 19.9547Z" fill="#737679"/>
<path d="M11.3809 19.3811C12.9206 19.3811 13.9772 20.4981 13.9772 22.5207V25.8113H13.6753V22.4906C13.6753 20.6792 12.7092 19.683 11.3809 19.683H11.1394C10.8073 19.7132 10.4753 19.8038 10.1734 19.9245C9.84131 20.0453 9.53942 20.166 9.17715 20.317C8.7847 20.4981 8.36206 20.649 7.90923 20.8C7.7281 20.8604 7.51678 20.9207 7.24508 20.9811L6.94319 21.0717L6.61112 21.1321H5.70546C5.73564 21.0717 5.79602 21.0415 5.82621 20.9811L5.94697 20.8302H6.52055L6.85263 20.7698L7.1847 20.7094C7.42621 20.649 7.63753 20.5887 7.81866 20.5283C8.24131 20.3773 8.66395 20.2264 9.0564 20.0453C9.41866 19.8943 9.72055 19.7736 10.0526 19.6528C10.3847 19.5321 10.747 19.4415 11.079 19.4113C11.1998 19.3811 11.2602 19.3811 11.3809 19.3811ZM2.62621 14.0377L2.53564 13.9773L2.74697 13.7358L2.80734 13.7962C2.83753 13.8264 2.86772 13.8264 2.86772 13.8566C2.9281 13.8868 2.95829 13.9472 3.01866 13.9773L3.32055 14.2189L3.50168 14.3396C3.62244 14.4302 3.74319 14.4906 3.86395 14.5811L4.01489 14.6717C4.34697 14.8528 4.67904 15.0038 5.04131 15.1245C5.40357 15.2453 5.76583 15.3057 6.1281 15.3057C6.52055 15.3358 6.88281 15.3057 7.27527 15.2453C7.69791 15.1849 8.12055 15.0943 8.48282 15.0038L8.60357 14.9736V15.3057L8.54319 15.3358C8.18093 15.4264 7.75829 15.5472 7.30546 15.6075C6.913 15.6679 6.49036 15.6981 6.09791 15.6679C5.70546 15.6377 5.313 15.5773 4.95074 15.4566C4.55829 15.3358 4.19602 15.1849 3.86395 14.9736L3.713 14.883C3.59225 14.8226 3.47149 14.7321 3.35074 14.6415L3.16961 14.5207L2.86772 14.2792C2.80734 14.249 2.74697 14.1887 2.71678 14.1283L2.62621 14.0377ZM11.2602 14.7924C11.1394 14.7924 11.0187 14.7924 10.8677 14.8226V14.5207H11.6828C11.7432 14.5207 11.7734 14.5207 11.8338 14.5509H11.9545C12.0149 14.5509 12.0451 14.5509 12.1055 14.5811L12.4073 14.6415L12.4979 14.6717C12.5583 14.7019 12.6187 14.7019 12.679 14.7321C12.7394 14.7623 12.7998 14.7623 12.8602 14.7924C13.1017 14.883 13.3734 15.0038 13.5847 15.1547C13.8262 15.3057 14.0677 15.4868 14.2489 15.6981C14.3696 15.8189 14.4602 15.9396 14.5809 16.0604C14.6111 16.1207 14.6111 16.2113 14.6111 16.2717L14.7017 16.8151C14.5206 16.483 14.3092 16.1811 14.0375 15.9094C13.8564 15.7283 13.6451 15.5773 13.4036 15.4264C13.1922 15.3057 12.9507 15.1849 12.7092 15.0943C12.6489 15.0641 12.5885 15.0641 12.5281 15.034C12.4677 15.0038 12.4375 15.0038 12.347 14.9736L12.2564 14.9434L11.9545 14.883C11.9243 14.883 11.8639 14.883 11.8338 14.8528H11.5922L11.4413 14.7924H11.2602Z" fill="#737679"/>
<path d="M2.23402 14.6415C2.20383 14.6113 2.17364 14.6113 2.17364 14.5811L1.93213 14.3698L2.11326 14.1283L2.35477 14.3396L2.41515 14.4C2.47553 14.4604 2.50571 14.4906 2.56609 14.5207L2.89817 14.7623L3.10949 14.9132C3.23024 15.0038 3.38119 15.0943 3.53213 15.1849L3.68307 15.2755C4.04534 15.4868 4.43779 15.6679 4.86043 15.7887C5.28307 15.9094 5.67553 16 6.12836 16C6.551 16.0302 6.97364 16 7.42647 15.9396C7.84911 15.8792 8.27175 15.7887 8.69439 15.6679C8.69439 15.7585 8.72458 15.8792 8.75477 15.9698C8.33213 16.0906 7.90949 16.1811 7.48685 16.2415C7.03402 16.3019 6.58119 16.3321 6.12836 16.3019C5.67553 16.2717 5.22269 16.2113 4.80005 16.0604C4.37741 15.9094 3.95477 15.7283 3.56232 15.517L3.41137 15.4264C3.26043 15.3358 3.10949 15.2453 2.98873 15.1547L2.77741 15.0038L2.41515 14.7623C2.35477 14.7321 2.29439 14.6717 2.23402 14.6415ZM14.8227 18.234V18.9887C14.5812 17.9924 14.2189 16.966 13.585 16.3623C13.2831 16.0906 12.9208 15.8491 12.5284 15.7283C12.468 15.6981 12.4378 15.6981 12.3774 15.6679C12.3472 15.6679 12.2868 15.6377 12.2265 15.6075L12.1359 15.5774L11.8944 15.517H10.9284C10.8982 15.4264 10.8982 15.3057 10.8982 15.2151H11.834C11.8642 15.2151 11.9246 15.2151 11.9548 15.2453L12.1963 15.3057L12.2868 15.3358C12.3472 15.366 12.4076 15.366 12.4378 15.3962C12.468 15.4264 12.5585 15.4264 12.5887 15.4566C13.0114 15.6075 13.434 15.8491 13.7661 16.1509C14.2189 16.5736 14.5812 17.2679 14.7623 17.9623L14.8227 18.234Z" fill="#737679"/>
<path d="M7.48672 16.6339C7.93955 16.5736 8.36219 16.4528 8.78483 16.3622C8.81502 16.4528 8.84521 16.5736 8.8754 16.6641C8.45276 16.7849 7.99993 16.8755 7.5471 16.9358C7.06408 17.0264 6.55087 17.0264 6.06785 17.0264C5.55465 16.9962 5.04144 16.9056 4.55842 16.7547C4.0754 16.6038 3.62257 16.3924 3.16974 16.1509L3.0188 16.0604C2.86785 15.9698 2.68672 15.849 2.53578 15.7585L2.32446 15.6075L1.96219 15.3358C1.90181 15.2755 1.84144 15.2453 1.78106 15.1849L1.69049 15.0943L1.53955 14.9736L1.75087 14.7321L1.90182 14.8528L1.96219 14.9132C2.02257 14.9736 2.08295 15.0038 2.14332 15.0641L2.50559 15.3358L2.71691 15.4868C2.86785 15.6075 3.0188 15.6981 3.16974 15.7887L3.29049 15.8792C3.71314 16.1207 4.13578 16.3019 4.6188 16.4528C5.07163 16.6038 5.55465 16.6943 6.03766 16.6943C6.52068 16.7245 7.0037 16.7245 7.48672 16.6339ZM14.3396 18.6868C14.4301 19.0792 14.5207 19.5019 14.5509 19.9245C14.6414 20.7698 14.7018 21.6453 14.6716 22.4905V25.7509H14.3697V22.4905C14.3697 21.6453 14.3396 20.8 14.249 19.9547C14.1886 19.5622 14.1282 19.1396 14.0377 18.7471C14.0377 18.717 14.0377 18.6868 14.0075 18.6566C13.9773 18.5962 13.9773 18.5056 13.9471 18.4453L13.9169 18.2943L13.8867 18.2038C13.8565 18.1434 13.8565 18.083 13.8263 18.0226C13.8263 17.9924 13.7962 17.9622 13.7962 17.9321C13.7962 17.9019 13.766 17.8717 13.766 17.8717L13.7056 17.8113C13.6754 17.7811 13.6754 17.7207 13.6452 17.6905C13.4943 17.3887 13.3131 17.117 13.0716 16.8755C12.8301 16.6641 12.5584 16.483 12.2263 16.3924C12.1962 16.3622 12.1358 16.3622 12.1056 16.3622C12.0452 16.3321 12.015 16.3321 11.9848 16.3321L11.9546 16.3019L11.7735 16.2415H11.1094C11.0792 16.1509 11.049 16.0302 11.0188 15.9396H11.6829C11.7131 15.9396 11.7433 15.9396 11.7735 15.9698L11.9546 16L12.015 16.0302C12.0452 16.0302 12.1056 16.0604 12.166 16.0604C12.1962 16.0604 12.2565 16.0905 12.2867 16.1207C12.6188 16.2415 12.9509 16.4226 13.2226 16.6943C13.4943 16.966 13.7056 17.2679 13.8565 17.6C13.8867 17.6302 13.8867 17.6905 13.9169 17.7509L13.9471 17.8113C13.9471 17.8415 13.9773 17.8717 13.9773 17.9019C13.9773 17.9321 14.0075 17.9622 14.0075 17.9924C14.0377 18.0528 14.0679 18.1132 14.0679 18.1736L14.1282 18.3245L14.1584 18.4755C14.1886 18.5358 14.1886 18.6264 14.2188 18.6868C14.3396 18.6566 14.3396 18.6566 14.3396 18.6868Z" fill="#737679"/>
<path d="M15.3962 17.9925V25.7811H15.0944V17.6L15.0642 17.2075C15.034 16.8755 15.0038 16.5132 14.9132 16.1811L14.883 16.0604C14.883 16.0302 14.883 16 14.8528 16V15.9396C14.8528 15.9094 14.8528 15.8792 14.8227 15.8491C14.8227 15.7887 14.7925 15.7585 14.7925 15.6981L14.7321 15.3962C14.7321 15.3359 14.7019 15.3057 14.6717 15.2453C14.6717 15.2151 14.6415 15.1849 14.6415 15.1547C14.5208 14.8226 14.4 14.4906 14.2491 14.1887C14.1585 13.9774 14.0377 13.766 13.917 13.5245C13.9774 13.434 14.0679 13.3736 14.1585 13.283C14.3094 13.5245 14.4302 13.7962 14.551 14.0377C14.7019 14.3698 14.8227 14.7019 14.9434 15.034C14.9434 15.0642 14.9736 15.0943 14.9736 15.1245C15.0038 15.1849 15.0038 15.2453 15.034 15.3057L15.0944 15.5472C15.0944 15.6075 15.1245 15.6679 15.1245 15.7283C15.1245 15.7585 15.1245 15.7887 15.1547 15.8189V15.8792C15.1547 15.9094 15.1547 15.9396 15.1849 15.9698L15.2151 16.1208C15.2755 16.483 15.3359 16.8453 15.366 17.1774L15.3962 17.5698V17.9925Z" fill="#737679"/>
<path d="M15.9094 15.9698C15.9698 16.3623 16.0302 16.7246 16.0604 17.117C16.0906 17.4793 16.0906 17.8415 16.0906 18.2642V25.751H15.7887V18.2642C15.7887 17.8415 15.7887 17.4793 15.7585 17.1472C15.7283 16.7849 15.6679 16.3925 15.6075 16.0302L15.5773 15.8793C15.5773 15.8491 15.5773 15.8189 15.5472 15.7887V15.7283C15.5472 15.6981 15.517 15.6679 15.517 15.6378C15.517 15.5774 15.4868 15.517 15.4868 15.4566L15.3962 15.1849C15.3962 15.1246 15.366 15.0642 15.3358 15.0038C15.3358 14.9736 15.3056 14.9434 15.3056 14.9132C15.1849 14.551 15.0641 14.2189 14.883 13.8566C14.7623 13.5547 14.6113 13.2529 14.4302 12.9812L14.4906 12.9208C14.5509 12.8604 14.6113 12.8302 14.6717 12.7698C14.8528 13.0717 15.0038 13.4038 15.1547 13.7359C15.3056 14.0981 15.4566 14.4604 15.5773 14.8227C15.5773 14.8529 15.6075 14.883 15.6075 14.9132C15.6377 14.9736 15.6377 15.034 15.6679 15.0944L15.7585 15.3661C15.7887 15.4264 15.7887 15.4868 15.7887 15.5472L15.8189 15.6378V15.6981C15.8189 15.7283 15.8189 15.7585 15.849 15.7887L15.9094 15.9698Z" fill="#737679"/>
<path d="M16.8152 17.9925V25.7812H16.5133V17.5397L16.4832 17.0868C16.453 16.6944 16.3926 16.3019 16.3322 15.9095L16.302 15.7585C16.302 15.7283 16.302 15.6981 16.2718 15.668V15.6076C16.2718 15.5774 16.2416 15.5472 16.2416 15.517C16.2115 15.4566 16.2115 15.3963 16.1813 15.3359L16.0907 15.034C16.0605 14.9736 16.0605 14.9132 16.0303 14.8529L16.0001 14.7321C15.8794 14.3397 15.7284 13.9774 15.5473 13.6151C15.3964 13.2529 15.2152 12.9208 15.0039 12.5887L15.1548 12.468L15.2454 12.3774C15.4567 12.7397 15.6379 13.1019 15.819 13.4944C16.0001 13.8566 16.1511 14.2491 16.2718 14.6415L16.302 14.7321C16.3322 14.7925 16.3322 14.8529 16.3624 14.9434L16.453 15.2453C16.4832 15.3057 16.4832 15.3963 16.5133 15.4566C16.5133 15.4868 16.5133 15.517 16.5435 15.5472V15.6076C16.5435 15.6378 16.5737 15.668 16.5737 15.6981L16.6039 15.8491C16.6945 16.2415 16.7247 16.6642 16.7548 17.0868L16.785 17.5397L16.8152 17.9925ZM19.8039 9.60003C19.7435 8.8755 19.8039 8.12079 19.9548 7.39626C19.985 7.2755 20.0152 7.12456 20.0454 7.0038L20.3473 7.06418C20.3171 7.18494 20.2869 7.33588 20.2567 7.45663C20.1058 8.15097 20.0454 8.8755 20.1058 9.56984C20.136 9.93211 20.1964 10.2642 20.2869 10.5963C20.3473 10.7774 20.3775 10.9887 20.4379 11.1698C20.3473 11.2302 20.2567 11.2604 20.1662 11.3208L19.985 10.6868C19.8945 10.3246 19.8341 9.9623 19.8039 9.60003ZM19.2907 10.8378C19.2001 10.4453 19.1398 10.0529 19.0794 9.66041C19.019 8.84531 19.0794 8.06041 19.2303 7.2755C19.2907 7.09437 19.3209 6.94343 19.3511 6.7623L19.3813 6.64154L19.6832 6.70192L19.653 6.82267C19.6228 6.97362 19.5624 7.12456 19.5624 7.30569C19.4115 8.06041 19.3511 8.84531 19.4115 9.63022C19.4416 10.0227 19.502 10.3849 19.5926 10.7774C19.653 11.0189 19.7133 11.2604 19.8039 11.5019L19.7133 11.5321L19.502 11.6227C19.4416 11.3812 19.3511 11.1095 19.2907 10.8378ZM18.9284 16.7547C18.7473 16.9359 18.5662 17.117 18.4152 17.3283C17.7813 18.083 17.419 18.8981 17.1171 19.9547V19.0491C17.3284 18.3547 17.6907 17.6906 18.1737 17.117C18.3549 16.9057 18.536 16.7246 18.7171 16.5434C18.8077 16.4529 18.8982 16.3623 18.9888 16.2415C19.1398 16.0906 19.2605 15.9397 19.3511 15.7887C19.4718 15.6378 19.5624 15.4868 19.653 15.3057C19.8341 14.9736 19.9548 14.6114 19.985 14.2491C19.985 14.1283 20.0152 14.0378 20.0152 13.917C20.1058 13.8566 20.2265 13.8264 20.3473 13.7661C20.3473 13.9472 20.3473 14.1283 20.3171 14.2793C20.2567 14.7019 20.136 15.0944 19.9548 15.4566C19.8643 15.6378 19.7435 15.8189 19.6228 15.9698C19.502 16.1208 19.3813 16.2717 19.2303 16.4227C19.1096 16.5434 19.019 16.634 18.9284 16.7547Z" fill="#737679"/>
<path d="M18.385 9.72079C18.3247 8.84531 18.385 7.96984 18.5662 7.12456C18.5963 6.97362 18.6265 6.79248 18.6567 6.64154L18.9586 6.70192L18.868 7.15475C18.6869 7.96984 18.6265 8.81513 18.6869 9.66041C18.7171 10.0831 18.7775 10.5057 18.8982 10.9283C18.9586 11.2302 19.0492 11.5019 19.1397 11.7736L18.868 11.9246L18.5963 11.0189C18.5058 10.5963 18.4152 10.1434 18.385 9.72079ZM18.6869 15.9698L18.4152 16.2415C17.6605 17.0264 17.3888 17.4491 17.0869 18.1736V17.5397C17.2077 17.1774 17.6001 16.634 18.2039 16L18.4756 15.7283C18.5963 15.6076 18.7171 15.4566 18.8077 15.3359C18.8982 15.2151 18.9888 15.0944 19.0492 14.9736C19.1096 14.8529 19.1699 14.7019 19.2001 14.5812C19.2303 14.4906 19.2605 14.4 19.2605 14.2793C19.3813 14.2189 19.4718 14.1585 19.5926 14.0981V14.1887C19.5624 14.3397 19.5322 14.5208 19.4718 14.6717L19.2907 15.1246C19.2001 15.2755 19.1096 15.4264 19.019 15.5472C18.9284 15.6981 18.8077 15.8189 18.6869 15.9698ZM21.0416 13.6453C21.0416 13.8868 21.0416 14.1283 21.0114 14.4C20.9813 14.6415 20.9209 14.883 20.8605 15.1246C20.8001 15.3661 20.6794 15.6076 20.5888 15.8189C20.468 16.0302 20.3473 16.2415 20.1963 16.4227C20.0756 16.6038 19.9247 16.7547 19.7435 16.9359C19.653 17.0566 19.5624 17.1472 19.4416 17.2378C19.2605 17.4189 19.1096 17.6 18.9586 17.7812C18.7473 18.0227 18.536 18.3246 18.385 18.5963C18.2341 18.8981 18.0831 19.2 17.9926 19.5321C17.8718 19.8642 17.8114 20.2264 17.7511 20.5585C17.6303 21.283 17.5699 22.0378 17.5699 22.7623V25.751H17.268V22.7623C17.268 22.0076 17.3284 21.2529 17.4492 20.4981C17.5096 20.1359 17.6001 19.7736 17.7209 19.4415C17.8416 19.1095 17.9624 18.7774 18.1435 18.4453C18.3247 18.1434 18.536 17.8415 18.7775 17.5698C18.9284 17.3887 19.1096 17.2076 19.2907 17.0264C19.3813 16.9359 19.4718 16.8151 19.5624 16.7246C19.7133 16.5736 19.8643 16.3925 19.985 16.2415C20.136 16.0604 20.2567 15.8793 20.3473 15.668C20.468 15.4566 20.5586 15.2453 20.619 15.034C20.6794 14.8227 20.7397 14.5812 20.7699 14.3698C20.8001 14.1283 20.8001 13.917 20.8001 13.6755V13.6151L21.102 13.4642C21.0416 13.5246 21.0416 13.5849 21.0416 13.6453Z" fill="#737679"/>
<path d="M20.8602 18.0831C19.7131 18.234 18.9584 18.6566 18.3848 19.1698C18.3848 19.1397 18.415 19.1095 18.415 19.1095L18.4451 19.0189L18.5357 18.8378V18.8076C18.5659 18.7472 18.6263 18.6566 18.6565 18.5963L18.6867 18.5359C19.1395 18.234 19.8338 17.9019 20.7999 17.7812H20.8904C20.981 17.7812 21.0716 17.751 21.1319 17.751H22.1584C22.6112 17.7812 23.064 17.8717 23.5168 17.9925C23.9395 18.1132 24.3621 18.2642 24.7546 18.4453C25.4489 18.7472 26.0829 19.0793 26.6867 19.4114L26.9584 19.5623C27.6527 19.9246 28.347 20.2868 29.0112 20.5283C29.7055 20.8 30.3999 20.8906 31.0338 20.8906H31.2753L31.4565 20.8604L31.4867 21.1623L31.3055 21.1925H31.0338C30.3395 21.2227 29.6451 21.1019 28.8904 20.8302C28.1961 20.5887 27.5017 20.2264 26.8074 19.834L26.5659 19.6529C25.9621 19.3208 25.3282 18.9887 24.664 18.6868C24.2716 18.5057 23.8791 18.3849 23.4565 18.2642C23.0338 18.1434 22.6112 18.0831 22.1584 18.0529H21.1923C21.1017 18.0529 21.0414 18.0831 20.9508 18.0831H20.8602Z" fill="#737679"/>
<path d="M17.9321 20.7698C17.9321 20.7095 17.9321 20.6793 17.9623 20.6491C17.9925 20.4076 18.0529 20.1962 18.1133 19.9849C18.6868 19.2302 19.5321 18.6566 20.9208 18.4755C21.3435 18.4151 21.7359 18.4151 22.1585 18.4453C22.9133 18.5057 23.668 18.6868 24.5133 19.0491C25.1774 19.3208 25.8114 19.683 26.4151 20.0151L26.6567 20.1661C27.4114 20.5585 28.0755 20.9208 28.8001 21.1925C29.1623 21.3132 29.5548 21.434 29.917 21.4944C30.3095 21.5547 30.7019 21.5849 31.0642 21.5849H31.3661L31.668 21.5547L31.6982 21.8566L31.3963 21.8868C31.3359 21.8868 31.2453 21.8868 31.185 21.917H31.0642C30.6416 21.9472 30.2491 21.917 29.8265 21.8264C29.434 21.7661 29.0416 21.6453 28.6491 21.4944C27.8944 21.2227 27.2302 20.8604 26.4453 20.4378L26.2642 20.2868C25.6604 19.9547 25.0265 19.6227 24.3925 19.351C23.5774 18.9887 22.8227 18.8076 22.1284 18.7472C21.7359 18.717 21.3434 18.7472 20.951 18.7774C19.4416 18.9887 18.5057 19.7434 17.9321 20.7698Z" fill="#737679"/>
<path d="M31.6982 22.2189L31.7284 22.5208L31.517 22.551C31.4265 22.551 31.3359 22.551 31.2755 22.5812H31.1548C30.7019 22.6113 30.2189 22.5812 29.7661 22.4906C29.3133 22.4 28.8906 22.2793 28.468 22.1283C27.6227 21.8264 26.868 21.4038 26.1736 21.0415L25.9321 20.9208C25.2982 20.5887 24.6944 20.2566 24.0906 19.9849C23.3359 19.6529 22.6718 19.5019 22.068 19.4415H21.2831C21.2227 19.4415 21.1925 19.4415 21.1321 19.4717H21.0416C20.7095 19.5019 20.4076 19.5925 20.0755 19.7132C18.8378 20.2264 18.234 21.1925 18.234 22.4V25.751H17.9321V22.4302C17.9321 21.0717 18.6567 19.9547 19.985 19.4415C20.317 19.3208 20.6491 19.2302 21.0114 19.1698H21.1019C21.1623 19.1698 21.2227 19.1698 21.2831 19.1396H22.068C22.7321 19.1698 23.4265 19.351 24.2114 19.7132C24.8453 19.9849 25.4491 20.317 26.0831 20.6491L26.3246 20.7698C26.9887 21.1321 27.7435 21.5246 28.5585 21.8264C28.951 21.9774 29.3736 22.0981 29.7963 22.1585C30.2189 22.2491 30.6718 22.2793 31.1246 22.2491H31.2453C31.3359 22.2491 31.3963 22.2491 31.4868 22.2189H31.6982Z" fill="#737679"/>
</svg>
