<svg width="335" height="6" viewBox="0 0 335 6" fill="none" xmlns="http://www.w3.org/2000/svg">
<g clip-path="url(#clip0_31_373)">
<g clip-path="url(#clip1_31_373)">
<path d="M15.5 5.5C15.7761 5.5 16 5.27614 16 5C16 4.72386 15.7761 4.5 15.5 4.5V5.5ZM12 1C12 0.723858 11.7761 0.5 11.5 0.5C11.2239 0.5 11 0.723858 11 1H12ZM4 1C4 0.723858 3.77614 0.5 3.5 0.5C3.22386 0.5 3 0.723858 3 1H4ZM-0.5 4.5C-0.776142 4.5 -1 4.72386 -1 5C-1 5.27614 -0.776142 5.5 -0.5 5.5V4.5ZM31.5 5.5C31.7761 5.5 32 5.27614 32 5C32 4.72386 31.7761 4.5 31.5 4.5V5.5ZM28 1C28 0.723858 27.7761 0.5 27.5 0.5C27.2239 0.5 27 0.723858 27 1H28ZM20 1C20 0.723858 19.7761 0.5 19.5 0.5C19.2239 0.5 19 0.723858 19 1H20ZM15.5 4.5C15.2239 4.5 15 4.72386 15 5C15 5.27614 15.2239 5.5 15.5 5.5V4.5ZM15.5 4.5C13.567 4.5 12 2.933 12 1H11C11 3.48528 13.0147 5.5 15.5 5.5V4.5ZM11 1C11 2.933 9.433 4.5 7.5 4.5V5.5C9.98528 5.5 12 3.48528 12 1H11ZM7.5 4.5C5.567 4.5 4 2.933 4 1H3C3 3.48528 5.01472 5.5 7.5 5.5V4.5ZM3 1C3 2.933 1.433 4.5 -0.5 4.5V5.5C1.98528 5.5 4 3.48528 4 1H3ZM31.5 4.5C29.567 4.5 28 2.933 28 1H27C27 3.48528 29.0147 5.5 31.5 5.5V4.5ZM27 1C27 2.933 25.433 4.5 23.5 4.5V5.5C25.9853 5.5 28 3.48528 28 1H27ZM23.5 4.5C21.567 4.5 20 2.933 20 1H19C19 3.48528 21.0147 5.5 23.5 5.5V4.5ZM19 1C19 2.933 17.433 4.5 15.5 4.5V5.5C17.9853 5.5 20 3.48528 20 1H19Z" fill="#737679"/>
</g>
<g clip-path="url(#clip2_31_373)">
<path d="M31.5 5.5C31.7761 5.5 32 5.27614 32 5C32 4.72386 31.7761 4.5 31.5 4.5V5.5ZM28 1C28 0.723858 27.7761 0.5 27.5 0.5C27.2239 0.5 27 0.723858 27 1H28ZM20 1C20 0.723858 19.7761 0.5 19.5 0.5C19.2239 0.5 19 0.723858 19 1H20ZM15.5 4.5C15.2239 4.5 15 4.72386 15 5C15 5.27614 15.2239 5.5 15.5 5.5V4.5ZM47.5 5.5C47.7761 5.5 48 5.27614 48 5C48 4.72386 47.7761 4.5 47.5 4.5V5.5ZM44 1C44 0.723858 43.7761 0.5 43.5 0.5C43.2239 0.5 43 0.723858 43 1H44ZM36 1C36 0.723858 35.7761 0.5 35.5 0.5C35.2239 0.5 35 0.723858 35 1H36ZM31.5 4.5C31.2239 4.5 31 4.72386 31 5C31 5.27614 31.2239 5.5 31.5 5.5V4.5ZM31.5 4.5C29.567 4.5 28 2.933 28 1H27C27 3.48528 29.0147 5.5 31.5 5.5V4.5ZM27 1C27 2.933 25.433 4.5 23.5 4.5V5.5C25.9853 5.5 28 3.48528 28 1H27ZM23.5 4.5C21.567 4.5 20 2.933 20 1H19C19 3.48528 21.0147 5.5 23.5 5.5V4.5ZM19 1C19 2.933 17.433 4.5 15.5 4.5V5.5C17.9853 5.5 20 3.48528 20 1H19ZM47.5 4.5C45.567 4.5 44 2.933 44 1H43C43 3.48528 45.0147 5.5 47.5 5.5V4.5ZM43 1C43 2.933 41.433 4.5 39.5 4.5V5.5C41.9853 5.5 44 3.48528 44 1H43ZM39.5 4.5C37.567 4.5 36 2.933 36 1H35C35 3.48528 37.0147 5.5 39.5 5.5V4.5ZM35 1C35 2.933 33.433 4.5 31.5 4.5V5.5C33.9853 5.5 36 3.48528 36 1H35Z" fill="#737679"/>
</g>
<g clip-path="url(#clip3_31_373)">
<path d="M47.5 5.5C47.7761 5.5 48 5.27614 48 5C48 4.72386 47.7761 4.5 47.5 4.5V5.5ZM44 1C44 0.723858 43.7761 0.5 43.5 0.5C43.2239 0.5 43 0.723858 43 1H44ZM36 1C36 0.723858 35.7761 0.5 35.5 0.5C35.2239 0.5 35 0.723858 35 1H36ZM31.5 4.5C31.2239 4.5 31 4.72386 31 5C31 5.27614 31.2239 5.5 31.5 5.5V4.5ZM63.5 5.5C63.7761 5.5 64 5.27614 64 5C64 4.72386 63.7761 4.5 63.5 4.5V5.5ZM60 1C60 0.723858 59.7761 0.5 59.5 0.5C59.2239 0.5 59 0.723858 59 1H60ZM52 1C52 0.723858 51.7761 0.5 51.5 0.5C51.2239 0.5 51 0.723858 51 1H52ZM47.5 4.5C47.2239 4.5 47 4.72386 47 5C47 5.27614 47.2239 5.5 47.5 5.5V4.5ZM47.5 4.5C45.567 4.5 44 2.933 44 1H43C43 3.48528 45.0147 5.5 47.5 5.5V4.5ZM43 1C43 2.933 41.433 4.5 39.5 4.5V5.5C41.9853 5.5 44 3.48528 44 1H43ZM39.5 4.5C37.567 4.5 36 2.933 36 1H35C35 3.48528 37.0147 5.5 39.5 5.5V4.5ZM35 1C35 2.933 33.433 4.5 31.5 4.5V5.5C33.9853 5.5 36 3.48528 36 1H35ZM63.5 4.5C61.567 4.5 60 2.933 60 1H59C59 3.48528 61.0147 5.5 63.5 5.5V4.5ZM59 1C59 2.933 57.433 4.5 55.5 4.5V5.5C57.9853 5.5 60 3.48528 60 1H59ZM55.5 4.5C53.567 4.5 52 2.933 52 1H51C51 3.48528 53.0147 5.5 55.5 5.5V4.5ZM51 1C51 2.933 49.433 4.5 47.5 4.5V5.5C49.9853 5.5 52 3.48528 52 1H51Z" fill="#737679"/>
</g>
<g clip-path="url(#clip4_31_373)">
<path d="M63.5 5.5C63.7761 5.5 64 5.27614 64 5C64 4.72386 63.7761 4.5 63.5 4.5V5.5ZM60 1C60 0.723858 59.7761 0.5 59.5 0.5C59.2239 0.5 59 0.723858 59 1H60ZM52 1C52 0.723858 51.7761 0.5 51.5 0.5C51.2239 0.5 51 0.723858 51 1H52ZM47.5 4.5C47.2239 4.5 47 4.72386 47 5C47 5.27614 47.2239 5.5 47.5 5.5V4.5ZM79.5 5.5C79.7761 5.5 80 5.27614 80 5C80 4.72386 79.7761 4.5 79.5 4.5V5.5ZM76 1C76 0.723858 75.7761 0.5 75.5 0.5C75.2239 0.5 75 0.723858 75 1H76ZM68 1C68 0.723858 67.7761 0.5 67.5 0.5C67.2239 0.5 67 0.723858 67 1H68ZM63.5 4.5C63.2239 4.5 63 4.72386 63 5C63 5.27614 63.2239 5.5 63.5 5.5V4.5ZM63.5 4.5C61.567 4.5 60 2.933 60 1H59C59 3.48528 61.0147 5.5 63.5 5.5V4.5ZM59 1C59 2.933 57.433 4.5 55.5 4.5V5.5C57.9853 5.5 60 3.48528 60 1H59ZM55.5 4.5C53.567 4.5 52 2.933 52 1H51C51 3.48528 53.0147 5.5 55.5 5.5V4.5ZM51 1C51 2.933 49.433 4.5 47.5 4.5V5.5C49.9853 5.5 52 3.48528 52 1H51ZM79.5 4.5C77.567 4.5 76 2.933 76 1H75C75 3.48528 77.0147 5.5 79.5 5.5V4.5ZM75 1C75 2.933 73.433 4.5 71.5 4.5V5.5C73.9853 5.5 76 3.48528 76 1H75ZM71.5 4.5C69.567 4.5 68 2.933 68 1H67C67 3.48528 69.0147 5.5 71.5 5.5V4.5ZM67 1C67 2.933 65.433 4.5 63.5 4.5V5.5C65.9853 5.5 68 3.48528 68 1H67Z" fill="#737679"/>
</g>
<g clip-path="url(#clip5_31_373)">
<path d="M79.5 5.5C79.7761 5.5 80 5.27614 80 5C80 4.72386 79.7761 4.5 79.5 4.5V5.5ZM76 1C76 0.723858 75.7761 0.5 75.5 0.5C75.2239 0.5 75 0.723858 75 1H76ZM68 1C68 0.723858 67.7761 0.5 67.5 0.5C67.2239 0.5 67 0.723858 67 1H68ZM63.5 4.5C63.2239 4.5 63 4.72386 63 5C63 5.27614 63.2239 5.5 63.5 5.5V4.5ZM95.5 5.5C95.7761 5.5 96 5.27614 96 5C96 4.72386 95.7761 4.5 95.5 4.5V5.5ZM92 1C92 0.723858 91.7761 0.5 91.5 0.5C91.2239 0.5 91 0.723858 91 1H92ZM84 1C84 0.723858 83.7761 0.5 83.5 0.5C83.2239 0.5 83 0.723858 83 1H84ZM79.5 4.5C79.2239 4.5 79 4.72386 79 5C79 5.27614 79.2239 5.5 79.5 5.5V4.5ZM79.5 4.5C77.567 4.5 76 2.933 76 1H75C75 3.48528 77.0147 5.5 79.5 5.5V4.5ZM75 1C75 2.933 73.433 4.5 71.5 4.5V5.5C73.9853 5.5 76 3.48528 76 1H75ZM71.5 4.5C69.567 4.5 68 2.933 68 1H67C67 3.48528 69.0147 5.5 71.5 5.5V4.5ZM67 1C67 2.933 65.433 4.5 63.5 4.5V5.5C65.9853 5.5 68 3.48528 68 1H67ZM95.5 4.5C93.567 4.5 92 2.933 92 1H91C91 3.48528 93.0147 5.5 95.5 5.5V4.5ZM91 1C91 2.933 89.433 4.5 87.5 4.5V5.5C89.9853 5.5 92 3.48528 92 1H91ZM87.5 4.5C85.567 4.5 84 2.933 84 1H83C83 3.48528 85.0147 5.5 87.5 5.5V4.5ZM83 1C83 2.933 81.433 4.5 79.5 4.5V5.5C81.9853 5.5 84 3.48528 84 1H83Z" fill="#737679"/>
</g>
<g clip-path="url(#clip6_31_373)">
<path d="M95.5 5.5C95.7761 5.5 96 5.27614 96 5C96 4.72386 95.7761 4.5 95.5 4.5V5.5ZM92 1C92 0.723858 91.7761 0.5 91.5 0.5C91.2239 0.5 91 0.723858 91 1H92ZM84 1C84 0.723858 83.7761 0.5 83.5 0.5C83.2239 0.5 83 0.723858 83 1H84ZM79.5 4.5C79.2239 4.5 79 4.72386 79 5C79 5.27614 79.2239 5.5 79.5 5.5V4.5ZM111.5 5.5C111.776 5.5 112 5.27614 112 5C112 4.72386 111.776 4.5 111.5 4.5V5.5ZM108 1C108 0.723858 107.776 0.5 107.5 0.5C107.224 0.5 107 0.723858 107 1H108ZM100 1C100 0.723858 99.7761 0.5 99.5 0.5C99.2239 0.5 99 0.723858 99 1H100ZM95.5 4.5C95.2239 4.5 95 4.72386 95 5C95 5.27614 95.2239 5.5 95.5 5.5V4.5ZM95.5 4.5C93.567 4.5 92 2.933 92 1H91C91 3.48528 93.0147 5.5 95.5 5.5V4.5ZM91 1C91 2.933 89.433 4.5 87.5 4.5V5.5C89.9853 5.5 92 3.48528 92 1H91ZM87.5 4.5C85.567 4.5 84 2.933 84 1H83C83 3.48528 85.0147 5.5 87.5 5.5V4.5ZM83 1C83 2.933 81.433 4.5 79.5 4.5V5.5C81.9853 5.5 84 3.48528 84 1H83ZM111.5 4.5C109.567 4.5 108 2.933 108 1H107C107 3.48528 109.015 5.5 111.5 5.5V4.5ZM107 1C107 2.933 105.433 4.5 103.5 4.5V5.5C105.985 5.5 108 3.48528 108 1H107ZM103.5 4.5C101.567 4.5 100 2.933 100 1H99C99 3.48528 101.015 5.5 103.5 5.5V4.5ZM99 1C99 2.933 97.433 4.5 95.5 4.5V5.5C97.9853 5.5 100 3.48528 100 1H99Z" fill="#737679"/>
</g>
<g clip-path="url(#clip7_31_373)">
<path d="M111.5 5.5C111.776 5.5 112 5.27614 112 5C112 4.72386 111.776 4.5 111.5 4.5V5.5ZM108 1C108 0.723858 107.776 0.5 107.5 0.5C107.224 0.5 107 0.723858 107 1H108ZM100 1C100 0.723858 99.7761 0.5 99.5 0.5C99.2239 0.5 99 0.723858 99 1H100ZM95.5 4.5C95.2239 4.5 95 4.72386 95 5C95 5.27614 95.2239 5.5 95.5 5.5V4.5ZM127.5 5.5C127.776 5.5 128 5.27614 128 5C128 4.72386 127.776 4.5 127.5 4.5V5.5ZM124 1C124 0.723858 123.776 0.5 123.5 0.5C123.224 0.5 123 0.723858 123 1H124ZM116 1C116 0.723858 115.776 0.5 115.5 0.5C115.224 0.5 115 0.723858 115 1H116ZM111.5 4.5C111.224 4.5 111 4.72386 111 5C111 5.27614 111.224 5.5 111.5 5.5V4.5ZM111.5 4.5C109.567 4.5 108 2.933 108 1H107C107 3.48528 109.015 5.5 111.5 5.5V4.5ZM107 1C107 2.933 105.433 4.5 103.5 4.5V5.5C105.985 5.5 108 3.48528 108 1H107ZM103.5 4.5C101.567 4.5 100 2.933 100 1H99C99 3.48528 101.015 5.5 103.5 5.5V4.5ZM99 1C99 2.933 97.433 4.5 95.5 4.5V5.5C97.9853 5.5 100 3.48528 100 1H99ZM127.5 4.5C125.567 4.5 124 2.933 124 1H123C123 3.48528 125.015 5.5 127.5 5.5V4.5ZM123 1C123 2.933 121.433 4.5 119.5 4.5V5.5C121.985 5.5 124 3.48528 124 1H123ZM119.5 4.5C117.567 4.5 116 2.933 116 1H115C115 3.48528 117.015 5.5 119.5 5.5V4.5ZM115 1C115 2.933 113.433 4.5 111.5 4.5V5.5C113.985 5.5 116 3.48528 116 1H115Z" fill="#737679"/>
</g>
<g clip-path="url(#clip8_31_373)">
<path d="M127.5 5.5C127.776 5.5 128 5.27614 128 5C128 4.72386 127.776 4.5 127.5 4.5V5.5ZM124 1C124 0.723858 123.776 0.5 123.5 0.5C123.224 0.5 123 0.723858 123 1H124ZM116 1C116 0.723858 115.776 0.5 115.5 0.5C115.224 0.5 115 0.723858 115 1H116ZM111.5 4.5C111.224 4.5 111 4.72386 111 5C111 5.27614 111.224 5.5 111.5 5.5V4.5ZM143.5 5.5C143.776 5.5 144 5.27614 144 5C144 4.72386 143.776 4.5 143.5 4.5V5.5ZM140 1C140 0.723858 139.776 0.5 139.5 0.5C139.224 0.5 139 0.723858 139 1H140ZM132 1C132 0.723858 131.776 0.5 131.5 0.5C131.224 0.5 131 0.723858 131 1H132ZM127.5 4.5C127.224 4.5 127 4.72386 127 5C127 5.27614 127.224 5.5 127.5 5.5V4.5ZM127.5 4.5C125.567 4.5 124 2.933 124 1H123C123 3.48528 125.015 5.5 127.5 5.5V4.5ZM123 1C123 2.933 121.433 4.5 119.5 4.5V5.5C121.985 5.5 124 3.48528 124 1H123ZM119.5 4.5C117.567 4.5 116 2.933 116 1H115C115 3.48528 117.015 5.5 119.5 5.5V4.5ZM115 1C115 2.933 113.433 4.5 111.5 4.5V5.5C113.985 5.5 116 3.48528 116 1H115ZM143.5 4.5C141.567 4.5 140 2.933 140 1H139C139 3.48528 141.015 5.5 143.5 5.5V4.5ZM139 1C139 2.933 137.433 4.5 135.5 4.5V5.5C137.985 5.5 140 3.48528 140 1H139ZM135.5 4.5C133.567 4.5 132 2.933 132 1H131C131 3.48528 133.015 5.5 135.5 5.5V4.5ZM131 1C131 2.933 129.433 4.5 127.5 4.5V5.5C129.985 5.5 132 3.48528 132 1H131Z" fill="#737679"/>
</g>
<g clip-path="url(#clip9_31_373)">
<path d="M143.5 5.5C143.776 5.5 144 5.27614 144 5C144 4.72386 143.776 4.5 143.5 4.5V5.5ZM140 1C140 0.723858 139.776 0.5 139.5 0.5C139.224 0.5 139 0.723858 139 1H140ZM132 1C132 0.723858 131.776 0.5 131.5 0.5C131.224 0.5 131 0.723858 131 1H132ZM127.5 4.5C127.224 4.5 127 4.72386 127 5C127 5.27614 127.224 5.5 127.5 5.5V4.5ZM159.5 5.5C159.776 5.5 160 5.27614 160 5C160 4.72386 159.776 4.5 159.5 4.5V5.5ZM156 1C156 0.723858 155.776 0.5 155.5 0.5C155.224 0.5 155 0.723858 155 1H156ZM148 1C148 0.723858 147.776 0.5 147.5 0.5C147.224 0.5 147 0.723858 147 1H148ZM143.5 4.5C143.224 4.5 143 4.72386 143 5C143 5.27614 143.224 5.5 143.5 5.5V4.5ZM143.5 4.5C141.567 4.5 140 2.933 140 1H139C139 3.48528 141.015 5.5 143.5 5.5V4.5ZM139 1C139 2.933 137.433 4.5 135.5 4.5V5.5C137.985 5.5 140 3.48528 140 1H139ZM135.5 4.5C133.567 4.5 132 2.933 132 1H131C131 3.48528 133.015 5.5 135.5 5.5V4.5ZM131 1C131 2.933 129.433 4.5 127.5 4.5V5.5C129.985 5.5 132 3.48528 132 1H131ZM159.5 4.5C157.567 4.5 156 2.933 156 1H155C155 3.48528 157.015 5.5 159.5 5.5V4.5ZM155 1C155 2.933 153.433 4.5 151.5 4.5V5.5C153.985 5.5 156 3.48528 156 1H155ZM151.5 4.5C149.567 4.5 148 2.933 148 1H147C147 3.48528 149.015 5.5 151.5 5.5V4.5ZM147 1C147 2.933 145.433 4.5 143.5 4.5V5.5C145.985 5.5 148 3.48528 148 1H147Z" fill="#737679"/>
</g>
<g clip-path="url(#clip10_31_373)">
<path d="M159.5 5.5C159.776 5.5 160 5.27614 160 5C160 4.72386 159.776 4.5 159.5 4.5V5.5ZM156 1C156 0.723858 155.776 0.5 155.5 0.5C155.224 0.5 155 0.723858 155 1H156ZM148 1C148 0.723858 147.776 0.5 147.5 0.5C147.224 0.5 147 0.723858 147 1H148ZM143.5 4.5C143.224 4.5 143 4.72386 143 5C143 5.27614 143.224 5.5 143.5 5.5V4.5ZM175.5 5.5C175.776 5.5 176 5.27614 176 5C176 4.72386 175.776 4.5 175.5 4.5V5.5ZM172 1C172 0.723858 171.776 0.5 171.5 0.5C171.224 0.5 171 0.723858 171 1H172ZM164 1C164 0.723858 163.776 0.5 163.5 0.5C163.224 0.5 163 0.723858 163 1H164ZM159.5 4.5C159.224 4.5 159 4.72386 159 5C159 5.27614 159.224 5.5 159.5 5.5V4.5ZM159.5 4.5C157.567 4.5 156 2.933 156 1H155C155 3.48528 157.015 5.5 159.5 5.5V4.5ZM155 1C155 2.933 153.433 4.5 151.5 4.5V5.5C153.985 5.5 156 3.48528 156 1H155ZM151.5 4.5C149.567 4.5 148 2.933 148 1H147C147 3.48528 149.015 5.5 151.5 5.5V4.5ZM147 1C147 2.933 145.433 4.5 143.5 4.5V5.5C145.985 5.5 148 3.48528 148 1H147ZM175.5 4.5C173.567 4.5 172 2.933 172 1H171C171 3.48528 173.015 5.5 175.5 5.5V4.5ZM171 1C171 2.933 169.433 4.5 167.5 4.5V5.5C169.985 5.5 172 3.48528 172 1H171ZM167.5 4.5C165.567 4.5 164 2.933 164 1H163C163 3.48528 165.015 5.5 167.5 5.5V4.5ZM163 1C163 2.933 161.433 4.5 159.5 4.5V5.5C161.985 5.5 164 3.48528 164 1H163Z" fill="#737679"/>
</g>
<g clip-path="url(#clip11_31_373)">
<path d="M175.5 5.5C175.776 5.5 176 5.27614 176 5C176 4.72386 175.776 4.5 175.5 4.5V5.5ZM172 1C172 0.723858 171.776 0.5 171.5 0.5C171.224 0.5 171 0.723858 171 1H172ZM164 1C164 0.723858 163.776 0.5 163.5 0.5C163.224 0.5 163 0.723858 163 1H164ZM159.5 4.5C159.224 4.5 159 4.72386 159 5C159 5.27614 159.224 5.5 159.5 5.5V4.5ZM191.5 5.5C191.776 5.5 192 5.27614 192 5C192 4.72386 191.776 4.5 191.5 4.5V5.5ZM188 1C188 0.723858 187.776 0.5 187.5 0.5C187.224 0.5 187 0.723858 187 1H188ZM180 1C180 0.723858 179.776 0.5 179.5 0.5C179.224 0.5 179 0.723858 179 1H180ZM175.5 4.5C175.224 4.5 175 4.72386 175 5C175 5.27614 175.224 5.5 175.5 5.5V4.5ZM175.5 4.5C173.567 4.5 172 2.933 172 1H171C171 3.48528 173.015 5.5 175.5 5.5V4.5ZM171 1C171 2.933 169.433 4.5 167.5 4.5V5.5C169.985 5.5 172 3.48528 172 1H171ZM167.5 4.5C165.567 4.5 164 2.933 164 1H163C163 3.48528 165.015 5.5 167.5 5.5V4.5ZM163 1C163 2.933 161.433 4.5 159.5 4.5V5.5C161.985 5.5 164 3.48528 164 1H163ZM191.5 4.5C189.567 4.5 188 2.933 188 1H187C187 3.48528 189.015 5.5 191.5 5.5V4.5ZM187 1C187 2.933 185.433 4.5 183.5 4.5V5.5C185.985 5.5 188 3.48528 188 1H187ZM183.5 4.5C181.567 4.5 180 2.933 180 1H179C179 3.48528 181.015 5.5 183.5 5.5V4.5ZM179 1C179 2.933 177.433 4.5 175.5 4.5V5.5C177.985 5.5 180 3.48528 180 1H179Z" fill="#737679"/>
</g>
<g clip-path="url(#clip12_31_373)">
<path d="M191.5 5.5C191.776 5.5 192 5.27614 192 5C192 4.72386 191.776 4.5 191.5 4.5V5.5ZM188 1C188 0.723858 187.776 0.5 187.5 0.5C187.224 0.5 187 0.723858 187 1H188ZM180 1C180 0.723858 179.776 0.5 179.5 0.5C179.224 0.5 179 0.723858 179 1H180ZM175.5 4.5C175.224 4.5 175 4.72386 175 5C175 5.27614 175.224 5.5 175.5 5.5V4.5ZM207.5 5.5C207.776 5.5 208 5.27614 208 5C208 4.72386 207.776 4.5 207.5 4.5V5.5ZM204 1C204 0.723858 203.776 0.5 203.5 0.5C203.224 0.5 203 0.723858 203 1H204ZM196 1C196 0.723858 195.776 0.5 195.5 0.5C195.224 0.5 195 0.723858 195 1H196ZM191.5 4.5C191.224 4.5 191 4.72386 191 5C191 5.27614 191.224 5.5 191.5 5.5V4.5ZM191.5 4.5C189.567 4.5 188 2.933 188 1H187C187 3.48528 189.015 5.5 191.5 5.5V4.5ZM187 1C187 2.933 185.433 4.5 183.5 4.5V5.5C185.985 5.5 188 3.48528 188 1H187ZM183.5 4.5C181.567 4.5 180 2.933 180 1H179C179 3.48528 181.015 5.5 183.5 5.5V4.5ZM179 1C179 2.933 177.433 4.5 175.5 4.5V5.5C177.985 5.5 180 3.48528 180 1H179ZM207.5 4.5C205.567 4.5 204 2.933 204 1H203C203 3.48528 205.015 5.5 207.5 5.5V4.5ZM203 1C203 2.933 201.433 4.5 199.5 4.5V5.5C201.985 5.5 204 3.48528 204 1H203ZM199.5 4.5C197.567 4.5 196 2.933 196 1H195C195 3.48528 197.015 5.5 199.5 5.5V4.5ZM195 1C195 2.933 193.433 4.5 191.5 4.5V5.5C193.985 5.5 196 3.48528 196 1H195Z" fill="#737679"/>
</g>
<g clip-path="url(#clip13_31_373)">
<path d="M207.5 5.5C207.776 5.5 208 5.27614 208 5C208 4.72386 207.776 4.5 207.5 4.5V5.5ZM204 1C204 0.723858 203.776 0.5 203.5 0.5C203.224 0.5 203 0.723858 203 1H204ZM196 1C196 0.723858 195.776 0.5 195.5 0.5C195.224 0.5 195 0.723858 195 1H196ZM191.5 4.5C191.224 4.5 191 4.72386 191 5C191 5.27614 191.224 5.5 191.5 5.5V4.5ZM223.5 5.5C223.776 5.5 224 5.27614 224 5C224 4.72386 223.776 4.5 223.5 4.5V5.5ZM220 1C220 0.723858 219.776 0.5 219.5 0.5C219.224 0.5 219 0.723858 219 1H220ZM212 1C212 0.723858 211.776 0.5 211.5 0.5C211.224 0.5 211 0.723858 211 1H212ZM207.5 4.5C207.224 4.5 207 4.72386 207 5C207 5.27614 207.224 5.5 207.5 5.5V4.5ZM207.5 4.5C205.567 4.5 204 2.933 204 1H203C203 3.48528 205.015 5.5 207.5 5.5V4.5ZM203 1C203 2.933 201.433 4.5 199.5 4.5V5.5C201.985 5.5 204 3.48528 204 1H203ZM199.5 4.5C197.567 4.5 196 2.933 196 1H195C195 3.48528 197.015 5.5 199.5 5.5V4.5ZM195 1C195 2.933 193.433 4.5 191.5 4.5V5.5C193.985 5.5 196 3.48528 196 1H195ZM223.5 4.5C221.567 4.5 220 2.933 220 1H219C219 3.48528 221.015 5.5 223.5 5.5V4.5ZM219 1C219 2.933 217.433 4.5 215.5 4.5V5.5C217.985 5.5 220 3.48528 220 1H219ZM215.5 4.5C213.567 4.5 212 2.933 212 1H211C211 3.48528 213.015 5.5 215.5 5.5V4.5ZM211 1C211 2.933 209.433 4.5 207.5 4.5V5.5C209.985 5.5 212 3.48528 212 1H211Z" fill="#737679"/>
</g>
<g clip-path="url(#clip14_31_373)">
<path d="M223.5 5.5C223.776 5.5 224 5.27614 224 5C224 4.72386 223.776 4.5 223.5 4.5V5.5ZM220 1C220 0.723858 219.776 0.5 219.5 0.5C219.224 0.5 219 0.723858 219 1H220ZM212 1C212 0.723858 211.776 0.5 211.5 0.5C211.224 0.5 211 0.723858 211 1H212ZM207.5 4.5C207.224 4.5 207 4.72386 207 5C207 5.27614 207.224 5.5 207.5 5.5V4.5ZM239.5 5.5C239.776 5.5 240 5.27614 240 5C240 4.72386 239.776 4.5 239.5 4.5V5.5ZM236 1C236 0.723858 235.776 0.5 235.5 0.5C235.224 0.5 235 0.723858 235 1H236ZM228 1C228 0.723858 227.776 0.5 227.5 0.5C227.224 0.5 227 0.723858 227 1H228ZM223.5 4.5C223.224 4.5 223 4.72386 223 5C223 5.27614 223.224 5.5 223.5 5.5V4.5ZM223.5 4.5C221.567 4.5 220 2.933 220 1H219C219 3.48528 221.015 5.5 223.5 5.5V4.5ZM219 1C219 2.933 217.433 4.5 215.5 4.5V5.5C217.985 5.5 220 3.48528 220 1H219ZM215.5 4.5C213.567 4.5 212 2.933 212 1H211C211 3.48528 213.015 5.5 215.5 5.5V4.5ZM211 1C211 2.933 209.433 4.5 207.5 4.5V5.5C209.985 5.5 212 3.48528 212 1H211ZM239.5 4.5C237.567 4.5 236 2.933 236 1H235C235 3.48528 237.015 5.5 239.5 5.5V4.5ZM235 1C235 2.933 233.433 4.5 231.5 4.5V5.5C233.985 5.5 236 3.48528 236 1H235ZM231.5 4.5C229.567 4.5 228 2.933 228 1H227C227 3.48528 229.015 5.5 231.5 5.5V4.5ZM227 1C227 2.933 225.433 4.5 223.5 4.5V5.5C225.985 5.5 228 3.48528 228 1H227Z" fill="#737679"/>
</g>
<g clip-path="url(#clip15_31_373)">
<path d="M239.5 5.5C239.776 5.5 240 5.27614 240 5C240 4.72386 239.776 4.5 239.5 4.5V5.5ZM236 1C236 0.723858 235.776 0.5 235.5 0.5C235.224 0.5 235 0.723858 235 1H236ZM228 1C228 0.723858 227.776 0.5 227.5 0.5C227.224 0.5 227 0.723858 227 1H228ZM223.5 4.5C223.224 4.5 223 4.72386 223 5C223 5.27614 223.224 5.5 223.5 5.5V4.5ZM255.5 5.5C255.776 5.5 256 5.27614 256 5C256 4.72386 255.776 4.5 255.5 4.5V5.5ZM252 1C252 0.723858 251.776 0.5 251.5 0.5C251.224 0.5 251 0.723858 251 1H252ZM244 1C244 0.723858 243.776 0.5 243.5 0.5C243.224 0.5 243 0.723858 243 1H244ZM239.5 4.5C239.224 4.5 239 4.72386 239 5C239 5.27614 239.224 5.5 239.5 5.5V4.5ZM239.5 4.5C237.567 4.5 236 2.933 236 1H235C235 3.48528 237.015 5.5 239.5 5.5V4.5ZM235 1C235 2.933 233.433 4.5 231.5 4.5V5.5C233.985 5.5 236 3.48528 236 1H235ZM231.5 4.5C229.567 4.5 228 2.933 228 1H227C227 3.48528 229.015 5.5 231.5 5.5V4.5ZM227 1C227 2.933 225.433 4.5 223.5 4.5V5.5C225.985 5.5 228 3.48528 228 1H227ZM255.5 4.5C253.567 4.5 252 2.933 252 1H251C251 3.48528 253.015 5.5 255.5 5.5V4.5ZM251 1C251 2.933 249.433 4.5 247.5 4.5V5.5C249.985 5.5 252 3.48528 252 1H251ZM247.5 4.5C245.567 4.5 244 2.933 244 1H243C243 3.48528 245.015 5.5 247.5 5.5V4.5ZM243 1C243 2.933 241.433 4.5 239.5 4.5V5.5C241.985 5.5 244 3.48528 244 1H243Z" fill="#737679"/>
</g>
<g clip-path="url(#clip16_31_373)">
<path d="M255.5 5.5C255.776 5.5 256 5.27614 256 5C256 4.72386 255.776 4.5 255.5 4.5V5.5ZM252 1C252 0.723858 251.776 0.5 251.5 0.5C251.224 0.5 251 0.723858 251 1H252ZM244 1C244 0.723858 243.776 0.5 243.5 0.5C243.224 0.5 243 0.723858 243 1H244ZM239.5 4.5C239.224 4.5 239 4.72386 239 5C239 5.27614 239.224 5.5 239.5 5.5V4.5ZM271.5 5.5C271.776 5.5 272 5.27614 272 5C272 4.72386 271.776 4.5 271.5 4.5V5.5ZM268 1C268 0.723858 267.776 0.5 267.5 0.5C267.224 0.5 267 0.723858 267 1H268ZM260 1C260 0.723858 259.776 0.5 259.5 0.5C259.224 0.5 259 0.723858 259 1H260ZM255.5 4.5C255.224 4.5 255 4.72386 255 5C255 5.27614 255.224 5.5 255.5 5.5V4.5ZM255.5 4.5C253.567 4.5 252 2.933 252 1H251C251 3.48528 253.015 5.5 255.5 5.5V4.5ZM251 1C251 2.933 249.433 4.5 247.5 4.5V5.5C249.985 5.5 252 3.48528 252 1H251ZM247.5 4.5C245.567 4.5 244 2.933 244 1H243C243 3.48528 245.015 5.5 247.5 5.5V4.5ZM243 1C243 2.933 241.433 4.5 239.5 4.5V5.5C241.985 5.5 244 3.48528 244 1H243ZM271.5 4.5C269.567 4.5 268 2.933 268 1H267C267 3.48528 269.015 5.5 271.5 5.5V4.5ZM267 1C267 2.933 265.433 4.5 263.5 4.5V5.5C265.985 5.5 268 3.48528 268 1H267ZM263.5 4.5C261.567 4.5 260 2.933 260 1H259C259 3.48528 261.015 5.5 263.5 5.5V4.5ZM259 1C259 2.933 257.433 4.5 255.5 4.5V5.5C257.985 5.5 260 3.48528 260 1H259Z" fill="#737679"/>
</g>
<g clip-path="url(#clip17_31_373)">
<path d="M271.5 5.5C271.776 5.5 272 5.27614 272 5C272 4.72386 271.776 4.5 271.5 4.5V5.5ZM268 1C268 0.723858 267.776 0.5 267.5 0.5C267.224 0.5 267 0.723858 267 1H268ZM260 1C260 0.723858 259.776 0.5 259.5 0.5C259.224 0.5 259 0.723858 259 1H260ZM255.5 4.5C255.224 4.5 255 4.72386 255 5C255 5.27614 255.224 5.5 255.5 5.5V4.5ZM287.5 5.5C287.776 5.5 288 5.27614 288 5C288 4.72386 287.776 4.5 287.5 4.5V5.5ZM284 1C284 0.723858 283.776 0.5 283.5 0.5C283.224 0.5 283 0.723858 283 1H284ZM276 1C276 0.723858 275.776 0.5 275.5 0.5C275.224 0.5 275 0.723858 275 1H276ZM271.5 4.5C271.224 4.5 271 4.72386 271 5C271 5.27614 271.224 5.5 271.5 5.5V4.5ZM271.5 4.5C269.567 4.5 268 2.933 268 1H267C267 3.48528 269.015 5.5 271.5 5.5V4.5ZM267 1C267 2.933 265.433 4.5 263.5 4.5V5.5C265.985 5.5 268 3.48528 268 1H267ZM263.5 4.5C261.567 4.5 260 2.933 260 1H259C259 3.48528 261.015 5.5 263.5 5.5V4.5ZM259 1C259 2.933 257.433 4.5 255.5 4.5V5.5C257.985 5.5 260 3.48528 260 1H259ZM287.5 4.5C285.567 4.5 284 2.933 284 1H283C283 3.48528 285.015 5.5 287.5 5.5V4.5ZM283 1C283 2.933 281.433 4.5 279.5 4.5V5.5C281.985 5.5 284 3.48528 284 1H283ZM279.5 4.5C277.567 4.5 276 2.933 276 1H275C275 3.48528 277.015 5.5 279.5 5.5V4.5ZM275 1C275 2.933 273.433 4.5 271.5 4.5V5.5C273.985 5.5 276 3.48528 276 1H275Z" fill="#737679"/>
</g>
<g clip-path="url(#clip18_31_373)">
<path d="M287.5 5.5C287.776 5.5 288 5.27614 288 5C288 4.72386 287.776 4.5 287.5 4.5V5.5ZM284 1C284 0.723858 283.776 0.5 283.5 0.5C283.224 0.5 283 0.723858 283 1H284ZM276 1C276 0.723858 275.776 0.5 275.5 0.5C275.224 0.5 275 0.723858 275 1H276ZM271.5 4.5C271.224 4.5 271 4.72386 271 5C271 5.27614 271.224 5.5 271.5 5.5V4.5ZM303.5 5.5C303.776 5.5 304 5.27614 304 5C304 4.72386 303.776 4.5 303.5 4.5V5.5ZM300 1C300 0.723858 299.776 0.5 299.5 0.5C299.224 0.5 299 0.723858 299 1H300ZM292 1C292 0.723858 291.776 0.5 291.5 0.5C291.224 0.5 291 0.723858 291 1H292ZM287.5 4.5C287.224 4.5 287 4.72386 287 5C287 5.27614 287.224 5.5 287.5 5.5V4.5ZM287.5 4.5C285.567 4.5 284 2.933 284 1H283C283 3.48528 285.015 5.5 287.5 5.5V4.5ZM283 1C283 2.933 281.433 4.5 279.5 4.5V5.5C281.985 5.5 284 3.48528 284 1H283ZM279.5 4.5C277.567 4.5 276 2.933 276 1H275C275 3.48528 277.015 5.5 279.5 5.5V4.5ZM275 1C275 2.933 273.433 4.5 271.5 4.5V5.5C273.985 5.5 276 3.48528 276 1H275ZM303.5 4.5C301.567 4.5 300 2.933 300 1H299C299 3.48528 301.015 5.5 303.5 5.5V4.5ZM299 1C299 2.933 297.433 4.5 295.5 4.5V5.5C297.985 5.5 300 3.48528 300 1H299ZM295.5 4.5C293.567 4.5 292 2.933 292 1H291C291 3.48528 293.015 5.5 295.5 5.5V4.5ZM291 1C291 2.933 289.433 4.5 287.5 4.5V5.5C289.985 5.5 292 3.48528 292 1H291Z" fill="#737679"/>
</g>
<g clip-path="url(#clip19_31_373)">
<path d="M303.5 5.5C303.776 5.5 304 5.27614 304 5C304 4.72386 303.776 4.5 303.5 4.5V5.5ZM300 1C300 0.723858 299.776 0.5 299.5 0.5C299.224 0.5 299 0.723858 299 1H300ZM292 1C292 0.723858 291.776 0.5 291.5 0.5C291.224 0.5 291 0.723858 291 1H292ZM287.5 4.5C287.224 4.5 287 4.72386 287 5C287 5.27614 287.224 5.5 287.5 5.5V4.5ZM319.5 5.5C319.776 5.5 320 5.27614 320 5C320 4.72386 319.776 4.5 319.5 4.5V5.5ZM316 1C316 0.723858 315.776 0.5 315.5 0.5C315.224 0.5 315 0.723858 315 1H316ZM308 1C308 0.723858 307.776 0.5 307.5 0.5C307.224 0.5 307 0.723858 307 1H308ZM303.5 4.5C303.224 4.5 303 4.72386 303 5C303 5.27614 303.224 5.5 303.5 5.5V4.5ZM303.5 4.5C301.567 4.5 300 2.933 300 1H299C299 3.48528 301.015 5.5 303.5 5.5V4.5ZM299 1C299 2.933 297.433 4.5 295.5 4.5V5.5C297.985 5.5 300 3.48528 300 1H299ZM295.5 4.5C293.567 4.5 292 2.933 292 1H291C291 3.48528 293.015 5.5 295.5 5.5V4.5ZM291 1C291 2.933 289.433 4.5 287.5 4.5V5.5C289.985 5.5 292 3.48528 292 1H291ZM319.5 4.5C317.567 4.5 316 2.933 316 1H315C315 3.48528 317.015 5.5 319.5 5.5V4.5ZM315 1C315 2.933 313.433 4.5 311.5 4.5V5.5C313.985 5.5 316 3.48528 316 1H315ZM311.5 4.5C309.567 4.5 308 2.933 308 1H307C307 3.48528 309.015 5.5 311.5 5.5V4.5ZM307 1C307 2.933 305.433 4.5 303.5 4.5V5.5C305.985 5.5 308 3.48528 308 1H307Z" fill="#737679"/>
</g>
<g clip-path="url(#clip20_31_373)">
<path d="M319.5 5.5C319.776 5.5 320 5.27614 320 5C320 4.72386 319.776 4.5 319.5 4.5V5.5ZM316 1C316 0.723858 315.776 0.5 315.5 0.5C315.224 0.5 315 0.723858 315 1H316ZM308 1C308 0.723858 307.776 0.5 307.5 0.5C307.224 0.5 307 0.723858 307 1H308ZM303.5 4.5C303.224 4.5 303 4.72386 303 5C303 5.27614 303.224 5.5 303.5 5.5V4.5ZM335.5 5.5C335.776 5.5 336 5.27614 336 5C336 4.72386 335.776 4.5 335.5 4.5V5.5ZM332 1C332 0.723858 331.776 0.5 331.5 0.5C331.224 0.5 331 0.723858 331 1H332ZM324 1C324 0.723858 323.776 0.5 323.5 0.5C323.224 0.5 323 0.723858 323 1H324ZM319.5 4.5C319.224 4.5 319 4.72386 319 5C319 5.27614 319.224 5.5 319.5 5.5V4.5ZM319.5 4.5C317.567 4.5 316 2.933 316 1H315C315 3.48528 317.015 5.5 319.5 5.5V4.5ZM315 1C315 2.933 313.433 4.5 311.5 4.5V5.5C313.985 5.5 316 3.48528 316 1H315ZM311.5 4.5C309.567 4.5 308 2.933 308 1H307C307 3.48528 309.015 5.5 311.5 5.5V4.5ZM307 1C307 2.933 305.433 4.5 303.5 4.5V5.5C305.985 5.5 308 3.48528 308 1H307ZM335.5 4.5C333.567 4.5 332 2.933 332 1H331C331 3.48528 333.015 5.5 335.5 5.5V4.5ZM331 1C331 2.933 329.433 4.5 327.5 4.5V5.5C329.985 5.5 332 3.48528 332 1H331ZM327.5 4.5C325.567 4.5 324 2.933 324 1H323C323 3.48528 325.015 5.5 327.5 5.5V4.5ZM323 1C323 2.933 321.433 4.5 319.5 4.5V5.5C321.985 5.5 324 3.48528 324 1H323Z" fill="#737679"/>
</g>
<g clip-path="url(#clip21_31_373)">
<path d="M335.5 5.5C335.776 5.5 336 5.27614 336 5C336 4.72386 335.776 4.5 335.5 4.5V5.5ZM332 1C332 0.723858 331.776 0.5 331.5 0.5C331.224 0.5 331 0.723858 331 1H332ZM324 1C324 0.723858 323.776 0.5 323.5 0.5C323.224 0.5 323 0.723858 323 1H324ZM319.5 4.5C319.224 4.5 319 4.72386 319 5C319 5.27614 319.224 5.5 319.5 5.5V4.5ZM351.5 5.5C351.776 5.5 352 5.27614 352 5C352 4.72386 351.776 4.5 351.5 4.5V5.5ZM348 1C348 0.723858 347.776 0.5 347.5 0.5C347.224 0.5 347 0.723858 347 1H348ZM340 1C340 0.723858 339.776 0.5 339.5 0.5C339.224 0.5 339 0.723858 339 1H340ZM335.5 4.5C335.224 4.5 335 4.72386 335 5C335 5.27614 335.224 5.5 335.5 5.5V4.5ZM335.5 4.5C333.567 4.5 332 2.933 332 1H331C331 3.48528 333.015 5.5 335.5 5.5V4.5ZM331 1C331 2.933 329.433 4.5 327.5 4.5V5.5C329.985 5.5 332 3.48528 332 1H331ZM327.5 4.5C325.567 4.5 324 2.933 324 1H323C323 3.48528 325.015 5.5 327.5 5.5V4.5ZM323 1C323 2.933 321.433 4.5 319.5 4.5V5.5C321.985 5.5 324 3.48528 324 1H323ZM351.5 4.5C349.567 4.5 348 2.933 348 1H347C347 3.48528 349.015 5.5 351.5 5.5V4.5ZM347 1C347 2.933 345.433 4.5 343.5 4.5V5.5C345.985 5.5 348 3.48528 348 1H347ZM343.5 4.5C341.567 4.5 340 2.933 340 1H339C339 3.48528 341.015 5.5 343.5 5.5V4.5ZM339 1C339 2.933 337.433 4.5 335.5 4.5V5.5C337.985 5.5 340 3.48528 340 1H339Z" fill="#737679"/>
</g>
</g>
<defs>
<clipPath id="clip0_31_373">
<rect width="335" height="6" fill="white"/>
</clipPath>
<clipPath id="clip1_31_373">
<rect width="16" height="6" fill="white" transform="translate(-0.5)"/>
</clipPath>
<clipPath id="clip2_31_373">
<rect width="16" height="6" fill="white" transform="translate(15.5)"/>
</clipPath>
<clipPath id="clip3_31_373">
<rect width="16" height="6" fill="white" transform="translate(31.5)"/>
</clipPath>
<clipPath id="clip4_31_373">
<rect width="16" height="6" fill="white" transform="translate(47.5)"/>
</clipPath>
<clipPath id="clip5_31_373">
<rect width="16" height="6" fill="white" transform="translate(63.5)"/>
</clipPath>
<clipPath id="clip6_31_373">
<rect width="16" height="6" fill="white" transform="translate(79.5)"/>
</clipPath>
<clipPath id="clip7_31_373">
<rect width="16" height="6" fill="white" transform="translate(95.5)"/>
</clipPath>
<clipPath id="clip8_31_373">
<rect width="16" height="6" fill="white" transform="translate(111.5)"/>
</clipPath>
<clipPath id="clip9_31_373">
<rect width="16" height="6" fill="white" transform="translate(127.5)"/>
</clipPath>
<clipPath id="clip10_31_373">
<rect width="16" height="6" fill="white" transform="translate(143.5)"/>
</clipPath>
<clipPath id="clip11_31_373">
<rect width="16" height="6" fill="white" transform="translate(159.5)"/>
</clipPath>
<clipPath id="clip12_31_373">
<rect width="16" height="6" fill="white" transform="translate(175.5)"/>
</clipPath>
<clipPath id="clip13_31_373">
<rect width="16" height="6" fill="white" transform="translate(191.5)"/>
</clipPath>
<clipPath id="clip14_31_373">
<rect width="16" height="6" fill="white" transform="translate(207.5)"/>
</clipPath>
<clipPath id="clip15_31_373">
<rect width="16" height="6" fill="white" transform="translate(223.5)"/>
</clipPath>
<clipPath id="clip16_31_373">
<rect width="16" height="6" fill="white" transform="translate(239.5)"/>
</clipPath>
<clipPath id="clip17_31_373">
<rect width="16" height="6" fill="white" transform="translate(255.5)"/>
</clipPath>
<clipPath id="clip18_31_373">
<rect width="16" height="6" fill="white" transform="translate(271.5)"/>
</clipPath>
<clipPath id="clip19_31_373">
<rect width="16" height="6" fill="white" transform="translate(287.5)"/>
</clipPath>
<clipPath id="clip20_31_373">
<rect width="16" height="6" fill="white" transform="translate(303.5)"/>
</clipPath>
<clipPath id="clip21_31_373">
<rect width="16" height="6" fill="white" transform="translate(319.5)"/>
</clipPath>
</defs>
</svg>
