<svg width="16" height="6" viewBox="0 0 16 6" fill="none" xmlns="http://www.w3.org/2000/svg">
<g clip-path="url(#clip0_31_374)">
<path d="M15.5 5.5C15.7761 5.5 16 5.27614 16 5C16 4.72386 15.7761 4.5 15.5 4.5V5.5ZM12 1C12 0.723858 11.7761 0.5 11.5 0.5C11.2239 0.5 11 0.723858 11 1H12ZM4 1C4 0.723858 3.77614 0.5 3.5 0.5C3.22386 0.5 3 0.723858 3 1H4ZM-0.5 4.5C-0.776142 4.5 -1 4.72386 -1 5C-1 5.27614 -0.776142 5.5 -0.5 5.5V4.5ZM31.5 5.5C31.7761 5.5 32 5.27614 32 5C32 4.72386 31.7761 4.5 31.5 4.5V5.5ZM28 1C28 0.723858 27.7761 0.5 27.5 0.5C27.2239 0.5 27 0.723858 27 1H28ZM20 1C20 0.723858 19.7761 0.5 19.5 0.5C19.2239 0.5 19 0.723858 19 1H20ZM15.5 4.5C15.2239 4.5 15 4.72386 15 5C15 5.27614 15.2239 5.5 15.5 5.5V4.5ZM15.5 4.5C13.567 4.5 12 2.933 12 1H11C11 3.48528 13.0147 5.5 15.5 5.5V4.5ZM11 1C11 2.933 9.433 4.5 7.5 4.5V5.5C9.98528 5.5 12 3.48528 12 1H11ZM7.5 4.5C5.567 4.5 4 2.933 4 1H3C3 3.48528 5.01472 5.5 7.5 5.5V4.5ZM3 1C3 2.933 1.433 4.5 -0.5 4.5V5.5C1.98528 5.5 4 3.48528 4 1H3ZM31.5 4.5C29.567 4.5 28 2.933 28 1H27C27 3.48528 29.0147 5.5 31.5 5.5V4.5ZM27 1C27 2.933 25.433 4.5 23.5 4.5V5.5C25.9853 5.5 28 3.48528 28 1H27ZM23.5 4.5C21.567 4.5 20 2.933 20 1H19C19 3.48528 21.0147 5.5 23.5 5.5V4.5ZM19 1C19 2.933 17.433 4.5 15.5 4.5V5.5C17.9853 5.5 20 3.48528 20 1H19Z" fill="#737679"/>
</g>
<defs>
<clipPath id="clip0_31_374">
<rect width="16" height="6" fill="white" transform="translate(-0.5)"/>
</clipPath>
</defs>
</svg>
